<svg width="33" height="31" viewBox="0 0 33 31" fill="none" xmlns="http://www.w3.org/2000/svg">
<path d="M7.75 2.92188H29.625V4.01562H7.75V2.92188Z" fill="black" fill-opacity="0.76"/>
<path d="M10.4844 15.5C10.4844 15.1755 10.3882 14.8583 10.2079 14.5885C10.0276 14.3187 9.77138 14.1084 9.47159 13.9843C9.17181 13.8601 8.84193 13.8276 8.52368 13.8909C8.20543 13.9542 7.9131 14.1105 7.68365 14.3399C7.45421 14.5693 7.29795 14.8617 7.23465 15.1799C7.17135 15.4982 7.20384 15.8281 7.32801 16.1278C7.45219 16.4276 7.66247 16.6839 7.93227 16.8641C8.20207 17.0444 8.51927 17.1406 8.84375 17.1406C9.27887 17.1406 9.69617 16.9678 10.0038 16.6601C10.3115 16.3524 10.4844 15.9351 10.4844 15.5ZM8.84375 16.0469C8.73559 16.0469 8.62986 16.0148 8.53992 15.9547C8.44999 15.8946 8.3799 15.8092 8.3385 15.7093C8.29711 15.6094 8.28628 15.4994 8.30738 15.3933C8.32849 15.2872 8.38057 15.1898 8.45705 15.1133C8.53353 15.0368 8.63098 14.9847 8.73706 14.9636C8.84314 14.9425 8.9531 14.9534 9.05303 14.9948C9.15296 15.0361 9.23837 15.1062 9.29846 15.1962C9.35855 15.2861 9.39063 15.3918 9.39063 15.5C9.39063 15.645 9.33301 15.7841 9.23045 15.8867C9.12789 15.9893 8.98879 16.0469 8.84375 16.0469Z" fill="black" fill-opacity="0.76"/>
<path d="M26.8906 20.9688H25.7969V23.7031H23.0625V24.7969H25.7969V27.5312H26.8906V24.7969H29.625V23.7031H26.8906V20.9688Z" fill="black" fill-opacity="0.76"/>
<path d="M29.625 0.734375H5.5625C5.41746 0.734375 5.27836 0.791992 5.1758 0.894551C5.07324 0.99711 5.01562 1.13621 5.01562 1.28125V5.10938H3.375C3.22996 5.10938 3.09086 5.16699 2.9883 5.26955C2.88574 5.37211 2.82812 5.51121 2.82812 5.65625V11.6719H2.28125C1.84613 11.6719 1.42883 11.8447 1.12115 12.1524C0.813476 12.4601 0.640625 12.8774 0.640625 13.3125V17.6875C0.640625 18.1226 0.813476 18.5399 1.12115 18.8476C1.42883 19.1553 1.84613 19.3281 2.28125 19.3281H2.82812V25.3438C2.82812 25.4888 2.88574 25.6279 2.9883 25.7304C3.09086 25.833 3.22996 25.8906 3.375 25.8906H20.5611C20.9566 27.2873 21.8441 28.4938 23.0597 29.2873C24.2752 30.0809 25.7368 30.4078 27.1746 30.2079C28.6125 30.0079 29.9294 29.2946 30.8824 28.1995C31.8353 27.1045 32.3599 25.7016 32.3594 24.25C32.3583 24.0215 32.3444 23.7933 32.3178 23.5664C32.342 23.4309 32.3559 23.2938 32.3594 23.1562V3.46875C32.3585 2.74382 32.0701 2.04882 31.5575 1.53621C31.0449 1.02361 30.3499 0.735243 29.625 0.734375ZM1.73438 17.6875V13.3125C1.73438 13.1675 1.79199 13.0284 1.89455 12.9258C1.99711 12.8232 2.13621 12.7656 2.28125 12.7656H9.9375C10.3726 12.7656 10.7899 12.9385 11.0976 13.2462C11.4053 13.5538 11.5781 13.9711 11.5781 14.4062V16.5938C11.5781 17.0289 11.4053 17.4462 11.0976 17.7538C10.7899 18.0615 10.3726 18.2344 9.9375 18.2344H2.28125C2.13621 18.2344 1.99711 18.1768 1.89455 18.0742C1.79199 17.9716 1.73438 17.8325 1.73438 17.6875ZM26.3438 29.1719C25.3703 29.1719 24.4187 28.8832 23.6093 28.3424C22.7999 27.8016 22.1691 27.0329 21.7965 26.1335C21.424 25.2342 21.3265 24.2445 21.5164 23.2898C21.7064 22.335 22.1751 21.458 22.8635 20.7697C23.5518 20.0814 24.4288 19.6126 25.3835 19.4227C26.3383 19.2328 27.3279 19.3303 28.2273 19.7028C29.1266 20.0753 29.8953 20.7062 30.4361 21.5156C30.977 22.3249 31.2656 23.2765 31.2656 24.25C31.2642 25.5549 30.7452 26.806 29.8224 27.7287C28.8997 28.6514 27.6487 29.1704 26.3438 29.1719ZM26.3438 18.2344C24.7489 18.2363 23.2199 18.8706 22.0921 19.9984C20.9644 21.1261 20.33 22.6551 20.3281 24.25C20.3281 24.4348 20.3396 24.6164 20.356 24.7969H3.92188V19.3281H9.9375C10.6624 19.3273 11.3574 19.0389 11.87 18.5263C12.3826 18.0137 12.671 17.3187 12.6719 16.5938V14.4062C12.671 13.6813 12.3826 12.9863 11.87 12.4737C11.3574 11.9611 10.6624 11.6727 9.9375 11.6719H3.92188V6.20312H29.625C30.2168 6.2042 30.7928 6.01219 31.2656 5.65625V20.8047C30.7124 20.012 29.9761 19.3645 29.1193 18.9171C28.2625 18.4696 27.3104 18.2354 26.3438 18.2344ZM29.625 5.10938H6.10938V1.82812H29.625C30.0601 1.82812 30.4774 2.00098 30.7851 2.30865C31.0928 2.61633 31.2656 3.03363 31.2656 3.46875C31.2656 3.90387 31.0928 4.32117 30.7851 4.62885C30.4774 4.93652 30.0601 5.10938 29.625 5.10938Z" fill="black" fill-opacity="0.76"/>
</svg>
