<svg width="20" height="20" viewBox="0 0 20 20" fill="none" xmlns="http://www.w3.org/2000/svg">
<path d="M3.55647 14.9384C3.55647 15.4541 4.03484 15.8751 4.62341 15.8751H5.84313V18.5289C5.84313 19.2012 6.45675 19.75 7.21062 19.75C7.967 19.75 8.57811 19.2034 8.57811 18.5289V15.8729H10.707V18.5267C10.707 19.199 11.3206 19.7478 12.0745 19.7478C12.8308 19.7478 13.442 19.2012 13.442 18.5267V15.8729H14.6617C15.2502 15.8729 15.7286 15.4519 15.7286 14.9362V6.22538H3.55647V14.9384V14.9384ZM12.5002 1.71129L13.6248 0.278601C13.6899 0.194844 13.6749 0.0824322 13.5872 0.0273286C13.4996 -0.0255708 13.3743 0.000879034 13.3092 0.0846365L12.1421 1.57464C11.3732 1.30794 10.5166 1.16026 9.6175 1.16026C8.71836 1.16026 7.8618 1.30794 7.09291 1.57464L5.92578 0.0868406C5.86066 0.00308314 5.73544 -0.0255707 5.64778 0.0295329C5.56012 0.0824323 5.54509 0.192639 5.61021 0.280805L6.73475 1.7135C4.9465 2.44527 3.69422 3.83168 3.53393 5.45172H15.7061C15.5408 3.82948 14.286 2.44307 12.5002 1.71129V1.71129ZM7.04782 3.97054C6.91457 3.97054 6.78432 3.93577 6.67352 3.87062C6.56273 3.80547 6.47638 3.71287 6.42538 3.60452C6.37439 3.49618 6.36105 3.37697 6.38704 3.26195C6.41304 3.14694 6.47721 3.04129 6.57143 2.95837C6.66565 2.87545 6.7857 2.81898 6.91639 2.7961C7.04708 2.77323 7.18254 2.78497 7.30565 2.82984C7.42875 2.87472 7.53398 2.95072 7.60801 3.04822C7.68204 3.14572 7.72155 3.26036 7.72155 3.37763C7.72109 3.53475 7.64996 3.68533 7.52371 3.79643C7.39746 3.90753 7.22636 3.97013 7.04782 3.97054V3.97054ZM12.2673 3.97054C12.1341 3.97054 12.0038 3.93577 11.893 3.87062C11.7822 3.80547 11.6959 3.71287 11.6449 3.60452C11.5939 3.49618 11.5805 3.37697 11.6065 3.26195C11.6325 3.14694 11.6967 3.04129 11.7909 2.95837C11.8851 2.87545 12.0052 2.81898 12.1359 2.7961C12.2666 2.77323 12.402 2.78497 12.5251 2.82984C12.6483 2.87472 12.7535 2.95072 12.8275 3.04822C12.9015 3.14572 12.941 3.26036 12.941 3.37763C12.9406 3.53475 12.8695 3.68533 12.7432 3.79643C12.617 3.90753 12.4459 3.97013 12.2673 3.97054ZM17.8625 6.19011C17.1061 6.19011 16.495 6.73674 16.495 7.41121V12.181C16.495 12.8532 17.1086 13.4021 17.8625 13.4021C18.6189 13.4021 19.23 12.8554 19.23 12.181V7.409C19.2325 6.73454 18.6214 6.19011 17.8625 6.19011ZM1.36749 6.19011C0.611112 6.19011 0 6.73674 0 7.41121V12.181C0 12.8532 0.613616 13.4021 1.36749 13.4021C2.12386 13.4021 2.73498 12.8554 2.73498 12.181V7.409C2.73498 6.73454 2.12136 6.19011 1.36749 6.19011Z" fill="white"/>
</svg>
