<svg width="28" height="29" viewBox="0 0 28 29" fill="none" xmlns="http://www.w3.org/2000/svg">
<path d="M20.3948 28.5387C20.7666 28.5408 21.1351 28.4689 21.4788 28.3271C21.8225 28.1853 22.1345 27.9765 22.3966 27.7128L26.1902 23.9192C26.4509 23.6569 26.5973 23.3021 26.5973 22.9323C26.5973 22.5625 26.4509 22.2077 26.1902 21.9454L20.5908 16.346C20.3285 16.0853 19.9737 15.9389 19.6039 15.9389C19.2341 15.9389 18.8793 16.0853 18.617 16.346L16.3772 18.5718C14.8266 18.1583 13.3904 17.3971 12.1777 16.346C11.1294 15.1314 10.3686 13.6959 9.95192 12.1464L12.1777 9.90668C12.4384 9.6444 12.5847 9.2896 12.5847 8.91978C12.5847 8.54996 12.4384 8.19517 12.1777 7.93289L6.57828 2.33348C6.316 2.07276 5.9612 1.92642 5.59138 1.92642C5.22156 1.92642 4.86677 2.07276 4.60449 2.33348L0.824891 6.14108C0.561203 6.40319 0.352364 6.71519 0.210561 7.05889C0.0687578 7.40258 -0.00316895 7.77107 -0.00102141 8.14286C0.125977 13.5215 2.27524 18.6547 6.01834 22.5193C9.88293 26.2624 15.0162 28.4117 20.3948 28.5387ZM5.59838 5.31517L9.224 8.94078L7.41819 10.7466C7.24716 10.9068 7.11908 11.1074 7.04571 11.3299C6.97233 11.5525 6.95601 11.7899 6.99823 12.0205C7.52145 14.3587 8.62921 16.5261 10.2179 18.3198C12.0102 19.9105 14.1781 21.0185 16.5172 21.5394C16.7442 21.5869 16.9795 21.5772 17.2019 21.5112C17.4242 21.4453 17.6267 21.3251 17.7911 21.1615L19.5969 19.3137L23.2225 22.9393L20.4228 25.739C15.7805 25.6195 11.3511 23.7668 8.00613 20.5455C4.77655 17.1992 2.91852 12.7639 2.79868 8.11487L5.59838 5.31517ZM25.1963 13.1403H27.996C28.0323 11.4759 27.7312 9.82137 27.1109 8.27642C26.4906 6.73147 25.564 5.32811 24.3868 4.1509C23.2096 2.9737 21.8062 2.04703 20.2613 1.42673C18.7163 0.806442 17.0618 0.505374 15.3973 0.541674V3.34138C16.6963 3.29644 17.9906 3.51917 19.1997 3.99571C20.4089 4.47226 21.5072 5.19243 22.4262 6.11146C23.3452 7.03049 24.0654 8.12873 24.542 9.33792C25.0185 10.5471 25.2412 11.8414 25.1963 13.1403Z" fill="#81DE76"/>
<path d="M15.3973 8.94077C18.337 8.94077 19.5969 10.2006 19.5969 13.1403H22.3966C22.3966 8.63281 19.9049 6.14107 15.3973 6.14107V8.94077Z" fill="#81DE76"/>
</svg>
