<svg width="30" height="31" viewBox="0 0 30 31"  xmlns="http://www.w3.org/2000/svg">
<path d="M7.56048 0.793518C7.23687 0.793518 6.97449 1.05596 6.97449 1.37951C6.97449 1.70313 7.23687 1.96551 7.56048 1.96551C10.8706 1.96551 13.5636 4.72838 13.5636 8.12459C13.5636 8.44821 13.826 8.71059 14.1496 8.71059C14.4732 8.71059 14.7356 8.44815 14.7356 8.12459C14.7356 4.08221 11.5169 0.793518 7.56048 0.793518Z"/>
<path d="M7.55847 3.57362C7.23486 3.57362 6.97247 3.83606 6.97247 4.15962C6.97247 4.48323 7.23486 4.74561 7.55847 4.74561C9.37107 4.74561 10.8457 6.26137 10.8457 8.12448C10.8457 8.44809 11.1081 8.71047 11.4317 8.71047C11.7553 8.71047 12.0177 8.44803 12.0177 8.12448C12.0177 5.61514 10.0173 3.57362 7.55847 3.57362Z" />
<path d="M7.56988 6.13463C7.24621 6.13463 6.98389 6.39695 6.98389 6.72062C6.98389 7.04424 7.24633 7.30662 7.56988 7.30662C7.99334 7.30662 8.33775 7.66545 8.33775 8.10654C8.33775 8.43016 8.60014 8.69254 8.92375 8.69254C9.24736 8.69254 9.50975 8.4301 9.50975 8.10654C9.50981 7.01922 8.63951 6.13463 7.56988 6.13463Z" />
<path d="M26.8642 5.43794H25.5652C25.2416 5.43794 24.9792 5.70033 24.9792 6.02394C24.9792 6.34755 25.2416 6.60993 25.5652 6.60993H26.8642C27.9467 6.60993 28.8273 7.4906 28.8273 8.57306V16.5277C28.8273 17.151 28.535 17.7068 28.0807 18.0667V16.5343C28.0807 15.3387 27.2277 14.3118 26.0524 14.0926L25.6736 14.022C25.7581 13.7631 25.8043 13.4871 25.8043 13.2003V11.8537C25.8043 10.3895 24.6131 9.19825 23.1489 9.19825C21.6847 9.19825 20.4935 10.3895 20.4935 11.8537V13.2003C20.4935 13.4871 20.5398 13.7631 20.6243 14.022L20.2455 14.0926C19.0701 14.3118 18.2171 15.3386 18.2171 16.5343V18.2331C17.6249 17.8947 17.2245 17.2572 17.2245 16.5277V8.57306C17.2245 7.4906 18.1051 6.60993 19.1876 6.60993H20.5842C20.9079 6.60993 21.1702 6.34755 21.1702 6.02394C21.1702 5.70033 20.9078 5.43794 20.5842 5.43794H19.1876C17.4589 5.43794 16.0525 6.84437 16.0525 8.57306V16.5277C16.0525 18.2564 17.4589 19.6628 19.1876 19.6628H22.1364V21.3477C22.1364 21.5843 22.2788 21.7978 22.4973 21.8887C22.57 21.919 22.6465 21.9337 22.7223 21.9337C22.8741 21.9337 23.0235 21.8746 23.1355 21.7634L25.2493 19.6628H26.8642C28.5929 19.6628 29.9993 18.2564 29.9993 16.5277V8.57306C29.9993 6.84437 28.5929 5.43794 26.8642 5.43794ZM21.6655 11.8537C21.6655 11.0357 22.3309 10.3702 23.1488 10.3702C23.9668 10.3702 24.6323 11.0357 24.6323 11.8537V13.2003C24.6323 14.0182 23.9668 14.6837 23.1488 14.6837C22.3309 14.6837 21.6655 14.0182 21.6655 13.2003V11.8537ZM26.9086 18.4896C26.8937 18.4899 26.879 18.4907 26.8641 18.4907H25.0077C24.8529 18.4907 24.7044 18.552 24.5946 18.6611L23.3084 19.9393V19.0768C23.3084 18.7531 23.0459 18.4908 22.7224 18.4908H19.3892V16.5342C19.3892 15.9028 19.8397 15.3605 20.4603 15.2447L21.2864 15.0907C21.7661 15.5634 22.4239 15.8556 23.1489 15.8556C23.8739 15.8556 24.5318 15.5632 25.0114 15.0906L25.8376 15.2447C26.4583 15.3604 26.9087 15.9027 26.9087 16.5342L26.9086 18.4896Z" />
<path d="M23.2058 5.60988C23.0968 5.50031 22.9456 5.4382 22.7915 5.4382C22.6374 5.4382 22.4862 5.50031 22.3772 5.60988C22.2682 5.71834 22.2055 5.86957 22.2055 6.0242C22.2055 6.1783 22.2681 6.32953 22.3772 6.43851C22.4862 6.54744 22.6373 6.61019 22.7915 6.61019C22.9456 6.61019 23.0968 6.5475 23.2058 6.43851C23.3147 6.32894 23.3775 6.17836 23.3775 6.0242C23.3775 5.86951 23.3148 5.71887 23.2058 5.60988Z" />
<path d="M10.8909 20.5066C10.7819 20.3976 10.6313 20.3349 10.4766 20.3349C10.3225 20.3349 10.1712 20.3976 10.0623 20.5066C9.95332 20.6156 9.89056 20.7668 9.89056 20.9209C9.89056 21.0756 9.95326 21.2263 10.0623 21.3353C10.1718 21.4448 10.3225 21.5075 10.4766 21.5075C10.6307 21.5075 10.7819 21.4448 10.8909 21.3353C11.0004 21.2263 11.0626 21.0756 11.0626 20.9209C11.0626 20.7668 11.0004 20.6157 10.8909 20.5066Z" />
<path d="M23.7175 25.8054L19.228 21.3159C18.6304 20.7183 17.6902 20.6308 16.9927 21.1078L14.1273 23.0671C13.8948 23.2261 13.5815 23.1969 13.3822 22.9977L12.4347 22.0501C12.206 21.8214 11.835 21.8213 11.6059 22.0501C11.3771 22.2789 11.3771 22.6499 11.6059 22.8789L12.5534 23.8265C13.1511 24.4241 14.0912 24.5117 14.7888 24.0345L17.6541 22.0753C17.8866 21.9164 18.1999 21.9454 18.3992 22.1447L22.8887 26.6342C23.1172 26.8626 23.1171 27.2345 22.8887 27.463C20.0098 30.3419 15.3256 30.3419 12.4467 27.463L3.3306 18.3468C1.93595 16.9522 1.16802 15.0981 1.16802 13.1258C1.16802 11.1535 1.93601 9.29933 3.33066 7.90468C3.44134 7.794 3.58847 7.73312 3.74498 7.73312C3.90154 7.73312 4.04873 7.79406 4.15935 7.90474L8.6488 12.3943C8.84796 12.5934 8.87714 12.9068 8.71824 13.1393L6.7591 16.0047C6.28197 16.7022 6.36951 17.6423 6.9671 18.24L8.3914 19.6643C8.62027 19.8931 8.99123 19.8931 9.22021 19.6643C9.44902 19.4355 9.44902 19.0644 9.22021 18.8355L7.79591 17.4112C7.59675 17.2121 7.56757 16.8987 7.72654 16.6662L9.68574 13.8009C10.1627 13.1032 10.0752 12.1631 9.47761 11.5655L4.98816 7.07599C4.30273 6.39056 3.1874 6.39056 2.50185 7.07599C-0.83395 10.4119 -0.83395 15.8397 2.50185 19.1755L11.618 28.2916C13.2859 29.9595 15.4768 30.7935 17.6677 30.7935C19.8586 30.7935 22.0495 29.9595 23.7174 28.2916C24.4028 27.6062 24.4028 26.4909 23.7175 25.8054Z" />
<path d="M7.89384 15.2029L4.34154 11.6506C4.11261 11.4218 3.74166 11.4218 3.51273 11.6506C3.28392 11.8794 3.28392 12.2505 3.51273 12.4794L7.06509 16.0317C7.17952 16.146 7.32941 16.2033 7.47946 16.2033C7.62941 16.2033 7.77941 16.146 7.89384 16.0317C8.12265 15.8028 8.12265 15.4317 7.89384 15.2029Z" />
<path d="M21.4895 28.7985L17.7519 25.0609C17.523 24.8321 17.152 24.8321 16.9231 25.0609C16.6943 25.2897 16.6943 25.6608 16.9231 25.8897L20.6607 29.6273C20.7751 29.7417 20.925 29.7989 21.0751 29.7989C21.225 29.7989 21.375 29.7417 21.4895 29.6273C21.7183 29.3984 21.7183 29.0274 21.4895 28.7985Z"/>
</svg>
