<svg width="34" height="26" viewBox="0 0 34 26" fill="none" xmlns="http://www.w3.org/2000/svg">
<path d="M20.9888 2.18686C21.5413 2.18686 22.0712 2.40636 22.4619 2.79706C22.8526 3.18776 23.0721 3.71766 23.0721 4.2702V20.9369C23.0721 21.4894 22.8526 22.0193 22.4619 22.41C22.0712 22.8007 21.5413 23.0202 20.9888 23.0202H12.6554C12.1029 23.0202 11.573 22.8007 11.1823 22.41C10.7916 22.0193 10.5721 21.4894 10.5721 20.9369V4.2702C10.5721 3.71766 10.7916 3.18776 11.1823 2.79706C11.573 2.40636 12.1029 2.18686 12.6554 2.18686H20.9888ZM12.6554 0.103531C11.5504 0.103531 10.4906 0.542518 9.70916 1.32392C8.92776 2.10532 8.48877 3.16513 8.48877 4.2702V20.9369C8.48877 22.0419 8.92776 23.1017 9.70916 23.8831C10.4906 24.6645 11.5504 25.1035 12.6554 25.1035H20.9888C22.0938 25.1035 23.1537 24.6645 23.9351 23.8831C24.7165 23.1017 25.1554 22.0419 25.1554 20.9369V4.2702C25.1554 3.16513 24.7165 2.10532 23.9351 1.32392C23.1537 0.542518 22.0938 0.103531 20.9888 0.103531H12.6554Z" fill="#A26AFF"/>
<path d="M16.8221 20.9369C17.3746 20.9369 17.9045 20.7174 18.2952 20.3267C18.6859 19.936 18.9054 19.4061 18.9054 18.8535C18.9054 18.301 18.6859 17.7711 18.2952 17.3804C17.9045 16.9897 17.3746 16.7702 16.8221 16.7702C16.2695 16.7702 15.7396 16.9897 15.3489 17.3804C14.9582 17.7711 14.7387 18.301 14.7387 18.8535C14.7387 19.4061 14.9582 19.936 15.3489 20.3267C15.7396 20.7174 16.2695 20.9369 16.8221 20.9369ZM3.48666 4.39103C3.60761 4.45503 3.71477 4.54222 3.80201 4.64764C3.88925 4.75306 3.95486 4.87464 3.9951 5.00542C4.03535 5.13621 4.04942 5.27364 4.03654 5.40987C4.02365 5.54609 3.98405 5.67845 3.92 5.79937C2.81217 7.89603 2.23493 10.2322 2.23875 12.6035C2.23875 15.0619 2.84708 17.3785 3.92 19.4077C4.04929 19.6519 4.07627 19.9375 3.99501 20.2016C3.91374 20.4657 3.73088 20.6867 3.48666 20.816C3.24244 20.9453 2.95686 20.9723 2.69275 20.891C2.42864 20.8098 2.20762 20.6269 2.07833 20.3827C0.811712 17.9856 0.151505 15.3147 0.155413 12.6035C0.155413 9.79728 0.851246 7.14728 2.07833 4.82437C2.14232 4.70342 2.22952 4.59626 2.33494 4.50902C2.44036 4.42178 2.56193 4.35617 2.69272 4.31592C2.8235 4.27568 2.96094 4.2616 3.09716 4.27449C3.23339 4.28738 3.36574 4.32698 3.48666 4.39103ZM30.1575 4.39103C30.2784 4.32698 30.4108 4.28738 30.547 4.27449C30.6832 4.2616 30.8207 4.27568 30.9514 4.31592C31.0822 4.35617 31.2038 4.42178 31.3092 4.50902C31.4146 4.59626 31.5018 4.70342 31.5658 4.82437C32.8325 7.22145 33.4927 9.89235 33.4887 12.6035C33.4927 15.3147 32.8325 17.9856 31.5658 20.3827C31.4365 20.6269 31.2155 20.8098 30.9514 20.891C30.6873 20.9723 30.4017 20.9453 30.1575 20.816C29.9133 20.6867 29.7304 20.4657 29.6492 20.2016C29.5679 19.9375 29.5949 19.6519 29.7242 19.4077C30.832 17.311 31.4092 14.9749 31.4054 12.6035C31.4054 10.1452 30.7971 7.82853 29.7242 5.79937C29.6601 5.67845 29.6205 5.54609 29.6076 5.40987C29.5947 5.27364 29.6088 5.13621 29.6491 5.00542C29.6893 4.87464 29.7549 4.75306 29.8422 4.64764C29.9294 4.54222 30.0366 4.45503 30.1575 4.39103ZM6.52416 7.46603C6.6517 7.51576 6.76819 7.59014 6.86696 7.68492C6.96574 7.7797 7.04486 7.89302 7.09981 8.0184C7.15476 8.14378 7.18446 8.27876 7.18721 8.41562C7.18996 8.55248 7.1657 8.68855 7.11583 8.81603C6.64487 10.0232 6.40392 11.3078 6.40541 12.6035C6.40541 13.941 6.65541 15.2181 7.11375 16.391C7.17188 16.5198 7.20322 16.659 7.20586 16.8003C7.20849 16.9415 7.18237 17.0818 7.12908 17.2126C7.07579 17.3435 6.99644 17.4621 6.89586 17.5613C6.79529 17.6605 6.67558 17.7382 6.54403 17.7897C6.41248 17.8412 6.27183 17.8654 6.13063 17.8608C5.98944 17.8562 5.85065 17.823 5.72271 17.7631C5.59476 17.7032 5.48034 17.6179 5.3864 17.5124C5.29246 17.4069 5.22096 17.2834 5.17625 17.1494C4.61055 15.7006 4.32085 14.1588 4.32208 12.6035C4.32208 11.0014 4.62416 9.46812 5.17625 8.0577C5.2767 7.80063 5.47507 7.59393 5.72779 7.48299C5.98052 7.37206 6.26694 7.36596 6.52416 7.46603ZM27.12 7.46603C27.2475 7.41616 27.3835 7.3919 27.5204 7.39465C27.6573 7.3974 27.7923 7.4271 27.9176 7.48205C28.043 7.537 28.1563 7.61612 28.2511 7.7149C28.3459 7.81367 28.4203 7.93016 28.47 8.0577C29.02 9.46812 29.3221 11.0014 29.3221 12.6035C29.3221 14.2056 29.02 15.739 28.4679 17.1494C28.358 17.3928 28.1588 17.5847 27.9115 17.6854C27.6642 17.7862 27.3876 17.7881 27.1389 17.6907C26.8902 17.5934 26.6884 17.4042 26.5751 17.1624C26.4619 16.9205 26.4459 16.6444 26.5304 16.391C26.9887 15.2181 27.2387 13.941 27.2387 12.6035C27.2387 11.266 26.9887 9.98895 26.5304 8.81603C26.4296 8.55883 26.435 8.2721 26.5456 8.01893C26.6562 7.76575 26.8628 7.56687 27.12 7.46603Z" fill="#A26AFF"/>
</svg>
