<svg width="24" height="31" viewBox="0 0 24 31"  xmlns="http://www.w3.org/2000/svg">
<path d="M10.7059 5.80048C10.4627 5.80048 10.2657 5.99749 10.2657 6.24064C10.2657 6.48379 10.4627 6.6808 10.7059 6.6808H12.652C12.8952 6.6808 13.0922 6.48379 13.0922 6.24064C13.0922 5.99749 12.8952 5.80048 12.652 5.80048H10.7059Z" />
<path d="M23.358 12.4601C23.358 11.4207 22.5842 10.5591 21.5824 10.4198C21.5032 9.83051 20.9984 9.37427 20.3878 9.37427H19.6068C19.4996 8.52739 19.2122 7.71262 18.7587 6.98453C18.6302 6.77812 18.3587 6.71515 18.1524 6.84362C17.946 6.97215 17.883 7.24358 18.0115 7.44993C18.5108 8.25144 18.7746 9.17643 18.7746 10.1249V16.8802C18.7746 17.6597 18.5974 18.3983 18.2817 19.0586L17.4428 18.7681C17.7309 18.2004 17.8943 17.5593 17.8943 16.8802V10.1249C17.8943 9.2107 17.6036 8.34158 17.0537 7.61156C16.5224 6.90618 15.7672 6.37663 14.9271 6.12034C14.7016 6.05156 14.4557 6.08225 14.2526 6.20456C14.0473 6.32827 13.9036 6.53421 13.8582 6.76955L13.7655 7.25103C13.7426 7.36964 13.6384 7.45574 13.5176 7.45574H9.84048C9.71964 7.45574 9.61536 7.36958 9.59247 7.25103L9.4998 6.76967C9.45461 6.53515 9.31129 6.33015 9.10658 6.20726C8.9 6.08319 8.64905 6.05308 8.41805 6.12433C7.58121 6.38256 6.82912 6.91264 6.30039 7.61684C5.75306 8.34581 5.46373 9.21311 5.46373 10.125V13.8205C5.46373 14.0637 5.66075 14.2607 5.90389 14.2607C6.14704 14.2607 6.34406 14.0637 6.34406 13.8205V10.1249C6.34406 8.67793 7.26646 7.41712 8.64312 6.97631L8.7281 7.41753C8.83063 7.94978 9.2985 8.33607 9.84048 8.33607H13.5174C14.0595 8.33607 14.5274 7.94972 14.6298 7.41747L14.7147 6.97631C16.0708 7.41149 17.0139 8.69941 17.0139 10.1249V16.8802C17.0139 17.459 16.864 18.0031 16.6017 18.4768L15.207 17.9937C15.2196 17.9184 15.2265 17.8412 15.2265 17.7624C15.2265 16.9919 14.5997 16.3651 13.8293 16.3651C13.0588 16.3651 12.432 16.9919 12.432 17.7624C12.432 18.5328 13.0588 19.1596 13.8293 19.1596C14.1991 19.1596 14.5356 19.015 14.7858 18.7795L16.0456 19.2159C15.4468 19.8155 14.6195 20.187 13.7071 20.187H9.65074C7.82741 20.187 6.344 18.7036 6.344 16.8803V15.6963C6.344 15.4532 6.14698 15.2561 5.90383 15.2561C5.66069 15.2561 5.46367 15.4532 5.46367 15.6963V16.8803C5.46367 19.189 7.342 21.0673 9.65074 21.0673H13.7071C15.0121 21.0673 16.1792 20.467 16.9477 19.5284L17.8226 19.8314C16.9019 21.1116 15.4008 21.9477 13.7071 21.9477H9.65074C6.85658 21.9477 4.58334 19.6745 4.58334 16.8804V10.1249C4.58334 7.33079 6.85652 5.05755 9.65074 5.05755H13.7071C14.8665 5.05755 15.9577 5.43873 16.8625 6.15995C17.0527 6.31143 17.3297 6.28009 17.4811 6.09012C17.6326 5.90002 17.6013 5.62307 17.4112 5.47154C16.3488 4.62478 15.0679 4.17722 13.7072 4.17722H9.6508C7.51073 4.17722 5.63128 5.31349 4.5834 7.01428V3.91488C5.2231 3.72473 5.69115 3.13174 5.69115 2.43112C5.69115 1.57761 4.99674 0.883209 4.14324 0.883209C3.28973 0.883209 2.59532 1.57761 2.59532 2.43112C2.59532 3.13174 3.06337 3.72479 3.70307 3.91488V9.37421H2.97023C2.35957 9.37421 1.85473 9.83045 1.77556 10.4197C0.773809 10.559 0 11.4206 0 12.4601C0 13.4995 0.773867 14.3611 1.77556 14.5004C1.85473 15.0897 2.35963 15.546 2.97023 15.546H3.70307V16.8802C3.70307 19.8649 5.91316 22.3429 8.7828 22.7643V23.5266H5.31877C4.52495 23.5266 3.79644 23.9921 3.4628 24.7123L2.88888 25.9515C2.59838 26.5787 2.6428 27.3036 3.00761 27.8907L4.70166 30.6166C4.78505 30.7507 4.92878 30.8245 5.07591 30.8245C5.15526 30.8245 5.23555 30.803 5.30785 30.7581C5.51432 30.6297 5.5777 30.3584 5.44935 30.1519L3.7553 27.426C3.54749 27.0916 3.52219 26.6788 3.68769 26.3215L4.26161 25.0823C4.30991 24.978 4.37288 24.8832 4.44718 24.7996V26.493C4.44718 26.9932 4.85413 27.4002 5.35433 27.4002H6.23718C6.73733 27.4002 7.14427 26.9932 7.14427 26.493V24.5244C7.51624 25.9205 8.70357 26.9744 10.1408 27.1725V28.5192H8.19051C7.70146 28.5192 7.30361 28.9171 7.30361 29.4062V30.4429C7.30361 30.6861 7.50063 30.8831 7.74378 30.8831C7.98692 30.8831 8.18394 30.6861 8.18394 30.4429V29.4062C8.18394 29.4025 8.18693 29.3996 8.19051 29.3996H15.1675C15.1712 29.3996 15.1742 29.4026 15.1742 29.4062V30.4429C15.1742 30.6861 15.3712 30.8831 15.6143 30.8831C15.8575 30.8831 16.0545 30.6861 16.0545 30.4429V29.4062C16.0545 28.9171 15.6566 28.5192 15.1675 28.5192H13.2173V27.1728C13.511 27.1327 13.798 27.0564 14.0743 26.9448C14.2996 26.8537 14.4086 26.5972 14.3175 26.3718C14.2265 26.1464 13.9703 26.0374 13.7445 26.1285C13.4346 26.2537 13.1067 26.32 12.77 26.3254C12.5297 26.3293 12.337 26.5252 12.337 26.7655V28.5192H11.0212V26.7655C11.0212 26.5252 10.8284 26.3293 10.5882 26.3254C9.39645 26.306 8.37098 25.5104 8.02677 24.4069H8.97037C9.27144 25.0217 9.90346 25.4463 10.633 25.4463H12.7251C13.4546 25.4463 14.0867 25.0217 14.3878 24.4069H15.3314C15.255 24.6505 15.1449 24.8843 15.0033 25.098C14.8691 25.3008 14.9246 25.5738 15.1272 25.7081C15.202 25.7576 15.2864 25.7814 15.3699 25.7814C15.5126 25.7814 15.6525 25.712 15.7373 25.5842C15.9531 25.2583 16.1134 24.8969 16.2138 24.5205V26.493C16.2138 26.9932 16.6208 27.4001 17.1209 27.4001H18.0038C18.5039 27.4001 18.9109 26.9932 18.9109 26.493V24.7996C18.9852 24.8831 19.0482 24.978 19.0965 25.0823L19.6704 26.3215C19.8358 26.6787 19.8106 27.0916 19.6028 27.426L17.9088 30.1518C17.7804 30.3584 17.8438 30.6297 18.0502 30.758C18.1226 30.803 18.2029 30.8244 18.2822 30.8244C18.4293 30.8244 18.573 30.7506 18.6564 30.6165L20.3505 27.8907C20.7154 27.3036 20.7598 26.5786 20.4692 25.9514L19.8953 24.7122C19.5616 23.9919 18.8331 23.5265 18.0393 23.5265H14.5753V22.7642C16.3085 22.5097 17.8012 21.5051 18.7115 20.0914C18.8151 20.1058 18.919 20.1133 19.0223 20.1133C19.4889 20.1133 19.9472 19.9682 20.344 19.6857C20.9558 19.2502 21.3066 18.5697 21.3066 17.8187V15.1195C21.4528 14.9477 21.5511 14.7346 21.5825 14.5003C22.5842 14.3612 23.358 13.4995 23.358 12.4601ZM13.8293 18.2793C13.5443 18.2793 13.3124 18.0474 13.3124 17.7623C13.3124 17.4773 13.5443 17.2454 13.8293 17.2454C14.1144 17.2454 14.3462 17.4773 14.3462 17.7623C14.3462 18.0474 14.1144 18.2793 13.8293 18.2793ZM3.47565 2.43112C3.47565 2.06302 3.77514 1.76354 4.14324 1.76354C4.51133 1.76354 4.81082 2.06302 4.81082 2.43112C4.81082 2.79921 4.51133 3.0987 4.14324 3.0987C3.77514 3.0987 3.47565 2.79921 3.47565 2.43112ZM0.880269 12.4601C0.880269 11.9119 1.25599 11.4498 1.76347 11.3178V13.6025C1.25605 13.4704 0.880269 13.0083 0.880269 12.4601ZM2.97023 14.6657C2.79029 14.6657 2.6438 14.5193 2.6438 14.3393V10.581C2.6438 10.401 2.79023 10.2545 2.97023 10.2545H3.70307V14.6656L2.97023 14.6657ZM6.23718 26.5199H5.35433C5.33954 26.5199 5.32751 26.5079 5.32751 26.4931V24.407H6.26395V26.4931C6.26395 26.5079 6.25197 26.5199 6.23718 26.5199ZM13.6949 23.5963C13.6949 24.131 13.2598 24.5661 12.7251 24.5661H10.633C10.0982 24.5661 9.66319 24.131 9.66319 23.5963V22.8279H13.6949L13.6949 23.5963ZM18.0037 26.5199H17.1208C17.106 26.5199 17.094 26.5079 17.094 26.4931V24.407H18.0304V26.4931C18.0304 26.5079 18.0184 26.5199 18.0037 26.5199ZM22.4777 12.4601C22.4777 13.0083 22.1019 13.4704 21.5944 13.6025V11.3178C22.1019 11.4498 22.4777 11.9119 22.4777 12.4601ZM20.7142 10.581V14.3393C20.7142 14.5192 20.5678 14.6657 20.3878 14.6657H19.6549V10.2546H20.3878C20.5677 10.2546 20.7142 10.401 20.7142 10.581ZM19.8334 18.9687C19.633 19.1113 19.4071 19.1965 19.1738 19.2227C19.4832 18.5035 19.6549 17.7116 19.6549 16.8802V15.546H20.3878C20.4007 15.546 20.4133 15.5445 20.4262 15.5441V17.8189C20.4262 18.2814 20.2102 18.7005 19.8334 18.9687Z" />
<path d="M9.10965 13.1778C9.62142 13.1778 10.0378 12.7614 10.0378 12.2497V10.6096C10.0378 10.0978 9.62136 9.68146 9.10965 9.68146H8.28009C7.76833 9.68146 7.35199 10.0979 7.35199 10.6096V12.2497C7.35199 12.7615 7.76838 13.1778 8.28009 13.1778H9.10965ZM8.23232 12.2497V10.6096C8.23232 10.5832 8.25374 10.5618 8.28009 10.5618H9.10965C9.136 10.5618 9.15743 10.5832 9.15743 10.6096V12.2497C9.15743 12.2761 9.136 12.2975 9.10965 12.2975H8.28009C8.25374 12.2975 8.23232 12.2761 8.23232 12.2497Z" />
<path d="M15.0191 13.1778C15.5309 13.1778 15.9472 12.7614 15.9472 12.2497V10.6096C15.9472 10.0978 15.5308 9.68146 15.0191 9.68146H14.1896C13.6778 9.68146 13.2615 10.0979 13.2615 10.6096V12.2497C13.2615 12.7615 13.6779 13.1778 14.1896 13.1778H15.0191ZM14.1418 12.2497V10.6096C14.1418 10.5832 14.1632 10.5618 14.1896 10.5618H15.0191C15.0455 10.5618 15.0669 10.5832 15.0669 10.6096V12.2497C15.0669 12.2761 15.0455 12.2975 15.0191 12.2975H14.1896C14.1633 12.2975 14.1418 12.2761 14.1418 12.2497Z" />
</svg>
