<svg width="35" height="35" viewBox="0 0 35 35" fill="none" xmlns="http://www.w3.org/2000/svg">
<path d="M8.73573 0.022583C8.36896 0.022583 8.07158 0.320017 8.07158 0.686712C8.07158 1.05347 8.36896 1.35084 8.73573 1.35084C12.4873 1.35084 15.5394 4.4821 15.5394 8.33114C15.5394 8.6979 15.8368 8.99526 16.2035 8.99526C16.5703 8.99526 16.8677 8.69783 16.8677 8.33114C16.8677 3.74977 13.2197 0.022583 8.73573 0.022583Z" fill="#81DE76"/>
<path d="M8.73348 3.17337C8.36671 3.17337 8.06934 3.4708 8.06934 3.8375C8.06934 4.20426 8.36671 4.50163 8.73348 4.50163C10.7878 4.50163 12.4591 6.21949 12.4591 8.33101C12.4591 8.69777 12.7565 8.99513 13.1232 8.99513C13.49 8.99513 13.7874 8.6977 13.7874 8.33101C13.7874 5.48709 11.5202 3.17337 8.73348 3.17337Z" fill="#81DE76"/>
<path d="M8.74638 6.07585C8.37955 6.07585 8.08224 6.37315 8.08224 6.73998C8.08224 7.10674 8.37968 7.4041 8.74638 7.4041C9.22631 7.4041 9.61665 7.81078 9.61665 8.31068C9.61665 8.67744 9.91403 8.97481 10.2808 8.97481C10.6476 8.97481 10.9449 8.67738 10.9449 8.31068C10.945 7.07838 9.95865 6.07585 8.74638 6.07585Z" fill="#81DE76"/>
<path d="M30.6138 5.28626H29.1416C28.7748 5.28626 28.4774 5.58363 28.4774 5.95039C28.4774 6.31715 28.7748 6.61452 29.1416 6.61452H30.6138C31.8406 6.61452 32.8387 7.6126 32.8387 8.83939V17.8546C32.8387 18.561 32.5074 19.191 31.9925 19.5989V17.8621C31.9925 16.5071 31.0257 15.3434 29.6937 15.0949L29.2643 15.0149C29.3601 14.7214 29.4125 14.4086 29.4125 14.0836V12.5574C29.4125 10.898 28.0624 9.54795 26.403 9.54795C24.7435 9.54795 23.3935 10.898 23.3935 12.5574V14.0836C23.3935 14.4086 23.446 14.7214 23.5417 15.0149L23.1123 15.0949C21.7803 15.3433 20.8135 16.5071 20.8135 17.8621V19.7874C20.1423 19.4039 19.6885 18.6815 19.6885 17.8546V8.83939C19.6885 7.6126 20.6866 6.61452 21.9134 6.61452H23.4963C23.8631 6.61452 24.1605 6.31715 24.1605 5.95039C24.1605 5.58363 23.863 5.28626 23.4963 5.28626H21.9134C19.9542 5.28626 18.3602 6.88021 18.3602 8.83939V17.8546C18.3602 19.8138 19.9542 21.4078 21.9134 21.4078H25.2555V23.3173C25.2555 23.5855 25.4168 23.8275 25.6645 23.9304C25.7469 23.9647 25.8335 23.9814 25.9195 23.9814C26.0916 23.9814 26.2609 23.9145 26.3878 23.7884L28.7835 21.4078H30.6138C32.573 21.4078 34.167 19.8138 34.167 17.8546V8.83939C34.167 6.88021 32.573 5.28626 30.6138 5.28626ZM24.7217 12.5574C24.7217 11.6304 25.4759 10.8762 26.4029 10.8762C27.33 10.8762 28.0842 11.6304 28.0842 12.5574V14.0836C28.0842 15.0106 27.33 15.7648 26.4029 15.7648C25.4759 15.7648 24.7217 15.0106 24.7217 14.0836V12.5574ZM30.664 20.0781C30.6472 20.0785 30.6306 20.0794 30.6136 20.0794H28.5096C28.3342 20.0794 28.1659 20.1489 28.0415 20.2725L26.5837 21.7211V20.7436C26.5837 20.3768 26.2863 20.0794 25.9196 20.0794H22.1419V17.862C22.1419 17.1465 22.6525 16.5318 23.3559 16.4006L24.2921 16.226C24.8358 16.7617 25.5812 17.093 26.403 17.093C27.2246 17.093 27.9703 16.7616 28.5139 16.226L29.4502 16.4005C30.1537 16.5318 30.6642 17.1464 30.6642 17.862L30.664 20.0781Z" fill="#81DE76"/>
<path d="M26.4674 5.48113C26.344 5.35695 26.1726 5.28656 25.9979 5.28656C25.8233 5.28656 25.6519 5.35695 25.5283 5.48113C25.4048 5.60405 25.3338 5.77544 25.3338 5.95069C25.3338 6.12533 25.4048 6.29673 25.5283 6.42025C25.6519 6.54369 25.8232 6.61482 25.9979 6.61482C26.1726 6.61482 26.344 6.54376 26.4674 6.42025C26.5909 6.29607 26.6621 6.1254 26.6621 5.95069C26.6621 5.77537 26.591 5.60464 26.4674 5.48113Z" fill="#81DE76"/>
<path d="M12.5103 22.3641C12.3868 22.2406 12.2161 22.1695 12.0407 22.1695C11.8661 22.1695 11.6947 22.2406 11.5712 22.3641C11.4477 22.4876 11.3766 22.659 11.3766 22.8337C11.3766 23.009 11.4476 23.1797 11.5712 23.3032C11.6953 23.4274 11.8661 23.4984 12.0407 23.4984C12.2154 23.4984 12.3868 23.4274 12.5103 23.3032C12.6345 23.1797 12.7049 23.0089 12.7049 22.8337C12.7049 22.659 12.6345 22.4877 12.5103 22.3641Z" fill="#81DE76"/>
<path d="M27.0473 28.3694L21.9592 23.2813C21.2818 22.604 20.2163 22.5049 19.4257 23.0455L16.1783 25.266C15.9147 25.4461 15.5597 25.4131 15.3338 25.1873L14.2599 24.1134C14.0007 23.8542 13.5803 23.8541 13.3206 24.1134C13.0613 24.3727 13.0613 24.7932 13.3206 25.0527L14.3945 26.1266C15.0718 26.8039 16.1373 26.9032 16.9279 26.3624L20.1754 24.142C20.4389 23.9618 20.794 23.9948 21.0199 24.2206L26.1081 29.3087C26.367 29.5676 26.3669 29.989 26.108 30.248C22.8453 33.5107 17.5363 33.5107 14.2736 30.248L3.94172 19.9163C2.36109 18.3358 1.49075 16.2344 1.49075 13.9992C1.49075 11.7639 2.36115 9.66251 3.94179 8.08191C4.06723 7.95646 4.23398 7.88747 4.41136 7.88747C4.5888 7.88747 4.75562 7.95653 4.88099 8.08197L9.96915 13.1701C10.1949 13.3958 10.2279 13.751 10.0478 14.0145L7.82744 17.2619C7.28668 18.0525 7.38589 19.1179 8.06318 19.7953L9.67742 21.4095C9.93681 21.6688 10.3572 21.6688 10.6168 21.4095C10.8761 21.1502 10.8761 20.7296 10.6168 20.4702L9.00252 18.856C8.7768 18.6303 8.74373 18.2751 8.92389 18.0116L11.1444 14.7642C11.685 13.9736 11.5858 12.9081 10.9085 12.2308L5.82033 7.14272C5.04349 6.3659 3.77942 6.3659 3.00245 7.14272C-0.778202 10.9234 -0.778202 17.0749 3.00245 20.8555L13.3343 31.1871C15.2247 33.0774 17.7077 34.0226 20.1908 34.0226C22.6739 34.0225 25.1569 33.0774 27.0473 31.1871C27.8241 30.4103 27.8241 29.1463 27.0473 28.3694Z" fill="#81DE76"/>
<path d="M9.1135 16.3532L5.08748 12.3272C4.82802 12.068 4.4076 12.068 4.14814 12.3272C3.88882 12.5866 3.88882 13.0071 4.14814 13.2665L8.17423 17.2925C8.30393 17.4221 8.4738 17.487 8.64387 17.487C8.81381 17.487 8.98381 17.4221 9.1135 17.2925C9.37283 17.0331 9.37283 16.6125 9.1135 16.3532Z" fill="#81DE76"/>
<path d="M24.5223 31.7616L20.2863 27.5256C20.0268 27.2663 19.6064 27.2663 19.3469 27.5256C19.0876 27.785 19.0876 28.2055 19.3469 28.4649L23.583 32.7009C23.7127 32.8305 23.8826 32.8954 24.0526 32.8954C24.2226 32.8954 24.3926 32.8305 24.5223 32.7009C24.7816 32.4414 24.7816 32.021 24.5223 31.7616Z" fill="#81DE76"/>
</svg>
