<svg width="35" height="36" viewBox="0 0 35 36" fill="none" xmlns="http://www.w3.org/2000/svg">
<path d="M6.16076 15.3281C6.0634 15.3281 5.96719 15.3151 5.87227 15.2889C5.67283 15.2342 5.51648 15.1617 5.42004 15.1002C5.36774 15.067 5.33692 15.0444 5.32748 15.0326L5.07111 15.5417C5.29345 15.6924 5.5974 15.7944 5.86526 15.8337C6.08289 15.8657 6.29389 15.864 6.50269 15.8142C6.7274 15.7603 6.90932 15.643 7.01726 15.4438C7.12071 15.2531 7.11964 14.9582 7.04215 14.7832C6.98019 14.6433 6.86426 14.5162 6.63803 14.4254C6.17819 14.2403 5.77986 14.2538 5.77986 14.0068C5.77986 13.8669 5.88429 13.7968 6.09324 13.7968C6.16913 13.7968 6.2451 13.8075 6.32115 13.8289C6.46714 13.8698 6.60218 13.931 6.69147 13.9855C6.73425 14.0117 6.75914 14.0295 6.76622 14.0389L7.02259 13.5546C6.96558 13.5214 6.90331 13.4882 6.83564 13.4549C6.63019 13.354 6.35707 13.2769 6.1109 13.2769C5.58529 13.2769 5.1779 13.5862 5.1779 14.0995C5.1779 14.3603 5.2796 14.5478 5.55538 14.6817C5.96711 14.8821 6.47057 14.8828 6.47057 15.1394C6.47057 15.2653 6.36727 15.3281 6.16076 15.3281Z" fill="#81DE76"/>
<path d="M8.2725 14.3132L8.82094 15.4136H9.13433L9.68269 14.3132V15.8267H10.2668V13.2983H9.63641L8.97759 14.6194L8.32236 13.2983H7.68851V15.8267H8.2725V14.3132Z" fill="#81DE76"/>
<path d="M11.9119 15.3282C11.8146 15.3282 11.7183 15.3152 11.6234 15.289C11.424 15.2343 11.2676 15.1618 11.1712 15.1003C11.1189 15.0671 11.0881 15.0445 11.0786 15.0327L10.8223 15.5418C11.045 15.6929 11.3502 15.7948 11.6164 15.8338C11.834 15.8658 12.0451 15.8641 12.2538 15.8143C12.4786 15.7605 12.6605 15.6431 12.7684 15.4439C12.8713 15.2543 12.8716 14.96 12.7933 14.7833C12.7313 14.6434 12.6154 14.5164 12.3891 14.4255C11.9294 14.2405 11.5309 14.2539 11.5309 14.007C11.5309 13.867 11.6354 13.7969 11.8443 13.7969C11.9202 13.7969 11.9962 13.8076 12.0722 13.829C12.2183 13.8699 12.3533 13.9311 12.4426 13.9856C12.4853 14.0118 12.5102 14.0296 12.5173 14.039L12.7737 13.5547C12.5566 13.4285 12.3664 13.3495 12.122 13.3019C11.6893 13.218 11.2027 13.3395 11.0038 13.7472C10.9109 13.9374 10.9099 14.1926 10.97 14.3489C11.1526 14.8275 11.9501 14.7973 12.1754 15.022C12.2062 15.0528 12.2217 15.092 12.2217 15.1395C12.2217 15.2654 12.1184 15.3282 11.9119 15.3282Z" fill="#81DE76"/>
<path d="M17.9039 30.5513C16.9594 30.5513 16.1912 31.3196 16.1912 32.264C16.1912 33.2083 16.9594 33.9767 17.9039 33.9767C18.8482 33.9767 19.6166 33.2083 19.6166 32.264C19.6166 31.3196 18.8482 30.5513 17.9039 30.5513ZM17.9039 33.2155C17.3792 33.2155 16.9524 32.7887 16.9524 32.264C16.9524 31.7393 17.3792 31.3125 17.9039 31.3125C18.4286 31.3125 18.8554 31.7393 18.8554 32.264C18.8554 32.7887 18.4286 33.2155 17.9039 33.2155Z" fill="#81DE76"/>
<path d="M31.2247 13.0437C31.54 13.0437 31.7956 12.7881 31.7956 12.4728C31.7956 12.1575 31.54 11.9019 31.2247 11.9019C30.9094 11.9019 30.6538 12.1575 30.6538 12.4728C30.6538 12.7881 30.9094 13.0437 31.2247 13.0437Z" fill="#81DE76"/>
<path d="M3.82178 3.14814C4.13708 3.14814 4.39268 2.89254 4.39268 2.57725C4.39268 2.26195 4.13708 2.00635 3.82178 2.00635C3.50648 2.00635 3.25089 2.26195 3.25089 2.57725C3.25089 2.89254 3.50648 3.14814 3.82178 3.14814Z" fill="#81DE76"/>
<path d="M4.96338 7.33467C5.27868 7.33467 5.53428 7.07907 5.53428 6.76377C5.53428 6.44847 5.27868 6.19287 4.96338 6.19287C4.64809 6.19287 4.39249 6.44847 4.39249 6.76377C4.39249 7.07907 4.64809 7.33467 4.96338 7.33467Z" fill="#81DE76"/>
<path d="M4.96338 25.2229C5.27868 25.2229 5.53428 24.9673 5.53428 24.652C5.53428 24.3367 5.27868 24.0811 4.96338 24.0811C4.64809 24.0811 4.39249 24.3367 4.39249 24.652C4.39249 24.9673 4.64809 25.2229 4.96338 25.2229Z" fill="#81DE76"/>
<path d="M33.1279 25.9841C33.4432 25.9841 33.6988 25.7285 33.6988 25.4132C33.6988 25.0979 33.4432 24.8423 33.1279 24.8423C32.8126 24.8423 32.557 25.0979 32.557 25.4132C32.557 25.7285 32.8126 25.9841 33.1279 25.9841Z" fill="#81DE76"/>
<path d="M30.4637 33.2153C30.779 33.2153 31.0346 32.9597 31.0346 32.6444C31.0346 32.3291 30.779 32.0735 30.4637 32.0735C30.1484 32.0735 29.8928 32.3291 29.8928 32.6444C29.8928 32.9597 30.1484 33.2153 30.4637 33.2153Z" fill="#81DE76"/>
<path d="M19.0456 2.38696H16.3814C16.1712 2.38696 16.0008 2.5574 16.0008 2.76756C16.0008 2.97773 16.1712 3.14816 16.3814 3.14816H19.0456C19.2558 3.14816 19.4262 2.97773 19.4262 2.76756C19.4262 2.5574 19.2558 2.38696 19.0456 2.38696Z" fill="#81DE76"/>
<path d="M32.5569 3.52856C31.2977 3.52856 30.2733 4.55298 30.2733 5.81216C30.2733 7.07133 31.2977 8.09575 32.5569 8.09575C33.8161 8.09575 34.8405 7.07133 34.8405 5.81216C34.8405 4.55298 33.8161 3.52856 32.5569 3.52856ZM32.5569 7.33455C31.7175 7.33455 31.0345 6.65161 31.0345 5.81216C31.0345 4.97271 31.7175 4.28976 32.5569 4.28976C33.3964 4.28976 34.0793 4.97271 34.0793 5.81216C34.0793 6.65161 33.3964 7.33455 32.5569 7.33455Z" fill="#81DE76"/>
<path d="M3.2508 27.5063C1.78177 27.5063 0.586609 28.7015 0.586609 30.1705C0.586609 31.6396 1.78177 32.8347 3.2508 32.8347C4.71984 32.8347 5.91499 31.6396 5.91499 30.1705C5.91499 28.7015 4.71984 27.5063 3.2508 27.5063ZM3.2508 32.0735C2.20149 32.0735 1.34781 31.2198 1.34781 30.1705C1.34781 29.1212 2.20149 28.2675 3.2508 28.2675C4.30011 28.2675 5.1538 29.1212 5.1538 30.1705C5.1538 31.2198 4.30011 32.0735 3.2508 32.0735Z" fill="#81DE76"/>
<path d="M25.1985 0.483887H10.609C8.8601 0.483887 7.43727 1.90664 7.43727 3.65549V9.61818H2.92717C2.05629 9.61818 1.34769 10.3268 1.34769 11.1977V17.9343C1.34769 18.8052 2.05629 19.5138 2.92717 19.5138H4.24503L3.65077 21.2965C3.59939 21.4507 3.6516 21.6206 3.78078 21.7193C3.91018 21.8182 4.08792 21.8235 4.22296 21.7336L7.43727 19.5906V32.3274C7.43727 34.0762 8.8601 35.499 10.609 35.499H25.1985C26.9475 35.499 28.3702 34.0762 28.3702 32.3274V3.65549C28.3702 1.90664 26.9475 0.483887 25.1985 0.483887ZM4.72375 20.4848L5.13419 19.2536C5.21617 19.0075 5.0328 18.7526 4.77308 18.7526H2.92717C2.47593 18.7526 2.10888 18.3856 2.10888 17.9343V11.1977C2.10888 10.7464 2.47593 10.3794 2.92717 10.3794H14.9922C15.4434 10.3794 15.8104 10.7464 15.8104 11.1977V17.9343C15.8104 18.3856 15.4434 18.7526 14.9922 18.7526H7.43727C7.36214 18.7526 7.28868 18.7749 7.22619 18.8166L4.72375 20.4848ZM25.3254 6.95399H10.4821V5.051H25.3254V6.95399ZM10.4821 7.71519H25.3254V29.0287H10.4821V19.5138H14.9922C15.863 19.5138 16.5716 18.8052 16.5716 17.9343V11.1977C16.5716 10.3268 15.863 9.61818 14.9922 9.61818H10.4821V7.71519ZM27.609 32.3274C27.609 33.6565 26.5277 34.7378 25.1985 34.7378H10.609C9.27983 34.7378 8.19847 33.6565 8.19847 32.3274V19.5138H9.72086V29.4094C9.72086 29.6196 9.8913 29.79 10.1015 29.79H25.706C25.9163 29.79 26.0866 29.6196 26.0866 29.4094V4.67047C26.0866 4.46031 25.9163 4.28988 25.706 4.28988H10.1015C9.8913 4.28988 9.72086 4.46031 9.72086 4.67047V9.61826H8.19847V3.65549C8.19847 2.32637 9.27983 1.24508 10.609 1.24508H25.1985C26.5277 1.24508 27.609 2.32637 27.609 3.65549V32.3274Z" fill="#81DE76"/>
<path d="M14.6689 17.2302V11.9018C14.6689 11.6917 14.4984 11.5212 14.2883 11.5212H3.63148C3.42132 11.5212 3.25089 11.6917 3.25089 11.9018V17.2302C3.25089 17.4404 3.42132 17.6108 3.63148 17.6108H14.2883C14.4984 17.6108 14.6689 17.4405 14.6689 17.2302ZM13.9077 16.8496H4.01208V12.2824H13.9077V16.8496Z" fill="#81DE76"/>
<path d="M23.8031 20.884H12.0046C11.7944 20.884 11.624 21.0544 11.624 21.2646V26.9736C11.624 27.1839 11.7944 27.3542 12.0046 27.3542H23.8031C24.0134 27.3542 24.1837 27.1839 24.1837 26.9736V21.2646C24.1837 21.0544 24.0134 20.884 23.8031 20.884ZM23.4225 26.593H12.3852V21.6452H23.4225V26.593Z" fill="#81DE76"/>
<path d="M18.8552 11.9018H23.803C24.0133 11.9018 24.1836 11.7314 24.1836 11.5212C24.1836 11.3111 24.0133 11.1406 23.803 11.1406H18.8552C18.645 11.1406 18.4746 11.3111 18.4746 11.5212C18.4746 11.7314 18.645 11.9018 18.8552 11.9018Z" fill="#81DE76"/>
<path d="M18.8552 13.4243H23.803C24.0133 13.4243 24.1836 13.2538 24.1836 13.0437C24.1836 12.8335 24.0133 12.6631 23.803 12.6631H18.8552C18.645 12.6631 18.4746 12.8335 18.4746 13.0437C18.4746 13.2538 18.645 13.4243 18.8552 13.4243Z" fill="#81DE76"/>
<path d="M18.8552 14.9465H23.803C24.0133 14.9465 24.1836 14.7761 24.1836 14.5659C24.1836 14.3557 24.0133 14.1853 23.803 14.1853H18.8552C18.645 14.1853 18.4746 14.3557 18.4746 14.5659C18.4746 14.7761 18.645 14.9465 18.8552 14.9465Z" fill="#81DE76"/>
<path d="M18.8552 16.469H23.803C24.0133 16.469 24.1836 16.2985 24.1836 16.0884C24.1836 15.8782 24.0133 15.7078 23.803 15.7078H18.8552C18.645 15.7078 18.4746 15.8782 18.4746 16.0884C18.4746 16.2985 18.645 16.469 18.8552 16.469Z" fill="#81DE76"/>
</svg>
