<svg width="30" height="30" viewBox="0 0 30 30"  xmlns="http://www.w3.org/2000/svg">
<path d="M20.5 27.5H21.5V28.5H20.5V27.5Z"/>
<path d="M19 27.5H20V28.5H19V27.5Z" />
<path d="M20.5 26H21.5V27H20.5V26Z" />
<path d="M28.5 5.5H23V1.5C23 0.671631 22.3284 0 21.5 0H8.5C7.67163 0 7 0.671631 7 1.5V14.5H1.5C0.671631 14.5 0 15.1716 0 16V22C0 22.8284 0.671631 23.5 1.5 23.5H7V28.5C7 29.3284 7.67163 30 8.5 30H21.5C22.3284 30 23 29.3284 23 28.5V14.5H28.5C29.3284 14.5 30 13.8284 30 13V7C30 6.17163 29.3284 5.5 28.5 5.5ZM8.5 1H21.5C21.7761 1 22 1.22388 22 1.5V3H8V1.5C8 1.22388 8.22388 1 8.5 1ZM1 22V16C1 15.7239 1.22388 15.5 1.5 15.5H11.5C11.7761 15.5 12 15.7239 12 16V22C12 22.2761 11.7761 22.5 11.5 22.5H10.375C10.2109 22.4998 10.0571 22.5803 9.96362 22.7151C9.87012 22.8501 9.84863 23.0225 9.90649 23.176L10.394 24.4761L8.0625 22.6106C7.97388 22.5393 7.86377 22.5002 7.75 22.5H1.5C1.22388 22.5 1 22.2761 1 22ZM21.5 29H8.5C8.22388 29 8 28.7761 8 28.5V23.8406L11.1875 26.3904C11.3633 26.5317 11.6118 26.5381 11.7944 26.4055C11.9771 26.2732 12.0483 26.0349 11.9685 25.824L11.0964 23.5H11.5C12.3284 23.5 13 22.8284 13 22V16C13 15.1716 12.3284 14.5 11.5 14.5H8V4H22V5.5H18.5C17.6716 5.5 17 6.17163 17 7V13C17 13.8284 17.6716 14.5 18.5 14.5H18.9036L18.0315 16.824C17.9517 17.0349 18.023 17.2732 18.2056 17.4055C18.3882 17.5381 18.6367 17.5317 18.8125 17.3904L22 14.8406V28.5C22 28.7761 21.7761 29 21.5 29ZM29 13C29 13.2761 28.7761 13.5 28.5 13.5H22.25C22.1365 13.5 22.0261 13.5386 21.9375 13.6096L19.606 15.4751L20.0935 14.175C20.1509 14.0215 20.1294 13.8496 20.0359 13.7148C19.9424 13.5803 19.7888 13.5 19.625 13.5H18.5C18.2239 13.5 18 13.2761 18 13V7C18 6.72388 18.2239 6.5 18.5 6.5H28.5C28.7761 6.5 29 6.72388 29 7V13Z" />
<path d="M9.00001 8H15C15.2761 8 15.5 7.77612 15.5 7.5C15.5 7.22388 15.2761 7 15 7H9.00001C8.72389 7 8.50001 7.22388 8.50001 7.5C8.50001 7.77612 8.72389 8 9.00001 8Z" />
<path d="M13 6H15C15.2761 6 15.5 5.77612 15.5 5.5C15.5 5.22388 15.2761 5 15 5H13C12.7239 5 12.5 5.22388 12.5 5.5C12.5 5.77612 12.7239 6 13 6Z" />
<path d="M16 13C16 12.7239 15.7761 12.5 15.5 12.5H9.00001C8.72389 12.5 8.50001 12.7239 8.50001 13C8.50001 13.2761 8.72389 13.5 9.00001 13.5H15.5C15.7761 13.5 16 13.2761 16 13Z"/>
<path d="M15 10.5H13C12.7239 10.5 12.5 10.7239 12.5 11C12.5 11.2761 12.7239 11.5 13 11.5H15C15.2761 11.5 15.5 11.2761 15.5 11C15.5 10.7239 15.2761 10.5 15 10.5Z" />
<path d="M21 20H15C14.7239 20 14.5 20.2239 14.5 20.5C14.5 20.7761 14.7239 21 15 21H21C21.2761 21 21.5 20.7761 21.5 20.5C21.5 20.2239 21.2761 20 21 20Z"/>
<path d="M14.5 18.5C14.5 18.7761 14.7239 19 15 19H17C17.2761 19 17.5 18.7761 17.5 18.5C17.5 18.2239 17.2761 18 17 18H15C14.7239 18 14.5 18.2239 14.5 18.5Z" />
<path d="M15 27H9.00001C8.72389 27 8.50001 27.2239 8.50001 27.5C8.50001 27.7761 8.72389 28 9.00001 28H15C15.2761 28 15.5 27.7761 15.5 27.5C15.5 27.2239 15.2761 27 15 27Z" />
<path d="M15 25H13C12.7239 25 12.5 25.2239 12.5 25.5C12.5 25.7761 12.7239 26 13 26H15C15.2761 26 15.5 25.7761 15.5 25.5C15.5 25.2239 15.2761 25 15 25Z"/>
<path d="M2.50002 17.5H10.5C10.7761 17.5 11 17.2761 11 17C11 16.7239 10.7761 16.5 10.5 16.5H2.50002C2.2239 16.5 2.00002 16.7239 2.00002 17C2.00002 17.2761 2.2239 17.5 2.50002 17.5Z"/>
<path d="M2.50002 19.5H10.5C10.7761 19.5 11 19.2761 11 19C11 18.7239 10.7761 18.5 10.5 18.5H2.50002C2.2239 18.5 2.00002 18.7239 2.00002 19C2.00002 19.2761 2.2239 19.5 2.50002 19.5Z" />
<path d="M11 21C11 20.7239 10.7761 20.5 10.5 20.5H2.50002C2.2239 20.5 2.00002 20.7239 2.00002 21C2.00002 21.2761 2.2239 21.5 2.50002 21.5H10.5C10.7761 21.5 11 21.2761 11 21Z" />
<path d="M27.5 7.5H19.5C19.2239 7.5 19 7.72388 19 8C19 8.27612 19.2239 8.5 19.5 8.5H27.5C27.7761 8.5 28 8.27612 28 8C28 7.72388 27.7761 7.5 27.5 7.5Z" />
<path d="M27.5 9.5H19.5C19.2239 9.5 19 9.72388 19 10C19 10.2761 19.2239 10.5 19.5 10.5H27.5C27.7761 10.5 28 10.2761 28 10C28 9.72388 27.7761 9.5 27.5 9.5Z" />
<path d="M27.5 11.5H19.5C19.2239 11.5 19 11.7239 19 12C19 12.2761 19.2239 12.5 19.5 12.5H27.5C27.7761 12.5 28 12.2761 28 12C28 11.7239 27.7761 11.5 27.5 11.5Z" />
</svg>
