<svg width="28" height="30" viewBox="0 0 28 30"  xmlns="http://www.w3.org/2000/svg">
<path d="M27.1393 9.3738L24.5346 7.32085V2.43196C24.5346 1.09099 23.4436 3.05176e-05 22.1027 3.05176e-05H9.35689C8.53898 3.05176e-05 7.81453 0.406202 7.37355 1.02718H6.54381C5.90713 1.02718 5.38916 1.54515 5.38916 2.18183V2.84071C5.38916 2.95269 5.31891 3.05405 5.21314 3.09771L5.20025 3.10298C5.09133 3.14816 4.96969 3.12636 4.89047 3.04714L4.42459 2.58132C3.97441 2.1312 3.24182 2.1312 2.7917 2.58132L2.16059 3.21249C1.71041 3.66273 1.71041 4.39521 2.16059 4.84532L2.62641 5.3112C2.70557 5.39042 2.72754 5.512 2.68342 5.61829L2.67814 5.63089C2.63332 5.73958 2.53195 5.80989 2.41998 5.80989H1.76109C1.12441 5.80989 0.606445 6.32786 0.606445 6.96448V7.85716C0.606445 8.49384 1.12441 9.01181 1.76109 9.01181H2.41998C2.53201 9.01181 2.63332 9.08206 2.67832 9.19116L2.68225 9.20066C2.72748 9.30964 2.70557 9.43128 2.62646 9.51038L2.16059 9.9762C1.71041 10.4264 1.71035 11.1589 2.16059 11.6091L2.79182 12.2404C3.24193 12.6904 3.97453 12.6906 4.42471 12.2404L4.89059 11.7745C4.96975 11.6953 5.09133 11.6733 5.20395 11.7202L5.21027 11.7228C5.31896 11.7676 5.38928 11.869 5.38928 11.9809V12.6398C5.38928 13.2765 5.90725 13.7945 6.54393 13.7945H6.92508V17.3586H5.90473V16.5792C5.90473 16.3214 5.76064 16.0913 5.52873 15.9788C5.29682 15.8665 5.02693 15.8956 4.82449 16.0551L1.66371 18.5464C1.50217 18.6737 1.40953 18.8648 1.40953 19.0704C1.40953 19.2761 1.50217 19.4671 1.66371 19.5944L4.82443 22.0857C4.94525 22.1809 5.08998 22.2297 5.23635 22.2296C5.33531 22.2296 5.4351 22.2073 5.52867 22.1619C5.76059 22.0494 5.90467 21.8194 5.90467 21.5617V20.7822H6.92502V27.568C6.92502 28.909 8.01598 30 9.35695 30H22.1027C23.4437 30 24.5347 28.909 24.5347 27.568V24.0821C24.5347 23.8393 24.3379 23.6426 24.0952 23.6426C23.8525 23.6426 23.6558 23.8393 23.6558 24.0821V25.752H18.7994V25.7145C18.7994 25.2248 18.4009 24.8263 17.9111 24.8263H13.5486C13.0588 24.8263 12.6604 25.2248 12.6604 25.7145V25.752H7.80398V20.7823H11.7215C12.0894 20.7823 12.3888 20.483 12.3888 20.1151V18.026C12.3888 17.6581 12.0895 17.3587 11.7215 17.3587H7.80398V13.7336C8.2609 13.5797 8.59125 13.1481 8.59125 12.6399V11.981C8.59125 11.8691 8.6615 11.7677 8.76727 11.7241L8.78004 11.7188C8.82539 11.6999 8.87285 11.6934 8.91861 11.697C8.94369 12.5734 9.28893 13.4423 9.95637 14.1098L16.0379 20.1912C16.7313 20.8846 17.6422 21.2314 18.5531 21.2314C19.464 21.2314 20.3749 20.8846 21.0684 20.1912L21.8648 19.3947C22.3036 18.9559 22.5453 18.3725 22.5453 17.7519C22.5453 17.1313 22.3036 16.5478 21.8648 16.109L21.4122 15.6565C20.9734 15.2177 20.39 14.976 19.7694 14.976C19.1487 14.976 18.5653 15.2177 18.1265 15.6565L17.6408 16.1421L17.1611 15.6624C16.9894 15.4908 16.7112 15.4908 16.5396 15.6624C16.368 15.8341 16.368 16.1123 16.5396 16.2839L20.1107 19.8549C19.065 20.6032 17.5978 20.5081 16.6593 19.5696L10.5778 13.4882C9.63938 12.5498 9.54428 11.0825 10.2926 10.0369L15.0895 14.8337C15.2611 15.0053 15.5394 15.0053 15.7109 14.8337C15.8825 14.6621 15.8825 14.3839 15.7109 14.2122L14.0053 12.5066L14.491 12.0209C15.3968 11.1151 15.3968 9.64116 14.491 8.73524L14.0384 8.28267C13.8401 8.08444 13.6147 7.92958 13.3739 7.81814V6.96448C13.3739 6.32786 12.8559 5.80989 12.2193 5.80989H11.5604C11.4483 5.80989 11.347 5.73964 11.3034 5.63388L11.2981 5.62105C11.2529 5.512 11.2748 5.39036 11.3539 5.3112L11.8198 4.84538C12.2699 4.39515 12.2699 3.66267 11.8198 3.21249L11.1886 2.58132C10.7384 2.13109 10.0059 2.13109 9.5557 2.58132L9.08977 3.0472C9.01061 3.12636 8.88902 3.14833 8.77564 3.10116L8.7702 3.09894C8.6615 3.05405 8.59119 2.95275 8.59119 2.84077V2.18183C8.59119 1.85769 8.45648 1.56478 8.24063 1.35484C8.52305 1.06193 8.91873 0.878937 9.35689 0.878937H11.4369L11.7331 2.02661C11.9255 2.77216 12.5976 3.29282 13.3676 3.29282H18.0921C18.862 3.29282 19.534 2.7721 19.7265 2.02661L20.0227 0.878937H22.1027C22.959 0.878937 23.6557 1.57562 23.6557 2.43196V6.74575C23.5283 6.72835 23.3962 6.74728 23.2744 6.80634C23.0425 6.91884 22.8984 7.14894 22.8984 7.40669V8.1861H16.9253C16.5574 8.1861 16.2581 8.4854 16.2581 8.85337V10.9425C16.2581 11.3103 16.5574 11.6097 16.9253 11.6097H22.8984V12.3892C22.8984 12.6469 23.0425 12.8769 23.2744 12.9894C23.3679 13.0348 23.4677 13.0571 23.5667 13.0571C23.5965 13.0571 23.6262 13.0545 23.6558 13.0506V22.0313C23.6558 22.274 23.8525 22.4707 24.0952 22.4707C24.3379 22.4707 24.5347 22.274 24.5347 22.0313V12.4749L27.1394 10.4219C27.3009 10.2945 27.3936 10.1035 27.3936 9.89792C27.3935 9.69214 27.3008 9.50112 27.1393 9.3738ZM13.5391 25.7145C13.5391 25.7094 13.5434 25.7052 13.5485 25.7052H17.911C17.9162 25.7052 17.9204 25.7094 17.9204 25.7145V26.8094C17.9204 26.8145 17.9162 26.8187 17.911 26.8187H13.5485C13.5434 26.8187 13.5391 26.8145 13.5391 26.8094V25.7145ZM12.6602 26.6309V26.8094C12.6602 27.2992 13.0587 27.6976 13.5485 27.6976H17.911C18.4008 27.6976 18.7993 27.2992 18.7993 26.8094V26.6309H23.6556V27.5681C23.6556 28.4244 22.959 29.1211 22.1026 29.1211H9.35689C8.50055 29.1211 7.80387 28.4244 7.80387 27.5681V26.6309H12.6602ZM11.5097 19.9034H5.69291C5.325 19.9034 5.0257 20.2027 5.0257 20.5707V21.1254L2.41857 19.0705L5.0257 17.0157V17.5704C5.0257 17.9383 5.325 18.2377 5.69291 18.2377H11.5097V19.9034ZM18.2622 16.7636L18.7479 16.278C19.311 15.7148 20.2274 15.7148 20.7906 16.278L21.2432 16.7306C21.516 17.0034 21.6662 17.3661 21.6662 17.7519C21.6662 18.1378 21.516 18.5005 21.2432 18.7734L20.7575 19.259L18.2622 16.7636ZM13.4169 8.90423L13.8694 9.35675C14.4326 9.91995 14.4326 10.8364 13.8694 11.3994L13.3838 11.8851L10.8885 9.38986L11.3742 8.90417C11.9374 8.34109 12.8537 8.34109 13.4169 8.90423ZM8.43498 3.91146L8.44295 3.91474C8.8817 4.09691 9.37951 4.00034 9.71115 3.6687L10.177 3.20288C10.2846 3.09525 10.4595 3.09536 10.567 3.20288L11.1981 3.83405C11.3056 3.94151 11.3056 4.11642 11.1981 4.22394L10.7323 4.68982C10.4007 5.0214 10.3041 5.51921 10.4859 5.95743L10.4895 5.96599C10.6706 6.40509 11.0909 6.6888 11.5603 6.6888H12.2191C12.3712 6.6888 12.4949 6.81243 12.4949 6.96448V7.60567C11.8672 7.57901 11.2308 7.80454 10.7527 8.28273L9.95625 9.07913C9.46031 9.57507 9.14273 10.1825 9.00146 10.8213C8.8159 10.8043 8.62447 10.8317 8.44307 10.907L8.43504 10.9104C7.99594 11.0915 7.71223 11.5118 7.71223 11.981V12.6399C7.71223 12.792 7.58854 12.9157 7.43648 12.9157H6.54381C6.39176 12.9157 6.26807 12.792 6.26807 12.6399V11.981C6.26807 11.5117 5.98436 11.0914 5.54525 10.9104L5.53729 10.9071C5.09842 10.725 4.60072 10.8214 4.26902 11.1531L3.80314 11.6189C3.69563 11.7265 3.52072 11.7265 3.4132 11.619L2.78203 10.9878C2.67451 10.8802 2.67451 10.7053 2.78203 10.5978L3.24791 10.1319C3.57949 9.80036 3.67605 9.30255 3.49418 8.86439L3.49061 8.85583C3.30955 8.41679 2.88926 8.13302 2.41992 8.13302H1.76109C1.60904 8.13302 1.48535 8.00933 1.48535 7.85728V6.96448C1.48535 6.81243 1.60904 6.6888 1.76109 6.6888H2.41998C2.88937 6.6888 3.30967 6.40503 3.49055 5.96634L3.494 5.95796C3.67611 5.51927 3.57955 5.02146 3.24791 4.68976L2.78203 4.22382C2.67457 4.11636 2.67457 3.94146 2.78203 3.834L3.41326 3.20282C3.52078 3.09525 3.69562 3.09525 3.8032 3.20282L4.26902 3.66859C4.60066 4.00028 5.09848 4.09702 5.53336 3.91632L5.54525 3.91146C5.98436 3.73034 6.26807 3.31005 6.26807 2.84077V2.18183C6.26807 2.02978 6.39176 1.90609 6.54381 1.90609H7.43648C7.58854 1.90609 7.71223 2.02978 7.71223 2.18183V2.84071C7.71217 3.31005 7.99594 3.73034 8.43498 3.91146ZM18.8755 1.807C18.7832 2.16437 18.4611 2.41392 18.092 2.41392H13.3675C12.9985 2.41392 12.6763 2.16431 12.5841 1.807L12.3446 0.878937H19.1149L18.8755 1.807ZM23.7772 11.9527V11.3979C23.7772 11.03 23.4779 10.7307 23.11 10.7307H17.1369V9.06489H23.11C23.4779 9.06489 23.7772 8.7656 23.7772 8.39763V7.84286L26.3844 9.89769L23.7772 11.9527Z" />
<path d="M3.91261 7.41091C3.91261 9.1079 5.2932 10.4884 6.99014 10.4884C8.19652 10.4884 9.2975 9.77745 9.79496 8.67718C9.89498 8.45605 9.79672 8.19566 9.57559 8.09569C9.35445 7.99579 9.09412 8.094 8.9941 8.31507C8.63861 9.1014 7.85199 9.60952 6.99014 9.60952C5.77783 9.60952 4.79152 8.62321 4.79152 7.41091C4.79152 6.1986 5.77783 5.2123 6.99014 5.2123C7.89969 5.2123 8.70283 5.7595 9.03617 6.60636C9.12512 6.83218 9.38029 6.94345 9.60606 6.85427C9.83188 6.76538 9.94291 6.51026 9.85397 6.28439C9.38744 5.09915 8.26332 4.33333 6.99014 4.33333C5.2932 4.33333 3.91261 5.71392 3.91261 7.41091Z" />
<path d="M5.62165 7.41091C5.62165 8.16548 6.23553 8.77931 6.99011 8.77931C7.74468 8.77931 8.35857 8.16542 8.35857 7.41091C8.35857 6.6564 7.74468 6.04251 6.99011 6.04251C6.23553 6.04251 5.62165 6.65634 5.62165 7.41091ZM7.47966 7.41091C7.47966 7.68079 7.26005 7.9004 6.99011 7.9004C6.72016 7.9004 6.50055 7.68079 6.50055 7.41091C6.50055 7.14103 6.72016 6.92142 6.99011 6.92142C7.26005 6.92142 7.47966 7.14097 7.47966 7.41091Z" />
<path d="M22.2324 2.69534C22.4751 2.69534 22.6719 2.49859 22.6719 2.25589C22.6719 2.01319 22.4751 1.81644 22.2324 1.81644C21.9897 1.81644 21.7929 2.01319 21.7929 2.25589C21.7929 2.49859 21.9897 2.69534 22.2324 2.69534Z" />
<path d="M20.8847 2.69534C21.1274 2.69534 21.3242 2.49859 21.3242 2.25589C21.3242 2.01319 21.1274 1.81644 20.8847 1.81644C20.642 1.81644 20.4453 2.01319 20.4453 2.25589C20.4453 2.49859 20.642 2.69534 20.8847 2.69534Z" />
</svg>
