<svg width="30" height="31" viewBox="0 0 30 31"  xmlns="http://www.w3.org/2000/svg">
<path d="M15.0001 22.9315C12.9299 22.9291 11.2524 21.2516 11.2501 19.1815V16.369C11.2501 16.1101 11.4599 15.9002 11.7188 15.9002C12.205 15.9318 12.6247 15.5632 12.6563 15.077C12.6588 15.0389 12.6588 15.0007 12.6563 14.9627C12.6571 14.7038 12.8676 14.4946 13.1265 14.4954C13.3635 14.4961 13.5626 14.6736 13.5905 14.9088C13.629 14.988 14.1727 15.9002 18.2813 15.9002C18.5402 15.9002 18.7501 16.1101 18.7501 16.369V19.1815C18.7477 21.2516 17.0702 22.9291 15.0001 22.9315ZM12.1876 16.7786V19.1815C12.1876 20.7348 13.4467 21.994 15.0001 21.994C16.5534 21.994 17.8126 20.7348 17.8126 19.1815V16.8335C15.2987 16.7894 14.0021 16.3915 13.3388 15.9621C13.0792 16.3768 12.6648 16.6708 12.1876 16.7786Z" />
<path d="M19.2188 19.1815H18.2812V18.244H19.2188C19.4776 18.244 19.6875 18.0341 19.6875 17.7752V16.8377H18.2812L18.2813 15.9002L20.1562 15.9002C20.4151 15.9002 20.625 16.1101 20.625 16.369V17.7752C20.625 18.5519 19.9954 19.1815 19.2188 19.1815Z" />
<path d="M11.7187 19.1815H10.7812C10.0046 19.1815 9.375 18.5519 9.375 17.7752V16.369C9.375 16.1101 9.58488 15.9002 9.84375 15.9002L11.7188 15.9002L11.7187 16.8377H10.3125V17.7752C10.3125 18.0341 10.5224 18.244 10.7812 18.244H11.7187V19.1815Z" />
<path d="M20.1563 16.369H19.2188V14.9627C19.2188 12.6328 17.33 10.744 15.0001 10.744C12.6701 10.744 10.7813 12.6328 10.7813 14.9627V16.369H9.84381V14.9627C9.84381 12.115 12.1523 9.80646 15.0001 9.80646C17.8478 9.80646 20.1563 12.115 20.1563 14.9627V16.369Z" />
<path d="M14.9999 21.0565C13.9644 21.0565 13.1249 20.217 13.1249 19.1815H14.0624C14.0624 19.6993 14.4821 20.119 14.9999 20.119C15.5177 20.119 15.9374 19.6993 15.9374 19.1815H16.8749C16.8749 20.217 16.0355 21.0565 14.9999 21.0565Z" />
<path d="M13.1249 17.3065H14.0624V18.244H13.1249V17.3065Z" />
<path d="M15.9376 17.3065H16.8751V18.244H15.9376V17.3065Z" />
<path d="M22.9688 30.9002H7.03131C6.77244 30.9002 6.56256 30.6903 6.56256 30.4315C6.56256 27.078 7.50944 25.1463 7.54928 25.0657C7.61057 24.9432 7.72242 24.8536 7.85537 24.8205L13.1251 23.5029V21.994H14.0626V23.869C14.0625 24.0841 13.916 24.2716 13.7072 24.3236L8.30584 25.6741C7.79227 27.0463 7.52197 28.4976 7.50709 29.9627H22.493C22.4788 28.4977 22.2091 27.0464 21.6962 25.6741L16.2929 24.3236C16.0841 24.2716 15.9376 24.0841 15.9376 23.869V21.994H16.8751V23.5029L22.1447 24.8205C22.2777 24.8536 22.3896 24.9432 22.4508 25.0657C22.4907 25.1463 23.4376 27.078 23.4376 30.4315C23.4376 30.6903 23.2277 30.9002 22.9688 30.9002Z" />
<path d="M15 25.744C14.8756 25.744 14.7565 25.6945 14.6686 25.6066L13.2623 24.2004L13.9251 23.5376L15 24.6124L16.0748 23.5376L16.7376 24.2004L15.3314 25.6066C15.2435 25.6945 15.1243 25.744 15 25.744Z" />
<path d="M15.4688 30.4315H14.5313V25.2752C14.5314 25.0163 14.7413 24.8065 15.0002 24.8066C15.1245 24.8066 15.2436 24.856 15.3315 24.9438L16.4063 26.0186L17.8126 24.6124V24.3377H18.7501V24.8065C18.7501 24.9308 18.7006 25.05 18.6127 25.1379L16.7377 27.0129C16.5547 27.1959 16.258 27.1959 16.0749 27.0129L15.4688 26.4068V30.4315Z" />
<path d="M10.3125 30.4314H9.37496C9.37496 26.9936 7.75403 25.7018 7.68512 25.6502L8.24996 24.9002C8.33387 24.9635 10.3125 26.494 10.3125 30.4314Z" />
<path d="M22.3125 25.6502C22.2459 25.7018 20.625 26.9936 20.625 30.4314H19.6875C19.6875 26.494 21.6661 24.9635 21.75 24.9002L22.3125 25.6502Z" />
<path d="M13.5938 27.1502C13.4695 27.1502 13.3503 27.1008 13.2624 27.0129L11.3874 25.1379C11.2995 25.05 11.2501 24.9308 11.2501 24.8065V24.3377H12.1876V24.6124L13.5938 26.0186L14.6687 24.9438L15.3314 25.6066L13.9252 27.0129C13.8373 27.1008 13.7181 27.1502 13.5938 27.1502Z" />
<path d="M27.1875 7.46271H20.625C20.3661 7.46271 20.1562 7.25282 20.1562 6.99396V5.11896C20.1562 4.86009 20.3661 4.65021 20.625 4.65021H27.1875C27.4464 4.65021 27.6562 4.86009 27.6562 5.11896V6.99396C27.6562 7.25282 27.4464 7.46271 27.1875 7.46271ZM21.0938 6.52521H26.7188V5.58771H21.0938V6.52521Z" />
<path d="M26.25 10.2752H21.5625C21.3335 10.2751 21.1381 10.1096 21.1003 9.88378L20.6315 7.07128L21.5559 6.9166L21.9595 9.33769H25.8529L26.2565 6.9166L27.1809 7.07128L26.7122 9.88378C26.6744 10.1096 26.4789 10.2751 26.25 10.2752Z" />
<path d="M23.9062 5.58769C23.7818 5.58769 23.6627 5.53824 23.5748 5.45035L21.6998 3.57535L22.3626 2.91254L23.9062 4.45613L25.4498 2.91254L26.1126 3.57535L24.2376 5.45035C24.1497 5.53824 24.0305 5.58769 23.9062 5.58769Z" />
<path d="M23.4376 7.93146H24.3751V8.86896H23.4376V7.93146Z" />
<path d="M24.8438 7.93146H25.7812V8.86896H24.8438V7.93146Z" />
<path d="M22.0313 7.93146H22.9688V8.86896H22.0313V7.93146Z" />
<path d="M20.1563 13.5565C19.8975 13.5564 19.6877 13.3465 19.6877 13.0876C19.6877 13.0618 19.6899 13.0359 19.6942 13.0104L19.9285 11.6041C17.407 9.41243 17.1396 5.59165 19.3313 3.07013C21.523 0.548607 25.3438 0.281185 27.8653 2.47288C30.3868 4.66458 30.6542 8.48536 28.4625 11.0069C26.7955 12.9248 24.1074 13.5964 21.7342 12.6879L20.3977 13.4894C20.3249 13.5333 20.2414 13.5565 20.1563 13.5565ZM23.9063 1.83773C21.0607 1.83591 18.7524 4.14122 18.7505 6.98689C18.7495 8.5715 19.4777 10.0684 20.7249 11.0459C20.8596 11.1518 20.9257 11.3227 20.8974 11.4916L20.7854 12.1638L21.4524 11.7635C21.5815 11.6862 21.7398 11.6756 21.8781 11.7349C24.4964 12.8546 27.5267 11.6398 28.6464 9.02138C29.7661 6.403 28.5512 3.37271 25.9329 2.25304C25.2924 1.97911 24.603 1.83784 23.9063 1.83773Z"/>
<path d="M9.84375 10.744H3.28125C3.02238 10.744 2.8125 10.5341 2.8125 10.2752V3.71271C2.8125 3.45384 3.02238 3.24396 3.28125 3.24396H9.84375C10.1026 3.24396 10.3125 3.45384 10.3125 3.71271V10.2752C10.3125 10.5341 10.1026 10.744 9.84375 10.744ZM3.75 9.80646H9.375V4.18146H3.75V9.80646Z" />
<path d="M7.50006 6.99396H5.62506C5.36619 6.99396 5.15631 6.78407 5.15631 6.52521V3.71271H6.09381V6.05646H7.03131V3.71271H7.96881V6.52521C7.96881 6.78407 7.75893 6.99396 7.50006 6.99396Z" />
<path d="M3.28125 4.65021H9.84375V5.58771H3.28125V4.65021Z" />
<path d="M4.21875 8.40021H5.15625V9.33771H4.21875V8.40021Z" />
<path d="M5.62494 8.40021H6.56244V9.33771H5.62494V8.40021Z" />
<path d="M7.96875 15.9002C7.84441 15.9002 7.72523 15.8508 7.63734 15.7629L5.89969 14.0252H1.40625C0.62959 14.0252 0 13.3956 0 12.619V2.30646C0 1.5298 0.62959 0.900208 1.40625 0.900208H11.7188C12.4954 0.900208 13.125 1.5298 13.125 2.30646V11.2127H12.1875V2.30646C12.1875 2.04759 11.9776 1.83771 11.7188 1.83771H1.40625C1.14738 1.83771 0.9375 2.04759 0.9375 2.30646V12.619C0.9375 12.8778 1.14738 13.0877 1.40625 13.0877H6.09375C6.21809 13.0877 6.33727 13.1372 6.42516 13.2251L7.5 14.2999V13.5565C7.5 13.2976 7.70988 13.0877 7.96875 13.0877H10.7812V14.0252H8.4375V15.4315C8.4375 15.6903 8.22762 15.9002 7.96875 15.9002Z" />
<path d="M25.7813 27.1502H24.8438V19.1815C24.8438 18.9226 25.0536 18.7127 25.3125 18.7127H25.5872L24.375 17.5005L23.1628 18.7127H23.4375C23.6964 18.7127 23.9063 18.9226 23.9063 19.1815V22.9315H22.9688V19.6502H22.0313C21.7724 19.6502 21.5626 19.4403 21.5626 19.1814C21.5626 19.0571 21.612 18.938 21.6998 18.8501L24.0436 16.5063C24.2266 16.3233 24.5234 16.3233 24.7064 16.5063L27.0502 18.8501C27.2332 19.0332 27.2332 19.33 27.05 19.513C26.9622 19.6008 26.843 19.6502 26.7188 19.6502H25.7813V27.1502Z" />
<path d="M22.9688 23.869H23.9062V24.8065H22.9688V23.869Z" />
<path d="M5.15626 27.1502H4.21876V19.6502H3.28126C3.02239 19.6502 2.81256 19.4403 2.81262 19.1814C2.81262 19.0571 2.86202 18.938 2.94985 18.8501L5.2936 16.5063C5.47665 16.3233 5.77337 16.3233 5.95641 16.5063L8.30016 18.8501C8.48321 19.0332 8.48315 19.33 8.30005 19.513C8.21216 19.6008 8.09298 19.6502 7.96876 19.6502H7.03126V22.9315H6.09376V19.1815C6.09376 18.9226 6.30364 18.7127 6.56251 18.7127H6.83719L5.62501 17.5005L4.41282 18.7127H4.68751C4.94637 18.7127 5.15626 18.9226 5.15626 19.1815V27.1502Z" />
<path d="M6.09375 23.869H7.03125V24.8065H6.09375V23.869Z" />
</svg>
