<svg width="37" height="36" viewBox="0 0 37 36" fill="none" xmlns="http://www.w3.org/2000/svg">
<path d="M35.4224 12.9229C34.6718 11.2677 33.5977 9.78141 32.2299 8.50584C30.8621 7.23001 29.2687 6.22787 27.4941 5.528C26.9513 5.31385 26.3519 5.30958 25.8057 5.51625C25.2595 5.72266 24.8324 6.11545 24.6028 6.62146C24.129 7.66659 24.6549 8.87647 25.7753 9.31839C27.0241 9.81105 28.1459 10.5168 29.1101 11.4159C30.074 12.3149 30.8306 13.3614 31.3588 14.5264C31.905 15.7312 32.1821 17.0121 32.1821 18.3339C32.1821 19.6554 31.905 20.9366 31.3588 22.1414C30.8306 23.3061 30.074 24.3526 29.1101 25.2519C28.1459 26.151 27.0241 26.8567 25.7753 27.3494C24.6552 27.7913 24.129 29.0012 24.6028 30.0461C24.9492 30.8095 25.747 31.3027 26.6353 31.3027C26.9313 31.3027 27.2204 31.2479 27.4941 31.1398C28.616 30.6973 29.6752 30.1286 30.6425 29.4493C30.9671 29.2215 31.0321 28.7913 30.7876 28.4885C30.5435 28.186 30.0826 28.1254 29.7579 28.3531C28.8868 28.9649 27.9324 29.4773 26.921 29.8762C26.8297 29.9123 26.7335 29.9307 26.6353 29.9307C26.339 29.9307 26.0731 29.7662 25.9574 29.5117C25.7997 29.1633 25.9749 28.7601 26.3485 28.6127C27.7724 28.0509 29.0514 27.2466 30.1501 26.2218C31.2485 25.1969 32.1111 24.0039 32.7134 22.6757C33.3369 21.3008 33.6529 19.8402 33.6529 18.3339C33.6529 16.8276 33.3369 15.3667 32.7134 13.9918C32.1111 12.6634 31.2485 11.4703 30.1501 10.446C29.0514 9.4212 27.7724 8.61666 26.3485 8.05484C25.9749 7.90771 25.7997 7.50424 25.9577 7.15604C26.0341 6.98728 26.1764 6.85644 26.3585 6.78755C26.5405 6.71866 26.7404 6.71999 26.9213 6.79155C28.5207 7.42253 29.9569 8.3256 31.1901 9.47594C32.4231 10.626 33.3916 11.9657 34.068 13.4575C34.7685 15.0022 35.1238 16.6431 35.1238 18.3339C35.1238 20.0247 34.7685 21.6653 34.068 23.2103C33.8882 23.6063 33.6853 23.9975 33.4643 24.3721C33.2685 24.704 33.3981 25.1211 33.754 25.3035C34.1098 25.4861 34.557 25.3651 34.7528 25.0332C34.9981 24.6175 35.2234 24.1838 35.4226 23.7446C36.2002 22.0298 36.5943 20.2092 36.5943 18.3339C36.5943 16.4586 36.1999 14.638 35.4224 12.9229Z" fill="#81DE76"/>
<path d="M28.5629 21.2882C29.0607 20.1904 29.3129 19.026 29.3129 17.8265C29.3129 16.627 29.0604 15.4625 28.5629 14.3648C28.0825 13.3058 27.3958 12.3552 26.5209 11.5392C25.6461 10.7234 24.627 10.0826 23.4916 9.63449C22.9492 9.4206 22.3494 9.41633 21.8032 9.62274C21.2573 9.82942 20.8299 10.2219 20.6006 10.7282C20.371 11.2345 20.3664 11.7939 20.588 12.3031C20.8093 12.8126 21.2304 13.211 21.7732 13.4251C22.3823 13.6655 22.9303 14.0102 23.4012 14.4495C23.8721 14.8887 24.2417 15.3998 24.4993 15.968C24.7658 16.5557 24.9009 17.1808 24.9009 17.8265C24.9009 18.4722 24.7658 19.0973 24.4993 19.6847C24.2417 20.2532 23.8721 20.7643 23.4012 21.2035C22.9303 21.6428 22.3823 21.9875 21.7729 22.2278C20.6527 22.67 20.1268 23.8799 20.6006 24.9248C20.9467 25.6882 21.7445 26.1814 22.6331 26.1814C22.9288 26.1814 23.2177 26.1264 23.4919 26.0182C24.6273 25.5704 25.6464 24.9296 26.5212 24.1136C27.3958 23.2975 28.0828 22.3469 28.5629 21.2882ZM22.9188 24.7547C22.8272 24.791 22.7307 24.8094 22.6328 24.8094C22.3365 24.8094 22.0703 24.6449 21.9549 24.3905C21.7969 24.042 21.9724 23.6388 22.3457 23.4914C23.1304 23.1819 23.8354 22.7384 24.4409 22.1736C25.0467 21.6086 25.5219 20.9512 25.8536 20.2193C26.1972 19.4617 26.3712 18.6567 26.3712 17.8265C26.3712 16.9963 26.1972 16.1912 25.8536 15.4337C25.5219 14.7018 25.0464 14.0444 24.4409 13.4794C23.8354 12.9146 23.1304 12.4711 22.3457 12.1616C22.1648 12.0903 22.0245 11.9576 21.9506 11.7878C21.8768 11.6179 21.8785 11.4316 21.9549 11.2628C22.0314 11.094 22.1739 10.9632 22.3557 10.8943C22.445 10.8604 22.5386 10.8436 22.6323 10.8436C22.7293 10.8436 22.8263 10.8617 22.9185 10.898C23.8787 11.2769 24.7406 11.819 25.4809 12.5093C26.2209 13.1998 26.8021 14.0038 27.2083 14.8994C27.6288 15.8268 27.8421 16.8115 27.8421 17.8265C27.8421 18.8414 27.6288 19.8262 27.2083 20.7536C26.8023 21.6492 26.2209 22.4532 25.4809 23.1435C24.7409 23.834 23.8787 24.376 22.9188 24.7547Z" fill="#81DE76"/>
<path d="M21.8602 18.3338C21.8602 17.7172 21.7303 17.1183 21.474 16.553C21.227 16.0083 20.8737 15.5196 20.4243 15.1004C19.9748 14.6812 19.451 14.3517 18.8667 14.1212C17.7465 13.6793 16.4494 14.1701 15.9757 15.2147C15.5019 16.2598 16.0275 17.4697 17.1479 17.9119C17.2069 17.9351 17.2581 17.9674 17.3045 18.0107C17.3503 18.0534 17.3858 18.1023 17.4102 18.1562C17.4356 18.2123 17.4479 18.2702 17.4479 18.3338C17.4479 18.3973 17.4356 18.4553 17.4104 18.5108C17.3858 18.565 17.35 18.6142 17.3042 18.6569C17.2587 18.6996 17.2063 18.7327 17.1485 18.7554C16.6057 18.9696 16.1846 19.368 15.9631 19.8774C15.7415 20.3867 15.7461 20.9461 15.9754 21.4523C16.3215 22.2158 17.1193 22.709 18.0082 22.709C18.3039 22.709 18.5927 22.6542 18.8664 22.5463C19.4507 22.3159 19.9746 21.9867 20.4243 21.5672C20.874 21.1479 21.227 20.659 21.474 20.1143C21.7303 19.5493 21.8602 18.9501 21.8602 18.3338ZM20.1194 19.5797C19.9465 19.961 19.6992 20.3033 19.3843 20.5971C19.0694 20.8908 18.7024 21.1215 18.2936 21.2828C18.202 21.3188 18.1058 21.3373 18.0079 21.3373C17.7116 21.3373 17.4454 21.1728 17.33 20.918C17.2536 20.7493 17.2521 20.5629 17.3257 20.3931C17.3996 20.2232 17.5401 20.0905 17.7208 20.0192C17.9544 19.9271 18.1639 19.7952 18.3443 19.627C18.5246 19.4587 18.666 19.263 18.7648 19.0454C18.8667 18.8206 18.9185 18.581 18.9185 18.3338C18.9185 18.0865 18.867 17.8473 18.7648 17.6219C18.666 17.4043 18.5246 17.2088 18.3445 17.0406C18.1639 16.8724 17.9544 16.7405 17.7208 16.6483C17.3475 16.5009 17.172 16.0977 17.33 15.7495C17.4485 15.4881 17.7216 15.3308 18.0085 15.3308C18.1038 15.3308 18.2008 15.3482 18.2939 15.385C18.7027 15.5461 19.0694 15.7768 19.3843 16.0708C19.6992 16.3642 19.9465 16.7065 20.1194 17.0876C20.2986 17.4828 20.3894 17.902 20.3894 18.3338C20.3894 18.7656 20.2986 19.1848 20.1194 19.5797Z" fill="#81DE76"/>
<path d="M13.0331 24.5619C12.4202 23.7616 11.3312 23.4148 10.3233 23.7C9.94884 23.8057 9.58671 23.9427 9.23889 24.1077C8.45423 22.2727 8.05001 20.281 8.0669 18.3002C8.08379 16.3229 8.52121 14.3397 9.33594 12.5181C9.90848 12.8011 10.5214 13.0027 11.1669 13.1192C11.2708 13.1381 11.3753 13.1472 11.4792 13.1472C12.0017 13.1472 12.5067 12.916 12.8233 12.516L17.8742 6.13732C18.4891 5.36055 18.506 4.30687 17.9166 3.51355C17.7093 3.22623 17.4631 2.94693 17.1855 2.68364C16.8299 2.34666 16.4303 2.04652 15.998 1.79125H15.9977C13.5069 0.32102 10.2322 0.569085 8.03398 2.39445C7.73054 2.64626 7.70363 3.0799 7.97358 3.36295C8.24382 3.64599 8.70872 3.67083 9.01188 3.41902C10.5114 2.17416 12.6544 1.87216 14.4668 2.58698C14.4404 2.61742 14.4149 2.64706 14.3892 2.67723C14.3608 2.70981 14.3328 2.74239 14.3047 2.77496C14.2589 2.82837 14.2137 2.88124 14.1685 2.93411C14.1424 2.96482 14.1161 2.99552 14.09 3.02596C14.0428 3.08124 13.9961 3.13651 13.9495 3.19152C13.9263 3.21875 13.9028 3.24626 13.8799 3.27376C13.8309 3.33171 13.7826 3.38938 13.7342 3.44679C13.7142 3.47082 13.6938 3.49486 13.6738 3.51889C13.6214 3.58137 13.5699 3.64305 13.5186 3.705C13.5032 3.72343 13.4874 3.74212 13.4723 3.76081C13.2713 4.003 13.0775 4.23985 12.8908 4.47136C12.8782 4.48685 12.8659 4.50207 12.8533 4.51755C12.8047 4.57817 12.7563 4.63825 12.7085 4.69806C12.6907 4.72023 12.6736 4.74239 12.6558 4.76428C12.6137 4.81715 12.5716 4.87003 12.5301 4.92236C12.511 4.94639 12.4921 4.97043 12.4732 4.99473C12.434 5.04412 12.3947 5.09379 12.3564 5.14266C12.3366 5.16802 12.3169 5.19312 12.2974 5.21822C12.2602 5.26575 12.223 5.31328 12.1863 5.36028C12.1666 5.38565 12.1471 5.41101 12.1276 5.43611C12.0916 5.48258 12.0561 5.5285 12.0206 5.57443C12.0014 5.59953 11.9822 5.62437 11.9633 5.6492C11.9284 5.69486 11.8935 5.74025 11.8591 5.78538C11.8405 5.80995 11.8219 5.83425 11.8033 5.85854C11.7689 5.90367 11.7352 5.94853 11.7014 5.99312C11.6836 6.01662 11.6659 6.04012 11.6481 6.06362C11.6141 6.10875 11.5803 6.1536 11.5468 6.19846C11.5302 6.22063 11.5136 6.24279 11.497 6.26495C11.4629 6.31061 11.4294 6.35574 11.3959 6.40087C11.3808 6.42143 11.3656 6.44199 11.3507 6.46228C11.3152 6.50981 11.2806 6.55708 11.2462 6.60407C11.2336 6.62116 11.2207 6.63852 11.2081 6.65561C11.1701 6.70768 11.1326 6.75948 11.0954 6.81075C11.0871 6.82223 11.0785 6.83371 11.0702 6.84519C10.9319 7.03585 10.7999 7.22063 10.674 7.3998C10.668 7.40835 10.6622 7.41689 10.6562 7.42544C10.621 7.47537 10.5861 7.52504 10.552 7.5739C10.542 7.58859 10.532 7.60274 10.522 7.61716C10.4922 7.66015 10.4627 7.70261 10.4335 7.7448C10.422 7.76162 10.4106 7.77844 10.3989 7.79526C10.3719 7.83452 10.3453 7.87323 10.319 7.91168C10.3067 7.92958 10.2947 7.94747 10.2826 7.96536C10.2574 8.00221 10.2325 8.03879 10.2079 8.0751C10.1956 8.09353 10.1833 8.11169 10.171 8.12984C10.1472 8.16509 10.1238 8.20034 10.1006 8.23505C10.0883 8.25321 10.0759 8.27163 10.0639 8.28979C10.0413 8.3237 10.019 8.35735 9.99694 8.39072C9.98491 8.40862 9.97318 8.42651 9.96115 8.4444C9.93882 8.47831 9.91707 8.51169 9.89531 8.5448C9.88443 8.56135 9.87355 8.57817 9.86267 8.59446C9.84092 8.62811 9.81945 8.66122 9.79798 8.69406C9.78767 8.70982 9.77737 8.72584 9.76735 8.74159C9.74559 8.77497 9.72441 8.80781 9.70351 8.84039C9.69406 8.85508 9.68462 8.86976 9.67545 8.88418C9.6537 8.91809 9.63251 8.95147 9.61133 8.98485C9.60331 8.9974 9.5953 9.01022 9.58728 9.0225C9.56352 9.05988 9.54062 9.09673 9.51743 9.13332C9.51285 9.14106 9.5077 9.1488 9.50283 9.15655C9.41896 9.29059 9.34023 9.4185 9.26637 9.54026C9.26151 9.54827 9.25693 9.55601 9.25206 9.56402C9.23288 9.5958 9.21399 9.62731 9.19538 9.65828C9.18851 9.66976 9.18164 9.68098 9.17477 9.69246C9.15874 9.71916 9.14299 9.74587 9.12753 9.77203C9.12009 9.78458 9.11265 9.79687 9.10549 9.80942C9.09089 9.83398 9.07658 9.85828 9.06255 9.88205C9.05482 9.89513 9.04738 9.90795 9.03994 9.92077C9.02677 9.94346 9.0136 9.96616 9.00072 9.98806C8.99299 10.0011 8.98554 10.0142 8.9781 10.027C8.96579 10.0484 8.95377 10.0692 8.94203 10.0901C8.93459 10.1026 8.92743 10.1154 8.92027 10.1277C8.90854 10.1485 8.8968 10.1688 8.88564 10.1889C8.87877 10.2009 8.87218 10.2126 8.86531 10.2246C8.85415 10.2444 8.84327 10.2636 8.83268 10.2829C8.82609 10.2943 8.81979 10.3058 8.8135 10.317C8.8029 10.3357 8.79288 10.3541 8.78258 10.3723C8.77657 10.3835 8.77027 10.395 8.76397 10.4062C8.75424 10.4236 8.74508 10.4407 8.73563 10.4575C8.72962 10.4684 8.72361 10.4791 8.71788 10.4898C8.70901 10.5066 8.70013 10.5226 8.69154 10.5387C8.68582 10.5493 8.68009 10.5598 8.67437 10.5702C8.66607 10.5859 8.65805 10.6009 8.64975 10.6161C8.6446 10.626 8.63916 10.6359 8.63429 10.6452C8.62398 10.6647 8.61397 10.6834 8.60423 10.7018C8.60194 10.7063 8.59937 10.7112 8.59679 10.7157C8.58477 10.7389 8.57303 10.7614 8.56158 10.783C8.55929 10.7875 8.55728 10.7915 8.55499 10.7961C8.54641 10.8126 8.53782 10.8292 8.52952 10.8452C8.52522 10.8532 8.5215 10.8607 8.51749 10.8687C8.51148 10.8802 8.50547 10.8919 8.49974 10.9031C8.49545 10.9122 8.49087 10.9205 8.48658 10.9293C8.482 10.9384 8.47741 10.9475 8.47283 10.9563C8.46854 10.9654 8.46396 10.9742 8.45967 10.9827C8.45594 10.9905 8.45194 10.9985 8.44822 11.0059C8.44392 11.0145 8.43991 11.0228 8.43591 11.031C8.43247 11.0377 8.42932 11.0444 8.42617 11.0508C8.42216 11.0588 8.41844 11.0666 8.41472 11.074C8.41157 11.0802 8.40871 11.0866 8.40585 11.0925C8.40241 11.0997 8.39898 11.1063 8.39583 11.113C8.39325 11.1186 8.39096 11.1237 8.38838 11.1288C8.38524 11.1352 8.38237 11.1416 8.37922 11.1477C8.37722 11.1523 8.37493 11.1568 8.37293 11.1614C8.37006 11.1672 8.36749 11.1731 8.36491 11.1784C8.36319 11.1816 8.36205 11.1846 8.36062 11.1878C8.35775 11.1937 8.35518 11.1995 8.3526 11.2049C8.35146 11.207 8.3506 11.2089 8.34974 11.211C8.34716 11.2164 8.34487 11.2214 8.34287 11.226C8.3423 11.2273 8.34172 11.2286 8.34086 11.23C8.33886 11.2348 8.33686 11.2393 8.33514 11.2433C7.21783 13.4265 6.61637 15.8626 6.59576 18.2898C6.57486 20.7256 7.13739 23.1779 8.22263 25.3822C8.22407 25.3849 8.22607 25.3873 8.22721 25.3902C8.24067 25.4161 8.25498 25.4418 8.27216 25.4666C8.27273 25.4677 8.27559 25.4717 8.27932 25.477C8.28046 25.4786 8.28161 25.4799 8.28304 25.4821C8.29449 25.4986 8.31539 25.5288 8.34459 25.571C8.34602 25.5729 8.34716 25.5747 8.34859 25.5766C8.35403 25.5843 8.35976 25.5926 8.36577 25.6012C8.36949 25.6062 8.37293 25.6113 8.37665 25.6169C8.3818 25.6244 8.38753 25.6324 8.39325 25.6404C8.39726 25.646 8.40098 25.6516 8.40527 25.6575C8.41386 25.6698 8.42302 25.6831 8.43218 25.6965C8.43333 25.6981 8.43447 25.6997 8.43562 25.7013C8.44507 25.7146 8.45509 25.7288 8.46511 25.7435C8.46825 25.748 8.4714 25.7523 8.47455 25.7568C8.48343 25.7694 8.49259 25.7825 8.50203 25.7958C8.50719 25.803 8.51234 25.8102 8.51749 25.8177C8.52637 25.8305 8.53581 25.8439 8.54526 25.8575C8.54984 25.8642 8.55471 25.8709 8.55957 25.8775C8.57102 25.8938 8.58276 25.9106 8.59479 25.9277C8.59793 25.9323 8.60108 25.9368 8.60452 25.9414C8.6174 25.9598 8.63086 25.9787 8.6446 25.9982C8.64803 26.003 8.65118 26.0078 8.65462 26.0126C8.66893 26.0327 8.68353 26.0532 8.69842 26.0746C8.70214 26.0797 8.70586 26.085 8.70958 26.0903C8.72332 26.1096 8.73706 26.1291 8.75109 26.1491C8.75796 26.1584 8.76483 26.1683 8.7717 26.1779C8.78544 26.1977 8.79975 26.2175 8.81407 26.238C8.81836 26.2436 8.82237 26.2495 8.82666 26.2554C8.84327 26.2789 8.86016 26.3029 8.87762 26.3275C8.88163 26.3328 8.88564 26.3384 8.88964 26.344C8.90768 26.3694 8.926 26.3953 8.94489 26.4217C8.94776 26.426 8.9509 26.4305 8.95405 26.4348C8.97381 26.4623 8.99356 26.4901 9.01417 26.5187C9.01732 26.5235 9.02075 26.5283 9.02419 26.5328C9.16274 26.7267 9.31876 26.9443 9.49138 27.1835C9.49253 27.1849 9.49339 27.1862 9.49453 27.1875C9.52087 27.2244 9.54806 27.2618 9.57526 27.2994C9.5787 27.3042 9.58184 27.3088 9.58528 27.3133C9.61076 27.3486 9.63681 27.3846 9.66315 27.4207C9.66858 27.4284 9.67402 27.4359 9.67946 27.4434C9.70408 27.4773 9.72899 27.5117 9.75418 27.5464C9.76191 27.5571 9.76964 27.5678 9.77737 27.5785C9.80055 27.6102 9.82432 27.6428 9.84779 27.6751C9.85809 27.6896 9.8684 27.7034 9.87899 27.7179C9.90218 27.7496 9.92565 27.7819 9.94941 27.8145C9.96001 27.8289 9.9706 27.8436 9.98148 27.8583C10.0055 27.8914 10.0299 27.9248 10.0545 27.9584C10.0654 27.9734 10.0765 27.9883 10.0874 28.0033C10.1117 28.0367 10.1366 28.0706 10.1613 28.1042C10.173 28.12 10.1844 28.1357 10.1959 28.1515C10.2214 28.1862 10.2471 28.2212 10.2729 28.2564C10.2841 28.2717 10.2952 28.2869 10.3064 28.3021C10.3313 28.336 10.3565 28.3702 10.382 28.4046C10.396 28.4239 10.4103 28.4431 10.4246 28.4626C10.449 28.4957 10.4733 28.5288 10.4979 28.5622C10.5116 28.5806 10.5254 28.599 10.5391 28.6177C10.5649 28.653 10.5912 28.6882 10.6176 28.7237C10.6313 28.7422 10.6448 28.7608 10.6588 28.7793C10.6848 28.8145 10.7109 28.85 10.7375 28.8858C10.7518 28.9053 10.7664 28.9248 10.781 28.9443C10.8077 28.9803 10.8343 29.0164 10.8612 29.0527C10.8766 29.073 10.8918 29.0936 10.9073 29.1144C10.9328 29.1488 10.9588 29.1835 10.9849 29.2185C11.002 29.2418 11.0195 29.2653 11.037 29.2885C11.0627 29.3229 11.0885 29.3574 11.1142 29.3924C11.1311 29.4145 11.148 29.4372 11.1646 29.4596C11.1918 29.496 11.219 29.532 11.2465 29.5689C11.2625 29.5902 11.2786 29.6119 11.2949 29.6332C11.3229 29.6711 11.3513 29.7088 11.3799 29.7467C11.3951 29.7673 11.4105 29.7876 11.426 29.8081C11.4563 29.8487 11.487 29.8893 11.5179 29.9304C11.5296 29.9459 11.5416 29.9619 11.5534 29.9774C11.5872 30.0225 11.6212 30.0674 11.6556 30.1128C11.667 30.128 11.6785 30.1435 11.6902 30.1587C11.7254 30.2054 11.7609 30.2522 11.7964 30.2994C11.8007 30.3048 11.805 30.3106 11.809 30.316C11.9845 30.5478 12.1649 30.7849 12.3504 31.0271C12.3578 31.037 12.3652 31.0466 12.373 31.0564C12.4108 31.1061 12.4491 31.156 12.4875 31.2062C12.4998 31.2223 12.5118 31.238 12.5244 31.254C12.5582 31.2978 12.592 31.3422 12.626 31.3865C12.6441 31.4095 12.6615 31.4327 12.6796 31.4556C12.7119 31.4978 12.7446 31.5403 12.7775 31.5827C12.7964 31.6073 12.8153 31.6321 12.8344 31.657C12.8671 31.6992 12.9 31.7414 12.9326 31.7838C12.9527 31.8097 12.9727 31.8354 12.9928 31.8613C13.0242 31.9018 13.0557 31.9427 13.0875 31.9835C13.1095 32.0119 13.1313 32.0402 13.1533 32.0685C13.1851 32.1093 13.2172 32.1502 13.249 32.1913C13.2704 32.2191 13.2922 32.2468 13.3137 32.2746C13.3463 32.316 13.3786 32.3576 13.4113 32.3993C13.4333 32.4276 13.4554 32.4559 13.4777 32.4842C13.5098 32.5253 13.5421 32.5665 13.5745 32.6078C13.5979 32.6378 13.6211 32.6674 13.6446 32.6973C13.6755 32.7368 13.7067 32.7763 13.7379 32.8161C13.7625 32.8474 13.7871 32.8786 13.8118 32.9099C13.8441 32.951 13.8768 32.9924 13.9094 33.0338C13.9326 33.0631 13.9558 33.0925 13.9789 33.1219C14.0119 33.1635 14.0445 33.2049 14.0774 33.2466C14.102 33.2775 14.1267 33.3085 14.1513 33.3395C14.1836 33.3806 14.2163 33.4217 14.2492 33.4629C14.2735 33.4936 14.2979 33.5243 14.3222 33.555C14.356 33.5972 14.3897 33.6396 14.4235 33.6821C14.4476 33.7123 14.4716 33.7424 14.4957 33.7726C14.5294 33.8148 14.5635 33.8573 14.5976 33.8997C14.6059 33.9101 14.6139 33.9205 14.6222 33.931C13.7688 34.34 12.8012 34.5219 11.8316 34.4487C10.5961 34.355 9.43585 33.8487 8.56473 33.0231C8.49774 32.9595 8.43047 32.8914 8.37092 32.8313C8.36777 32.8279 8.36434 32.8247 8.3609 32.8212C5.27978 29.8255 3.29221 26.0375 2.61346 21.8663C1.96964 17.9104 2.50067 13.7427 4.14873 9.81396C4.42498 9.15548 4.91708 8.32824 5.61128 7.35521C5.836 7.03986 5.7444 6.61395 5.40631 6.40407C5.06823 6.19419 4.61163 6.27991 4.38662 6.59526C3.63459 7.64974 3.09382 8.56456 2.77921 9.31409C1.03697 13.4668 0.47703 17.8783 1.1595 22.0722C1.88376 26.5224 4.00502 30.5657 7.29455 33.7662C7.36039 33.8327 7.43482 33.9077 7.51641 33.9852C8.63515 35.0455 10.1252 35.6954 11.7126 35.8159C11.8929 35.8295 12.073 35.8364 12.2527 35.8364C13.6386 35.8364 14.9958 35.4332 16.1237 34.6783C16.4048 34.4904 16.6716 34.2805 16.9175 34.0548C17.1943 33.8009 17.4463 33.5259 17.6661 33.238C17.7056 33.1862 17.7371 33.1296 17.76 33.0698L17.8977 32.7083C18.1576 32.0257 18.0134 31.0666 17.5619 30.4773L13.0331 24.5619ZM16.7062 4.29272C16.9384 4.6038 16.9324 5.01742 16.6911 5.32236L11.6404 11.701C11.5955 11.7576 11.5193 11.7859 11.4463 11.7726C10.9159 11.6767 10.4137 11.5072 9.94712 11.2666C10.159 10.8698 10.5111 10.25 11.0421 9.42971C11.1681 9.23532 11.3081 9.02357 11.4621 8.7958C12.4033 7.41022 13.715 5.65774 15.4461 3.64065C15.4478 3.63878 15.4492 3.63691 15.4509 3.63504C15.5448 3.52583 15.6405 3.41555 15.7366 3.30474C15.8769 3.41208 16.0106 3.5261 16.1371 3.64626C16.3527 3.85053 16.5416 4.06468 16.6991 4.28311C16.7017 4.28631 16.704 4.28952 16.7062 4.29272ZM16.5119 32.2482L16.41 32.5163C16.2537 32.7123 16.0779 32.9005 15.8861 33.0765C15.8649 33.096 15.8431 33.1155 15.8217 33.1347C15.8157 33.1272 15.8094 33.1195 15.8033 33.112C15.7266 33.0161 15.6505 32.9205 15.5746 32.8255C15.5597 32.8068 15.5448 32.7881 15.53 32.7694C15.4627 32.685 15.396 32.6012 15.3296 32.5173C15.3161 32.5002 15.3027 32.4831 15.2889 32.4661C15.2145 32.3721 15.1406 32.2786 15.0673 32.1854C15.051 32.1649 15.0347 32.1443 15.0187 32.1237C14.9477 32.0338 14.8773 31.9443 14.8074 31.8551C14.8028 31.8492 14.7983 31.8434 14.7934 31.8372C14.7198 31.7432 14.6468 31.65 14.5741 31.5568C14.5578 31.536 14.5415 31.5152 14.5252 31.4944C14.4536 31.4022 14.3823 31.3107 14.3116 31.2199C14.3067 31.2135 14.3016 31.2068 14.2964 31.2004C14.2286 31.1131 14.1613 31.026 14.0946 30.9398C14.0806 30.9216 14.0665 30.9034 14.0525 30.8853C13.9827 30.795 13.9134 30.7053 13.845 30.6161C13.8358 30.6046 13.8272 30.5932 13.8181 30.5814C13.7562 30.501 13.6947 30.4209 13.634 30.3414C13.6208 30.3245 13.6079 30.3077 13.5951 30.2909C13.5292 30.2046 13.4637 30.1192 13.399 30.0343C13.3861 30.0175 13.3735 30.0006 13.3606 29.9841C13.3025 29.9074 13.2447 29.8316 13.1871 29.756C13.1774 29.7432 13.1677 29.7304 13.1579 29.7176C13.0944 29.634 13.0317 29.5512 12.9696 29.4693C12.9564 29.4516 12.9429 29.434 12.9298 29.4164C12.8685 29.3352 12.8075 29.2546 12.7474 29.1747C12.7457 29.1729 12.7443 29.1707 12.7428 29.1686C12.6807 29.0863 12.6197 29.0052 12.5591 28.9243C12.5465 28.9077 12.5341 28.8912 12.5218 28.8749C12.462 28.795 12.4027 28.716 12.3443 28.6378C12.3409 28.6332 12.3375 28.6287 12.334 28.6239C12.2785 28.5496 12.2241 28.4765 12.17 28.4041C12.1583 28.3881 12.1462 28.3723 12.1345 28.3563C12.0793 28.2821 12.0246 28.2084 11.9705 28.1357C11.9616 28.1235 11.9527 28.1114 11.9436 28.0992C11.8955 28.0345 11.8482 27.9705 11.8013 27.9072C11.7913 27.8936 11.7813 27.8799 11.7712 27.8666C11.7194 27.7964 11.6682 27.7269 11.6178 27.6583C11.6075 27.6444 11.5972 27.6305 11.5872 27.6167C11.5416 27.555 11.4967 27.4941 11.4526 27.434C11.4457 27.4244 11.4386 27.4148 11.4317 27.4052C11.3825 27.3381 11.3341 27.2725 11.2869 27.2073C11.2774 27.1945 11.268 27.1819 11.2588 27.1691C11.2116 27.1045 11.1649 27.0407 11.1194 26.9782C11.1188 26.9774 11.118 26.9763 11.1174 26.9753C11.0722 26.9133 11.0281 26.8527 10.9843 26.7929C10.9734 26.7777 10.9625 26.7627 10.9519 26.748C10.9093 26.6896 10.8675 26.6319 10.8268 26.5755C10.8228 26.5699 10.8188 26.5646 10.8148 26.559C10.7764 26.5058 10.7389 26.454 10.702 26.4028C10.6934 26.391 10.6848 26.3793 10.6765 26.3678C10.6382 26.3146 10.6007 26.2623 10.564 26.2116C10.5569 26.2017 10.55 26.1918 10.5429 26.1819C10.5088 26.1349 10.4756 26.0885 10.4432 26.0434C10.4384 26.0369 10.4335 26.0303 10.4289 26.0236C10.3937 25.9745 10.3594 25.9267 10.3259 25.8799C10.3187 25.8698 10.3115 25.8599 10.3044 25.8498C10.2749 25.8084 10.246 25.7678 10.2179 25.7285C10.2136 25.7229 10.2096 25.7171 10.2056 25.7114C10.175 25.6685 10.1455 25.6268 10.1166 25.5865C10.11 25.5769 10.1031 25.5675 10.0966 25.5582C10.0396 25.4781 9.98663 25.4036 9.93768 25.3341C9.93396 25.3291 9.93052 25.324 9.9268 25.3189C10.1913 25.195 10.4661 25.0928 10.7495 25.0126C11.1535 24.8986 11.5903 25.0377 11.8362 25.3592L16.3653 31.2738C16.5396 31.5018 16.6123 31.9844 16.5119 32.2482Z" fill="#81DE76"/>
<path d="M32.7147 26.2793C32.3383 26.1372 31.9094 26.3065 31.7571 26.6577L31.7391 26.699C31.5868 27.0502 31.7683 27.4499 32.1447 27.5923C32.2352 27.6264 32.3285 27.6425 32.4204 27.6425C32.7113 27.6425 32.9867 27.4806 33.1023 27.2139L33.1204 27.1725C33.2727 26.8213 33.0912 26.4216 32.7147 26.2793Z" fill="#81DE76"/>
<path d="M6.42573 5.54879C6.5162 5.58271 6.60952 5.59899 6.70142 5.59899C6.99227 5.59899 7.26738 5.43691 7.38333 5.17015L7.40108 5.12876C7.55337 4.77761 7.37159 4.37787 6.99514 4.23581C6.61868 4.09375 6.19013 4.26305 6.03783 4.61446L6.0198 4.65558C5.8675 5.00673 6.04928 5.40673 6.42573 5.54879Z" fill="#81DE76"/>
</svg>
