<svg width="20" height="21" viewBox="0 0 20 21" fill="none" xmlns="http://www.w3.org/2000/svg">
<path d="M17.1546 8.66593C17.1784 5.8814 14.8067 3.32872 11.8679 2.97573C11.8095 2.9688 11.7458 2.95825 11.6784 2.94708C11.5329 2.92298 11.3825 2.8982 11.2307 2.8982C10.6283 2.8982 10.4673 3.32129 10.425 3.57363C10.3837 3.81897 10.423 4.025 10.5416 4.18626C10.7411 4.45748 11.092 4.50563 11.3739 4.54421C11.4566 4.55562 11.5345 4.56623 11.5998 4.58089C14.2402 5.17088 15.1292 6.09847 15.5637 8.71641C15.5744 8.78039 15.5791 8.8592 15.5842 8.9428C15.6032 9.25574 15.6427 9.90682 16.3427 9.90682C16.4009 9.90682 16.4636 9.90179 16.5288 9.89186C17.1806 9.7928 17.1602 9.19766 17.1504 8.91171C17.1476 8.83117 17.145 8.75499 17.1518 8.70433C17.1536 8.69157 17.1546 8.67875 17.1546 8.66593Z" fill="white"/>
<path d="M11.0598 1.95365C11.138 1.95929 11.212 1.96469 11.2736 1.97414C15.6094 2.64092 17.6034 4.69519 18.156 9.06489C18.1654 9.13917 18.1668 9.22976 18.1684 9.32569C18.1739 9.66709 18.1852 10.3773 18.9479 10.392L18.9716 10.3923C19.2108 10.3923 19.4011 10.3201 19.5372 10.1777C19.7746 9.92936 19.7581 9.56042 19.7447 9.26393C19.7414 9.19118 19.7383 9.12267 19.7391 9.06268C19.7943 4.59362 15.9258 0.541083 11.4607 0.39038C11.4422 0.389767 11.4245 0.390748 11.4067 0.393263C11.3979 0.394551 11.3817 0.396146 11.3538 0.396146C11.3093 0.396146 11.2545 0.392282 11.1964 0.388356C11.1262 0.383572 11.0466 0.378052 10.9659 0.378052C10.2548 0.378052 10.1196 0.883461 10.1023 1.18474C10.0624 1.88103 10.736 1.93004 11.0598 1.95365Z" fill="white"/>
<path d="M17.9468 14.7124C17.8546 14.642 17.7593 14.5692 17.67 14.4973C17.1966 14.1163 16.693 13.7652 16.2059 13.4256C16.1048 13.3551 16.0038 13.2847 15.903 13.214C15.2791 12.7758 14.7182 12.5628 14.1883 12.5628C13.4745 12.5628 12.8522 12.9572 12.3386 13.7349C12.111 14.0796 11.8349 14.2473 11.4947 14.2473C11.2935 14.2473 11.0649 14.1899 10.8153 14.0766C8.8015 13.1633 7.36348 11.7632 6.54115 9.91492C6.14363 9.02162 6.2725 8.43771 6.97209 7.96247C7.36937 7.69284 8.10884 7.19087 8.05645 6.22961C7.99714 5.13801 5.5886 1.85353 4.57379 1.48048C4.14414 1.32248 3.6927 1.32101 3.22961 1.4768C2.063 1.86898 1.22583 2.55773 0.808375 3.46844C0.404968 4.34843 0.423185 5.3817 0.861063 6.45655C2.12692 9.5642 3.90664 12.2737 6.15099 14.5095C8.3478 16.6983 11.0479 18.4911 14.1761 19.8381C14.4581 19.9594 14.7539 20.0256 14.9698 20.0739C15.0434 20.0905 15.107 20.1046 15.1533 20.1173C15.1787 20.1242 15.205 20.1279 15.2313 20.1282L15.256 20.1283C15.2559 20.1283 15.2561 20.1283 15.256 20.1283C16.7273 20.1283 18.4941 18.7838 19.0367 17.251C19.5121 15.9089 18.6442 15.2455 17.9468 14.7124Z" fill="white"/>
<path d="M11.7106 5.50357C11.4587 5.50995 10.9344 5.52295 10.7505 6.05688C10.6644 6.3064 10.6747 6.52304 10.7811 6.70079C10.9373 6.96159 11.2365 7.04151 11.5086 7.08537C12.4956 7.24374 13.0025 7.7895 13.1039 8.80278C13.151 9.27525 13.4691 9.60518 13.8776 9.60518C13.9078 9.60518 13.9387 9.6034 13.9694 9.59966C14.4607 9.5412 14.6989 9.18024 14.6774 8.52689C14.6852 7.84501 14.3284 7.07089 13.7215 6.45428C13.1125 5.83577 12.3783 5.48744 11.7106 5.50357Z" fill="white"/>
</svg>
