<svg width="30" height="25" viewBox="0 0 30 25" fill="none" xmlns="http://www.w3.org/2000/svg">
<path d="M3 0.53981H27C27.7957 0.53981 28.5587 0.855881 29.1213 1.41849C29.6839 1.9811 30 2.74416 30 3.53981V21.5398C30 22.3355 29.6839 23.0985 29.1213 23.6611C28.5587 24.2237 27.7957 24.5398 27 24.5398H3C2.20435 24.5398 1.44129 24.2237 0.87868 23.6611C0.31607 23.0985 0 22.3355 0 21.5398V3.53981C0 2.74416 0.31607 1.9811 0.87868 1.41849C1.44129 0.855881 2.20435 0.53981 3 0.53981ZM3 3.53981V8.03981H27V3.53981H3ZM3 11.0398V21.5398H27V11.0398H3ZM6 15.5398V18.5398H12V15.5398H6ZM15 15.5398V18.5398H21V15.5398H15Z" fill="#49C3FF"/>
</svg>
