<svg width="30" height="30" viewBox="0 0 30 30"  xmlns="http://www.w3.org/2000/svg">
<path d="M15.4688 3.75C15.9858 3.75 16.4062 4.17047 16.4062 4.6875H17.3438C17.3438 3.65344 16.5028 2.8125 15.4688 2.8125C14.4347 2.8125 13.5938 3.65344 13.5938 4.6875V5.625C13.5938 6.65906 14.4347 7.5 15.4688 7.5C16.5028 7.5 17.3438 6.65906 17.3438 5.625H16.4062C16.4062 6.14203 15.9858 6.5625 15.4688 6.5625C14.9517 6.5625 14.5312 6.14203 14.5312 5.625V4.6875C14.5312 4.17047 14.9517 3.75 15.4688 3.75Z"/>
<path d="M20.625 2.8125H18.2812V7.5H19.2188V5.625H20.625C20.8833 5.625 21.0938 5.83547 21.0938 6.09375V7.5H22.0312V6.09375C22.0312 5.73234 21.8902 5.40563 21.6656 5.15625C21.8906 4.90687 22.0312 4.58016 22.0312 4.21875C22.0312 3.44344 21.4003 2.8125 20.625 2.8125ZM19.2188 4.6875V3.75H20.625C20.8833 3.75 21.0938 3.96047 21.0938 4.21875C21.0938 4.47703 20.8833 4.6875 20.625 4.6875H19.2188Z" />
<path d="M25.4433 5.625H25.1817L24.2442 2.8125H22.9688V7.5H23.9062V4.76344L24.5058 6.5625H26.1192L26.7188 4.76344V7.5H27.6562V2.8125H26.3808L25.4433 5.625Z" />
<path d="M2.34375 9.375H3.28125V10.3125H2.34375V9.375Z" />
<path d="M4.21875 9.375H5.15625V10.3125H4.21875V9.375Z" />
<path d="M6.09375 9.375H7.03125V10.3125H6.09375V9.375Z" />
<path d="M24.375 14.0625H16.875C16.0997 14.0625 15.4688 14.6934 15.4688 15.4688V16.4062C15.4688 17.1816 16.0997 17.8125 16.875 17.8125V18.75C16.0997 18.75 15.4688 19.3809 15.4688 20.1562V21.0938C15.4688 21.8691 16.0997 22.5 16.875 22.5V23.4375C16.0997 23.4375 15.4688 24.0684 15.4688 24.8438V25.7812C15.4688 26.5566 16.0997 27.1875 16.875 27.1875H24.375C25.1503 27.1875 25.7812 26.5566 25.7812 25.7812V24.8438C25.7812 24.0684 25.1503 23.4375 24.375 23.4375V22.5C25.1503 22.5 25.7812 21.8691 25.7812 21.0938V20.1562C25.7812 19.3809 25.1503 18.75 24.375 18.75V17.8125C25.1503 17.8125 25.7812 17.1816 25.7812 16.4062V15.4688C25.7812 14.6934 25.1503 14.0625 24.375 14.0625ZM24.8438 24.8438V25.7812C24.8438 26.04 24.6333 26.25 24.375 26.25H16.875C16.6167 26.25 16.4062 26.04 16.4062 25.7812V24.8438C16.4062 24.585 16.6167 24.375 16.875 24.375H24.375C24.6333 24.375 24.8438 24.585 24.8438 24.8438ZM23.4375 23.4375H17.8125V22.5H23.4375V23.4375ZM24.8438 20.1562V21.0938C24.8438 21.3525 24.6333 21.5625 24.375 21.5625H16.875C16.6167 21.5625 16.4062 21.3525 16.4062 21.0938V20.1562C16.4062 19.8975 16.6167 19.6875 16.875 19.6875H24.375C24.6333 19.6875 24.8438 19.8975 24.8438 20.1562ZM23.4375 18.75H17.8125V17.8125H23.4375V18.75ZM24.8438 16.4062C24.8438 16.665 24.6333 16.875 24.375 16.875H16.875C16.6167 16.875 16.4062 16.665 16.4062 16.4062V15.4688C16.4062 15.21 16.6167 15 16.875 15H24.375C24.6333 15 24.8438 15.21 24.8438 15.4688V16.4062Z" />
<path d="M27.1875 0H14.0625C12.7702 0 11.7188 1.05141 11.7188 2.34375V7.5H1.875C1.09969 7.5 0.46875 8.13094 0.46875 8.90625V27.6562C0.46875 28.4316 1.09969 29.0625 1.875 29.0625H26.25C27.0253 29.0625 27.6562 28.4316 27.6562 27.6562V10.2652C28.7245 10.0472 29.5312 9.10078 29.5312 7.96875V2.34375C29.5312 1.05141 28.4798 0 27.1875 0ZM1.875 8.4375H11.7661C11.9841 9.50578 12.9305 10.3125 14.0625 10.3125H15.7181L16.4995 11.25H1.40625V8.90625C1.40625 8.64797 1.61672 8.4375 1.875 8.4375ZM26.25 28.125H1.875C1.61672 28.125 1.40625 27.915 1.40625 27.6562V12.1875H17.2805L17.6339 12.6117C17.9058 12.938 18.3052 13.125 18.7298 13.125C19.3439 13.125 19.8638 12.7327 20.0644 12.1875H26.7188V27.6562C26.7188 27.915 26.5083 28.125 26.25 28.125ZM20.1562 11.25V10.3125H26.7188V11.25H20.1562ZM28.5938 7.96875C28.5938 8.74406 27.9628 9.375 27.1875 9.375H19.2188V11.6986C19.2188 11.9681 18.9994 12.1875 18.7298 12.1875C18.5841 12.1875 18.4472 12.1233 18.3539 12.0117L16.1569 9.375H14.0625C13.2872 9.375 12.6562 8.74406 12.6562 7.96875V2.34375C12.6562 1.56844 13.2872 0.9375 14.0625 0.9375H27.1875C27.9628 0.9375 28.5938 1.56844 28.5938 2.34375V7.96875Z"/>
<path d="M8.4375 23.4375C11.2805 23.4375 13.5938 21.1242 13.5938 18.2812C13.5938 15.4383 11.2805 13.125 8.4375 13.125C5.59453 13.125 3.28125 15.4383 3.28125 18.2812C3.28125 21.1242 5.59453 23.4375 8.4375 23.4375ZM8.4375 22.5C7.44281 22.5 6.52922 22.1522 5.80734 21.5742L8.63156 18.75H12.6286C12.3947 20.8561 10.605 22.5 8.4375 22.5ZM11.7305 15.6511C12.2161 16.2581 12.5381 17.0002 12.6286 17.8125H9.56906L11.7305 15.6511ZM11.0677 14.9883L8.4375 17.6184L5.80734 14.9883C6.52922 14.4103 7.44281 14.0625 8.4375 14.0625C9.43219 14.0625 10.3458 14.4103 11.0677 14.9883ZM5.14453 15.6511L7.77469 18.2812L5.14453 20.9114C4.56656 20.1895 4.21875 19.2759 4.21875 18.2812C4.21875 17.2866 4.56656 16.373 5.14453 15.6511Z" />
<path d="M2.34375 24.375H3.28125V25.3125H2.34375V24.375Z" />
<path d="M4.21875 24.375H14.5312V25.3125H4.21875V24.375Z" />
<path d="M2.34375 26.25H5.15625V27.1875H2.34375V26.25Z" />
<path d="M6.09375 26.25H14.5312V27.1875H6.09375V26.25Z" />
</svg>
