<svg width="30" height="30" viewBox="0 0 30 30"  xmlns="http://www.w3.org/2000/svg">
<path d="M7.48006 2.18019C7.20116 1.94193 6.78944 1.94516 6.51429 2.18768L4.50218 3.98831V3.75234C4.50218 3.47624 4.2784 3.25246 4.00231 3.25246C3.72621 3.25246 3.50243 3.47624 3.50243 3.75234V4.88361L2.66905 5.62947C2.46641 5.8143 2.45054 6.12788 2.63349 6.33227C2.81644 6.53667 3.12985 6.55541 3.33588 6.37434L7.00163 3.093L10.6674 6.37434C10.8001 6.49542 10.9877 6.53596 11.1586 6.48049C11.3295 6.42501 11.4575 6.28207 11.4938 6.10603C11.5301 5.93005 11.4692 5.7481 11.3342 5.62947L7.48006 2.18019Z" />
<path d="M10.0011 7.0017C9.72496 7.0017 9.50118 7.22548 9.50118 7.50157V11.0008H4.50218V7.50157C4.50218 7.22548 4.27839 7.0017 4.0023 7.0017C3.7262 7.0017 3.50242 7.22548 3.50242 7.50157V11.3183C3.50734 11.7 3.82064 12.0054 4.2023 12.0007H9.80112C10.183 12.0045 10.496 11.6987 10.501 11.3168V7.50157C10.5009 7.22548 10.2771 7.0017 10.0011 7.0017Z" />
<path d="M7.00168 13.0004C5.06907 13.0004 3.50242 14.5671 3.50242 16.4997C3.50242 18.4322 5.06913 19.9989 7.00168 19.9989C8.93423 19.9989 10.5009 18.4322 10.5009 16.4997C10.4987 14.568 8.93335 13.0026 7.00168 13.0004ZM4.50218 16.4997C4.5037 15.3124 5.33878 14.2894 6.50174 14.0502V16.2163L4.65215 17.3255C4.55531 17.0608 4.50458 16.7815 4.50218 16.4997ZM5.16731 18.1827L6.92417 17.1286L8.37788 18.5823C7.35662 19.2636 5.99038 19.0935 5.16731 18.1827ZM9.08472 17.8754L7.50155 16.2927V14.0502C8.31537 14.2151 8.99386 14.7741 9.31143 15.5414C9.62895 16.3086 9.544 17.1836 9.08472 17.8754Z" />
<path d="M26.9975 9.00128V7.29011C26.9972 6.85484 26.6444 6.50207 26.2092 6.50177H24.7865C24.3512 6.50207 23.9984 6.85484 23.9981 7.29011V9.00128H22.9983V5.86692C22.9978 5.38954 22.6109 5.00267 22.1335 5.00208H20.8637C20.3864 5.00267 19.9995 5.38954 19.9989 5.86692V9.00128H18.9992V3.50239C18.9992 2.9502 18.5516 2.50258 17.9994 2.50258H16.9996C16.4474 2.50258 15.9998 2.9502 15.9998 3.50239V9.00128H15.4999C15.2238 9.00128 15 8.77743 15 8.5014V2.50264C15 2.22654 14.7762 2.00276 14.5001 2.00276C14.2241 2.00276 14.0002 2.22654 14.0002 2.50264V8.5014C14.0002 9.32963 14.6716 10.0011 15.4999 10.0011H26.9976C27.2737 10.0011 27.4974 9.77731 27.4974 9.50121C27.4974 9.22512 27.2736 9.00128 26.9975 9.00128ZM17.9994 9.00128H16.9996V3.50239H17.9994V9.00128ZM21.9986 9.00128H20.9988V6.0019H21.9986V9.00128ZM25.9977 9.00128H24.9979V7.50159H25.9978L25.9977 9.00128Z" />
<path d="M26.9975 18.9992H15.4999C15.2238 18.9992 15 18.7754 15 18.4993V17.7065L16.6461 16.0603C16.8436 15.8708 17.1555 15.8708 17.353 16.0603L17.9389 16.6462C18.5245 17.2317 19.4738 17.2317 20.0594 16.6462L22.145 14.5606C22.3424 14.3711 22.6543 14.3711 22.8518 14.5606L23.4377 15.147C24.024 15.7309 24.9719 15.7309 25.5582 15.147L27.3509 13.3544C27.5403 13.1582 27.5376 12.8464 27.3448 12.6536C27.1519 12.4608 26.8402 12.4581 26.644 12.6475L24.8514 14.4397C24.6562 14.6348 24.3397 14.6348 24.1445 14.4397L23.5587 13.8538C22.9652 13.2874 22.0315 13.2874 21.4381 13.8538L19.3526 15.9394C19.1574 16.1345 18.8409 16.1345 18.6457 15.9394L18.0604 15.3535C17.4668 14.7871 16.5328 14.7871 15.9393 15.3535L15 16.2928V12.5006C15 12.2245 14.7762 12.0007 14.5001 12.0007C14.2241 12.0007 14.0002 12.2245 14.0002 12.5006V18.4993C14.0002 19.3275 14.6716 19.999 15.4999 19.999H26.9976C27.2737 19.999 27.4974 19.7752 27.4974 19.4991C27.4974 19.223 27.2736 18.9992 26.9975 18.9992Z" />
<path d="M29.9969 23.2253V2.77502C30.0664 1.32138 28.9504 0.0837798 27.4974 0.00311279H2.5026C1.04954 0.0838384 -0.0664354 1.32143 0.00310099 2.77502V23.2253C-0.0666697 24.6791 1.04931 25.917 2.5026 25.9977H10.5009V26.9976H8.50136C7.39704 26.9976 6.50179 27.8928 6.50179 28.9971V29.497C6.50179 29.7731 6.72558 29.9969 7.00167 29.9969H22.9984C23.2745 29.9969 23.4983 29.7731 23.4983 29.497V28.9971C23.4983 27.8928 22.603 26.9976 21.4987 26.9976H19.4991V25.9977H27.4974C28.9507 25.9171 30.0667 24.6791 29.9969 23.2253ZM21.4986 27.9974C22.0508 27.9974 22.4984 28.445 22.4984 28.9972H7.50155C7.50155 28.445 7.94917 27.9974 8.50136 27.9974H21.4986ZM11.5007 26.9976V25.9977H18.4993V26.9976H11.5007ZM27.4974 24.998H2.5026C1.60273 24.9154 0.93531 24.1265 1.00291 23.2254V21.9986H28.9971V23.2254C29.0647 24.1265 28.3973 24.9154 27.4974 24.998ZM28.9971 2.77502V20.9988H1.00291V2.77502C0.93531 1.87398 1.60279 1.08523 2.5026 1.00287H27.4974C28.3972 1.08523 29.0647 1.87398 28.9971 2.77502Z" />
</svg>
