<svg width="30" height="31" viewBox="0 0 30 31"  xmlns="http://www.w3.org/2000/svg">
<path d="M14.6484 11.0469C14.9718 11.0469 15.2344 10.7843 15.2344 10.4609C15.2344 10.1375 14.9718 9.875 14.6484 9.875C14.325 9.875 14.0625 10.1375 14.0625 10.4609C14.0625 10.7843 14.325 11.0469 14.6484 11.0469Z" />
<path d="M14.6484 13.3906C14.9718 13.3906 15.2344 13.1281 15.2344 12.8047C15.2344 12.4813 14.9718 12.2188 14.6484 12.2188C14.325 12.2188 14.0625 12.4813 14.0625 12.8047C14.0625 13.1281 14.325 13.3906 14.6484 13.3906Z" />
<path d="M29.8283 6.53104L23.969 0.671661C23.8653 0.567749 23.7147 0.5 23.5547 0.5H8.78906C7.81975 0.5 7.03125 1.2885 7.03125 2.25781V4.04263C6.8367 4.02501 6.64101 4.01562 6.44531 4.01562C2.89146 4.01562 0 6.90709 0 10.4609C0 14.0148 2.89146 16.9062 6.44531 16.9062C6.64101 16.9062 6.8367 16.8969 7.03125 16.8792V28.7422C7.03125 29.7115 7.81975 30.5 8.78906 30.5H28.2422C29.2115 30.5 30 29.7115 30 28.7422V6.94531C30 6.78532 29.9334 6.63609 29.8283 6.53104ZM24.1406 2.50043L27.9996 6.35938H24.1406V2.50043ZM7.03125 5.22023C9.50546 5.49329 11.4143 7.46602 11.6849 9.875H7.03125V5.22023ZM1.17188 10.4609C1.17188 7.75121 3.22632 5.51274 5.85938 5.22023V10.4609C5.85938 10.7846 6.12167 11.0462 6.44531 11.0462H11.6849C11.3905 13.6673 9.1729 15.7344 6.44531 15.7344C3.5376 15.7344 1.17188 13.3687 1.17188 10.4609ZM28.2422 29.3281H8.78906C8.46588 29.3281 8.20312 29.0654 8.20312 28.7422V16.6623C10.946 15.8859 12.8906 13.3522 12.8906 10.4609C12.8906 7.5697 10.946 5.03598 8.20312 4.25961V2.25781C8.20312 1.93463 8.46588 1.67188 8.78906 1.67188H22.9688V6.94531C22.9688 7.26895 23.231 7.53125 23.5547 7.53125H28.8281V28.7422C28.8281 29.0654 28.5654 29.3281 28.2422 29.3281Z" />
<path d="M15 5.1875H21.2109C21.5346 5.1875 21.7969 4.9252 21.7969 4.60156C21.7969 4.27792 21.5346 4.01562 21.2109 4.01562H15C14.6764 4.01562 14.4141 4.27792 14.4141 4.60156C14.4141 4.9252 14.6764 5.1875 15 5.1875Z" />
<path d="M15 7.53125H21.2109C21.5346 7.53125 21.7969 7.26895 21.7969 6.94531C21.7969 6.62167 21.5346 6.35938 21.2109 6.35938H15C14.6764 6.35938 14.4141 6.62167 14.4141 6.94531C14.4141 7.26895 14.6764 7.53125 15 7.53125Z" />
<path d="M6.44531 13.3906C4.82986 13.3906 3.51562 12.0764 3.51562 10.4609C3.51562 10.1373 3.25333 9.875 2.92969 9.875C2.60605 9.875 2.34375 10.1373 2.34375 10.4609C2.34375 12.7225 4.18373 14.5625 6.44531 14.5625C6.76895 14.5625 7.03125 14.3002 7.03125 13.9766C7.03125 13.6529 6.76895 13.3906 6.44531 13.3906Z" />
<path d="M25.7227 16.0859C24.7533 16.0859 23.9648 16.8744 23.9648 17.8438C23.9648 18.207 24.0756 18.545 24.2651 18.8254L20.1963 23.1925C20.0352 23.1437 19.8644 23.1172 19.6875 23.1172C19.4403 23.1172 19.2011 23.1685 18.9814 23.2648L17.1487 20.9929C17.276 20.7469 17.3438 20.4725 17.3438 20.1875C17.3438 19.2182 16.5553 18.4297 15.5859 18.4297C14.6166 18.4297 13.8281 19.2182 13.8281 20.1875C13.8281 20.4612 13.8908 20.7251 14.0085 20.9636L11.8719 23.2795C11.6432 23.1733 11.3924 23.1172 11.1328 23.1172C10.1635 23.1172 9.375 23.9057 9.375 24.875C9.375 25.8443 10.1635 26.6328 11.1328 26.6328C12.1021 26.6328 12.8906 25.8443 12.8906 24.875C12.8906 24.6013 12.8281 24.3374 12.7103 24.0989L14.8469 21.783C15.0755 21.8892 15.3264 21.9453 15.5859 21.9453C15.8331 21.9453 16.0723 21.894 16.292 21.7977L18.1247 24.0696C17.9974 24.3156 17.9297 24.59 17.9297 24.875C17.9297 25.8443 18.7182 26.6328 19.6875 26.6328C20.6568 26.6328 21.4453 25.8443 21.4453 24.875C21.4453 24.5118 21.3345 24.1737 21.145 23.8933L25.2139 19.5263C25.375 19.575 25.5457 19.6016 25.7227 19.6016C26.692 19.6016 27.4805 18.8131 27.4805 17.8438C27.4805 16.8744 26.692 16.0859 25.7227 16.0859ZM11.1328 25.4609C10.8096 25.4609 10.5469 25.1982 10.5469 24.875C10.5469 24.5518 10.8096 24.2891 11.1328 24.2891C11.4562 24.2891 11.7188 24.5514 11.7188 24.875C11.7188 25.1982 11.456 25.4609 11.1328 25.4609ZM15 20.1875C15 19.8643 15.2628 19.6016 15.5859 19.6016C15.9091 19.6016 16.1719 19.8643 16.1719 20.1875C16.1719 20.5109 15.9096 20.7734 15.5859 20.7734C15.2623 20.7734 15 20.5109 15 20.1875ZM19.6875 25.4609C19.3643 25.4609 19.1016 25.1982 19.1016 24.875C19.1016 24.5516 19.3639 24.2891 19.6875 24.2891C20.0107 24.2891 20.2734 24.5518 20.2734 24.875C20.2734 25.1982 20.0107 25.4609 19.6875 25.4609ZM25.7227 18.4297C25.3995 18.4297 25.1367 18.1669 25.1367 17.8438C25.1367 17.5206 25.3995 17.2578 25.7227 17.2578C26.0458 17.2578 26.3086 17.5206 26.3086 17.8438C26.3086 18.1669 26.0458 18.4297 25.7227 18.4297Z" />
<path d="M16.4062 10.4609C16.4062 10.7846 16.6685 11.0469 16.9922 11.0469H25.8984C26.2221 11.0469 26.4844 10.7846 26.4844 10.4609C26.4844 10.1373 26.2221 9.875 25.8984 9.875H16.9922C16.6685 9.875 16.4062 10.1373 16.4062 10.4609Z" />
<path d="M25.8984 12.2188H16.9922C16.6685 12.2188 16.4062 12.481 16.4062 12.8047C16.4062 13.1283 16.6685 13.3906 16.9922 13.3906H25.8984C26.2221 13.3906 26.4844 13.1283 26.4844 12.8047C26.4844 12.481 26.2221 12.2188 25.8984 12.2188Z" />
</svg>
