<svg width="37" height="36" viewBox="0 0 37 36" fill="none" xmlns="http://www.w3.org/2000/svg">
<path d="M35.4429 12.2734C34.6923 10.6181 33.6182 9.13187 32.2504 7.85631C30.8826 6.58047 29.2892 5.57833 27.5146 4.87846C26.9719 4.66431 26.3724 4.66004 25.8262 4.86671C25.28 5.07312 24.8529 5.46591 24.6233 5.97192C24.1495 7.01705 24.6754 8.22693 25.7959 8.66886C27.0446 9.16151 28.1665 9.86726 29.1306 10.7663C30.0945 11.6654 30.8511 12.7119 31.3793 13.8769C31.9255 15.0817 32.2026 16.3626 32.2026 17.6844C32.2026 19.0059 31.9255 20.287 31.3793 21.4918C30.8511 22.6566 30.0945 23.7031 29.1306 24.6024C28.1665 25.5015 27.0446 26.2072 25.7959 26.6999C24.6757 27.1418 24.1495 28.3517 24.6233 29.3965C24.9697 30.1599 25.7675 30.6531 26.6558 30.6531C26.9518 30.6531 27.2409 30.5984 27.5146 30.4902C28.6365 30.0478 29.6957 29.479 30.663 28.7997C30.9876 28.572 31.0526 28.1418 30.8082 27.839C30.564 27.5364 30.1031 27.4758 29.7784 27.7036C28.9073 28.3153 27.9529 28.8278 26.9415 29.2267C26.8502 29.2627 26.754 29.2812 26.6558 29.2812C26.3595 29.2812 26.0936 29.1167 25.9779 28.8622C25.8202 28.5137 25.9954 28.1105 26.369 27.9631C27.7929 27.4013 29.0719 26.5971 30.1706 25.5722C31.2691 24.5474 32.1316 23.3543 32.7339 22.0262C33.3574 20.6512 33.6734 19.1906 33.6734 17.6844C33.6734 16.1781 33.3574 14.7172 32.7339 13.3423C32.1316 12.0139 31.2691 10.8208 30.1706 9.79649C29.0719 8.77166 27.7929 7.96712 26.369 7.4053C25.9954 7.25817 25.8202 6.8547 25.9782 6.5065C26.0546 6.33775 26.1969 6.2069 26.379 6.13801C26.5611 6.06912 26.7609 6.07045 26.9418 6.14202C28.5412 6.77299 29.9774 7.67606 31.2107 8.8264C32.4436 9.97647 33.4121 11.3161 34.0885 12.808C34.789 14.3527 35.1443 15.9936 35.1443 17.6844C35.1443 19.3751 34.789 21.0157 34.0885 22.5607C33.9087 22.9567 33.7058 23.3479 33.4848 23.7225C33.289 24.0545 33.4187 24.4715 33.7745 24.6539C34.1303 24.8366 34.5775 24.7156 34.7733 24.3837C35.0186 23.9679 35.2439 23.5343 35.4432 23.095C36.2207 21.3802 36.6149 19.5597 36.6149 17.6844C36.6149 15.8091 36.2204 13.9885 35.4429 12.2734Z" fill="#81DE76"/>
<path d="M28.5834 20.6386C29.0812 19.5409 29.3334 18.3764 29.3334 17.177C29.3334 15.9775 29.0809 14.813 28.5834 13.7153C28.1031 12.6563 27.4163 11.7057 26.5414 10.8896C25.6666 10.0739 24.6475 9.43302 23.5121 8.98495C22.9697 8.77107 22.3699 8.7668 21.8237 8.9732C21.2778 9.17988 20.8504 9.5724 20.6211 10.0787C20.3915 10.585 20.3869 11.1444 20.6085 11.6536C20.8298 12.1631 21.2509 12.5615 21.7937 12.7756C22.4028 13.0159 22.9508 13.3607 23.4217 13.7999C23.8926 14.2392 24.2622 14.7502 24.5198 15.3185C24.7863 15.9062 24.9214 16.5313 24.9214 17.177C24.9214 17.8226 24.7863 18.4477 24.5198 19.0352C24.2622 19.6037 23.8926 20.1147 23.4217 20.554C22.9508 20.9932 22.4028 21.338 21.7934 21.5783C20.6732 22.0205 20.1473 23.2304 20.6211 24.2752C20.9672 25.0386 21.765 25.5318 22.6536 25.5318C22.9493 25.5318 23.2382 25.4768 23.5124 25.3687C24.6478 24.9209 25.6669 24.28 26.5417 23.464C27.4163 22.648 28.1033 21.6974 28.5834 20.6386ZM22.9393 24.1051C22.8477 24.1415 22.7512 24.1599 22.6533 24.1599C22.357 24.1599 22.0908 23.9954 21.9754 23.7409C21.8174 23.3925 21.9929 22.9892 22.3662 22.8419C23.1509 22.5324 23.856 22.0888 24.4614 21.5241C25.0672 20.9591 25.5424 20.3017 25.8742 19.5697C26.2177 18.8122 26.3917 18.0071 26.3917 17.177C26.3917 16.3468 26.2177 15.5417 25.8742 14.7842C25.5424 14.0523 25.0669 13.3948 24.4614 12.8298C23.856 12.2651 23.1509 11.8215 22.3662 11.5121C22.1853 11.4408 22.045 11.3081 21.9712 11.1382C21.8973 10.9684 21.899 10.782 21.9754 10.6133C22.0519 10.4445 22.1944 10.3137 22.3762 10.2448C22.4655 10.2109 22.5591 10.194 22.6528 10.194C22.7498 10.194 22.8468 10.2122 22.939 10.2485C23.8992 10.6274 24.7611 11.1695 25.5014 11.8597C26.2414 12.5502 26.8226 13.3543 27.2288 14.2498C27.6493 15.1772 27.8626 16.162 27.8626 17.177C27.8626 18.1919 27.6493 19.1767 27.2288 20.1041C26.8229 20.9997 26.2414 21.8037 25.5014 22.4939C24.7614 23.1844 23.8992 23.7265 22.9393 24.1051Z" fill="#81DE76"/>
<path d="M21.8807 17.6842C21.8807 17.0677 21.7508 16.4688 21.4946 15.9035C21.2475 15.3587 20.8942 14.8701 20.4448 14.4509C19.9954 14.0316 19.4715 13.7021 18.8872 13.4717C17.767 13.0298 16.4699 13.5205 15.9962 14.5651C15.5224 15.6103 16.048 16.8202 17.1684 17.2623C17.2274 17.2856 17.2787 17.3179 17.325 17.3611C17.3708 17.4039 17.4063 17.4527 17.4307 17.5067C17.4561 17.5627 17.4685 17.6207 17.4685 17.6842C17.4685 17.7478 17.4561 17.8057 17.431 17.8613C17.4063 17.9155 17.3705 17.9646 17.3247 18.0073C17.2792 18.0501 17.2268 18.0832 17.169 18.1059C16.6262 18.32 16.2051 18.7184 15.9836 19.2279C15.762 19.7371 15.7666 20.2965 15.9959 20.8028C16.342 21.5662 17.1398 22.0594 18.0287 22.0594C18.3244 22.0594 18.6132 22.0047 18.8869 21.8968C19.4712 21.6664 19.9951 21.3371 20.4448 20.9176C20.8945 20.4984 21.2475 20.0095 21.4946 19.4648C21.7508 18.8997 21.8807 18.3005 21.8807 17.6842ZM20.1399 18.9302C19.967 19.3115 19.7197 19.6538 19.4048 19.9475C19.0899 20.2413 18.7229 20.472 18.3141 20.6332C18.2225 20.6693 18.1263 20.6877 18.0284 20.6877C17.7321 20.6877 17.4659 20.5232 17.3505 20.2685C17.2741 20.0997 17.2726 19.9134 17.3462 19.7435C17.4201 19.5737 17.5606 19.441 17.7413 19.3697C17.9749 19.2776 18.1844 19.1457 18.3648 18.9774C18.5451 18.8092 18.6865 18.6135 18.7853 18.3959C18.8872 18.171 18.939 17.9315 18.939 17.6842C18.939 17.437 18.8875 17.1977 18.7853 16.9724C18.6865 16.7547 18.5451 16.5593 18.365 16.391C18.1844 16.2228 17.9749 16.0909 17.7413 15.9988C17.368 15.8514 17.1925 15.4482 17.3505 15.1C17.469 14.8386 17.7421 14.6813 18.029 14.6813C18.1243 14.6813 18.2213 14.6987 18.3144 14.7355C18.7232 14.8965 19.0899 15.1272 19.4048 15.4212C19.7197 15.7147 19.967 16.057 20.1399 16.438C20.3191 16.8332 20.4099 17.2525 20.4099 17.6842C20.4099 18.116 20.3191 18.5352 20.1399 18.9302Z" fill="#81DE76"/>
<path d="M13.0536 23.9124C12.4407 23.1121 11.3517 22.7652 10.3438 23.0504C9.96935 23.1562 9.60722 23.2931 9.2594 23.4582C8.47473 21.6232 8.07052 19.6315 8.08741 17.6507C8.1043 15.6734 8.54172 13.6902 9.35645 11.8686C9.92899 12.1516 10.5419 12.3532 11.1874 12.4696C11.2913 12.4886 11.3958 12.4977 11.4997 12.4977C12.0222 12.4977 12.5272 12.2664 12.8438 11.8664L17.8947 5.48778C18.5096 4.71101 18.5265 3.65734 17.9371 2.86401C17.7298 2.5767 17.4836 2.29739 17.206 2.0341C16.8504 1.69712 16.4508 1.39699 16.0185 1.14171H16.0182C13.5274 -0.328516 10.2528 -0.0804514 8.05449 1.74492C7.75104 1.99672 7.72413 2.43037 7.99409 2.71341C8.26433 2.99646 8.72923 3.02129 9.03239 2.76949C10.5319 1.52462 12.6749 1.22262 14.4873 1.93744C14.4609 1.96788 14.4354 1.99752 14.4097 2.0277C14.3813 2.06027 14.3533 2.09285 14.3252 2.12543C14.2794 2.17883 14.2342 2.2317 14.189 2.28457C14.1629 2.31528 14.1366 2.34599 14.1105 2.37643C14.0633 2.4317 14.0166 2.48698 13.97 2.54198C13.9468 2.56922 13.9233 2.59672 13.9004 2.62423C13.8515 2.68217 13.8031 2.73985 13.7547 2.79726C13.7347 2.82129 13.7143 2.84532 13.6943 2.86935C13.6419 2.93184 13.5904 2.99352 13.5391 3.05547C13.5237 3.07389 13.5079 3.09258 13.4928 3.11128C13.2918 3.35347 13.098 3.59031 12.9113 3.82182C12.8987 3.83731 12.8864 3.85253 12.8738 3.86802C12.8252 3.92863 12.7768 3.98871 12.729 4.04853C12.7112 4.07069 12.6941 4.09285 12.6763 4.11475C12.6342 4.16762 12.5922 4.22049 12.5506 4.27283C12.5315 4.29686 12.5126 4.32089 12.4937 4.34519C12.4545 4.39459 12.4152 4.44425 12.3769 4.49312C12.3571 4.51849 12.3374 4.54359 12.3179 4.56869C12.2807 4.61622 12.2435 4.66375 12.2068 4.71074C12.1871 4.73611 12.1676 4.76148 12.1482 4.78658C12.1121 4.83304 12.0766 4.87897 12.0411 4.9249C12.0219 4.95 12.0027 4.97483 11.9838 4.99966C11.9489 5.04532 11.914 5.09072 11.8796 5.13584C11.861 5.16041 11.8424 5.18471 11.8238 5.20901C11.7895 5.25414 11.7557 5.299 11.7219 5.34359C11.7041 5.36709 11.6864 5.39058 11.6686 5.41408C11.6346 5.45921 11.6008 5.50407 11.5673 5.54893C11.5507 5.57109 11.5341 5.59325 11.5175 5.61542C11.4834 5.66108 11.4499 5.70621 11.4164 5.75133C11.4013 5.77189 11.3861 5.79245 11.3712 5.81275C11.3357 5.86028 11.3011 5.90754 11.2667 5.95454C11.2541 5.97163 11.2412 5.98898 11.2287 6.00607C11.1906 6.05814 11.1531 6.10994 11.1159 6.16121C11.1076 6.17269 11.099 6.18418 11.0907 6.19566C10.9524 6.38631 10.8204 6.57109 10.6945 6.75027C10.6885 6.75881 10.6827 6.76735 10.6767 6.7759C10.6415 6.82583 10.6066 6.8755 10.5725 6.92436C10.5625 6.93905 10.5525 6.9532 10.5425 6.96762C10.5127 7.01061 10.4832 7.05307 10.454 7.09526C10.4426 7.11208 10.4311 7.1289 10.4194 7.14573C10.3925 7.18498 10.3658 7.2237 10.3395 7.26215C10.3272 7.28004 10.3152 7.29793 10.3031 7.31582C10.2779 7.35267 10.253 7.38925 10.2284 7.42557C10.2161 7.44399 10.2038 7.46215 10.1915 7.48031C10.1677 7.51555 10.1443 7.5508 10.1211 7.58551C10.1088 7.60367 10.0965 7.6221 10.0844 7.64025C10.0618 7.67417 10.0395 7.70781 10.0174 7.74119C10.0054 7.75908 9.99368 7.77697 9.98166 7.79486C9.95933 7.82877 9.93757 7.86215 9.91582 7.89526C9.90494 7.91182 9.89406 7.92864 9.88318 7.94493C9.86143 7.97857 9.83996 8.01168 9.81849 8.04453C9.80818 8.06028 9.79787 8.0763 9.78786 8.09206C9.7661 8.12543 9.74491 8.15828 9.72402 8.19086C9.71457 8.20554 9.70512 8.22023 9.69596 8.23465C9.67421 8.26856 9.65302 8.30194 9.63184 8.33531C9.62382 8.34787 9.61581 8.36068 9.60779 8.37296C9.58403 8.41035 9.56113 8.4472 9.53794 8.48378C9.53336 8.49152 9.52821 8.49927 9.52334 8.50701C9.43946 8.64106 9.36074 8.76896 9.28688 8.89072C9.28202 8.89873 9.27744 8.90648 9.27257 8.91449C9.25339 8.94626 9.2345 8.97777 9.21589 9.00875C9.20902 9.02023 9.20215 9.03144 9.19528 9.04293C9.17924 9.06963 9.1635 9.09633 9.14804 9.1225C9.1406 9.13505 9.13316 9.14733 9.126 9.15988C9.1114 9.18445 9.09709 9.20875 9.08306 9.23251C9.07533 9.2456 9.06789 9.25841 9.06044 9.27123C9.04727 9.29393 9.03411 9.31662 9.02122 9.33852C9.01349 9.3516 9.00605 9.36469 8.99861 9.37751C8.9863 9.39887 8.97428 9.41969 8.96254 9.44052C8.9551 9.45307 8.94794 9.46589 8.94078 9.47817C8.92904 9.499 8.91731 9.51929 8.90614 9.53932C8.89927 9.55134 8.89269 9.56309 8.88582 9.5751C8.87465 9.59486 8.86378 9.61409 8.85318 9.63331C8.8466 9.6448 8.8403 9.65628 8.834 9.66749C8.82341 9.68618 8.81339 9.70461 8.80309 9.72277C8.79707 9.73398 8.79078 9.74546 8.78448 9.75668C8.77475 9.77404 8.76558 9.79112 8.75614 9.80795C8.75013 9.8189 8.74411 9.82958 8.73839 9.84026C8.72952 9.85708 8.72064 9.8731 8.71205 9.88912C8.70633 9.8998 8.7006 9.91022 8.69488 9.92063C8.68657 9.93639 8.67856 9.95134 8.67026 9.96656C8.6651 9.97644 8.65967 9.98632 8.6548 9.99566C8.64449 10.0152 8.63447 10.0338 8.62474 10.0523C8.62245 10.0568 8.61987 10.0616 8.6173 10.0662C8.60527 10.0894 8.59354 10.1118 8.58209 10.1334C8.5798 10.138 8.57779 10.142 8.5755 10.1465C8.56691 10.1631 8.55833 10.1796 8.55002 10.1957C8.54573 10.2037 8.54201 10.2112 8.538 10.2192C8.53199 10.2306 8.52598 10.2424 8.52025 10.2536C8.51596 10.2627 8.51138 10.271 8.50708 10.2798C8.5025 10.2889 8.49792 10.2979 8.49334 10.3067C8.48905 10.3158 8.48447 10.3246 8.48017 10.3332C8.47645 10.3409 8.47244 10.3489 8.46872 10.3564C8.46443 10.365 8.46042 10.3732 8.45641 10.3815C8.45298 10.3882 8.44983 10.3949 8.44668 10.4013C8.44267 10.4093 8.43895 10.417 8.43523 10.4245C8.43208 10.4306 8.42922 10.4371 8.42635 10.4429C8.42292 10.4501 8.41948 10.4568 8.41634 10.4635C8.41376 10.4691 8.41147 10.4742 8.40889 10.4792C8.40574 10.4857 8.40288 10.4921 8.39973 10.4982C8.39773 10.5027 8.39544 10.5073 8.39343 10.5118C8.39057 10.5177 8.38799 10.5236 8.38542 10.5289C8.3837 10.5321 8.38256 10.5351 8.38112 10.5383C8.37826 10.5441 8.37569 10.55 8.37311 10.5553C8.37196 10.5575 8.37111 10.5594 8.37025 10.5615C8.36767 10.5668 8.36538 10.5719 8.36338 10.5764C8.3628 10.5778 8.36223 10.5791 8.36137 10.5804C8.35937 10.5853 8.35736 10.5898 8.35565 10.5938C7.23834 12.777 6.63688 15.213 6.61627 17.6403C6.59537 20.0761 7.15789 22.5284 8.24314 24.7327C8.24457 24.7353 8.24658 24.7377 8.24772 24.7407C8.26118 24.7666 8.27549 24.7922 8.29267 24.817C8.29324 24.8181 8.2961 24.8221 8.29982 24.8275C8.30097 24.8291 8.30211 24.8304 8.30355 24.8325C8.315 24.8491 8.33589 24.8793 8.36509 24.9215C8.36652 24.9233 8.36767 24.9252 8.3691 24.9271C8.37454 24.9348 8.38027 24.9431 8.38628 24.9516C8.39 24.9567 8.39343 24.9618 8.39716 24.9674C8.40231 24.9749 8.40803 24.9829 8.41376 24.9909C8.41777 24.9965 8.42149 25.0021 8.42578 25.008C8.43437 25.0203 8.44353 25.0336 8.45269 25.047C8.45384 25.0486 8.45498 25.0502 8.45613 25.0518C8.46557 25.0651 8.47559 25.0793 8.48561 25.094C8.48876 25.0985 8.49191 25.1028 8.49506 25.1073C8.50393 25.1199 8.51309 25.1329 8.52254 25.1463C8.52769 25.1535 8.53285 25.1607 8.538 25.1682C8.54687 25.181 8.55632 25.1944 8.56577 25.208C8.57035 25.2146 8.57522 25.2213 8.58008 25.228C8.59153 25.2443 8.60327 25.2611 8.61529 25.2782C8.61844 25.2827 8.62159 25.2873 8.62503 25.2918C8.63791 25.3102 8.65136 25.3292 8.6651 25.3487C8.66854 25.3535 8.67169 25.3583 8.67512 25.3631C8.68944 25.3831 8.70404 25.4037 8.71892 25.4251C8.72264 25.4301 8.72637 25.4355 8.73009 25.4408C8.74383 25.46 8.75757 25.4795 8.7716 25.4996C8.77847 25.5089 8.78534 25.5188 8.79221 25.5284C8.80595 25.5482 8.82026 25.5679 8.83458 25.5885C8.83887 25.5941 8.84288 25.6 8.84717 25.6058C8.86378 25.6293 8.88067 25.6534 8.89813 25.6779C8.90214 25.6833 8.90614 25.6889 8.91015 25.6945C8.92819 25.7199 8.94651 25.7458 8.9654 25.7722C8.96826 25.7765 8.97141 25.781 8.97456 25.7853C8.99431 25.8128 9.01407 25.8405 9.03468 25.8691C9.03783 25.8739 9.04126 25.8787 9.0447 25.8833C9.18325 26.0771 9.33927 26.2948 9.51189 26.534C9.51304 26.5353 9.51389 26.5367 9.51504 26.538C9.54138 26.5749 9.56857 26.6122 9.59577 26.6499C9.5992 26.6547 9.60235 26.6592 9.60579 26.6638C9.63127 26.699 9.65732 26.7351 9.68365 26.7711C9.68909 26.7789 9.69453 26.7863 9.69997 26.7938C9.72459 26.8277 9.74949 26.8622 9.77469 26.8969C9.78242 26.9076 9.79014 26.9183 9.79787 26.9289C9.82106 26.9607 9.84482 26.9933 9.8683 27.0256C9.8786 27.04 9.88891 27.0539 9.8995 27.0683C9.92269 27.1001 9.94616 27.1324 9.96992 27.165C9.98051 27.1794 9.99111 27.1941 10.002 27.2088C10.026 27.2419 10.0504 27.2753 10.075 27.3089C10.0859 27.3239 10.097 27.3388 10.1079 27.3538C10.1322 27.3871 10.1571 27.4211 10.1818 27.4547C10.1935 27.4705 10.205 27.4862 10.2164 27.502C10.2419 27.5367 10.2676 27.5717 10.2934 27.6069C10.3046 27.6221 10.3157 27.6373 10.3269 27.6526C10.3518 27.6865 10.377 27.7207 10.4025 27.7551C10.4165 27.7743 10.4308 27.7936 10.4451 27.813C10.4695 27.8462 10.4938 27.8793 10.5184 27.9126C10.5322 27.9311 10.5459 27.9495 10.5596 27.9682C10.5854 28.0034 10.6117 28.0387 10.6381 28.0742C10.6518 28.0926 10.6653 28.1113 10.6793 28.1297C10.7053 28.165 10.7314 28.2005 10.758 28.2363C10.7723 28.2558 10.7869 28.2753 10.8015 28.2948C10.8282 28.3308 10.8548 28.3669 10.8817 28.4032C10.8972 28.4235 10.9123 28.444 10.9278 28.4648C10.9533 28.4993 10.9793 28.534 11.0054 28.569C11.0225 28.5922 11.04 28.6157 11.0575 28.6389C11.0832 28.6734 11.109 28.7078 11.1348 28.7428C11.1516 28.765 11.1685 28.7877 11.1851 28.8101C11.2123 28.8464 11.2395 28.8825 11.267 28.9193C11.283 28.9407 11.2991 28.9623 11.3154 28.9837C11.3434 29.0216 11.3718 29.0592 11.4004 29.0972C11.4156 29.1177 11.431 29.138 11.4465 29.1586C11.4768 29.1992 11.5075 29.2398 11.5384 29.2809C11.5501 29.2964 11.5622 29.3124 11.5739 29.3279C11.6077 29.373 11.6417 29.4179 11.6761 29.4632C11.6875 29.4785 11.699 29.494 11.7107 29.5092C11.7459 29.5559 11.7814 29.6026 11.8169 29.6499C11.8212 29.6552 11.8255 29.6611 11.8295 29.6665C12.005 29.8982 12.1854 30.1353 12.3709 30.3775C12.3783 30.3874 12.3858 30.397 12.3935 30.4069C12.4313 30.4566 12.4696 30.5065 12.508 30.5567C12.5203 30.5727 12.5323 30.5885 12.5449 30.6045C12.5787 30.6483 12.6125 30.6926 12.6465 30.7369C12.6646 30.7599 12.682 30.7831 12.7001 30.8061C12.7324 30.8483 12.7651 30.8908 12.798 30.9332C12.8169 30.9578 12.8358 30.9826 12.855 31.0074C12.8876 31.0496 12.9205 31.0918 12.9531 31.1343C12.9732 31.1602 12.9932 31.1858 13.0133 31.2117C13.0447 31.2523 13.0762 31.2932 13.108 31.334C13.1301 31.3623 13.1518 31.3906 13.1739 31.4189C13.2056 31.4598 13.2377 31.5006 13.2695 31.5418C13.2909 31.5695 13.3127 31.5973 13.3342 31.6251C13.3668 31.6665 13.3991 31.7081 13.4318 31.7498C13.4538 31.7781 13.4759 31.8064 13.4982 31.8347C13.5303 31.8758 13.5626 31.9169 13.595 31.9583C13.6184 31.9882 13.6416 32.0179 13.6651 32.0478C13.696 32.0873 13.7272 32.1268 13.7584 32.1666C13.783 32.1978 13.8077 32.2291 13.8323 32.2603C13.8646 32.3014 13.8973 32.3428 13.9299 32.3842C13.9531 32.4136 13.9763 32.443 13.9995 32.4723C14.0324 32.514 14.065 32.5554 14.0979 32.597C14.1226 32.628 14.1472 32.659 14.1718 32.69C14.2041 32.7311 14.2368 32.7722 14.2697 32.8133C14.294 32.844 14.3184 32.8747 14.3427 32.9054C14.3765 32.9476 14.4103 32.9901 14.444 33.0325C14.4681 33.0627 14.4921 33.0929 14.5162 33.1231C14.55 33.1653 14.584 33.2077 14.6181 33.2502C14.6264 33.2606 14.6344 33.271 14.6427 33.2814C13.7893 33.6905 12.8217 33.8723 11.8521 33.7992C10.6166 33.7054 9.45635 33.1992 8.58524 32.3735C8.51825 32.31 8.45097 32.2419 8.39143 32.1818C8.38828 32.1783 8.38485 32.1751 8.38141 32.1717C5.30029 29.1759 3.31272 25.3879 2.63397 21.2168C1.99015 17.2608 2.52118 13.0931 4.16924 9.16442C4.44549 8.50594 4.93758 7.6787 5.63179 6.70567C5.85651 6.39032 5.7649 5.96442 5.42682 5.75454C5.08873 5.54466 4.63213 5.63037 4.40713 5.94572C3.65509 7.0002 3.11433 7.91502 2.79972 8.66455C1.05748 12.8173 0.497538 17.2288 1.18001 21.4227C1.90427 25.8729 4.02553 29.9161 7.31506 33.1167C7.3809 33.1831 7.45533 33.2582 7.53691 33.3356C8.65566 34.396 10.1457 35.0459 11.7331 35.1663C11.9134 35.1799 12.0935 35.1869 12.2732 35.1869C13.6591 35.1869 15.0163 34.7837 16.1442 34.0288C16.4253 33.8408 16.6921 33.6309 16.938 33.4053C17.2148 33.1514 17.4668 32.8763 17.6866 32.5885C17.7261 32.5367 17.7576 32.4801 17.7805 32.4203L17.9182 32.0587C18.1781 31.3762 18.0339 30.4171 17.5824 29.8277L13.0536 23.9124ZM16.7268 3.64319C16.9589 3.95427 16.9529 4.36789 16.7116 4.67283L11.6609 11.0515C11.616 11.1081 11.5398 11.1364 11.4668 11.123C10.9364 11.0272 10.4343 10.8576 9.96763 10.617C10.1795 10.2202 10.5316 9.60047 11.0626 8.78018C11.1886 8.58578 11.3286 8.37403 11.4826 8.14626C12.4238 6.76068 13.7355 5.00821 15.4666 2.99112C15.4683 2.98925 15.4697 2.98738 15.4715 2.98551C15.5654 2.8763 15.661 2.76601 15.7572 2.6552C15.8974 2.76254 16.0311 2.87656 16.1576 2.99672C16.3732 3.201 16.5621 3.41515 16.7196 3.63357C16.7222 3.63678 16.7245 3.63998 16.7268 3.64319ZM16.5324 31.5986L16.4305 31.8667C16.2742 32.0627 16.0984 32.251 15.9066 32.4269C15.8854 32.4464 15.8636 32.4659 15.8422 32.4851C15.8362 32.4777 15.8299 32.4699 15.8239 32.4625C15.7471 32.3666 15.671 32.271 15.5951 32.1759C15.5802 32.1572 15.5654 32.1386 15.5505 32.1199C15.4832 32.0355 15.4165 31.9516 15.3501 31.8678C15.3366 31.8507 15.3232 31.8336 15.3094 31.8165C15.235 31.7225 15.1611 31.6291 15.0879 31.5359C15.0715 31.5153 15.0552 31.4948 15.0392 31.4742C14.9682 31.3842 14.8978 31.2948 14.8279 31.2056C14.8233 31.1997 14.8188 31.1938 14.8139 31.1877C14.7403 31.0937 14.6673 31.0005 14.5946 30.9073C14.5783 30.8865 14.562 30.8657 14.5457 30.8448C14.4741 30.7527 14.4028 30.6611 14.3321 30.5703C14.3272 30.5639 14.3221 30.5572 14.3169 30.5508C14.2491 30.4635 14.1818 30.3765 14.1151 30.2902C14.1011 30.2721 14.0871 30.2539 14.073 30.2357C14.0032 30.1455 13.9339 30.0558 13.8655 29.9666C13.8563 29.9551 13.8477 29.9436 13.8386 29.9319C13.7767 29.8515 13.7152 29.7714 13.6545 29.6918C13.6413 29.675 13.6285 29.6582 13.6156 29.6414C13.5497 29.5551 13.4842 29.4697 13.4195 29.3847C13.4066 29.3679 13.394 29.3511 13.3811 29.3345C13.323 29.2579 13.2652 29.1821 13.2076 29.1065C13.1979 29.0937 13.1882 29.0809 13.1784 29.0681C13.1149 28.9845 13.0522 28.9017 12.9901 28.8197C12.9769 28.8021 12.9634 28.7845 12.9503 28.7669C12.889 28.6857 12.828 28.605 12.7679 28.5252C12.7662 28.5233 12.7648 28.5212 12.7633 28.5191C12.7012 28.4368 12.6402 28.3556 12.5796 28.2747C12.567 28.2582 12.5547 28.2416 12.5423 28.2253C12.4825 28.1455 12.4233 28.0665 12.3649 27.9882C12.3614 27.9837 12.358 27.9791 12.3546 27.9743C12.299 27.9001 12.2446 27.8269 12.1905 27.7546C12.1788 27.7385 12.1668 27.7228 12.155 27.7068C12.0998 27.6325 12.0451 27.5588 11.991 27.4862C11.9821 27.4739 11.9732 27.4619 11.9641 27.4496C11.916 27.385 11.8688 27.3209 11.8218 27.2576C11.8118 27.244 11.8018 27.2304 11.7917 27.2171C11.7399 27.1468 11.6887 27.0774 11.6383 27.0088C11.628 26.9949 11.6177 26.981 11.6077 26.9671C11.5622 26.9054 11.5172 26.8446 11.4731 26.7845C11.4663 26.7749 11.4591 26.7652 11.4522 26.7556C11.403 26.6886 11.3546 26.6229 11.3074 26.5578C11.2979 26.545 11.2885 26.5324 11.2793 26.5196C11.2321 26.455 11.1854 26.3911 11.1399 26.3287C11.1393 26.3279 11.1385 26.3268 11.1379 26.3257C11.0927 26.2638 11.0486 26.2032 11.0048 26.1434C10.9939 26.1281 10.983 26.1132 10.9724 26.0985C10.9298 26.04 10.888 25.9823 10.8473 25.926C10.8433 25.9204 10.8393 25.915 10.8353 25.9094C10.797 25.8563 10.7595 25.8045 10.7225 25.7532C10.7139 25.7415 10.7053 25.7297 10.697 25.7183C10.6587 25.6651 10.6212 25.6128 10.5845 25.562C10.5774 25.5522 10.5705 25.5423 10.5634 25.5324C10.5293 25.4854 10.4961 25.4389 10.4637 25.3938C10.4589 25.3874 10.454 25.3807 10.4494 25.3741C10.4142 25.3249 10.3799 25.2771 10.3464 25.2304C10.3392 25.2203 10.3321 25.2104 10.3249 25.2002C10.2954 25.1588 10.2665 25.1182 10.2384 25.079C10.2341 25.0734 10.2301 25.0675 10.2261 25.0619C10.1955 25.0189 10.166 24.9773 10.1371 24.9369C10.1305 24.9273 10.1236 24.918 10.1171 24.9086C10.0601 24.8285 10.0071 24.754 9.95819 24.6846C9.95446 24.6795 9.95103 24.6745 9.94731 24.6694C10.2118 24.5455 10.4866 24.4432 10.77 24.3631C11.174 24.2491 11.6108 24.3882 11.8567 24.7097L16.3858 30.6243C16.5601 30.8523 16.6329 31.3348 16.5324 31.5986Z" fill="#81DE76"/>
<path d="M32.7352 25.6299C32.3588 25.4878 31.9299 25.6571 31.7776 26.0082L31.7596 26.0496C31.6073 26.4008 31.7888 26.8005 32.1652 26.9428C32.2557 26.977 32.349 26.993 32.4409 26.993C32.7318 26.993 33.0072 26.8312 33.1228 26.5645L33.1409 26.5231C33.2932 26.1719 33.1117 25.7722 32.7352 25.6299Z" fill="#81DE76"/>
<path d="M6.44621 4.89926C6.53667 4.93317 6.63 4.94946 6.72189 4.94946C7.01275 4.94946 7.28786 4.78737 7.4038 4.52061L7.42155 4.47922C7.57385 4.12808 7.39207 3.72834 7.01561 3.58628C6.63916 3.44422 6.21061 3.61351 6.05831 3.96492L6.04027 4.00605C5.88797 4.35719 6.06976 4.7572 6.44621 4.89926Z" fill="#81DE76"/>
</svg>
