<svg width="30" height="20" viewBox="0 0 30 20" fill="none" xmlns="http://www.w3.org/2000/svg">
<path d="M0 1.05322C0 0.804582 0.0987721 0.566125 0.274587 0.39031C0.450403 0.214494 0.68886 0.115723 0.9375 0.115723H29.0625C29.3111 0.115723 29.5496 0.214494 29.7254 0.39031C29.9012 0.566125 30 0.804582 30 1.05322C30 1.30186 29.9012 1.54032 29.7254 1.71614C29.5496 1.89195 29.3111 1.99072 29.0625 1.99072H0.9375C0.68886 1.99072 0.450403 1.89195 0.274587 1.71614C0.0987721 1.54032 0 1.30186 0 1.05322ZM29.0625 8.84144H0.9375C0.68886 8.84144 0.450403 8.94022 0.274587 9.11603C0.0987721 9.29185 0 9.5303 0 9.77894C0 10.0276 0.0987721 10.266 0.274587 10.4419C0.450403 10.6177 0.68886 10.7164 0.9375 10.7164H29.0625C29.3111 10.7164 29.5496 10.6177 29.7254 10.4419C29.9012 10.266 30 10.0276 30 9.77894C30 9.5303 29.9012 9.29185 29.7254 9.11603C29.5496 8.94022 29.3111 8.84144 29.0625 8.84144ZM15 17.5672H0.9375C0.68886 17.5672 0.450403 17.6659 0.274587 17.8418C0.0987721 18.0176 0 18.256 0 18.5047C0 18.7533 0.0987721 18.9918 0.274587 19.1676C0.450403 19.3434 0.68886 19.4422 0.9375 19.4422H15C15.2486 19.4422 15.4871 19.3434 15.6629 19.1676C15.8387 18.9918 15.9375 18.7533 15.9375 18.5047C15.9375 18.256 15.8387 18.0176 15.6629 17.8418C15.4871 17.6659 15.2486 17.5672 15 17.5672Z" fill="black" fill-opacity="0.75"/>
</svg>
