<svg width="21" height="28" viewBox="0 0 21 28" fill="none" xmlns="http://www.w3.org/2000/svg">
<path d="M19.3843 24.0293H13.2304C13.2304 25.726 11.8501 27.1063 10.1535 27.1063C8.4569 27.1063 7.07659 25.726 7.07659 24.0293H0.922741C0.497921 24.0293 0.153512 23.6849 0.153512 23.2601C0.153512 20.3007 1.05874 19.1541 1.85746 18.1424C2.59418 17.2092 3.23043 16.4033 3.23043 13.9781V10.8499C3.23043 7.74237 5.28843 5.10673 8.11305 4.2338C7.94274 3.91221 7.84582 3.54606 7.84582 3.15755C7.84582 1.88508 8.88105 0.849854 10.1535 0.849854C11.426 0.849854 12.4612 1.88508 12.4612 3.15755C12.4612 3.54606 12.3643 3.91221 12.194 4.2338C15.0186 5.10673 17.0766 7.74237 17.0766 10.8499V13.9781C17.0766 16.4033 17.7128 17.2092 18.4496 18.1424C19.2483 19.1541 20.1535 20.3007 20.1535 23.2601C20.1535 23.6849 19.8091 24.0293 19.3843 24.0293ZM10.1535 25.5678C11.0018 25.5678 11.692 24.8776 11.692 24.0288H8.61505C8.61505 24.8776 9.3052 25.5678 10.1535 25.5678ZM10.9227 3.15755C10.9227 2.73339 10.5777 2.38832 10.1535 2.38832C9.72936 2.38832 9.38428 2.73339 9.38428 3.15755C9.38428 3.5817 9.72936 3.92678 10.1535 3.92678C10.5777 3.92678 10.9227 3.5817 10.9227 3.15755ZM17.2421 19.0958C16.4434 18.0841 15.5381 16.9374 15.5381 13.9781V10.8499C15.5381 7.88078 13.1226 5.46524 10.1535 5.46524C7.18443 5.46524 4.7689 7.88078 4.7689 10.8499V13.9781C4.7689 16.9374 3.86367 18.0841 3.06495 19.0958C2.41223 19.9225 1.83843 20.6494 1.71597 22.4909H18.591C18.4686 20.6494 17.8947 19.9225 17.2421 19.0958Z" fill="white"/>
<path d="M18.615 10.8498C18.615 7.84385 16.9935 5.03646 14.3832 3.52323C14.0156 3.31016 13.8904 2.83949 14.1034 2.47195C14.3164 2.10441 14.7873 1.97923 15.1547 2.19226C18.2199 3.96913 20.1535 7.24754 20.1535 10.8498C20.1535 11.2747 19.8091 11.6191 19.3843 11.6191C18.9595 11.6191 18.615 11.2747 18.615 10.8498Z" fill="white"/>
<path d="M5.15237 2.19227C5.51991 1.97919 5.99058 2.10442 6.20366 2.47196C6.41668 2.8395 6.2915 3.31016 5.92391 3.52324C3.31355 5.03647 1.69196 7.84386 1.69196 10.8499C1.69196 11.2747 1.34755 11.6191 0.922734 11.6191C0.497913 11.6191 0.153503 11.2747 0.153503 10.8499C0.153503 7.25006 2.08504 3.97037 5.15237 2.19227Z" fill="white"/>
</svg>
