<svg width="30" height="33" viewBox="0 0 30 33"  xmlns="http://www.w3.org/2000/svg">
<path d="M25.8621 22.5396C25.8621 21.3986 24.9341 20.4707 23.7931 20.4707H22.7586C21.6176 20.4707 20.6897 21.3986 20.6897 22.5396V23.5741H18.6207V24.6086C18.6207 26.8901 20.4771 28.7465 22.7586 28.7465V29.781H21.7241V30.8155H24.8276V29.781H23.7931V28.7465C26.0747 28.7465 27.931 26.8901 27.931 24.6086V23.5741H25.8621V22.5396ZM21.7241 22.5396C21.7241 21.9691 22.1881 21.5051 22.7586 21.5051H23.7931C24.3636 21.5051 24.8276 21.9691 24.8276 22.5396V24.6086C24.8276 25.1791 24.3636 25.6431 23.7931 25.6431H22.7586C22.1881 25.6431 21.7241 25.1791 21.7241 24.6086V22.5396ZM26.8966 24.6086C26.8966 26.3201 25.5047 27.712 23.7931 27.712H22.7586C21.0471 27.712 19.6552 26.3201 19.6552 24.6086H20.6897C20.6897 25.7496 21.6176 26.6776 22.7586 26.6776H23.7931C24.9341 26.6776 25.8621 25.7496 25.8621 24.6086H26.8966Z" />
<path d="M23.2133 13.6839L23.9447 14.4153C24.1469 14.2131 24.4738 14.2131 24.676 14.4153L25.4074 13.6839C24.8022 13.0788 23.8185 13.0788 23.2133 13.6839Z" />
<path d="M26.8702 12.2212C26.1869 11.5374 25.2776 11.1603 24.3103 11.1603C23.3431 11.1603 22.4338 11.5374 21.7505 12.2212L22.4819 12.9526C22.9702 12.4643 23.6198 12.1948 24.3103 12.1948C25.0009 12.1948 25.6505 12.4643 26.1388 12.9526L26.8702 12.2212Z" />
<path d="M27.6021 11.4893L28.3335 10.7579C26.115 8.53946 22.5052 8.53946 20.2867 10.7579L21.0181 11.4893C22.8341 9.67377 25.7866 9.67377 27.6021 11.4893Z" />
<path d="M27.6905 15.2982H19.6552V10.6431C19.6552 5.22394 15.2467 0.815491 9.82759 0.815491C4.40845 0.815491 0 5.22394 0 10.6431V19.9534C0 22.0876 1.19328 24.0169 3.04086 24.9893C1.78034 26.2276 1.03448 27.9381 1.03448 29.781V32.8845H27.4138C28.8398 32.8845 30 31.7243 30 30.2982V18.7622L27.6905 15.2982ZM28.5166 18.4017H23.2759V17.3672H22.2414V18.4017H21.2069V17.3672H20.1724V18.4017H18.0352L19.4147 16.3327H27.1371L28.5166 18.4017ZM5.53759 30.9065C5.29862 30.4281 5.17241 29.8932 5.17241 29.3595C5.17241 28.4486 5.54172 27.5574 6.18569 26.9134L6.90672 26.1924L5.53448 24.5455C5.5469 24.5403 5.55828 24.5341 5.57069 24.5289L6.60724 24.097C7.38931 25.0705 8.56138 25.6431 9.82759 25.6431C11.0938 25.6431 12.2659 25.0705 13.0479 24.097L14.0845 24.5289C14.0964 24.5341 14.1072 24.5414 14.1197 24.5465L12.7484 26.1924L13.4695 26.9134C14.1134 27.5569 14.4828 28.4486 14.4828 29.3595C14.4828 29.8932 14.3566 30.4281 14.1176 30.9065L13.6459 31.85H6.00931L5.53759 30.9065ZM7.60448 20.8948L7.15914 20.7277C5.35241 20.0501 4.13845 18.2988 4.13793 16.3689V10.6431H4.49379C6.6931 10.6431 8.73672 9.45704 9.8281 7.5479C10.9184 9.45704 12.9626 10.6431 15.1619 10.6431H15.5172V16.3689C15.5167 18.2982 14.3028 20.0501 12.496 20.7277L12.0507 20.8948C11.6503 21.0453 11.3803 21.4338 11.3793 21.8631V23.4019L12.0378 23.676C11.4605 24.2657 10.6728 24.6086 9.82759 24.6086C8.98241 24.6086 8.19466 24.2657 7.61741 23.676L8.27586 23.4019V21.862C8.27483 21.4338 8.00534 21.0453 7.60448 20.8948ZM3.10345 13.7465H2.06897C1.49845 13.7465 1.03448 13.2826 1.03448 12.712C1.03448 12.1415 1.49845 11.6776 2.06897 11.6776H3.10345V13.7465ZM16.5517 18.7622V24.9282C15.9553 24.3557 15.2566 23.8964 14.4828 23.5741L12.4138 22.7119L12.4143 21.8636L12.8597 21.6965C15.0672 20.8684 16.5512 18.7276 16.5517 16.3689V14.781H17.5862C17.9648 14.781 18.315 14.6714 18.6207 14.4934V15.6588L16.5517 18.7622ZM17.5862 13.7465H16.5517V11.6776H17.5862C18.1567 11.6776 18.6207 12.1415 18.6207 12.712C18.6207 13.2826 18.1567 13.7465 17.5862 13.7465ZM14.2009 26.1815L14.1476 26.1282L15.0424 25.055C15.63 25.446 16.1421 25.9389 16.5512 26.5245V30.2982C16.5512 30.8827 16.7534 31.4165 17.0819 31.85H14.8024L15.0429 31.3689C15.3533 30.7477 15.5172 30.0526 15.5172 29.3589C15.5172 28.1589 15.0502 27.0303 14.2009 26.1815ZM9.82759 1.84997C14.6762 1.84997 18.6207 5.79446 18.6207 10.6431V10.9307C18.315 10.7527 17.9648 10.6431 17.5862 10.6431H16.5517V9.60859H16.5466C16.5176 8.14273 15.5193 6.87756 14.0912 6.52066L13.8409 7.52359C14.8076 7.76515 15.4841 8.61756 15.5126 9.60808H15.1624C13.3334 9.60808 11.6338 8.6217 10.7266 7.03377C10.5403 6.70739 10.2041 6.51239 9.82862 6.51239C9.4531 6.51239 9.1169 6.70739 8.93069 7.03377C8.02241 8.62221 6.32276 9.60859 4.49379 9.60859H4.1431C4.17155 8.61808 4.8481 7.76566 5.81483 7.52411L5.56448 6.52118C4.13638 6.87756 3.13759 8.14273 3.10862 9.60859H3.10345V10.6431H2.06897C1.69034 10.6431 1.34017 10.7527 1.03448 10.9307V10.6431C1.03448 5.79446 4.97897 1.84997 9.82759 1.84997ZM1.03448 19.9534V14.4934C1.34017 14.6714 1.69034 14.781 2.06897 14.781H3.10345V16.3689C3.10397 18.7276 4.58793 20.8684 6.79552 21.6965L7.24138 21.8631V22.7119L5.17241 23.5741C4.72603 23.7598 4.30966 23.9915 3.92379 24.2589C2.18586 23.5462 1.03448 21.8491 1.03448 19.9534ZM2.06897 29.781C2.06897 27.8481 3.03879 26.0889 4.60603 25.0477L5.50707 26.1282L5.45379 26.1815C4.605 27.0303 4.13793 28.1589 4.13793 29.3595C4.13793 30.0531 4.3019 30.7482 4.61224 31.3695L4.85276 31.85H2.06897V29.781ZM27.4138 31.85H19.1379C18.2824 31.85 17.5862 31.1538 17.5862 30.2982V19.4362H28.9655V30.2982C28.9655 31.1538 28.2693 31.85 27.4138 31.85Z" />
<path d="M12.4138 17.3672V16.85H7.24138V17.3672C7.24138 18.7932 8.40155 19.9534 9.82759 19.9534C11.2536 19.9534 12.4138 18.7932 12.4138 17.3672ZM8.36431 17.8845H11.2909C11.0772 18.4865 10.5021 18.9189 9.82759 18.9189C9.1531 18.9189 8.57793 18.4865 8.36431 17.8845Z" />
<path d="M7.24138 13.7465H8.27586V12.712C8.27586 11.8565 7.57965 11.1603 6.72414 11.1603C5.86862 11.1603 5.17241 11.8565 5.17241 12.712V13.7465H6.2069V12.712C6.2069 12.4265 6.43862 12.1948 6.72414 12.1948C7.00965 12.1948 7.24138 12.4265 7.24138 12.712V13.7465Z" />
<path d="M12.4138 12.712C12.4138 12.4265 12.6455 12.1948 12.931 12.1948C13.2166 12.1948 13.4483 12.4265 13.4483 12.712V13.7465H14.4828V12.712C14.4828 11.8565 13.7866 11.1603 12.931 11.1603C12.0755 11.1603 11.3793 11.8565 11.3793 12.712V13.7465H12.4138V12.712Z" />
<path d="M9.54155 15.7612L10.1131 15.4751C10.3603 15.3515 10.5445 15.1395 10.6319 14.8772C10.7193 14.615 10.6997 14.3341 10.576 14.0874L10.3448 13.6245V12.712H9.31034V13.7465C9.31034 13.8267 9.32897 13.9064 9.36466 13.9777L9.65069 14.5493L9.07914 14.8353L9.54155 15.7612Z" />
</svg>
