<svg width="31" height="36" viewBox="0 0 31 36" fill="none" xmlns="http://www.w3.org/2000/svg">
<path d="M26.816 24.2734C26.816 23.0281 25.8881 22.0153 24.7471 22.0153H23.7126C22.5716 22.0153 21.6436 23.0281 21.6436 24.2734V25.4024H19.5747V26.5315C19.5747 29.0215 21.431 31.0476 23.7126 31.0476V32.1766H22.6781V33.3057H25.7816V32.1766H24.7471V31.0476C27.0286 31.0476 28.885 29.0215 28.885 26.5315V25.4024H26.816V24.2734ZM22.6781 24.2734C22.6781 23.6507 23.1421 23.1444 23.7126 23.1444H24.7471C25.3176 23.1444 25.7816 23.6507 25.7816 24.2734V26.5315C25.7816 27.1541 25.3176 27.6605 24.7471 27.6605H23.7126C23.1421 27.6605 22.6781 27.1541 22.6781 26.5315V24.2734ZM27.8505 26.5315C27.8505 28.3995 26.4586 29.9186 24.7471 29.9186H23.7126C22.001 29.9186 20.6092 28.3995 20.6092 26.5315H21.6436C21.6436 27.7768 22.5716 28.7895 23.7126 28.7895H24.7471C25.8881 28.7895 26.816 27.7768 26.816 26.5315H27.8505Z" fill="#3C8BE1"/>
<path d="M24.1673 14.6083L24.8986 15.4065C25.1009 15.1858 25.4278 15.1858 25.63 15.4065L26.3614 14.6083C25.7562 13.9478 24.7724 13.9478 24.1673 14.6083Z" fill="#3C8BE1"/>
<path d="M27.8242 13.0119C27.1409 12.2656 26.2316 11.854 25.2643 11.854C24.2971 11.854 23.3878 12.2656 22.7045 13.0119L23.4359 13.8101C23.9242 13.2772 24.5738 12.9831 25.2643 12.9831C25.9548 12.9831 26.6045 13.2772 27.0928 13.8101L27.8242 13.0119Z" fill="#3C8BE1"/>
<path d="M28.556 12.2131L29.2874 11.4149C27.069 8.99364 23.4592 8.99364 21.2407 11.4149L21.9721 12.2131C23.7881 10.2316 26.7405 10.2316 28.556 12.2131Z" fill="#3C8BE1"/>
<path d="M28.6445 16.3702H20.6092V11.2895C20.6092 5.37509 16.2007 0.563721 10.7816 0.563721C5.36243 0.563721 0.953979 5.37509 0.953979 11.2895V21.4508C0.953979 23.78 2.14726 25.8857 3.99484 26.9469C2.73432 28.2984 1.98846 30.1653 1.98846 32.1766V35.5637H28.3678C29.7938 35.5637 30.954 34.2975 30.954 32.7411V20.1507L28.6445 16.3702ZM29.4705 19.7573H24.2298V18.6282H23.1954V19.7573H22.1609V18.6282H21.1264V19.7573H18.9892L20.3686 17.4992H28.091L29.4705 19.7573ZM6.49157 33.405C6.2526 32.8828 6.12639 32.2991 6.12639 31.7165C6.12639 30.7224 6.4957 29.7498 7.13967 29.0469L7.8607 28.26L6.48846 26.4626C6.50088 26.4569 6.51226 26.4502 6.52467 26.4445L7.56122 25.9732C8.34329 27.0356 9.51536 27.6605 10.7816 27.6605C12.0478 27.6605 13.2198 27.0356 14.0019 25.9732L15.0385 26.4445C15.0504 26.4502 15.0612 26.4581 15.0736 26.4637L13.7024 28.26L14.4235 29.0469C15.0674 29.7492 15.4367 30.7224 15.4367 31.7165C15.4367 32.2991 15.3105 32.8828 15.0716 33.405L14.5998 34.4347H6.96329L6.49157 33.405ZM8.55846 22.4782L8.11312 22.2959C6.30639 21.5564 5.09243 19.6449 5.09191 17.5387V11.2895H5.44777C7.64708 11.2895 9.6907 9.99509 10.7821 7.91146C11.8724 9.99509 13.9166 11.2895 16.1159 11.2895H16.4712V17.5387C16.4707 19.6444 15.2567 21.5564 13.45 22.2959L13.0047 22.4782C12.6043 22.6425 12.3343 23.0665 12.3333 23.535V25.2144L12.9917 25.5136C12.4145 26.1572 11.6267 26.5315 10.7816 26.5315C9.93639 26.5315 9.14863 26.1572 8.57139 25.5136L9.22984 25.2144V23.5339C9.22881 23.0665 8.95932 22.6425 8.55846 22.4782ZM4.05743 14.6766H3.02294C2.45243 14.6766 1.98846 14.1703 1.98846 13.5476C1.98846 12.9249 2.45243 12.4186 3.02294 12.4186H4.05743V14.6766ZM17.5057 20.1507V26.8803C16.9093 26.2554 16.2105 25.7541 15.4367 25.4024L13.3678 24.4614L13.3683 23.5356L13.8136 23.3532C16.0212 22.4494 17.5052 20.1129 17.5057 17.5387V15.8057H18.5402C18.9188 15.8057 19.269 15.686 19.5747 15.4918V16.7636L17.5057 20.1507ZM18.5402 14.6766H17.5057V12.4186H18.5402C19.1107 12.4186 19.5747 12.9249 19.5747 13.5476C19.5747 14.1703 19.1107 14.6766 18.5402 14.6766ZM15.1548 28.2482L15.1016 28.19L15.9964 27.0186C16.584 27.4454 17.096 27.9834 17.5052 28.6224V32.7411C17.5052 33.379 17.7074 33.9616 18.0359 34.4347H15.7564L15.9969 33.9097C16.3073 33.2317 16.4712 32.473 16.4712 31.716C16.4712 30.4063 16.0042 29.1745 15.1548 28.2482ZM10.7816 1.69275C15.6302 1.69275 19.5747 5.99775 19.5747 11.2895V11.6034C19.269 11.4092 18.9188 11.2895 18.5402 11.2895H17.5057V10.1605H17.5005C17.4716 8.56066 16.4733 7.17985 15.0452 6.79033L14.7948 7.88493C15.7616 8.14856 16.4381 9.07888 16.4666 10.1599H16.1164C14.2874 10.1599 12.5878 9.0834 11.6805 7.35033C11.4943 6.99412 11.1581 6.7813 10.7826 6.7813C10.4071 6.7813 10.0709 6.99412 9.88467 7.35033C8.97639 9.08396 7.27674 10.1605 5.44777 10.1605H5.09708C5.12553 9.07945 5.80208 8.14912 6.76881 7.88549L6.51846 6.7909C5.09036 7.17985 4.09157 8.56066 4.0626 10.1605H4.05743V11.2895H3.02294C2.64432 11.2895 2.29415 11.4092 1.98846 11.6034V11.2895C1.98846 5.99775 5.93295 1.69275 10.7816 1.69275ZM1.98846 21.4508V15.4918C2.29415 15.686 2.64432 15.8057 3.02294 15.8057H4.05743V17.5387C4.05794 20.1129 5.54191 22.4494 7.7495 23.3532L8.19536 23.535V24.4614L6.12639 25.4024C5.68001 25.6051 5.26363 25.858 4.87777 26.1498C3.13984 25.3719 1.98846 23.5198 1.98846 21.4508ZM3.02294 32.1766C3.02294 30.067 3.99277 28.1471 5.56001 27.0107L6.46105 28.19L6.40777 28.2482C5.55898 29.1745 5.09191 30.4063 5.09191 31.7165C5.09191 32.4736 5.25588 33.2323 5.56622 33.9103L5.80674 34.4347H3.02294V32.1766ZM28.3678 34.4347H20.0919C19.2364 34.4347 18.5402 33.6748 18.5402 32.7411V20.8863H29.9195V32.7411C29.9195 33.6748 29.2233 34.4347 28.3678 34.4347Z" fill="#3C8BE1"/>
<path d="M13.3678 18.6282V18.0637H8.19536V18.6282C8.19536 20.1846 9.35553 21.4508 10.7816 21.4508C12.2076 21.4508 13.3678 20.1846 13.3678 18.6282ZM9.31829 19.1928H12.2448C12.0312 19.8499 11.456 20.3218 10.7816 20.3218C10.1071 20.3218 9.53191 19.8499 9.31829 19.1928Z" fill="#3C8BE1"/>
<path d="M8.19536 14.6766H9.22984V13.5476C9.22984 12.6139 8.53363 11.854 7.67812 11.854C6.8226 11.854 6.12639 12.6139 6.12639 13.5476V14.6766H7.16088V13.5476C7.16088 13.236 7.3926 12.9831 7.67812 12.9831C7.96363 12.9831 8.19536 13.236 8.19536 13.5476V14.6766Z" fill="#3C8BE1"/>
<path d="M13.3678 13.5476C13.3678 13.236 13.5995 12.9831 13.885 12.9831C14.1705 12.9831 14.4023 13.236 14.4023 13.5476V14.6766H15.4367V13.5476C15.4367 12.6139 14.7405 11.854 13.885 11.854C13.0295 11.854 12.3333 12.6139 12.3333 13.5476V14.6766H13.3678V13.5476Z" fill="#3C8BE1"/>
<path d="M10.4955 16.8754L11.0671 16.5632C11.3143 16.4283 11.4985 16.1969 11.5859 15.9107C11.6733 15.6244 11.6536 15.3179 11.53 15.0486L11.2988 14.5434V13.5476H10.2643V14.6766C10.2643 14.7641 10.2829 14.8511 10.3186 14.929L10.6047 15.5528L10.0331 15.8649L10.4955 16.8754Z" fill="#3C8BE1"/>
</svg>
