<svg width="34" height="36" viewBox="0 0 34 36" fill="none" xmlns="http://www.w3.org/2000/svg">
<path d="M22.1629 34.2539H11.837M22.1629 34.2539V9.87507C22.1629 9.50205 22.0541 9.1443 21.8604 8.88054C21.6668 8.61678 21.4042 8.4686 21.1303 8.4686H12.8696C12.5958 8.4686 12.3331 8.61678 12.1395 8.88054C11.9458 9.1443 11.837 9.50205 11.837 9.87507V34.2539M22.1629 34.2539H31.4562C31.73 34.2539 31.9927 34.1057 32.1863 33.8419C32.38 33.5782 32.4888 33.2204 32.4888 32.8474V25.1118C32.4888 24.7388 32.38 24.3811 32.1863 24.1173C31.9927 23.8535 31.73 23.7054 31.4562 23.7054H23.1955C22.9216 23.7054 22.659 23.8535 22.4653 24.1173C22.2717 24.3811 22.1629 24.7388 22.1629 25.1118L22.1629 34.2539ZM11.837 34.2539L11.8371 20.4236C11.8371 20.0506 11.7283 19.6928 11.5346 19.4291C11.341 19.1653 11.0784 19.0171 10.8045 19.0171H2.54382C2.26996 19.0171 2.00731 19.1653 1.81367 19.4291C1.62002 19.6928 1.51123 20.0506 1.51123 20.4236V32.8474C1.51123 33.2204 1.62002 33.5782 1.81367 33.8419C2.00731 34.1057 2.26996 34.2539 2.54382 34.2539H11.837ZM22.1629 1.43625H11.8371" stroke="#CC004C" stroke-width="1.5" stroke-linecap="round" stroke-linejoin="round"/>
</svg>
