<svg width="35" height="27" viewBox="0 0 35 27" fill="none" xmlns="http://www.w3.org/2000/svg">
<path d="M0 4.64113V22.3589C0 24.8002 1.99164 26.7919 4.433 26.7919H18.7528C21.1942 26.7919 23.1858 24.8002 23.1858 22.3589V19.4892C23.1858 19.0038 22.7932 18.6111 22.3078 18.6111C21.8224 18.6111 21.4297 19.0038 21.4297 19.4892V22.3589C21.4297 23.8365 20.2233 25.0429 18.7457 25.0429H4.433C2.95533 25.0429 1.74893 23.8365 1.74893 22.3589V4.64113C1.74893 3.16346 2.95533 1.95706 4.433 1.95706H18.7528C20.2305 1.95706 21.4369 3.16346 21.4369 4.64113V7.5108C21.4369 7.99622 21.8295 8.38884 22.3149 8.38884C22.8003 8.38884 23.1929 7.99622 23.1929 7.5108V4.64113C23.1929 2.19977 21.2013 0.20813 18.7599 0.20813H4.433C1.99164 0.20813 0 2.19263 0 4.64113Z" fill="white"/>
<path d="M27.5117 20.1031C27.6831 20.2744 27.9044 20.3601 28.1328 20.3601C28.3612 20.3601 28.5825 20.2744 28.7538 20.1031L34.743 14.1139C35.0857 13.7713 35.0857 13.2216 34.743 12.879L28.7538 6.88976C28.4112 6.54711 27.8615 6.54711 27.5189 6.88976C27.1762 7.2324 27.1762 7.78207 27.5189 8.12472L32.0161 12.622H15.6048C15.1193 12.622 14.7267 13.0146 14.7267 13.5C14.7267 13.9854 15.1193 14.378 15.6048 14.378H32.009L27.5117 18.8753C27.1691 19.2108 27.1691 19.7676 27.5117 20.1031Z" fill="white"/>
</svg>
