<svg width="30" height="31" viewBox="0 0 30 31"   xmlns="http://www.w3.org/2000/svg">
<path d="M15.6191 17.0426C14.4984 17.0374 13.3849 16.8618 12.3169 16.5218C10.6105 15.951 9.34303 14.5063 8.999 12.7401C8.62255 10.9269 9.3086 9.00964 10.8808 7.48014C11.0495 7.31584 11.2248 7.15845 11.4067 7.00799C13.0166 5.66026 15.1869 5.19189 17.2092 5.75579C19.1671 6.38069 20.52 8.16997 20.5876 10.224C20.6609 11.4064 20.2756 12.5715 19.5117 13.477C18.9225 14.2191 17.968 14.5697 17.0385 14.3852C16.6584 14.3063 16.3268 14.0761 16.12 13.7476C15.9344 13.4285 15.8868 13.0476 15.9882 12.6926C16.4254 11.0398 16.87 8.52804 16.8744 8.50259C16.9054 8.32663 17.028 8.18061 17.1959 8.11953C17.3638 8.05845 17.5516 8.09159 17.6884 8.20646C17.8253 8.32133 17.8904 8.50048 17.8594 8.67644C17.8408 8.78094 17.4031 11.255 16.9551 12.9482C16.9231 13.042 16.9311 13.1449 16.9773 13.2326C17.0464 13.3283 17.1507 13.3925 17.2673 13.4113C17.8363 13.5063 18.411 13.278 18.7597 12.8185C19.3529 12.1089 19.6502 11.1981 19.5897 10.2751C19.5408 8.64008 18.4687 7.21262 16.912 6.71009C15.2129 6.24273 13.3926 6.64199 12.045 7.77759C11.8843 7.91094 11.7281 8.05054 11.5782 8.19654C10.8009 8.95264 9.55965 10.5215 9.9779 12.5365C10.2589 13.9443 11.2643 15.098 12.6204 15.5688C14.9654 16.3168 18.335 16.4069 20.1104 14.1994C20.2849 13.9893 20.5956 13.958 20.8084 14.1291C21.0212 14.3002 21.0574 14.6103 20.8897 14.8258C19.5769 16.4585 17.5791 17.0426 15.6191 17.0426Z"/>
<path d="M13.9074 14.4502C13.3789 14.4593 12.8634 14.286 12.4477 13.9594C11.488 13.1914 11.4616 11.8571 11.7307 10.9485C11.8213 10.6459 11.943 10.3535 12.0937 10.0759C12.4689 9.31894 13.0688 8.6964 13.8113 8.29344C14.736 7.81363 15.8657 7.99558 16.593 8.74144C16.9538 9.13685 17.2256 9.60507 17.39 10.1145C17.4771 10.373 17.3409 10.6536 17.0839 10.7451C16.8269 10.8366 16.544 10.7053 16.4481 10.4499C16.3295 10.0736 16.1325 9.72666 15.87 9.43209C15.446 8.99847 14.7853 8.89981 14.2531 9.19064C13.6962 9.50467 13.2487 9.98147 12.9706 10.5571C12.8537 10.7728 12.7593 10.9999 12.6888 11.2348C12.4945 11.8921 12.5372 12.7498 13.0734 13.1792C13.6595 13.6499 14.6484 13.4509 15.2047 12.9709C15.6194 12.5977 15.9756 12.1643 16.2616 11.6853C16.3542 11.5301 16.5233 11.437 16.704 11.4417C16.8846 11.4464 17.0487 11.5482 17.1331 11.708C17.2175 11.8678 17.2091 12.0607 17.1111 12.2126C16.7723 12.777 16.3506 13.2873 15.8601 13.7262C15.3133 14.1875 14.6228 14.4436 13.9074 14.4502Z" />
<path d="M28.5 30.0476H1.5C0.67195 30.0467 0.000909355 29.3757 0 28.5476V10.0476C7.86e-06 9.8537 0.112108 9.67729 0.287642 9.59494C0.463175 9.5126 0.670491 9.53915 0.8196 9.66309L13.0882 19.8594C14.1982 20.7761 15.8028 20.7758 16.9126 19.8587L29.18 9.66309C29.3291 9.5389 29.5366 9.51219 29.7123 9.59457C29.888 9.67695 30.0001 9.85354 30 10.0476V28.5476C29.9991 29.3757 29.3281 30.0467 28.5 30.0476ZM1 11.1132V28.5476C1.00036 28.8236 1.22401 29.0473 1.5 29.0476H28.5C28.776 29.0474 28.9998 28.8237 29 28.5476V11.1132L17.5511 20.6283C16.0707 21.8516 13.9304 21.8519 12.4497 20.629L1 11.1132Z" />
<path d="M0.500498 10.5476C0.282713 10.5478 0.0898509 10.407 0.0236813 10.1995C-0.0424882 9.99201 0.0332573 9.76555 0.210948 9.63963L4.71095 6.44964C4.93625 6.29349 5.24526 6.34785 5.40374 6.57152C5.56222 6.79518 5.51106 7.10475 5.28905 7.26553L0.789048 10.4555C0.704786 10.5155 0.603917 10.5477 0.500498 10.5476Z" />
<path d="M29.4995 10.5476C29.3961 10.5477 29.2952 10.5155 29.2109 10.4555L24.7109 7.26553C24.4889 7.10475 24.4378 6.79518 24.5963 6.57152C24.7547 6.34785 25.0637 6.29349 25.289 6.44964L29.789 9.63963C29.9667 9.76555 30.0425 9.99201 29.9763 10.1995C29.9101 10.407 29.7173 10.5478 29.4995 10.5476Z" />
<path d="M19.6196 3.54759C19.5161 3.54764 19.4152 3.51547 19.3308 3.45554L16.9408 1.76054C15.8313 0.823029 14.2101 0.813263 13.0895 1.73734L10.6695 3.45559C10.5237 3.55894 10.3339 3.57669 10.1715 3.50215C10.0092 3.42761 9.89888 3.2721 9.88224 3.0942C9.8656 2.9163 9.94514 2.74304 10.0909 2.63969L12.4809 0.944686C13.9577 -0.262832 16.0834 -0.253227 17.5493 0.967586L19.9093 2.63949C20.0871 2.76538 20.163 2.99194 20.0967 3.19953C20.0305 3.40711 19.8375 3.54792 19.6196 3.54759Z" />
<path d="M0.824997 29.7776C0.614281 29.7778 0.426066 29.6458 0.354382 29.4477C0.282699 29.2495 0.342935 29.0277 0.504997 28.893L11.915 19.413C12.0521 19.2965 12.2413 19.2625 12.4103 19.3243C12.5794 19.386 12.7023 19.5338 12.732 19.7113C12.7618 19.8888 12.6938 20.0686 12.5541 20.182L1.14415 29.662C1.05456 29.7367 0.941624 29.7776 0.824997 29.7776Z" />
<path d="M29.1743 29.7776C29.0578 29.7777 28.9449 29.7368 28.8554 29.6621L17.4454 20.1821C17.3058 20.0686 17.2378 19.8888 17.2676 19.7113C17.2973 19.5338 17.4202 19.386 17.5893 19.3243C17.7583 19.2626 17.9475 19.2965 18.0846 19.4131L29.4943 28.8931C29.6564 29.0278 29.7166 29.2496 29.6449 29.4477C29.5732 29.6459 29.385 29.7778 29.1743 29.7776Z" />
<path d="M25 14.2876C24.7239 14.2876 24.5 14.0637 24.5 13.7876V3.55149C24.4986 3.56199 24.4785 3.54783 24.445 3.54759H5.55501C5.53291 3.54623 5.51122 3.554 5.49501 3.56909L5.50001 13.7876C5.50001 14.0637 5.27616 14.2876 5.00001 14.2876C4.72387 14.2876 4.50001 14.0637 4.50001 13.7876V3.54759C4.51614 2.98053 4.98791 2.53336 5.55501 2.54759H24.445C25.0121 2.53342 25.4838 2.98056 25.5 3.54759V13.7876C25.5 14.0637 25.2762 14.2876 25 14.2876Z" />
</svg>
