<svg width="30" height="30" viewBox="0 0 30 30"  xmlns="http://www.w3.org/2000/svg">
<path d="M25.7812 18.8156V15.9375H22.9688V16.4062C22.9688 18.2512 20.2706 18.2808 20.1562 18.2812L15.9375 18.2808C15.0436 18.2808 14.5312 18.7936 14.5312 19.6875V21.5625C14.5312 22.4559 15.0436 22.9683 15.9375 22.9683H16.4062V26.25H19.2188V24.8081C19.898 24.7303 20.4173 24.487 20.7478 24.0637C20.9986 23.7426 21.0895 23.385 21.1172 23.0808C21.9328 23.2547 22.9688 23.7004 22.9688 24.8437V25.3125H25.7812V22.4343C26.4591 22.267 27.1875 21.7345 27.1875 20.625C27.1875 19.5154 26.4591 18.9825 25.7812 18.8156ZM18.2812 25.3125H17.3438V22.9687H18.2812V25.3125ZM20.0053 23.4914C19.8483 23.6892 19.582 23.8139 19.2188 23.8701V22.9687H20.1558C20.1605 22.9687 20.1759 22.9692 20.1895 22.9692C20.1778 23.1351 20.1338 23.3297 20.0053 23.4914ZM20.1562 22.0312L18.2812 22.0308V20.1562H17.3438V22.0308H15.9375C15.5564 22.0308 15.4688 21.9431 15.4688 21.5625V19.6875C15.4688 19.3059 15.5564 19.2183 15.9375 19.2183L20.1562 19.2187C20.9381 19.2187 22.1372 19.0022 22.9688 18.3454V22.905C22.1372 22.2478 20.9381 22.0312 20.1562 22.0312ZM24.8438 24.375H23.9062V16.875H24.8438V24.375ZM25.7812 21.4528V19.7953C26.018 19.9083 26.25 20.1384 26.25 20.625C26.25 21.1083 26.0203 21.3389 25.7812 21.4528Z"/>
<path d="M23.4389 4.24451C21.8878 4.24451 20.6264 5.50592 20.6264 7.05701C20.6264 8.6081 21.8878 9.86951 23.4389 9.86951C24.99 9.86951 26.2514 8.60764 26.2514 7.05701C26.2514 5.50639 24.99 4.24451 23.4389 4.24451ZM23.4389 8.93201C22.4048 8.93201 21.5639 8.09107 21.5639 7.05701C21.5639 6.02295 22.4048 5.18201 23.4389 5.18201C24.473 5.18201 25.3139 6.02295 25.3139 7.05701C25.3139 8.09107 24.473 8.93201 23.4389 8.93201Z" />
<path d="M29.5327 8.36013V5.75294L27.7889 5.31701C27.7744 5.28185 27.7598 5.24669 27.7448 5.21107L28.6702 3.66935L26.8266 1.82576L25.2844 2.75154C25.2492 2.73607 25.2141 2.72154 25.1784 2.70748L24.742 0.963257H22.1348L21.6989 2.70748C21.6637 2.72154 21.6286 2.73654 21.593 2.75154L20.0513 1.82623L18.2077 3.66982L18.2564 3.74998H9.84375C5.20969 3.74998 5.15625 7.46248 5.15625 7.49998V10.9036C4.87828 11.1337 4.65141 11.422 4.48922 11.7478C0.523125 12.3295 0.46875 15.9009 0.46875 15.9375V21.0937H1.01812C0.658125 21.9009 0.46875 22.7784 0.46875 23.6719C0.46875 27.1612 3.3075 30 6.79688 30C8.55094 30 10.14 29.2819 11.287 28.125H29.5312V10.3125H28.5909L27.7448 8.90248C27.7598 8.86732 27.7744 8.83216 27.7889 8.79654L29.5327 8.36013ZM19.1334 5.21154C19.118 5.24669 19.1034 5.28185 19.0894 5.31748L18.75 5.40232V4.68748H18.8189L19.1334 5.21154ZM27.8639 11.25H28.5938V14.0625H12.6127C12.4078 13.6659 12.1209 13.2586 11.7188 12.8934V11.25H19.0139L20.0517 12.2878L21.5934 11.3625C21.6286 11.3775 21.6637 11.392 21.6994 11.4065L22.1353 13.1503H24.7425L25.1789 11.4065C25.2141 11.392 25.2492 11.3775 25.2848 11.3625L26.8266 12.2878L27.8639 11.25ZM12.1875 23.6719C12.1875 23.8912 12.1706 24.1064 12.1448 24.3187C11.3541 24.4851 10.5722 24.6061 9.81141 24.6881C9.83203 24.4378 9.84375 24.1776 9.84375 23.9062C9.84375 23.5828 9.82406 23.2762 9.79547 22.979C10.5366 22.9012 11.2997 22.7887 12.075 22.6345C12.1416 22.9753 12.1875 23.3208 12.1875 23.6719ZM6.79688 28.8169C6.23625 28.3819 5.30484 27.4284 4.89422 25.7175C5.51109 25.7592 6.17812 25.7859 6.88922 25.7859C7.46672 25.7859 8.07281 25.7662 8.69766 25.7269C8.28609 27.4322 7.35563 28.3833 6.79688 28.8169ZM4.73438 24.7565C4.70672 24.4865 4.6875 24.2067 4.6875 23.9062C4.6875 23.6067 4.70672 23.324 4.73391 23.0498C5.39484 23.0976 6.11578 23.1295 6.88922 23.1295C7.51687 23.1295 8.17828 23.1079 8.86125 23.0601C8.88797 23.3315 8.90625 23.6104 8.90625 23.9062C8.90625 24.2128 8.88609 24.4973 8.8575 24.772C7.33547 24.8794 5.92594 24.8456 4.73438 24.7565ZM1.40625 23.6719C1.40625 23.3208 1.45219 22.9758 1.51875 22.635C2.03625 22.7353 2.81953 22.8651 3.79969 22.9678C3.77016 23.2687 3.75 23.5786 3.75 23.9062C3.75 24.172 3.76172 24.4256 3.78141 24.6708C2.71453 24.5564 1.89984 24.4106 1.44891 24.3192C1.42313 24.1064 1.40625 23.8912 1.40625 23.6719ZM6.79688 15.4687C7.58391 15.4687 8.28891 15.1134 8.76188 14.5556C9.3 14.625 10.3125 14.8945 10.3125 15.9375V18.4167C9.27797 17.7229 8.06203 17.3437 6.79688 17.3437C5.53172 17.3437 4.31578 17.7229 3.28125 18.4167V15.9375C3.28125 14.902 4.29469 14.6292 4.83328 14.557C5.30625 15.1139 6.01031 15.4687 6.79688 15.4687ZM6.22406 6.77716L7.51875 7.74794C7.50703 7.82623 7.5 7.90123 7.5 7.96873V8.43748H6.09375V7.49998C6.09375 7.46341 6.09937 7.16576 6.22406 6.77716ZM9.3675 12.7453C12.1294 13.3664 12.1866 15.8287 12.1875 15.9375V20.1562H11.25V15.9375C11.25 14.5261 10.1845 13.9069 9.24656 13.6908C9.32906 13.4386 9.375 13.17 9.375 12.8906C9.375 12.8414 9.37031 12.7936 9.3675 12.7453ZM6.79688 18.6183C7.38094 19.177 8.31422 20.3165 8.71312 22.1259C7.30875 22.2169 6.00469 22.1897 4.88344 22.1114C5.28422 20.3104 6.21422 19.1756 6.79688 18.6183ZM11.8153 21.7293C11.0822 21.8723 10.3584 21.9759 9.65344 22.0476C9.30375 20.3447 8.5275 19.1414 7.87172 18.3918C8.77125 18.5742 9.60891 18.9858 10.3125 19.5933V21.0937H11.5195C11.632 21.3 11.7309 21.5114 11.8153 21.7293ZM18.2873 10.3125H10.7812V12.2564C10.32 12.0229 9.76594 11.8448 9.10453 11.7478C8.94234 11.4215 8.71547 11.1333 8.4375 10.9036V7.96873C8.4375 7.93029 8.45344 7.03123 9.84375 7.03123H17.3452V8.36013L19.0894 8.79654C19.1034 8.83169 19.1184 8.86685 19.1334 8.90248L18.2873 10.3125ZM15 6.09373V4.68748H15.9375V6.09373H15ZM14.0625 6.09373H13.125V4.68748H14.0625V6.09373ZM12.1875 6.09373H11.25V4.68748H12.1875V6.09373ZM17.3452 5.75341V6.09373H16.875V4.68748H17.8125V5.62498H17.8589L17.3452 5.75341ZM10.3125 4.68748V6.09373H9.84375C9.63984 6.09373 9.45516 6.1106 9.28359 6.13826L8.93813 4.75591C9.21516 4.7156 9.50953 4.68748 9.84375 4.68748H10.3125ZM8.02641 4.97576L8.39484 6.44998C8.19516 6.57138 8.03531 6.71529 7.90969 6.86998L6.66703 5.9381C6.9525 5.56591 7.38141 5.21201 8.02641 4.97576ZM6.09375 9.37498H7.5V10.4123C7.27594 10.3486 7.04109 10.3125 6.79688 10.3125C6.55266 10.3125 6.31781 10.3486 6.09375 10.4123V9.37498ZM6.79688 11.25C7.70156 11.25 8.4375 11.9859 8.4375 12.8906C8.4375 13.7953 7.70156 14.5312 6.79688 14.5312C5.89219 14.5312 5.15625 13.7953 5.15625 12.8906C5.15625 11.9859 5.89219 11.25 6.79688 11.25ZM1.40625 15.9394C1.40719 15.8287 1.46437 13.3659 4.22625 12.7453C4.22344 12.7936 4.21875 12.8414 4.21875 12.8906C4.21875 13.17 4.26469 13.4386 4.34719 13.6908C3.40922 13.9069 2.34375 14.5261 2.34375 15.9375V20.1562H1.40625V15.9394ZM3.28125 21.0937V19.5928C3.98484 18.9858 4.8225 18.5737 5.72203 18.3914C5.06859 19.1386 4.29516 20.3367 3.94359 22.0312C3.02531 21.9379 2.28188 21.8193 1.77937 21.7265C1.86328 21.5095 1.96219 21.2986 2.07422 21.0937H3.28125ZM1.66594 25.319C2.20266 25.4189 2.97328 25.5417 3.91875 25.6364C4.2225 27.1645 4.89328 28.2215 5.51766 28.9026C3.69656 28.4569 2.23547 27.0886 1.66594 25.319ZM8.07609 28.9026C8.69859 28.2234 9.3675 27.1701 9.67219 25.6481C10.4053 25.5745 11.16 25.4676 11.9273 25.3195C11.3578 27.089 9.89672 28.4569 8.07609 28.9026ZM12.0548 27.1875C12.7298 26.1811 13.125 24.9722 13.125 23.6719C13.125 22.7784 12.9356 21.9009 12.5756 21.0937H13.125V15.9375C13.125 15.9258 13.118 15.5367 12.9745 15H28.5938V27.1875H12.0548ZM27.0727 8.00904L26.9911 8.25232C26.9391 8.40747 26.873 8.56498 26.7952 8.72154L26.6808 8.95123L27.4894 10.2989L26.6812 11.107L25.3336 10.2984L25.1039 10.4128C24.9473 10.4906 24.7894 10.5567 24.6347 10.6087L24.3914 10.6903L24.0103 12.2128H22.8675L22.4869 10.6903L22.2436 10.6087C22.0884 10.5567 21.9309 10.4906 21.7744 10.4128L21.5447 10.2984L20.197 11.107L19.3889 10.2989L20.1975 8.95123L20.0831 8.72154C20.0058 8.56638 19.9397 8.40841 19.8872 8.25185L19.8056 8.00904L18.2831 7.62794V6.48513L19.8056 6.10451L19.8872 5.86169C19.9402 5.70513 20.0058 5.54716 20.0831 5.39201L20.1975 5.16232L19.3889 3.81466L20.197 3.00654L21.5447 3.81513L21.7744 3.70076C21.9295 3.62341 22.0875 3.55732 22.2441 3.50482L22.4869 3.42326L22.8675 1.90076H24.0103L24.3914 3.42326L24.6342 3.50482C24.7908 3.55779 24.9487 3.62341 25.1039 3.70076L25.3336 3.81513L26.6812 3.00654L27.4894 3.81466L26.6808 5.16232L26.7952 5.39201C26.873 5.54857 26.9391 5.70654 26.9911 5.86123L27.0727 6.10451L28.5952 6.48513V7.62794L27.0727 8.00904Z" />
<path d="M13.125 13.125C13.3839 13.125 13.5938 12.9151 13.5938 12.6562C13.5938 12.3973 13.3839 12.1875 13.125 12.1875C12.8661 12.1875 12.6562 12.3973 12.6562 12.6562C12.6562 12.9151 12.8661 13.125 13.125 13.125Z" />
<path d="M15 13.125C15.2589 13.125 15.4688 12.9151 15.4688 12.6562C15.4688 12.3973 15.2589 12.1875 15 12.1875C14.7411 12.1875 14.5312 12.3973 14.5312 12.6562C14.5312 12.9151 14.7411 13.125 15 13.125Z" />
<path d="M16.875 13.125C17.1339 13.125 17.3438 12.9151 17.3438 12.6562C17.3438 12.3973 17.1339 12.1875 16.875 12.1875C16.6161 12.1875 16.4062 12.3973 16.4062 12.6562C16.4062 12.9151 16.6161 13.125 16.875 13.125Z" />
</svg>
