<svg width="35" height="35" viewBox="0 0 35 35" fill="none" xmlns="http://www.w3.org/2000/svg">
<path d="M20.79 11.9827L24.8268 7.94581L20.79 3.90896C20.3628 3.48185 20.3628 2.78931 20.79 2.3622C21.2171 1.93503 21.9096 1.93503 22.3367 2.3622L26.3736 6.39906L30.4104 2.3622C30.8376 1.9351 31.5302 1.9351 31.9572 2.3622C32.3843 2.78931 32.3843 3.48185 31.9572 3.90896L27.9203 7.94581L31.9572 11.9827C32.3843 12.4098 32.3843 13.1023 31.9572 13.5294C31.7436 13.743 31.4637 13.8498 31.1838 13.8498C30.904 13.8498 30.624 13.743 30.4105 13.5294L26.3736 9.49256L22.3368 13.5294C22.1232 13.743 21.8433 13.8498 21.5635 13.8498C21.2835 13.8498 21.0037 13.743 20.7901 13.5294C20.3628 13.1023 20.3628 12.4098 20.79 11.9827ZM35 28.3428C35 28.6329 34.8847 28.911 34.6796 29.1161L31.8524 31.9433C29.8676 33.9282 27.183 35 24.2333 35C24.0044 35 23.774 34.9935 23.5421 34.9805C20.4752 34.8088 17.4713 33.4654 15.3007 31.2948L3.70506 19.6991C1.53447 17.5287 0.191162 14.5249 0.0194451 11.458C-0.160885 8.23791 0.917813 5.28652 3.05668 3.14765L5.88392 0.320329C6.31103 -0.106776 7.00357 -0.106776 7.43067 0.320329L15.2574 8.14706C15.4625 8.3522 15.5778 8.63035 15.5778 8.92047C15.5778 9.21058 15.4625 9.48874 15.2574 9.69388L10.7657 14.1856C10.7616 14.1897 10.7492 14.2021 10.7492 14.2288C10.7492 14.2555 10.7616 14.2679 10.7657 14.2719L20.7281 24.2344C20.7323 24.2385 20.7446 24.2509 20.7713 24.2509C20.798 24.2509 20.8103 24.2384 20.8144 24.2344L25.3062 19.7427C25.7333 19.3156 26.4258 19.3156 26.8529 19.7427L34.6796 27.5694C34.8847 27.7745 35 28.0527 35 28.3428ZM5.37684 3.92099L11.6567 10.201L12.9372 8.92047L6.65733 2.64049L5.37684 3.92099ZM29.4781 31.116L23.2523 24.8901L22.3613 25.7811C21.9376 26.205 21.3729 26.4383 20.7713 26.4383C20.1698 26.4383 19.605 26.2049 19.1813 25.7811L9.21893 15.8187C8.34223 14.942 8.34223 13.5155 9.21893 12.6387L10.1099 11.7477L3.88409 5.52181C1.19672 9.08063 1.71631 14.6169 5.25181 18.1525L16.8475 29.7481C20.3832 33.2839 25.9195 33.8034 29.4781 31.116ZM32.3594 28.3428L26.0796 22.0628L24.7991 23.3433L31.079 29.6233L32.3594 28.3428Z" fill="#A26AFF"/>
</svg>
