<svg width="30" height="31" viewBox="0 0 30 31"  xmlns="http://www.w3.org/2000/svg">
<path d="M17.9612 11.2149L17.9613 11.2149L21.4215 7.75467L21.5629 7.61325L21.4215 7.47183L17.9613 4.01164L17.9612 4.01162C17.6732 3.72364 17.6732 3.25668 17.9612 2.96869L17.9613 2.96867C18.2493 2.68063 18.7162 2.68063 19.0042 2.96867L19.0042 2.96868L22.4644 6.42887L22.6058 6.57029L22.7473 6.42887L26.2074 2.9687C26.2074 2.96869 26.2074 2.96868 26.2075 2.96868C26.4956 2.68066 26.9626 2.68073 27.2504 2.96865L27.2504 2.96869C27.5385 3.25668 27.5385 3.72364 27.2504 4.01162L27.2504 4.01164L23.7902 7.47183L23.6488 7.61325L23.7902 7.75467L27.2504 11.2149C27.5385 11.5029 27.5384 11.9698 27.2504 12.2578L27.2504 12.2578C27.1064 12.4019 26.918 12.4739 26.729 12.4739C26.54 12.4739 26.3516 12.4019 26.2075 12.2578L26.2075 12.2578L22.7473 8.79763L22.6059 8.65621L22.4645 8.79763L19.0043 12.2578C18.8602 12.4019 18.6718 12.4739 18.4828 12.4739C18.2937 12.4739 18.1054 12.4019 17.9614 12.2578L17.9613 12.2578C17.6732 11.9698 17.6732 11.5029 17.9612 11.2149ZM29.584 25.6179L29.584 25.618L27.1606 28.0413C25.4992 29.7028 23.25 30.6028 20.7713 30.6028C20.5789 30.6028 20.3851 30.5973 20.19 30.5864L20.1788 30.7861L20.19 30.5864C17.6103 30.442 15.0818 29.3112 13.2561 27.4855L3.31686 17.5462L3.17544 17.6876L3.31686 17.5462C1.49114 15.7207 0.360429 13.1923 0.215988 10.6126L0.0163447 10.6237L0.215988 10.6126C0.0643635 7.90504 0.970931 5.43209 2.7611 3.64192L2.7611 3.64192L5.18448 1.21848C5.47247 0.930493 5.93945 0.930493 6.22744 1.21848L12.9361 7.92717C13.0745 8.06552 13.1522 8.25307 13.1522 8.44868C13.1522 8.64429 13.0745 8.83185 12.9361 8.97019L9.08605 12.8203L9.08603 12.8203C9.06441 12.8419 9.01335 12.9005 9.01335 12.9987C9.01335 13.0972 9.06482 13.1559 9.08605 13.1771L17.6254 21.7165L17.6266 21.7176C17.6469 21.7376 17.7052 21.7892 17.8038 21.7892C17.848 21.7892 17.888 21.7785 17.9221 21.7607C17.9385 21.7522 17.9518 21.7428 17.9624 21.7343C17.9676 21.7301 17.9719 21.7263 17.9753 21.7231C17.9785 21.7202 17.9812 21.7175 17.981 21.7176L17.9822 21.7165L21.8323 17.8664C22.1203 17.5784 22.5873 17.5784 22.8753 17.8664L29.584 24.5751L29.584 24.5751C29.7223 24.7134 29.8 24.9009 29.8 25.0965C29.8 25.2921 29.7223 25.4797 29.584 25.6179ZM4.46699 4.02195L4.32557 4.16337L4.46699 4.30479L9.84982 9.68768L9.99124 9.8291L10.1327 9.68768L11.2302 8.5901L11.3717 8.44868L11.2302 8.30726L5.84741 2.92437L5.70599 2.78295L5.56457 2.92437L4.46699 4.02195ZM25.3875 27.6332L25.5709 27.4947L25.4083 27.3322L20.0719 21.9956L19.9304 21.8542L19.789 21.9956L19.0253 22.7594L19.0252 22.7594C18.6997 23.085 18.2667 23.2642 17.8038 23.2642C17.341 23.2642 16.9079 23.085 16.5824 22.7594L16.5824 22.7593L8.04309 14.2201C7.36974 13.5467 7.36973 12.4506 8.04309 11.7772C8.04309 11.7772 8.0431 11.7772 8.0431 11.7772L8.8068 11.0135L8.94823 10.8721L8.80681 10.7306L3.47032 5.3941L3.3078 5.23157L3.16929 5.41499C0.798526 8.55453 1.26752 13.411 4.35982 16.5034L14.2991 26.4426C17.3916 29.5351 22.248 30.004 25.3875 27.6332ZM27.8781 25.2379L28.0195 25.0965L27.8781 24.9551L22.4952 19.5723L22.3538 19.4308L22.2124 19.5723L21.1148 20.6698L20.9734 20.8113L21.1148 20.9527L26.4977 26.3356L26.6391 26.477L26.7805 26.3356L27.8781 25.2379Z" stroke="white" stroke-width="0.4"/>
</svg>
