<svg width="31" height="34" viewBox="0 0 31 34" fill="none" xmlns="http://www.w3.org/2000/svg">
<path d="M22.701 14.2856C26.7329 14.2856 30.0131 11.1067 30.0131 7.19922C30.0131 3.29179 26.7329 0.112842 22.701 0.112842C19.7758 0.112842 17.2466 1.78645 16.0784 4.1973V2.98186C16.0784 1.38337 14.7365 0.0828857 13.0871 0.0828857C11.4377 0.0828857 10.0958 1.38337 10.0958 2.98186V4.51349C6.36979 5.72745 3.6784 9.14431 3.6784 13.1591V19.4227C3.6784 20.4588 3.28474 21.4538 2.56995 22.2244C1.52552 23.3503 0.950317 24.8041 0.950317 26.3181V27.7005C0.950317 28.537 1.65255 29.2176 2.51578 29.2176H9.035C9.07009 31.3546 10.8736 33.0829 13.0869 33.0829C15.3002 33.0829 17.1041 31.3546 17.1392 29.2176H23.6585C24.5217 29.2176 25.224 28.537 25.224 27.7005V26.3181C25.224 24.8041 24.6488 23.3503 23.6044 22.2244C22.8896 21.4538 22.4959 20.4589 22.4959 19.4227V14.2827C22.564 14.2845 22.6323 14.2856 22.701 14.2856ZM22.701 2.04549C25.6333 2.04549 28.0189 4.35746 28.0189 7.19922C28.0189 10.041 25.6333 12.353 22.701 12.353C19.7687 12.353 17.3831 10.041 17.3831 7.19922C17.3831 4.35746 19.7687 2.04549 22.701 2.04549ZM12.09 2.98186C12.09 2.44903 12.5373 2.01554 13.0871 2.01554C13.6369 2.01554 14.0842 2.44903 14.0842 2.98186V4.0912C13.755 4.05777 13.4225 4.04089 13.0871 4.04089C12.7503 4.04089 12.4177 4.05848 12.09 4.0921V2.98186ZM13.0872 31.1502C11.9735 31.1502 11.063 30.289 11.0285 29.2176H15.1455C15.1111 30.289 14.201 31.1502 13.0872 31.1502ZM23.2297 27.2849H2.94447V26.3182C2.94447 25.9901 2.98422 25.6663 3.06079 25.3523H23.1133C23.1899 25.6662 23.2296 25.9901 23.2296 26.3182L23.2297 27.2849ZM22.0355 23.4196H4.13867C5.12793 22.3077 5.67255 20.8941 5.67255 19.4227V13.1591C5.67255 9.19701 8.9987 5.97354 13.087 5.97354C13.898 5.97354 14.6872 6.09787 15.4423 6.34345C15.4072 6.62407 15.3888 6.90958 15.3888 7.19922C15.3888 10.3643 17.541 13.051 20.5016 13.9579V19.4227C20.5017 20.894 21.0463 22.3077 22.0355 23.4196Z" fill="#81DE76"/>
<path d="M21.8492 6.64038V9.43956C21.8492 9.97323 22.2956 10.4059 22.8463 10.4059C23.397 10.4059 23.8434 9.97323 23.8434 9.43956V4.94448C23.8434 4.5928 23.6463 4.26895 23.3288 4.09881C23.0112 3.92874 22.6235 3.93911 22.3161 4.12613L21.0655 4.88714C20.5991 5.17092 20.4584 5.7674 20.7513 6.21938C20.9888 6.58607 21.4387 6.74506 21.8492 6.64038Z" fill="#81DE76"/>
</svg>
