<svg width="27" height="27" viewBox="0 0 27 27" fill="none" xmlns="http://www.w3.org/2000/svg">
<path d="M23.7574 26.5398H23.5874C3.93744 25.4098 1.14744 8.82981 0.757436 3.76981C0.696482 2.97656 0.953119 2.19158 1.4709 1.58753C1.98868 0.983491 2.72519 0.609855 3.51844 0.548811C3.59777 0.542811 3.67744 0.539811 3.75744 0.539811H9.02744C9.42799 0.539423 9.81944 0.659321 10.1511 0.883973C10.4827 1.10862 10.7392 1.42768 10.8874 1.79981L12.4074 5.53981C12.5538 5.90336 12.5901 6.30189 12.5119 6.6859C12.4337 7.06991 12.2443 7.42248 11.9674 7.69981L9.83744 9.84981C10.1688 11.7411 11.0738 13.4848 12.4298 14.8443C13.7857 16.2039 15.527 17.1135 17.4174 17.4498L19.5874 15.2998C19.8689 15.026 20.2248 14.8411 20.6107 14.7681C20.9966 14.6952 21.3954 14.7376 21.7574 14.8898L25.5274 16.3998C25.894 16.5527 26.2067 16.8112 26.4257 17.1425C26.6448 17.4737 26.7602 17.8627 26.7574 18.2598V23.5398C26.7574 24.3355 26.4414 25.0985 25.8788 25.6611C25.3161 26.2237 24.5531 26.5398 23.7574 26.5398ZM3.75744 2.53981C3.62611 2.53942 3.496 2.56489 3.37452 2.61478C3.25305 2.66467 3.14259 2.738 3.04945 2.83058C2.95631 2.92316 2.88232 3.03318 2.8317 3.15436C2.78109 3.27553 2.75483 3.40549 2.75444 3.53681C2.75444 3.56481 2.75544 3.59248 2.75744 3.61981C3.21744 9.53981 6.16744 23.5398 23.6974 24.5398C23.9621 24.5557 24.2222 24.4658 24.4206 24.2899C24.619 24.114 24.7395 23.8665 24.7554 23.6018L24.7574 23.5398V18.2598L20.9874 16.7498L18.1174 19.5998L17.6374 19.5398C8.93744 18.4498 7.75744 9.74981 7.75744 9.65981L7.69744 9.17981L10.5374 6.30981L9.03744 2.53981H3.75744Z" fill="#FD274E"/>
<path d="M22.1674 6.53981L25.7574 2.94981L24.3474 1.53981L20.7574 5.12981L17.1674 1.53981L15.7574 2.94981L19.3474 6.53981L15.7574 10.1298L17.1674 11.5398L20.7574 7.94981L24.3474 11.5398L25.7574 10.1298L22.1674 6.53981Z" fill="#FD274E"/>
</svg>
