<svg width="29" height="35" viewBox="0 0 29 35" fill="none" xmlns="http://www.w3.org/2000/svg">
<path d="M26.4111 26.3429V15.4351C26.4111 9.89582 22.6508 5.21935 17.5489 3.82172V3.04626C17.5489 1.36665 16.1823 0 14.5024 0H14.465C12.7854 0 11.4188 1.36665 11.4188 3.04626V3.7619C6.20261 5.08209 2.33123 9.81491 2.33123 15.4353V26.469C0.989944 27.2762 0.144531 28.735 0.144531 30.2976C0.144531 30.4789 0.216629 30.6528 0.344803 30.7809C0.472977 30.9091 0.646812 30.9812 0.828125 30.9812H10.8639V31.3799C10.8639 33.3759 12.4877 35 14.4837 35C16.48 35 18.1038 33.3759 18.1038 31.3799V30.9815H28.1396C28.5169 30.9815 28.8232 30.6752 28.8232 30.2979C28.8232 28.6469 27.8709 27.112 26.4111 26.3429ZM12.7859 3.39527V3.04626C12.7859 2.12048 13.5392 1.36719 14.465 1.36719H14.5024C15.4282 1.36719 16.1815 2.12048 16.1815 3.04626V3.39527H12.7859ZM16.7366 31.3799C16.7366 32.6221 15.7259 33.6328 14.4837 33.6328C13.2415 33.6328 12.2311 32.6221 12.2311 31.3799V30.9815H16.7366V31.3799ZM1.59076 29.6143C1.79317 28.7473 2.37262 27.9878 3.18519 27.5574H15.9534C16.331 27.5574 16.637 27.2514 16.637 26.8738C16.637 26.4962 16.331 26.1902 15.9534 26.1902H3.69842V15.4356C3.69842 9.55055 8.48624 4.76273 14.371 4.76246C20.2561 4.76246 25.0439 9.55029 25.0439 15.4351V26.7795C25.0439 27.0596 25.2148 27.3114 25.4752 27.4148C26.4402 27.7985 27.1473 28.6383 27.3764 29.614L1.59076 29.6143Z" fill="black" fill-opacity="0.76"/>
<path d="M18.5853 26.1899C18.4056 26.1899 18.2293 26.2631 18.1019 26.3902C17.9748 26.5181 17.9017 26.6943 17.9017 26.874C17.9017 27.054 17.9748 27.2295 18.1019 27.3574C18.2293 27.4845 18.4056 27.5571 18.5853 27.5571C18.7652 27.5571 18.9415 27.4845 19.0686 27.3574C19.1957 27.2303 19.2689 27.054 19.2689 26.874C19.2689 26.6935 19.1957 26.5181 19.0686 26.3902C18.9415 26.2631 18.7652 26.1899 18.5853 26.1899Z" fill="black" fill-opacity="0.76"/>
</svg>
