<svg width="34" height="35" viewBox="0 0 34 35" fill="none" xmlns="http://www.w3.org/2000/svg">
<path d="M8.56874 0.128723C8.20197 0.128723 7.9046 0.426157 7.9046 0.792852C7.9046 1.15961 8.20197 1.45698 8.56874 1.45698C12.3203 1.45698 15.3724 4.58824 15.3724 8.43727C15.3724 8.80404 15.6699 9.1014 16.0366 9.1014C16.4033 9.1014 16.7007 8.80397 16.7007 8.43727C16.7008 3.85591 13.0527 0.128723 8.56874 0.128723Z" fill="#81DE76"/>
<path d="M8.56653 3.27951C8.19976 3.27951 7.90239 3.57694 7.90239 3.94364C7.90239 4.3104 8.19976 4.60777 8.56653 4.60777C10.6209 4.60777 12.2921 6.32563 12.2921 8.43715C12.2921 8.80391 12.5896 9.10128 12.9563 9.10128C13.3231 9.10128 13.6204 8.80385 13.6204 8.43715C13.6205 5.59324 11.3533 3.27951 8.56653 3.27951Z" fill="#81DE76"/>
<path d="M8.57943 6.18199C8.21259 6.18199 7.91529 6.4793 7.91529 6.84612C7.91529 7.21289 8.21273 7.51025 8.57943 7.51025C9.05936 7.51025 9.4497 7.91692 9.4497 8.41683C9.4497 8.78359 9.74708 9.08096 10.1138 9.08096C10.4806 9.08096 10.778 8.78353 10.778 8.41683C10.7781 7.18453 9.7917 6.18199 8.57943 6.18199Z" fill="#81DE76"/>
<path d="M30.4468 5.39242H28.9746C28.6078 5.39242 28.3105 5.68979 28.3105 6.05655C28.3105 6.42331 28.6078 6.72068 28.9746 6.72068H30.4468C31.6736 6.72068 32.6717 7.71876 32.6717 8.94555V17.9608C32.6717 18.6672 32.3404 19.2972 31.8255 19.705V17.9682C31.8255 16.6133 30.8587 15.4495 29.5267 15.2011L29.0974 15.1211C29.1931 14.8276 29.2455 14.5148 29.2455 14.1897V12.6636C29.2455 11.0041 27.8955 9.65411 26.236 9.65411C24.5765 9.65411 23.2265 11.0041 23.2265 12.6636V14.1897C23.2265 14.5148 23.279 14.8276 23.3747 15.1211L22.9454 15.2011C21.6133 15.4494 20.6465 16.6132 20.6465 17.9682V19.8936C19.9753 19.5101 19.5215 18.7876 19.5215 17.9608V8.94555C19.5215 7.71876 20.5196 6.72068 21.7465 6.72068H23.3293C23.6961 6.72068 23.9935 6.42331 23.9935 6.05655C23.9935 5.68979 23.6961 5.39242 23.3293 5.39242H21.7465C19.7872 5.39242 18.1932 6.98637 18.1932 8.94555V17.9608C18.1932 19.92 19.7872 21.5139 21.7465 21.5139H25.0885V23.4234C25.0885 23.6917 25.2499 23.9336 25.4975 24.0366C25.58 24.0709 25.6666 24.0876 25.7525 24.0876C25.9246 24.0876 26.0939 24.0206 26.2208 23.8946L28.6165 21.5139H30.4468C32.406 21.5139 34 19.92 34 17.9608V8.94555C34 6.98637 32.406 5.39242 30.4468 5.39242ZM24.5548 12.6636C24.5548 11.7365 25.3089 10.9824 26.2359 10.9824C27.163 10.9824 27.9172 11.7365 27.9172 12.6636V14.1897C27.9172 15.1168 27.163 15.8709 26.2359 15.8709C25.3089 15.8709 24.5548 15.1168 24.5548 14.1897V12.6636ZM30.4971 20.1843C30.4803 20.1847 30.4636 20.1855 30.4467 20.1855H28.3427C28.1672 20.1855 27.9989 20.2551 27.8745 20.3787L26.4168 21.8272V20.8497C26.4168 20.483 26.1193 20.1856 25.7526 20.1856H21.9749V17.9682C21.9749 17.2526 22.4855 16.638 23.1889 16.5068L24.1252 16.3322C24.6688 16.8679 25.4143 17.1991 26.236 17.1991C27.0577 17.1991 27.8033 16.8678 28.3469 16.3321L29.2833 16.5067C29.9867 16.6379 30.4973 17.2525 30.4973 17.9682V20.1843H30.4971Z" fill="#81DE76"/>
<path d="M26.3005 5.58725C26.177 5.46307 26.0056 5.39268 25.831 5.39268C25.6563 5.39268 25.4849 5.46307 25.3614 5.58725C25.2379 5.71016 25.1668 5.88156 25.1668 6.0568C25.1668 6.23145 25.2378 6.40285 25.3614 6.52636C25.4849 6.64981 25.6562 6.72093 25.831 6.72093C26.0056 6.72093 26.177 6.64988 26.3005 6.52636C26.424 6.40218 26.4951 6.23152 26.4951 6.0568C26.4951 5.88149 26.424 5.71076 26.3005 5.58725Z" fill="#81DE76"/>
<path d="M12.3433 22.4703C12.2198 22.3467 12.0491 22.2757 11.8738 22.2757C11.6991 22.2757 11.5277 22.3467 11.4043 22.4703C11.2807 22.5938 11.2096 22.7651 11.2096 22.9398C11.2096 23.1151 11.2807 23.2859 11.4043 23.4094C11.5284 23.5336 11.6991 23.6045 11.8738 23.6045C12.0484 23.6045 12.2198 23.5336 12.3433 23.4094C12.4675 23.2859 12.5379 23.1151 12.5379 22.9398C12.5379 22.7652 12.4675 22.5938 12.3433 22.4703Z" fill="#81DE76"/>
<path d="M26.8804 28.4756L21.7922 23.3874C21.1149 22.7101 20.0493 22.611 19.2588 23.1516L16.0113 25.3721C15.7477 25.5523 15.3927 25.5193 15.1669 25.2934L14.093 24.2195C13.8337 23.9603 13.4133 23.9603 13.1537 24.2195C12.8943 24.4788 12.8943 24.8993 13.1537 25.1588L14.2275 26.2328C14.9049 26.91 15.9703 27.0093 16.761 26.4686L20.0085 24.2481C20.2719 24.068 20.627 24.1009 20.8529 24.3268L25.9411 29.4149C26.2 29.6737 26.2 30.0951 25.9411 30.3542C22.6783 33.6169 17.3693 33.6169 14.1066 30.3542L3.77476 20.0224C2.19413 18.4419 1.32379 16.3405 1.32379 14.1053C1.32379 11.8701 2.19419 9.76865 3.77483 8.18805C3.90027 8.06261 4.06702 7.99361 4.2444 7.99361C4.42184 7.99361 4.58866 8.06267 4.71403 8.18812L9.80219 13.2762C10.0279 13.5019 10.061 13.8572 9.88088 14.1207L7.66048 17.3681C7.11972 18.1586 7.21893 19.224 7.89622 19.9014L9.51046 21.5157C9.76985 21.7749 10.1903 21.7749 10.4498 21.5157C10.7091 21.2563 10.7091 20.8358 10.4498 20.5763L8.83556 18.9621C8.60984 18.7364 8.57677 18.3813 8.75693 18.1178L10.9774 14.8704C11.518 14.0797 11.4188 13.0143 10.7415 12.337L5.65337 7.24886C4.87653 6.47204 3.61246 6.47204 2.83549 7.24886C-0.945164 11.0295 -0.945164 17.1811 2.83549 20.9617L13.1673 31.2932C15.0577 33.1836 17.5407 34.1287 20.0238 34.1287C22.5069 34.1287 24.99 33.1835 26.8803 31.2932C27.6572 30.5164 27.6572 29.2524 26.8804 28.4756Z" fill="#81DE76"/>
<path d="M8.94655 16.4593L4.92051 12.4333C4.66106 12.1741 4.24063 12.1741 3.98118 12.4333C3.72186 12.6927 3.72186 13.1133 3.98118 13.3727L8.00728 17.3986C8.13697 17.5282 8.30684 17.5931 8.47691 17.5931C8.64685 17.5931 8.81685 17.5282 8.94655 17.3986C9.20587 17.1392 9.20587 16.7187 8.94655 16.4593Z" fill="#81DE76"/>
<path d="M24.3554 31.8677L20.1193 27.6317C19.8598 27.3725 19.4394 27.3725 19.1799 27.6317C18.9206 27.8911 18.9206 28.3117 19.1799 28.5711L23.416 32.807C23.5457 32.9367 23.7156 33.0015 23.8857 33.0015C24.0556 33.0015 24.2256 32.9367 24.3554 32.807C24.6147 32.5476 24.6147 32.1271 24.3554 31.8677Z" fill="#81DE76"/>
</svg>
