<svg width="33" height="34" viewBox="0 0 33 34" fill="none" xmlns="http://www.w3.org/2000/svg">
<path d="M18.8518 16.5509C21.0606 16.5509 22.8577 14.698 22.8577 12.4206C22.8577 11.6938 22.674 11.0108 22.3531 10.4169H25.4928C25.1718 11.0108 24.9882 11.6938 24.9882 12.4206C24.9882 14.6981 26.7852 16.5509 28.994 16.5509C31.2029 16.5509 33 14.698 33 12.4205C33 10.1431 31.203 8.29023 28.9941 8.29023C28.9933 8.29023 28.9924 8.2903 28.9917 8.2903H18.8543C18.8534 8.2903 18.8526 8.29023 18.8518 8.29023C16.643 8.29023 14.8459 10.1431 14.8459 12.4205C14.8459 14.6979 16.6429 16.5509 18.8518 16.5509ZM28.9916 10.4169H28.9941C28.9939 10.4169 28.9944 10.4169 28.9941 10.4169C30.0653 10.4173 30.9375 11.316 30.9375 12.4205C30.9375 13.5254 30.0657 14.4243 28.9941 14.4243C27.9225 14.4243 27.0507 13.5254 27.0507 12.4205C27.0507 11.3165 27.9212 10.4182 28.9916 10.4169ZM18.8509 10.4168C18.8506 10.4168 18.8512 10.4168 18.8509 10.4168L18.8543 10.4169C19.9247 10.4182 20.7952 11.3165 20.7952 12.4205C20.7952 13.5254 19.9234 14.4243 18.8518 14.4243C17.7802 14.4243 16.9084 13.5254 16.9084 12.4205C16.9084 11.316 17.7797 10.4173 18.8509 10.4168ZM29.7106 22.9326C28.5465 22.0125 26.7652 20.8259 25.5761 20.5101C24.7127 20.2806 24.2313 20.5694 23.9795 20.8519C23.9795 20.8519 21.9895 23.0854 21.2945 23.8061C21.1845 23.9203 20.8424 23.9194 20.4231 23.804C18.9024 23.3855 16.538 21.6617 14.2524 19.3051C11.9668 16.9486 10.2949 14.5107 9.88905 12.9428C9.77709 12.5104 9.77626 12.1576 9.88699 12.0442C10.5866 11.327 12.7523 9.27589 12.7523 9.27589C13.0262 9.01625 13.3061 8.5199 13.0837 7.62974C12.7774 6.40371 11.6266 4.5671 10.7341 3.36679C9.75002 2.04348 8.2997 0.396265 6.97783 0.0641908C6.26691 -0.114373 5.59841 0.083662 5.1435 0.607658L1.49565 4.80906C-0.41062 7.00453 -0.496278 10.3305 1.24789 14.4273C2.6937 17.8233 5.33408 21.595 8.68268 25.0476C12.0313 28.5003 15.6894 31.2227 18.9831 32.7134C20.8791 33.5715 22.6049 34 24.1225 34C25.7853 34 27.1984 33.4855 28.3117 32.4579L32.3865 28.6968C32.8947 28.2277 33.0869 27.5383 32.9137 26.8055C32.5916 25.4425 30.994 23.9471 29.7106 22.9326ZM26.9361 30.8735C25.0634 32.6021 22.0283 31.7692 19.8122 30.7662C16.7474 29.3791 13.3129 26.8142 10.1411 23.5439C6.96939 20.2737 4.48176 16.7324 3.13643 13.5725C2.16364 11.2875 1.35591 8.15825 3.03234 6.22741L6.56965 2.15333C6.94387 2.29887 7.88907 3.01651 9.1606 4.74633C10.2486 6.22641 10.8575 7.4533 11.0434 8.00667C10.2146 8.79177 9.13005 9.82135 8.4328 10.5361C7.96358 11.017 7.48959 11.9201 7.89622 13.4912C8.39761 15.4282 10.2286 18.1638 12.7939 20.8089C15.3592 23.4539 18.0124 25.3417 19.8911 25.8586C21.4149 26.2778 22.2907 25.7892 22.7572 25.3054C23.4504 24.5865 24.4493 23.4678 25.2104 22.6137C25.7471 22.8054 26.937 23.4332 28.3725 24.5549C30.0502 25.866 30.7463 26.8406 30.8874 27.2263L26.9361 30.8735Z" fill="#FCB711"/>
</svg>
