<svg width="11" height="11" viewBox="0 0 11 11" fill="none" xmlns="http://www.w3.org/2000/svg">
<path d="M5.75 6.8329C6.64602 6.8329 7.375 6.10393 7.375 5.2079C7.375 4.31188 6.64602 3.5829 5.75 3.5829C4.85397 3.5829 4.125 4.31188 4.125 5.2079C4.125 6.10393 4.85397 6.8329 5.75 6.8329ZM5.75 3.9079C6.46679 3.9079 7.05 4.49112 7.05 5.2079C7.05 5.92469 6.46679 6.5079 5.75 6.5079C5.03321 6.5079 4.45 5.92469 4.45 5.2079C4.45 4.49112 5.03321 3.9079 5.75 3.9079Z" fill="white"/>
<path d="M4.2563 2.79493C4.22575 2.76438 4.18464 2.74732 4.14141 2.74732C4.09819 2.74732 4.05691 2.76438 4.02653 2.79493L3.33704 3.48442C3.30649 3.51497 3.28943 3.55625 3.28943 3.59931C3.28943 3.64237 3.30649 3.68381 3.33704 3.7142L3.63051 4.00751C3.53155 4.18171 3.45485 4.36598 3.40171 4.5579H2.9875C2.89764 4.5579 2.825 4.6307 2.825 4.7204V5.6954C2.825 5.7851 2.89764 5.8579 2.9875 5.8579H3.40155C3.45469 6.05013 3.53123 6.23457 3.63003 6.40861L3.33688 6.70176C3.30633 6.73231 3.28926 6.77358 3.28926 6.81665C3.28926 6.85971 3.30633 6.90115 3.33688 6.93153L4.02636 7.62102C4.0899 7.68456 4.1926 7.68456 4.25614 7.62102L4.54929 7.32803C4.72333 7.427 4.90776 7.50353 5.1 7.55651V7.9704C5.1 8.0601 5.17264 8.1329 5.2625 8.1329H6.2375C6.32736 8.1329 6.4 8.0601 6.4 7.9704V7.55635C6.59191 7.50321 6.77619 7.42667 6.95055 7.32755L7.24386 7.62086C7.27441 7.65141 7.31553 7.66847 7.35875 7.66847C7.40198 7.66847 7.44325 7.65141 7.47364 7.62086L8.16313 6.93137C8.19368 6.90082 8.21074 6.85955 8.21074 6.81648C8.21074 6.77342 8.19368 6.73198 8.16313 6.7016L7.86965 6.40828C7.96861 6.23408 8.04531 6.04981 8.09845 5.8579H8.5125C8.60236 5.8579 8.675 5.7851 8.675 5.6954V4.7204C8.675 4.6307 8.60236 4.5579 8.5125 4.5579H8.09845C8.04531 4.36566 7.96878 4.18122 7.86998 4.00718L8.16313 3.71403C8.19368 3.68348 8.21074 3.64221 8.21074 3.59915C8.21074 3.55608 8.19368 3.51465 8.16313 3.48426L7.47364 2.79477C7.4101 2.73123 7.3074 2.73123 7.24386 2.79477L6.95071 3.08776C6.77668 2.9888 6.59224 2.91226 6.4 2.85928V2.4454C6.4 2.3557 6.32736 2.2829 6.2375 2.2829H5.2625C5.17264 2.2829 5.1 2.3557 5.1 2.4454V2.85945C4.90809 2.91258 4.72381 2.98912 4.54945 3.08825L4.2563 2.79493ZM5.29728 3.14528C5.37186 3.12903 5.425 3.0629 5.425 2.98652V2.6079H6.075V2.98652C6.075 3.0629 6.12814 3.12887 6.20273 3.14528C6.44615 3.19858 6.67658 3.29413 6.88783 3.42966C6.95201 3.47077 7.03619 3.46183 7.09046 3.40772L7.35859 3.1396L7.8183 3.59931L7.55018 3.86743C7.49623 3.92138 7.48696 4.00572 7.52824 4.07007C7.6636 4.28116 7.75931 4.51175 7.81261 4.75533C7.82903 4.82976 7.895 4.8829 7.97138 4.8829H8.35V5.5329H7.97138C7.895 5.5329 7.82903 5.58603 7.81261 5.66062C7.75931 5.90356 7.6636 6.13398 7.52791 6.3454C7.48664 6.40975 7.4959 6.49408 7.54985 6.54803L7.8183 6.81648L7.35859 7.2762L7.0903 7.00775C7.03619 6.95363 6.95185 6.9447 6.88766 6.98581C6.67609 7.1215 6.44566 7.21737 6.20273 7.27035C6.12814 7.28676 6.075 7.3529 6.075 7.42927V7.8079H5.425V7.42927C5.425 7.3529 5.37186 7.28692 5.29728 7.27051C5.05385 7.21721 4.82343 7.12166 4.61218 6.98613C4.54783 6.94486 4.46365 6.9538 4.40954 7.00807L4.14141 7.2762L3.6817 6.81648L3.94983 6.54836C4.00378 6.49441 4.01304 6.41007 3.97176 6.34572C3.8364 6.13463 3.74069 5.90405 3.68739 5.66046C3.67098 5.58603 3.605 5.5329 3.52863 5.5329H3.15V4.8829H3.52863C3.605 4.8829 3.67098 4.82976 3.68739 4.75517C3.74069 4.51223 3.8364 4.28181 3.97209 4.0704C4.01336 4.00605 4.0041 3.92171 3.95015 3.86776L3.6817 3.59931L4.14141 3.1396L4.4097 3.40805C4.46398 3.46232 4.54831 3.4711 4.61234 3.42998C4.82391 3.29413 5.05434 3.19842 5.29728 3.14528Z" fill="white"/>
<path d="M5.75 1.30789C6.01878 1.30789 6.2375 1.08916 6.2375 0.820386C6.2375 0.551611 6.01878 0.332886 5.75 0.332886C5.48123 0.332886 5.2625 0.551611 5.2625 0.820386C5.2625 1.08916 5.48123 1.30789 5.75 1.30789ZM5.75 0.657886C5.8397 0.657886 5.9125 0.730848 5.9125 0.820386C5.9125 0.909923 5.8397 0.982886 5.75 0.982886C5.6603 0.982886 5.5875 0.909923 5.5875 0.820386C5.5875 0.730848 5.6603 0.657886 5.75 0.657886Z" fill="white"/>
<path d="M5.75 9.10791C5.48123 9.10791 5.2625 9.32663 5.2625 9.59541C5.2625 9.86418 5.48123 10.0829 5.75 10.0829C6.01878 10.0829 6.2375 9.86418 6.2375 9.59541C6.2375 9.32663 6.01878 9.10791 5.75 9.10791ZM5.75 9.75791C5.6603 9.75791 5.5875 9.68494 5.5875 9.59541C5.5875 9.50587 5.6603 9.43291 5.75 9.43291C5.8397 9.43291 5.9125 9.50587 5.9125 9.59541C5.9125 9.68494 5.8397 9.75791 5.75 9.75791Z" fill="white"/>
<path d="M10.1375 4.7204C9.86872 4.7204 9.65 4.93912 9.65 5.2079C9.65 5.47667 9.86872 5.6954 10.1375 5.6954C10.4063 5.6954 10.625 5.47667 10.625 5.2079C10.625 4.93912 10.4063 4.7204 10.1375 4.7204ZM10.1375 5.3704C10.0478 5.3704 9.975 5.29743 9.975 5.2079C9.975 5.11836 10.0478 5.0454 10.1375 5.0454C10.2272 5.0454 10.3 5.11836 10.3 5.2079C10.3 5.29743 10.2272 5.3704 10.1375 5.3704Z" fill="white"/>
<path d="M1.3625 5.6954C1.63128 5.6954 1.85 5.47667 1.85 5.2079C1.85 4.93912 1.63128 4.7204 1.3625 4.7204C1.09373 4.7204 0.875 4.93912 0.875 5.2079C0.875 5.47667 1.09373 5.6954 1.3625 5.6954ZM1.3625 5.0454C1.4522 5.0454 1.525 5.11836 1.525 5.2079C1.525 5.29743 1.4522 5.3704 1.3625 5.3704C1.2728 5.3704 1.2 5.29743 1.2 5.2079C1.2 5.11836 1.2728 5.0454 1.3625 5.0454Z" fill="white"/>
<path d="M3.69827 1.51657L3.80829 1.84677C3.826 1.90023 3.8702 1.94053 3.92512 1.95353C3.93764 1.95646 3.95015 1.95792 3.9625 1.95792C4.00507 1.95792 4.04667 1.94118 4.07739 1.91031L4.88989 1.09781C4.93344 1.05426 4.94855 0.989909 4.92905 0.931572C4.90971 0.873234 4.85885 0.830822 4.79791 0.822209L3.66041 0.659709C3.60386 0.651584 3.54861 0.673197 3.5127 0.716422C3.47646 0.759647 3.46541 0.818472 3.48329 0.871934L3.59395 1.20392C2.39129 1.8536 1.52922 3.02441 1.278 4.36552L1.59731 4.42532C1.82725 3.19877 2.60725 2.12513 3.69827 1.51657ZM4.43034 1.09781L4.03367 1.49463L3.87475 1.01851L4.43034 1.09781Z" fill="white"/>
<path d="M10.2223 6.05045L9.90301 5.99049C9.67259 7.21801 8.89243 8.29181 7.80156 8.8994L7.69139 8.56904C7.67368 8.51558 7.62948 8.47528 7.57455 8.46228C7.51979 8.44911 7.46226 8.46569 7.42229 8.5055L6.60979 9.318C6.56624 9.36155 6.55113 9.4259 6.57063 9.48424C6.58996 9.54258 6.64083 9.58499 6.70176 9.5936L7.83926 9.7561C7.84723 9.7574 7.85486 9.75789 7.8625 9.75789C7.91028 9.75789 7.9561 9.73676 7.9873 9.69955C8.02354 9.65633 8.03459 9.5975 8.01671 9.54404L7.90605 9.21205C9.10839 8.56319 9.97061 7.39238 10.2223 6.05045ZM7.06966 9.318L7.46633 8.92118L7.62525 9.3973L7.06966 9.318Z" fill="white"/>
<path d="M9.44151 3.15598L9.11099 3.26616C9.05752 3.28403 9.01722 3.32823 9.00422 3.383C8.99139 3.43776 9.00764 3.49545 9.04761 3.53526L9.86011 4.34776C9.89099 4.3788 9.93259 4.39537 9.975 4.39537C9.99206 4.39537 10.0096 4.39261 10.0264 4.38708C10.0847 4.36758 10.1271 4.31688 10.1359 4.25595L10.2984 3.11845C10.3063 3.06271 10.2849 3.00665 10.2415 2.97073C10.1981 2.93466 10.1393 2.92393 10.086 2.94132L9.75416 3.05198C9.10709 1.84997 7.93628 0.98791 6.59256 0.735385L6.5326 1.05486C7.76175 1.28577 8.83539 2.06593 9.44151 3.15598ZM9.86011 3.88821L9.46345 3.49138L9.93958 3.33262L9.86011 3.88821Z" fill="white"/>
<path d="M2.49578 7.03276C2.50861 6.978 2.49236 6.92031 2.45239 6.8805L1.63989 6.068C1.59634 6.02429 1.53215 6.00917 1.47365 6.02867C1.41531 6.04817 1.3729 6.09887 1.36413 6.15981L1.20163 7.29731C1.19366 7.35305 1.21511 7.40911 1.2585 7.44502C1.28808 7.46989 1.32513 7.48289 1.3625 7.48289C1.37973 7.48289 1.39711 7.48012 1.41385 7.4746L1.74568 7.36394C2.39373 8.56757 3.5647 9.42964 4.9076 9.68037L4.96724 9.3609C3.73874 9.13161 2.6651 8.35145 2.05833 7.25961L2.38885 7.14944C2.44248 7.13172 2.48278 7.08752 2.49578 7.03276ZM1.63989 6.52755L2.03655 6.92437L1.56043 7.08314L1.63989 6.52755Z" fill="white"/>
</svg>
