<svg width="34" height="36" viewBox="0 0 34 36" fill="none" xmlns="http://www.w3.org/2000/svg">
<path d="M32.2227 12.1694C31.5225 10.5141 30.5207 9.02784 29.2448 7.75227C27.969 6.47643 26.4827 5.47429 24.8275 4.77443C24.3212 4.56027 23.762 4.556 23.2526 4.76268C22.7431 4.96909 22.3447 5.36188 22.1305 5.86789C21.6886 6.91301 22.1791 8.1229 23.2243 8.56482C24.389 9.05748 25.4355 9.76322 26.3348 10.6623C27.2339 11.5614 27.9396 12.6078 28.4323 13.7728C28.9418 14.9776 29.2002 16.2586 29.2002 17.5803C29.2002 18.9018 28.9418 20.183 28.4323 21.3878C27.9396 22.5526 27.2339 23.599 26.3348 24.4984C25.4355 25.3974 24.389 26.1032 23.2243 26.5958C22.1794 27.0377 21.6886 28.2476 22.1305 29.2925C22.4536 30.0559 23.1978 30.5491 24.0264 30.5491C24.3025 30.5491 24.5722 30.4944 24.8275 30.3862C25.8739 29.9438 26.8619 29.375 27.7642 28.6957C28.067 28.4679 28.1276 28.0377 27.8996 27.7349C27.6718 27.4324 27.2419 27.3718 26.9391 27.5996C26.1265 28.2113 25.2363 28.7237 24.2929 29.1227C24.2077 29.1587 24.118 29.1771 24.0264 29.1771C23.75 29.1771 23.502 29.0126 23.3941 28.7582C23.247 28.4097 23.4104 28.0065 23.7588 27.8591C25.087 27.2973 26.2801 26.493 27.3049 25.4682C28.3295 24.4433 29.134 23.2503 29.6958 21.9221C30.2774 20.5472 30.5722 19.0866 30.5722 17.5803C30.5722 16.074 30.2774 14.6132 29.6958 13.2383C29.134 11.9098 28.3295 10.7168 27.3049 9.69246C26.2801 8.66762 25.087 7.86308 23.7588 7.30127C23.4104 7.15414 23.247 6.75066 23.3944 6.40247C23.4656 6.23371 23.5984 6.10287 23.7682 6.03397C23.938 5.96508 24.1244 5.96642 24.2931 6.03798C25.785 6.66896 27.1247 7.57203 28.275 8.72236C29.4251 9.87243 30.3284 11.2121 30.9594 12.7039C31.6128 14.2487 31.9442 15.8895 31.9442 17.5803C31.9442 19.2711 31.6128 20.9117 30.9594 22.4567C30.7917 22.8527 30.6024 23.2439 30.3962 23.6185C30.2136 23.9504 30.3345 24.3675 30.6665 24.5499C30.9984 24.7325 31.4155 24.6116 31.5981 24.2797C31.8269 23.8639 32.0371 23.4303 32.2229 22.991C32.9482 21.2762 33.3159 19.4556 33.3159 17.5803C33.3159 15.705 32.9479 13.8845 32.2227 12.1694Z" fill="#81DE76"/>
<path d="M25.8245 20.5347C26.2889 19.4369 26.5241 18.2724 26.5241 17.073C26.5241 15.8735 26.2886 14.709 25.8245 13.6113C25.3764 12.5523 24.7358 11.6017 23.9198 10.7857C23.1038 9.9699 22.1532 9.32904 21.0942 8.88098C20.5882 8.66709 20.0288 8.66282 19.5193 8.86923C19.0101 9.0759 18.6114 9.46843 18.3975 9.9747C18.1834 10.481 18.1791 11.0404 18.3858 11.5496C18.5922 12.0591 18.985 12.4575 19.4912 12.6716C20.0595 12.912 20.5705 13.2567 21.0098 13.6959C21.4491 14.1352 21.7938 14.6463 22.0341 15.2145C22.2827 15.8022 22.4087 16.4273 22.4087 17.073C22.4087 17.7186 22.2827 18.3437 22.0341 18.9312C21.7938 19.4997 21.4491 20.0108 21.0098 20.45C20.5705 20.8893 20.0595 21.234 19.491 21.4743C18.4461 21.9165 17.9556 23.1264 18.3975 24.1713C18.7203 24.9347 19.4645 25.4279 20.2934 25.4279C20.5692 25.4279 20.8386 25.3729 21.0944 25.2647C22.1535 24.8169 23.1041 24.1761 23.9201 23.36C24.7358 22.544 25.3767 21.5934 25.8245 20.5347ZM20.5599 24.0012C20.4744 24.0375 20.3844 24.0559 20.2931 24.0559C20.0167 24.0559 19.7684 23.8914 19.6608 23.6369C19.5134 23.2885 19.6771 22.8853 20.0253 22.7379C20.7572 22.4284 21.4149 21.9849 21.9796 21.4201C22.5446 20.8551 22.9879 20.1977 23.2974 19.4658C23.6178 18.7082 23.7802 17.9032 23.7802 17.073C23.7802 16.2428 23.6178 15.4377 23.2974 14.6802C22.9879 13.9483 22.5444 13.2909 21.9796 12.7258C21.4149 12.1611 20.7572 11.7176 20.0253 11.4081C19.8565 11.3368 19.7257 11.2041 19.6568 11.0343C19.5879 10.8644 19.5895 10.678 19.6608 10.5093C19.7321 10.3405 19.8651 10.2097 20.0346 10.1408C20.1179 10.1069 20.2053 10.0901 20.2926 10.0901C20.3831 10.0901 20.4736 10.1082 20.5596 10.1445C21.4552 10.5234 22.2592 11.0655 22.9497 11.7557C23.64 12.4463 24.182 13.2503 24.5609 14.1459C24.9532 15.0732 25.1521 16.058 25.1521 17.073C25.1521 18.0879 24.9532 19.0727 24.5609 20.0001C24.1823 20.8957 23.64 21.6997 22.9497 22.3899C22.2595 23.0805 21.4552 23.6225 20.5599 24.0012Z" fill="#81DE76"/>
<path d="M19.5725 17.5803C19.5725 16.9638 19.4512 16.3648 19.2122 15.7996C18.9818 15.2548 18.6523 14.7662 18.2331 14.3469C17.8138 13.9277 17.3252 13.5982 16.7802 13.3678C15.7353 12.9258 14.5254 13.4166 14.0835 14.4612C13.6416 15.5064 14.1318 16.7162 15.177 17.1584C15.232 17.1817 15.2798 17.214 15.323 17.2572C15.3658 17.3 15.3989 17.3488 15.4216 17.4028C15.4453 17.4588 15.4568 17.5168 15.4568 17.5803C15.4568 17.6439 15.4453 17.7018 15.4218 17.7574C15.3989 17.8116 15.3655 17.8607 15.3228 17.9034C15.2803 17.9462 15.2314 17.9793 15.1775 18.002C14.6712 18.2161 14.2784 18.6145 14.0718 19.124C13.8651 19.6332 13.8694 20.1926 14.0832 20.6989C14.4061 21.4623 15.1503 21.9555 15.9794 21.9555C16.2552 21.9555 16.5246 21.9008 16.7799 21.7929C17.3249 21.5625 17.8136 21.2332 18.2331 20.8137C18.6526 20.3945 18.9818 19.9056 19.2122 19.3608C19.4512 18.7958 19.5725 18.1966 19.5725 17.5803ZM17.9487 18.8263C17.7874 19.2076 17.5567 19.5499 17.263 19.8436C16.9692 20.1374 16.6269 20.3681 16.2456 20.5293C16.1602 20.5654 16.0704 20.5838 15.9791 20.5838C15.7027 20.5838 15.4544 20.4193 15.3468 20.1646C15.2755 19.9958 15.2742 19.8094 15.3428 19.6396C15.4117 19.4698 15.5428 19.3371 15.7113 19.2658C15.9292 19.1737 16.1246 19.0418 16.2929 18.8735C16.4611 18.7053 16.593 18.5096 16.6851 18.292C16.7802 18.0671 16.8285 17.8276 16.8285 17.5803C16.8285 17.3331 16.7805 17.0938 16.6851 16.8684C16.593 16.6508 16.4611 16.4554 16.2931 16.2871C16.1246 16.1189 15.9292 15.987 15.7113 15.8949C15.3631 15.7475 15.1994 15.3443 15.3468 14.9961C15.4574 14.7347 15.7121 14.5774 15.9796 14.5774C16.0686 14.5774 16.1591 14.5947 16.2459 14.6316C16.6272 14.7926 16.9692 15.0233 17.263 15.3173C17.5567 15.6108 17.7874 15.9531 17.9487 16.3341C18.1158 16.7293 18.2005 17.1486 18.2005 17.5803C18.2005 18.0121 18.1158 18.4313 17.9487 18.8263Z" fill="#81DE76"/>
<path d="M11.3388 23.8084C10.7671 23.0081 9.75131 22.6613 8.81112 22.9464C8.46185 23.0522 8.12407 23.1892 7.79963 23.3542C7.06772 21.5192 6.69069 19.5275 6.70644 17.5467C6.72219 15.5694 7.13021 13.5862 7.89015 11.7646C8.4242 12.0476 8.9959 12.2492 9.59803 12.3656C9.69496 12.3846 9.79243 12.3937 9.88936 12.3937C10.3767 12.3937 10.8477 12.1624 11.143 11.7624L15.8544 5.38378C16.428 4.60701 16.4437 3.55334 15.8939 2.76001C15.7006 2.47269 15.4709 2.19339 15.2119 1.9301C14.8803 1.59312 14.5075 1.29298 14.1043 1.03771C11.781 -0.43252 8.7262 -0.184456 6.67573 1.64092C6.39269 1.89272 6.36759 2.32636 6.61939 2.60941C6.87146 2.89245 7.30511 2.91729 7.58788 2.66548C8.98655 1.42062 10.9855 1.11862 12.676 1.83344C12.6514 1.86388 12.6277 1.89352 12.6036 1.92369C12.5772 1.95627 12.551 1.98885 12.5249 2.02142C12.4822 2.07483 12.44 2.1277 12.3978 2.18057C12.3735 2.21128 12.3489 2.24198 12.3246 2.27243C12.2806 2.3277 12.237 2.38297 12.1935 2.43798C12.1719 2.46522 12.15 2.49272 12.1286 2.52022C12.083 2.57817 12.0378 2.63584 11.9927 2.69325C11.974 2.71729 11.955 2.74132 11.9364 2.76535C11.8875 2.82783 11.8394 2.88952 11.7916 2.95147C11.7772 2.96989 11.7625 2.98858 11.7484 3.00727C11.5609 3.24946 11.3801 3.48631 11.206 3.71782C11.1943 3.73331 11.1828 3.74853 11.1711 3.76402C11.1257 3.82463 11.0805 3.88471 11.036 3.94453C11.0194 3.96669 11.0034 3.98885 10.9868 4.01075C10.9476 4.06362 10.9083 4.11649 10.8696 4.16882C10.8517 4.19286 10.8341 4.21689 10.8165 4.24119C10.7799 4.29059 10.7433 4.34025 10.7075 4.38912C10.6891 4.41449 10.6707 4.43959 10.6525 4.46469C10.6178 4.51222 10.5831 4.55975 10.5489 4.60674C10.5305 4.63211 10.5123 4.65748 10.4942 4.68258C10.4605 4.72904 10.4274 4.77497 10.3943 4.8209C10.3764 4.846 10.3585 4.87083 10.3409 4.89566C10.3083 4.94132 10.2757 4.98672 10.2437 5.03184C10.2263 5.05641 10.209 5.08071 10.1916 5.10501C10.1596 5.15014 10.1281 5.19499 10.0966 5.23959C10.08 5.26309 10.0635 5.28658 10.0469 5.31008C10.0151 5.35521 9.98362 5.40007 9.95237 5.44493C9.93689 5.46709 9.9214 5.48925 9.90591 5.51142C9.87414 5.55708 9.8429 5.60221 9.81165 5.64733C9.7975 5.66789 9.78335 5.68845 9.76946 5.70875C9.73635 5.75628 9.70404 5.80354 9.672 5.85054C9.66025 5.86763 9.64824 5.88498 9.63649 5.90207C9.60097 5.95414 9.56599 6.00594 9.53128 6.05721C9.52354 6.06869 9.51552 6.08018 9.50778 6.09166C9.37881 6.28231 9.25571 6.46709 9.13822 6.64627C9.13261 6.65481 9.12727 6.66336 9.12167 6.6719C9.08882 6.72183 9.05624 6.7715 9.02447 6.82037C9.01512 6.83505 9.00578 6.8492 8.99643 6.86362C8.96866 6.90661 8.94116 6.94907 8.91392 6.99126C8.90324 7.00808 8.89256 7.02491 8.88161 7.04173C8.85651 7.08098 8.83168 7.1197 8.80711 7.15815C8.79563 7.17604 8.78442 7.19393 8.7732 7.21182C8.7497 7.24867 8.72647 7.28525 8.70351 7.32157C8.69203 7.33999 8.68054 7.35815 8.66906 7.37631C8.6469 7.41155 8.625 7.4468 8.60337 7.48151C8.59189 7.49967 8.58041 7.5181 8.56919 7.53625C8.5481 7.57017 8.52727 7.60381 8.50671 7.63719C8.4955 7.65508 8.48455 7.67297 8.47333 7.69086C8.45251 7.72477 8.43221 7.75815 8.41192 7.79126C8.40177 7.80782 8.39162 7.82464 8.38148 7.84093C8.36118 7.87457 8.34116 7.90768 8.32113 7.94053C8.31152 7.95628 8.3019 7.9723 8.29256 7.98806C8.27226 8.02144 8.2525 8.05428 8.23301 8.08686C8.2242 8.10154 8.21539 8.11623 8.20684 8.13065C8.18655 8.16456 8.16679 8.19794 8.14703 8.23132C8.13955 8.24387 8.13208 8.25668 8.1246 8.26897C8.10244 8.30635 8.08108 8.3432 8.05945 8.37978C8.05517 8.38752 8.05037 8.39527 8.04583 8.40301C7.96759 8.53706 7.89416 8.66496 7.82527 8.78672C7.82073 8.79473 7.81646 8.80248 7.81192 8.81049C7.79403 8.84227 7.7764 8.87377 7.75905 8.90475C7.75264 8.91623 7.74623 8.92745 7.73982 8.93893C7.72487 8.96563 7.71018 8.99233 7.69576 9.0185C7.68882 9.03105 7.68188 9.04333 7.6752 9.05588C7.66158 9.08045 7.64823 9.10475 7.63515 9.12851C7.62794 9.1416 7.62099 9.15442 7.61405 9.16723C7.60177 9.18993 7.58949 9.21263 7.57747 9.23452C7.57026 9.24761 7.56332 9.26069 7.55637 9.27351C7.54489 9.29487 7.53368 9.3157 7.52273 9.33652C7.51579 9.34908 7.50911 9.36189 7.50244 9.37418C7.49149 9.395 7.48054 9.4153 7.47013 9.43532C7.46372 9.44734 7.45758 9.45909 7.45117 9.4711C7.44075 9.49086 7.43061 9.51009 7.42073 9.52932C7.41459 9.5408 7.40871 9.55228 7.40284 9.56349C7.39296 9.58219 7.38361 9.60061 7.374 9.61877C7.36839 9.62998 7.36252 9.64147 7.35664 9.65268C7.34756 9.67004 7.33902 9.68713 7.33021 9.70395C7.3246 9.7149 7.31899 9.72558 7.31365 9.73626C7.30537 9.75308 7.29709 9.7691 7.28908 9.78512C7.28374 9.7958 7.2784 9.80622 7.27306 9.81663C7.26532 9.83239 7.25784 9.84734 7.2501 9.86256C7.24529 9.87244 7.24022 9.88232 7.23568 9.89167C7.22607 9.91116 7.21672 9.92985 7.20764 9.94828C7.20551 9.95282 7.2031 9.95762 7.2007 9.96216C7.18948 9.98539 7.17854 10.0078 7.16786 10.0295C7.16572 10.034 7.16385 10.038 7.16171 10.0425C7.1537 10.0591 7.14569 10.0756 7.13795 10.0917C7.13394 10.0997 7.13047 10.1072 7.12673 10.1152C7.12113 10.1266 7.11552 10.1384 7.11018 10.1496C7.10617 10.1587 7.1019 10.167 7.0979 10.1758C7.09362 10.1849 7.08935 10.1939 7.08508 10.2027C7.08107 10.2118 7.0768 10.2206 7.0728 10.2292C7.06932 10.2369 7.06559 10.2449 7.06211 10.2524C7.05811 10.261 7.05437 10.2692 7.05063 10.2775C7.04743 10.2842 7.04449 10.2909 7.04155 10.2973C7.03782 10.3053 7.03434 10.313 7.03087 10.3205C7.02794 10.3266 7.02527 10.3331 7.02259 10.3389C7.01939 10.3461 7.01619 10.3528 7.01325 10.3595C7.01085 10.3651 7.00871 10.3702 7.00631 10.3752C7.00337 10.3817 7.0007 10.3881 6.99776 10.3942C6.99589 10.3987 6.99376 10.4033 6.99189 10.4078C6.98922 10.4137 6.98681 10.4196 6.98441 10.4249C6.98281 10.4281 6.98174 10.4311 6.98041 10.4343C6.97774 10.4401 6.97533 10.446 6.97293 10.4513C6.97186 10.4535 6.97106 10.4554 6.97026 10.4575C6.96786 10.4628 6.96572 10.4679 6.96385 10.4724C6.96332 10.4738 6.96278 10.4751 6.96198 10.4764C6.96011 10.4813 6.95824 10.4858 6.95664 10.4898C5.91445 12.673 5.35343 15.109 5.33421 17.5363C5.31471 19.9721 5.83942 22.4244 6.8517 24.6287C6.85304 24.6314 6.8549 24.6338 6.85597 24.6367C6.86852 24.6626 6.88187 24.6882 6.8979 24.7131C6.89843 24.7141 6.9011 24.7181 6.90457 24.7235C6.90564 24.7251 6.90671 24.7264 6.90804 24.7285C6.91872 24.7451 6.93822 24.7753 6.96545 24.8175C6.96679 24.8193 6.96786 24.8212 6.96919 24.8231C6.97426 24.8308 6.9796 24.8391 6.98521 24.8476C6.98868 24.8527 6.99189 24.8578 6.99536 24.8634C7.00016 24.8709 7.00551 24.8789 7.01085 24.8869C7.01458 24.8925 7.01806 24.8981 7.02206 24.904C7.03007 24.9163 7.03862 24.9296 7.04716 24.943C7.04823 24.9446 7.0493 24.9462 7.05037 24.9478C7.05918 24.9611 7.06852 24.9753 7.07787 24.99C7.08081 24.9945 7.08374 24.9988 7.08668 25.0033C7.09496 25.0159 7.1035 25.0289 7.11232 25.0423C7.11712 25.0495 7.12193 25.0567 7.12673 25.0642C7.13501 25.077 7.14382 25.0904 7.15264 25.104C7.15691 25.1107 7.16145 25.1173 7.16599 25.124C7.17667 25.1403 7.18762 25.1571 7.19883 25.1742C7.20177 25.1787 7.20471 25.1833 7.20791 25.1878C7.21993 25.2063 7.23248 25.2252 7.24529 25.2447C7.2485 25.2495 7.25143 25.2543 7.25464 25.2591C7.26799 25.2792 7.28161 25.2997 7.29549 25.3211C7.29896 25.3261 7.30244 25.3315 7.30591 25.3368C7.31872 25.3561 7.33154 25.3755 7.34463 25.3956C7.35103 25.4049 7.35744 25.4148 7.36385 25.4244C7.37667 25.4442 7.39002 25.4639 7.40337 25.4845C7.40738 25.4901 7.41111 25.496 7.41512 25.5018C7.43061 25.5253 7.44636 25.5494 7.46265 25.5739C7.46639 25.5793 7.47013 25.5849 7.47386 25.5905C7.49069 25.6159 7.50778 25.6418 7.5254 25.6682C7.52807 25.6725 7.53101 25.677 7.53394 25.6813C7.55237 25.7088 7.57079 25.7366 7.59002 25.7651C7.59296 25.7699 7.59616 25.7747 7.59937 25.7793C7.7286 25.9731 7.87413 26.1908 8.03515 26.43C8.03622 26.4314 8.03702 26.4327 8.03808 26.434C8.06265 26.4709 8.08802 26.5083 8.11339 26.5459C8.11659 26.5507 8.11953 26.5553 8.12273 26.5598C8.1465 26.595 8.1708 26.6311 8.19536 26.6671C8.20043 26.6749 8.20551 26.6824 8.21058 26.6898C8.23355 26.7237 8.25678 26.7582 8.28028 26.7929C8.28748 26.8036 8.29469 26.8143 8.3019 26.8249C8.32353 26.8567 8.3457 26.8893 8.36759 26.9216C8.3772 26.936 8.38682 26.9499 8.3967 26.9643C8.41833 26.9961 8.44022 27.0284 8.46239 27.061C8.47226 27.0754 8.48214 27.0901 8.49229 27.1048C8.51472 27.1379 8.53742 27.1713 8.56038 27.2049C8.57053 27.2199 8.58094 27.2348 8.59109 27.2498C8.61379 27.2832 8.63702 27.3171 8.65998 27.3507C8.67093 27.3665 8.68161 27.3822 8.69229 27.398C8.71606 27.4327 8.74009 27.4677 8.76412 27.5029C8.77454 27.5181 8.78495 27.5334 8.79536 27.5486C8.81859 27.5825 8.84209 27.6167 8.86586 27.6511C8.87894 27.6703 8.89229 27.6896 8.90564 27.7091C8.92834 27.7422 8.95104 27.7753 8.974 27.8087C8.98682 27.8271 8.99964 27.8455 9.01245 27.8642C9.03648 27.8994 9.06105 27.9347 9.08562 27.9702C9.09843 27.9886 9.11098 28.0073 9.12407 28.0258C9.14837 28.061 9.17267 28.0965 9.1975 28.1323C9.21085 28.1518 9.22447 28.1713 9.23809 28.1908C9.26292 28.2268 9.28775 28.2629 9.31285 28.2992C9.32727 28.3195 9.34143 28.34 9.35584 28.3609C9.37961 28.3953 9.40391 28.43 9.42821 28.465C9.44423 28.4882 9.46052 28.5117 9.47681 28.535C9.50084 28.5694 9.52487 28.6039 9.5489 28.6388C9.56466 28.661 9.58041 28.6837 9.5959 28.7061C9.62127 28.7424 9.64663 28.7785 9.67227 28.8153C9.68722 28.8367 9.70217 28.8583 9.71739 28.8797C9.74356 28.9176 9.77 28.9553 9.7967 28.9932C9.81085 29.0137 9.82527 29.034 9.83969 29.0546C9.868 29.0952 9.89657 29.1358 9.92541 29.1769C9.93635 29.1924 9.94757 29.2084 9.95852 29.2239C9.99003 29.269 10.0218 29.3139 10.0538 29.3593C10.0645 29.3745 10.0752 29.39 10.0862 29.4052C10.119 29.4519 10.1521 29.4987 10.1852 29.5459C10.1892 29.5513 10.1932 29.5571 10.197 29.5625C10.3607 29.7942 10.5289 30.0314 10.7019 30.2736C10.7089 30.2834 10.7158 30.293 10.723 30.3029C10.7583 30.3526 10.794 30.4025 10.8298 30.4527C10.8413 30.4687 10.8525 30.4845 10.8643 30.5005C10.8958 30.5443 10.9273 30.5886 10.9591 30.633C10.9759 30.6559 10.9922 30.6792 11.009 30.7021C11.0392 30.7443 11.0696 30.7868 11.1003 30.8292C11.1179 30.8538 11.1356 30.8786 11.1534 30.9035C11.1839 30.9457 11.2146 30.9878 11.245 31.0303C11.2637 31.0562 11.2824 31.0818 11.3011 31.1077C11.3305 31.1483 11.3599 31.1892 11.3895 31.23C11.4101 31.2583 11.4303 31.2866 11.4509 31.3149C11.4805 31.3558 11.5105 31.3967 11.5401 31.4378C11.5601 31.4655 11.5804 31.4933 11.6004 31.5211C11.6309 31.5625 11.6611 31.6041 11.6915 31.6458C11.7121 31.6741 11.7326 31.7024 11.7534 31.7307C11.7834 31.7718 11.8135 31.8129 11.8437 31.8543C11.8656 31.8842 11.8872 31.9139 11.9091 31.9438C11.938 31.9833 11.9671 32.0228 11.9962 32.0626C12.0191 32.0938 12.0421 32.1251 12.0651 32.1563C12.0952 32.1975 12.1257 32.2388 12.1561 32.2802C12.1777 32.3096 12.1994 32.339 12.221 32.3684C12.2517 32.41 12.2822 32.4514 12.3129 32.493C12.3358 32.524 12.3588 32.555 12.3818 32.586C12.4119 32.6271 12.4424 32.6682 12.4731 32.7093C12.4958 32.74 12.5185 32.7708 12.5412 32.8015C12.5727 32.8437 12.6042 32.8861 12.6357 32.9286C12.6581 32.9587 12.6806 32.9889 12.703 33.0191C12.7345 33.0613 12.7663 33.1037 12.798 33.1462C12.8058 33.1566 12.8133 33.167 12.821 33.1774C12.025 33.5865 11.1225 33.7684 10.2181 33.6952C9.06559 33.6015 7.98335 33.0952 7.17079 32.2696C7.10831 32.206 7.04556 32.1379 6.99002 32.0778C6.98708 32.0744 6.98388 32.0712 6.98067 32.0677C4.1067 29.0719 2.25276 25.284 1.61965 21.1128C1.01911 17.1568 1.51444 12.9891 3.05169 9.06042C3.30937 8.40194 3.76838 7.57471 4.41591 6.60167C4.62553 6.28632 4.54008 5.86042 4.22472 5.65054C3.90937 5.44066 3.48347 5.52637 3.27359 5.84172C2.57212 6.8962 2.06771 7.81102 1.77425 8.56056C0.149148 12.7133 -0.373149 17.1248 0.263434 21.3187C0.939003 25.7689 2.91765 29.8121 5.98601 33.0127C6.04743 33.0792 6.11685 33.1542 6.19295 33.2316C7.23648 34.292 8.62634 34.9419 10.107 35.0623C10.2752 35.076 10.4432 35.0829 10.6109 35.0829C11.9035 35.0829 13.1695 34.6797 14.2215 33.9248C14.4838 33.7368 14.7326 33.527 14.962 33.3013C15.2202 33.0474 15.4552 32.7724 15.6603 32.4845C15.6971 32.4327 15.7265 32.3761 15.7478 32.3163L15.8763 31.9547C16.1187 31.2722 15.9842 30.3131 15.5631 29.7238L11.3388 23.8084ZM14.7649 3.53918C14.9815 3.85027 14.9759 4.26388 14.7508 4.56883L10.0397 10.9475C9.99777 11.0041 9.92674 11.0324 9.85865 11.019C9.36386 10.9232 8.8955 10.7536 8.46025 10.513C8.65785 10.1162 8.98628 9.49647 9.48161 8.67618C9.5991 8.48178 9.72968 8.27003 9.87334 8.04226C10.7513 6.65668 11.9748 4.90421 13.5895 2.88711C13.5911 2.88524 13.5924 2.88337 13.594 2.88151C13.6816 2.77229 13.7708 2.66201 13.8605 2.5512C13.9914 2.65854 14.1161 2.77256 14.2341 2.89272C14.4352 3.09699 14.6114 3.31115 14.7583 3.52957C14.7607 3.53278 14.7628 3.53598 14.7649 3.53918ZM14.5836 31.4946L14.4886 31.7627C14.3428 31.9587 14.1788 32.147 13.9999 32.323C13.9802 32.3424 13.9599 32.3619 13.9398 32.3812C13.9342 32.3737 13.9284 32.3659 13.9227 32.3585C13.8512 32.2626 13.7802 32.167 13.7094 32.072C13.6955 32.0533 13.6816 32.0346 13.6677 32.0159C13.605 31.9315 13.5428 31.8477 13.4808 31.7638C13.4683 31.7467 13.4557 31.7296 13.4429 31.7125C13.3735 31.6185 13.3046 31.5251 13.2362 31.4319C13.221 31.4113 13.2058 31.3908 13.1908 31.3702C13.1246 31.2802 13.0589 31.1908 12.9938 31.1016C12.9895 31.0957 12.9852 31.0898 12.9807 31.0837C12.9121 30.9897 12.844 30.8965 12.7761 30.8033C12.7609 30.7825 12.7457 30.7617 12.7305 30.7408C12.6637 30.6487 12.5972 30.5571 12.5313 30.4663C12.5267 30.4599 12.5219 30.4533 12.5171 30.4468C12.4538 30.3595 12.3911 30.2725 12.3289 30.1862C12.3158 30.1681 12.3027 30.1499 12.2896 30.1318C12.2245 30.0415 12.1599 29.9518 12.096 29.8626C12.0875 29.8511 12.0795 29.8396 12.0709 29.8279C12.0133 29.7475 11.9559 29.6674 11.8992 29.5878C11.887 29.571 11.8749 29.5542 11.8629 29.5374C11.8015 29.4511 11.7404 29.3657 11.68 29.2808C11.668 29.2639 11.6563 29.2471 11.6442 29.2306C11.59 29.1539 11.5361 29.0781 11.4824 29.0025C11.4733 28.9897 11.4643 28.9769 11.4552 28.9641C11.3959 28.8805 11.3374 28.7977 11.2795 28.7157C11.2672 28.6981 11.2546 28.6805 11.2424 28.6629C11.1852 28.5817 11.1283 28.5011 11.0723 28.4212C11.0707 28.4193 11.0693 28.4172 11.068 28.4151C11.0101 28.3328 10.9532 28.2517 10.8966 28.1707C10.8848 28.1542 10.8733 28.1376 10.8619 28.1213C10.806 28.0415 10.7508 27.9625 10.6963 27.8842C10.6931 27.8797 10.6899 27.8751 10.6867 27.8703C10.6349 27.7961 10.5842 27.7229 10.5337 27.6506C10.5227 27.6346 10.5115 27.6188 10.5006 27.6028C10.449 27.5286 10.398 27.4549 10.3476 27.3822C10.3393 27.3699 10.331 27.3579 10.3225 27.3456C10.2776 27.281 10.2336 27.2169 10.1898 27.1537C10.1804 27.14 10.1711 27.1264 10.1617 27.1131C10.1134 27.0428 10.0656 26.9734 10.0186 26.9048C10.009 26.8909 9.99937 26.877 9.99003 26.8631C9.94757 26.8014 9.90565 26.7406 9.86452 26.6805C9.85812 26.6709 9.85144 26.6613 9.84503 26.6516C9.7991 26.5846 9.75398 26.5189 9.70992 26.4538C9.70111 26.441 9.69229 26.4284 9.68375 26.4156C9.63969 26.351 9.59617 26.2872 9.55371 26.2247C9.55317 26.2239 9.55237 26.2228 9.55184 26.2217C9.50965 26.1598 9.46853 26.0992 9.42767 26.0394C9.41753 26.0241 9.40738 26.0092 9.3975 25.9945C9.35771 25.936 9.31873 25.8783 9.28081 25.822C9.27707 25.8164 9.27333 25.8111 9.2696 25.8055C9.23382 25.7523 9.19884 25.7005 9.16439 25.6492C9.15638 25.6375 9.14837 25.6257 9.14062 25.6143C9.10484 25.5611 9.06986 25.5088 9.03568 25.4581C9.02901 25.4482 9.0226 25.4383 9.01592 25.4284C8.98415 25.3814 8.95317 25.335 8.923 25.2898C8.91846 25.2834 8.91392 25.2767 8.90965 25.2701C8.87681 25.2209 8.84476 25.1731 8.81352 25.1264C8.80684 25.1163 8.80017 25.1064 8.79349 25.0962C8.76599 25.0548 8.73902 25.0143 8.71285 24.975C8.70885 24.9694 8.70511 24.9635 8.70137 24.9579C8.6728 24.9149 8.6453 24.8733 8.61833 24.833C8.61218 24.8233 8.60578 24.814 8.59964 24.8046C8.5465 24.7245 8.4971 24.65 8.45144 24.5806C8.44797 24.5755 8.44476 24.5705 8.44129 24.5654C8.68802 24.4415 8.94436 24.3392 9.20871 24.2591C9.58548 24.1451 9.99296 24.2842 10.2223 24.6057L14.4469 30.5203C14.6095 30.7483 14.6774 31.2308 14.5836 31.4946Z" fill="#81DE76"/>
<path d="M29.6971 25.5259C29.346 25.3838 28.946 25.5531 28.8039 25.9043L28.7871 25.9456C28.645 26.2968 28.8143 26.6965 29.1655 26.8389C29.2498 26.873 29.3369 26.8891 29.4226 26.8891C29.6939 26.8891 29.9508 26.7272 30.0587 26.4605L30.0755 26.4191C30.2176 26.0679 30.0483 25.6682 29.6971 25.5259Z" fill="#81DE76"/>
<path d="M5.17558 4.79528C5.25996 4.8292 5.34701 4.84549 5.43273 4.84549C5.70403 4.84549 5.96065 4.6834 6.06879 4.41664L6.08535 4.37525C6.22741 4.02411 6.05784 3.62436 5.7067 3.4823C5.35556 3.34025 4.95582 3.50954 4.81376 3.86095L4.79694 3.90207C4.65488 4.25322 4.82444 4.65323 5.17558 4.79528Z" fill="#81DE76"/>
</svg>
