<svg width="34" height="36" viewBox="0 0 34 36" fill="none" xmlns="http://www.w3.org/2000/svg">
<path d="M23.6781 6.36248H1.34375C1.19871 6.36248 1.05961 6.30486 0.957051 6.2023C0.854492 6.09974 0.796875 5.96064 0.796875 5.8156V3.28357C0.796875 2.55837 1.08496 1.86287 1.59775 1.35007C2.11055 0.837279 2.80605 0.549194 3.53125 0.549194H21.4906C22.2158 0.549194 22.9113 0.837279 23.4241 1.35007C23.9369 1.86287 24.225 2.55837 24.225 3.28357V5.8156C24.225 5.96064 24.1674 6.09974 24.0648 6.2023C23.9623 6.30486 23.8232 6.36248 23.6781 6.36248ZM1.89062 5.26873H23.1312V3.28357C23.1312 2.84845 22.9584 2.43115 22.6507 2.12347C22.343 1.8158 21.9257 1.64294 21.4906 1.64294H3.53125C3.09613 1.64294 2.67883 1.8158 2.37115 2.12347C2.06348 2.43115 1.89062 2.84845 1.89062 3.28357V5.26873Z" fill="#81DE76"/>
<path d="M21.4906 35.5492H3.53125C2.80605 35.5492 2.11055 35.2611 1.59775 34.7483C1.08496 34.2356 0.796875 33.5401 0.796875 32.8149V30.2828C0.796875 30.1378 0.854492 29.9987 0.957051 29.8961C1.05961 29.7936 1.19871 29.7359 1.34375 29.7359H23.6781C23.8232 29.7359 23.9623 29.7936 24.0648 29.8961C24.1674 29.9987 24.225 30.1378 24.225 30.2828V32.8149C24.225 33.5401 23.9369 34.2356 23.4241 34.7483C22.9113 35.2611 22.2158 35.5492 21.4906 35.5492ZM1.89062 30.8297V32.8149C1.89062 33.25 2.06348 33.6673 2.37115 33.9749C2.67883 34.2826 3.09613 34.4555 3.53125 34.4555H21.4906C21.9257 34.4555 22.343 34.2826 22.6507 33.9749C22.9584 33.6673 23.1312 33.25 23.1312 32.8149V30.8297H1.89062Z" fill="#81DE76"/>
<path d="M23.6781 30.8352H1.34375C1.19871 30.8352 1.05961 30.7775 0.957051 30.675C0.854492 30.5724 0.796875 30.4333 0.796875 30.2883L0.796875 5.8156C0.796875 5.67056 0.854492 5.53149 0.957051 5.42893C1.05961 5.32637 1.19871 5.26876 1.34375 5.26876H23.6781C23.8232 5.26876 23.9623 5.32637 24.0648 5.42893C24.1674 5.53149 24.225 5.67056 24.225 5.8156V9.73126C24.225 9.8763 24.1674 10.0154 24.0648 10.118C23.9623 10.2205 23.8232 10.2781 23.6781 10.2781C23.5331 10.2781 23.394 10.2205 23.2914 10.118C23.1889 10.0154 23.1312 9.8763 23.1312 9.73126V6.36251H1.89062V29.7414H23.1312V21.8773C23.1312 21.7323 23.1889 21.5932 23.2914 21.4906C23.394 21.3881 23.5331 21.3305 23.6781 21.3305C23.8232 21.3305 23.9623 21.3881 24.0648 21.4906C24.1674 21.5932 24.225 21.7323 24.225 21.8773V30.2883C24.225 30.4333 24.1674 30.5724 24.0648 30.675C23.9623 30.7775 23.8232 30.8352 23.6781 30.8352Z" fill="#81DE76"/>
<path d="M14.6328 3.99996H10.3945C10.2495 3.99996 10.1104 3.94234 10.0078 3.83978C9.90526 3.73723 9.84764 3.59813 9.84764 3.45309C9.84764 3.30805 9.90526 3.16895 10.0078 3.06639C10.1104 2.96383 10.2495 2.90621 10.3945 2.90621H14.6328C14.7778 2.90621 14.9169 2.96383 15.0195 3.06639C15.1221 3.16895 15.1797 3.30805 15.1797 3.45309C15.1797 3.59813 15.1221 3.73723 15.0195 3.83978C14.9169 3.94234 14.7778 3.99996 14.6328 3.99996Z" fill="#81DE76"/>
<path d="M12.8992 33.1867H12.1227C11.9776 33.1867 11.8385 33.1291 11.736 33.0265C11.6334 32.924 11.5758 32.7849 11.5758 32.6398C11.5758 32.4948 11.6334 32.3557 11.736 32.2531C11.8385 32.1506 11.9776 32.093 12.1227 32.093H12.8992C13.0443 32.093 13.1834 32.1506 13.2859 32.2531C13.3885 32.3557 13.4461 32.4948 13.4461 32.6398C13.4461 32.7849 13.3885 32.924 13.2859 33.0265C13.1834 33.1291 13.0443 33.1867 12.8992 33.1867Z" fill="#81DE76"/>
<path d="M15.7266 25.9187C15.4442 25.9251 15.1649 25.8585 14.9158 25.7253C14.6667 25.5922 14.4562 25.3969 14.3047 25.1586L12.7789 22.6757C12.7297 22.5969 12.6611 22.532 12.5798 22.487C12.4985 22.442 12.407 22.4185 12.3141 22.4187H11.5375C10.7852 22.4173 10.0641 22.1178 9.53214 21.5858C9.00017 21.0538 8.70068 20.3327 8.69923 19.5804V12.0336C8.70068 11.2812 9.00017 10.5602 9.53214 10.0282C10.0641 9.49622 10.7852 9.19672 11.5375 9.19527H26.5492C26.6943 9.19527 26.8334 9.25289 26.9359 9.35545C27.0385 9.45801 27.0961 9.59711 27.0961 9.74215C27.0961 9.88719 27.0385 10.0263 26.9359 10.1288C26.8334 10.2314 26.6943 10.289 26.5492 10.289H11.5375C11.0748 10.289 10.6311 10.4728 10.3039 10.8C9.97678 11.1271 9.79298 11.5709 9.79298 12.0336V19.564C9.79009 19.795 9.83307 20.0242 9.91944 20.2383C10.0058 20.4525 10.1339 20.6474 10.2961 20.8118C10.4584 20.9761 10.6517 21.1065 10.8648 21.1956C11.0779 21.2846 11.3066 21.3304 11.5375 21.3304H12.3141C12.5948 21.3301 12.871 21.4018 13.1161 21.5387C13.3613 21.6757 13.5671 21.8732 13.7141 22.1125L15.2344 24.5843C15.2857 24.6629 15.3553 24.7278 15.4372 24.7735C15.5191 24.8192 15.6109 24.8444 15.7047 24.8468C15.7972 24.8455 15.8879 24.8207 15.9682 24.7748C16.0486 24.7289 16.116 24.6634 16.1641 24.5843L17.6844 22.107C17.8315 21.8695 18.0368 21.6736 18.2808 21.5377C18.5249 21.4018 18.7996 21.3304 19.0789 21.3304H26.6914C27.1541 21.3304 27.5978 21.1466 27.925 20.8195C28.2521 20.4923 28.4359 20.0486 28.4359 19.5859V13.0234C28.4359 12.8784 28.4936 12.7393 28.5961 12.6367C28.6987 12.5341 28.8378 12.4765 28.9828 12.4765C29.1279 12.4765 29.267 12.5341 29.3695 12.6367C29.4721 12.7393 29.5297 12.8784 29.5297 13.0234V19.5859C29.5297 20.3387 29.2307 21.0606 28.6984 21.5929C28.1661 22.1251 27.4442 22.4242 26.6914 22.4242H19.0789C18.9869 22.4249 18.8966 22.4489 18.8163 22.4938C18.736 22.5387 18.6683 22.6032 18.6195 22.6812L17.0992 25.1586C16.9521 25.3898 16.7494 25.5806 16.5097 25.7134C16.2699 25.8462 16.0007 25.9167 15.7266 25.9187Z" fill="#81DE76"/>
<path d="M24.2578 13.4664H13.9711C13.826 13.4664 13.6869 13.4088 13.5844 13.3062C13.4818 13.2037 13.4242 13.0646 13.4242 12.9195C13.4242 12.7745 13.4818 12.6354 13.5844 12.5328C13.6869 12.4303 13.826 12.3727 13.9711 12.3727H24.2578C24.4028 12.3727 24.5419 12.4303 24.6445 12.5328C24.747 12.6354 24.8047 12.7745 24.8047 12.9195C24.8047 13.0646 24.747 13.2037 24.6445 13.3062C24.5419 13.4088 24.4028 13.4664 24.2578 13.4664Z" fill="#81DE76"/>
<path d="M26.2047 16.3375H12.0297C11.8846 16.3375 11.7455 16.2799 11.643 16.1773C11.5404 16.0748 11.4828 15.9357 11.4828 15.7906C11.4828 15.6456 11.5404 15.5065 11.643 15.4039C11.7455 15.3014 11.8846 15.2438 12.0297 15.2438H26.2047C26.3497 15.2438 26.4888 15.3014 26.5914 15.4039C26.6939 15.5065 26.7515 15.6456 26.7515 15.7906C26.7515 15.9357 26.6939 16.0748 26.5914 16.1773C26.4888 16.2799 26.3497 16.3375 26.2047 16.3375Z" fill="#81DE76"/>
<path d="M24.2578 19.2086H13.9711C13.826 19.2086 13.6869 19.151 13.5844 19.0484C13.4818 18.9459 13.4242 18.8068 13.4242 18.6617C13.4242 18.5167 13.4818 18.3776 13.5844 18.275C13.6869 18.1725 13.826 18.1149 13.9711 18.1149H24.2578C24.4028 18.1149 24.5419 18.1725 24.6445 18.275C24.747 18.3776 24.8047 18.5167 24.8047 18.6617C24.8047 18.8068 24.747 18.9459 24.6445 19.0484C24.5419 19.151 24.4028 19.2086 24.2578 19.2086Z" fill="#81DE76"/>
<path d="M29.9726 13.6743C29.1869 13.6753 28.4185 13.4433 27.7648 13.0074C27.111 12.5716 26.6013 11.9516 26.3001 11.2258C25.9989 10.5001 25.9199 9.7014 26.0729 8.93072C26.2259 8.16005 26.6041 7.4521 27.1597 6.89652C27.7153 6.34093 28.4233 5.96268 29.1939 5.80966C29.9646 5.65664 30.7634 5.73573 31.4891 6.03691C32.2148 6.33809 32.8348 6.84782 33.2706 7.50157C33.7065 8.15533 33.9386 8.9237 33.9375 9.70942C33.936 10.7605 33.5178 11.7681 32.7746 12.5114C32.0314 13.2546 31.0237 13.6728 29.9726 13.6743ZM29.9726 6.83285C29.4035 6.83177 28.8468 6.99956 28.373 7.31498C27.8992 7.6304 27.5297 8.07928 27.3111 8.60481C27.0926 9.13034 27.0348 9.70889 27.1452 10.2672C27.2556 10.8256 27.5291 11.3387 27.9312 11.7415C28.3333 12.1444 28.8458 12.4189 29.404 12.5303C29.9621 12.6417 30.5408 12.5851 31.0667 12.3675C31.5926 12.15 32.0422 11.7813 32.3586 11.3081C32.6749 10.8349 32.8437 10.2786 32.8437 9.70942C32.8365 8.95169 32.5312 8.22728 31.9939 7.69301C31.4565 7.15873 30.7304 6.85757 29.9726 6.85473V6.83285Z" fill="#81DE76"/>
</svg>
