<svg width="30" height="31" viewBox="0 0 30 31"  xmlns="http://www.w3.org/2000/svg">
<path d="M29.4141 13.2132H25.6641C25.3404 13.2132 25.0781 13.4756 25.0781 13.7991V16.7581C25.0781 17.0817 25.3404 17.3441 25.6641 17.3441C25.9877 17.3441 26.25 17.0817 26.25 16.7581V14.3851H28.8281V29.8099H26.25V21.1527C26.25 20.8291 25.9877 20.5667 25.6641 20.5667C25.3404 20.5667 25.0781 20.8291 25.0781 21.1527V29.8099H23.9062V17.681C23.9062 17.3575 23.6439 17.0951 23.3203 17.0951H19.5703C19.2467 17.0951 18.9844 17.3575 18.9844 17.681V29.8099H17.8125V21.7826C17.8125 21.459 17.5502 21.1967 17.2266 21.1967H13.4766C13.1529 21.1967 12.8906 21.459 12.8906 21.7826V29.8099H11.7188V25.1444C11.7188 24.8209 11.4564 24.5585 11.1328 24.5585H7.38281C7.0592 24.5585 6.79688 24.8209 6.79688 25.1444V29.8099H1.75781C1.43473 29.8099 1.17188 29.5471 1.17188 29.224V2.73962C1.17188 2.41654 1.43473 2.15369 1.75781 2.15369H16.8735V6.02105C16.8735 6.99031 17.6621 7.77886 18.6313 7.77886H22.4985V14.9857C22.4985 15.3093 22.7609 15.5717 23.0845 15.5717C23.4081 15.5717 23.6704 15.3093 23.6704 14.9857V7.19292C23.6704 7.03753 23.6087 6.88853 23.4988 6.77861L17.8738 1.15343C17.7639 1.04357 17.6149 0.981812 17.4595 0.981812H1.75781C0.788555 0.981812 0 1.77037 0 2.73962V29.224C0 30.1933 0.788555 30.9818 1.75781 30.9818H29.4141C29.7377 30.9818 30 30.7194 30 30.3959V13.7991C30 13.4756 29.7377 13.2132 29.4141 13.2132ZM18.0454 2.98238L21.67 6.60699H18.6313C18.3082 6.60699 18.0454 6.34414 18.0454 6.02105V2.98238ZM10.5469 29.8099H7.96875V25.7303H10.5469V29.8099ZM16.6406 29.8099H14.0625V22.3685H16.6406V29.8099ZM22.7344 29.8099H20.1562V18.267H22.7344V29.8099Z" />
<path d="M9.38915 4.98181C9.06554 4.98181 8.80322 5.24419 8.80322 5.56775V6.62179C6.10609 6.91458 4 9.2056 4 11.9793C4 14.9509 6.41757 17.3685 9.38915 17.3685C12.1629 17.3685 14.4539 15.2624 14.7467 12.5652H15.8007C16.1243 12.5652 16.3866 12.3029 16.3866 11.9793C16.3866 8.12085 13.2475 4.98181 9.38915 4.98181ZM9.38915 16.1965C7.06375 16.1965 5.17187 14.3047 5.17187 11.9793C5.17187 9.85271 6.7542 8.08869 8.80322 7.80257V11.9793C8.80322 12.3028 9.06554 12.5652 9.38915 12.5652H13.5658C13.2797 14.6142 11.5157 16.1965 9.38915 16.1965ZM9.97509 11.3934V6.18292C12.7203 6.45843 14.91 8.64814 15.1855 11.3934H9.97509Z" />
</svg>
