<svg width="38" height="35" viewBox="0 0 38 35" fill="none" xmlns="http://www.w3.org/2000/svg">
<path d="M28.2837 28.7778H26.6675V21.1556C26.6675 20.9493 26.5824 20.7514 26.4308 20.6056C26.2793 20.4597 26.0737 20.3778 25.8594 20.3778C25.6451 20.3778 25.4395 20.4597 25.288 20.6056C25.1364 20.7514 25.0513 20.9493 25.0513 21.1556V28.7778H4.04053V13.2222H10.764C10.9783 13.2222 11.1838 13.1403 11.3354 12.9944C11.4869 12.8486 11.5721 12.6507 11.5721 12.4444C11.5721 12.2382 11.4869 12.0403 11.3354 11.8945C11.1838 11.7486 10.9783 11.6667 10.764 11.6667H3.23242C3.0181 11.6667 2.81256 11.7486 2.66101 11.8945C2.50946 12.0403 2.42432 12.2382 2.42432 12.4444V28.7778H0.808106C0.593783 28.7778 0.388238 28.8597 0.236689 29.0056C0.0851395 29.1514 0 29.3493 0 29.5556V31.1111C0 32.1425 0.425697 33.1317 1.18344 33.861C1.94119 34.5903 2.96891 35 4.04053 35H25.0513C26.1229 35 27.1506 34.5903 27.9084 33.861C28.6661 33.1317 29.0918 32.1425 29.0918 31.1111V29.5556C29.0918 29.3493 29.0067 29.1514 28.8551 29.0056C28.7036 28.8597 28.498 28.7778 28.2837 28.7778ZM27.4756 31.1111C27.4756 31.73 27.2202 32.3234 26.7655 32.761C26.3109 33.1986 25.6943 33.4444 25.0513 33.4444H23.4351V32.6667C23.4351 32.4604 23.3499 32.2626 23.1984 32.1167C23.0468 31.9708 22.8413 31.8889 22.627 31.8889C22.4126 31.8889 22.2071 31.9708 22.0555 32.1167C21.904 32.2626 21.8189 32.4604 21.8189 32.6667V33.4444H7.27295V32.6667C7.27295 32.4604 7.18781 32.2626 7.03626 32.1167C6.88471 31.9708 6.67917 31.8889 6.46485 31.8889C6.25052 31.8889 6.04498 31.9708 5.89343 32.1167C5.74188 32.2626 5.65674 32.4604 5.65674 32.6667V33.4444H4.04053C3.39756 33.4444 2.78093 33.1986 2.32628 32.761C1.87163 32.3234 1.61621 31.73 1.61621 31.1111V30.3333H27.4756V31.1111Z" fill="#81DE76"/>
<path d="M28.2837 4.66667C28.4092 4.66667 28.5329 4.63856 28.6451 4.58456C28.7573 4.53056 28.8549 4.45216 28.9302 4.35556L31.3545 1.24445C31.4831 1.07942 31.5383 0.871993 31.508 0.667786C31.4777 0.46358 31.3643 0.279328 31.1929 0.15556C31.0214 0.0317921 30.8059 -0.0213522 30.5937 0.00782014C30.3816 0.0369925 30.1901 0.146091 30.0615 0.311114L27.6372 3.42223C27.5086 3.58725 27.4534 3.79468 27.4837 3.99889C27.514 4.20309 27.6274 4.38735 27.7988 4.51112C27.9387 4.61209 28.1089 4.66667 28.2837 4.66667Z" fill="#81DE76"/>
<path d="M30.0615 7.46667C30.1368 7.56327 30.2344 7.64167 30.3466 7.69567C30.4588 7.74967 30.5826 7.77778 30.708 7.77778C30.8829 7.77778 31.053 7.7232 31.1929 7.62223L34.4253 5.28889C34.5968 5.16512 34.7101 4.98087 34.7404 4.77667C34.7707 4.57246 34.7155 4.36503 34.5869 4.2C34.4583 4.03498 34.2669 3.92588 34.0547 3.89671C33.8426 3.86754 33.627 3.92068 33.4556 4.04445L30.2232 6.37778C30.0517 6.50155 29.9384 6.6858 29.908 6.89001C29.8777 7.09422 29.9329 7.30165 30.0615 7.46667Z" fill="#81DE76"/>
<path d="M37.981 9.17778C37.9618 9.07466 37.9211 8.97635 37.8615 8.88872C37.8018 8.8011 37.7244 8.72598 37.6338 8.66788C37.5432 8.60977 37.4414 8.56986 37.3344 8.55056C37.2275 8.53126 37.1175 8.53296 37.0113 8.55556L32.9707 9.33333C32.8646 9.34355 32.7616 9.37378 32.6676 9.4223C32.5736 9.47083 32.4905 9.53669 32.423 9.61614C32.2866 9.77658 32.222 9.98261 32.2434 10.1889C32.2649 10.3952 32.3706 10.5848 32.5373 10.7161C32.704 10.8474 32.918 10.9095 33.1323 10.8889H33.294L37.3345 10.1111C37.4416 10.0926 37.5438 10.0535 37.6348 9.99608C37.7259 9.93866 37.8039 9.86414 37.8643 9.77697C37.9247 9.68981 37.9661 9.5918 37.9862 9.48884C38.0062 9.38587 38.0045 9.28007 37.981 9.17778Z" fill="#81DE76"/>
<path d="M7.27295 4.66667H4.04053C3.82621 4.66667 3.62066 4.74861 3.46911 4.89447C3.31756 5.04033 3.23242 5.23817 3.23242 5.44444C3.23242 5.65072 3.31756 5.84856 3.46911 5.99442C3.62066 6.14028 3.82621 6.22222 4.04053 6.22222H7.27295C7.48728 6.22222 7.69282 6.14028 7.84437 5.99442C7.99592 5.84856 8.08106 5.65072 8.08106 5.44444C8.08106 5.23817 7.99592 5.04033 7.84437 4.89447C7.69282 4.74861 7.48728 4.66667 7.27295 4.66667Z" fill="#81DE76"/>
<path d="M27.5726 9.09999C27.5195 9.01113 27.4488 8.9332 27.3644 8.87065C27.2801 8.80809 27.1837 8.76214 27.0809 8.73542C26.9781 8.7087 26.8709 8.70173 26.7653 8.7149C26.6597 8.72808 26.5578 8.76115 26.4655 8.81222C26.3731 8.86329 26.2922 8.93136 26.2272 9.01255C26.1622 9.09373 26.1144 9.18645 26.0867 9.28539C26.0589 9.38434 26.0517 9.48758 26.0653 9.58922C26.079 9.69086 26.1134 9.78891 26.1665 9.87777L29.7302 15.8122L16.8005 20.4789C16.8005 20.4789 16.8005 20.4789 16.7439 20.4789H16.6793L13.1802 22.4233C12.9961 22.5257 12.7929 22.5922 12.5821 22.6189C12.3714 22.6456 12.1572 22.632 11.9519 22.5789C11.5394 22.4716 11.1879 22.2116 10.9741 21.8555L9.35785 19.1644C9.16771 18.8123 9.12456 18.4036 9.23722 18.0219C9.34989 17.6402 9.60986 17.3144 9.96393 17.1111L12.76 15.5555L14.7802 18.9233C14.8514 19.042 14.954 19.1405 15.0774 19.2088C15.2009 19.2771 15.3409 19.3128 15.4833 19.3122C15.6254 19.3128 15.7652 19.2772 15.8885 19.2092C16.0118 19.1411 16.1142 19.043 16.1855 18.9247C16.2569 18.8063 16.2945 18.672 16.2946 18.5352C16.2948 18.3984 16.2574 18.264 16.1863 18.1456L14.1014 14.6767L24.2432 6.62666L24.5745 7.17888C24.6275 7.26774 24.6983 7.34568 24.7826 7.40823C24.867 7.47078 24.9633 7.51673 25.0661 7.54346C25.1689 7.57018 25.2762 7.57715 25.3818 7.56397C25.4874 7.5508 25.5893 7.51773 25.6816 7.46666C25.7739 7.41559 25.8549 7.34752 25.9199 7.26633C25.9849 7.18514 26.0326 7.09243 26.0604 6.99348C26.0881 6.89454 26.0954 6.7913 26.0817 6.68966C26.068 6.58802 26.0337 6.48997 25.9806 6.4011L25.1725 5.05555C25.1133 4.9581 25.0327 4.87423 24.9364 4.80976C24.8401 4.74529 24.7304 4.70177 24.6149 4.68222C24.4987 4.66115 24.3792 4.66485 24.2647 4.69307C24.1502 4.72129 24.0436 4.77334 23.9522 4.84555L12.6388 13.8211L9.19623 15.7344C8.57844 16.0808 8.09738 16.6145 7.82833 17.252C7.55928 17.8895 7.51743 18.5949 7.70932 19.2578L6.90121 19.7011C6.48484 19.9312 6.14884 20.2752 5.93582 20.6893C5.7228 21.1035 5.64236 21.5692 5.70468 22.0274C5.767 22.4856 5.96929 22.9157 6.28589 23.2631C6.6025 23.6105 7.01916 23.8597 7.48305 23.9789C7.6887 24.0313 7.90063 24.0575 8.11337 24.0567C8.53849 24.055 8.95598 23.9478 9.32553 23.7455L10.1336 23.3022C10.5218 23.6882 11.01 23.9674 11.5478 24.1111C11.824 24.1855 12.1096 24.2221 12.3963 24.22C12.9643 24.2213 13.5224 24.0762 14.0125 23.8L14.7156 23.4111L16.3318 26.11C16.653 26.6445 17.1812 27.0346 17.8007 27.195C18.4202 27.3554 19.0805 27.2729 19.637 26.9655C19.913 26.8125 20.155 26.6085 20.3491 26.3654C20.5432 26.1222 20.6856 25.8446 20.7681 25.5484C20.8507 25.2523 20.8718 24.9434 20.8302 24.6393C20.7887 24.3353 20.6852 24.0422 20.5259 23.7767L19.0551 21.3111L31.1767 16.9322C31.2866 16.8924 31.3862 16.8301 31.4686 16.7495C31.5509 16.6689 31.614 16.572 31.6535 16.4655C31.6928 16.3604 31.7081 16.2482 31.6984 16.1368C31.6886 16.0254 31.654 15.9174 31.5969 15.82L27.5726 9.09999ZM8.4851 22.3922C8.39307 22.4434 8.29145 22.4766 8.18607 22.49C8.08068 22.5033 7.97359 22.4965 7.87094 22.47C7.6639 22.4182 7.48663 22.2896 7.37799 22.1122C7.32479 22.0236 7.29027 21.9258 7.2764 21.8244C7.26254 21.723 7.2696 21.6199 7.29718 21.5211C7.32477 21.4218 7.37254 21.3287 7.43773 21.2473C7.50293 21.1658 7.58425 21.0977 7.67699 21.0467L8.38004 20.6578L9.18815 22.0033L8.4851 22.3922ZM19.1198 24.57C19.173 24.6586 19.2075 24.7564 19.2214 24.8578C19.2352 24.9592 19.2282 25.0623 19.2006 25.1611C19.1429 25.3588 19.0064 25.5266 18.8208 25.6278C18.6362 25.7298 18.4172 25.7577 18.2114 25.7052C18.0057 25.6528 17.8297 25.5244 17.7217 25.3478L16.1055 22.6489L17.447 21.91H17.5116L19.1198 24.57Z" fill="#81DE76"/>
</svg>
