<svg width="24" height="24" viewBox="0 0 24 24" fill="none" xmlns="http://www.w3.org/2000/svg">
<path fill-rule="evenodd" clip-rule="evenodd" d="M10.1839 0.0411682C4.55948 0.0411682 0 4.60065 0 10.2251C0 15.8495 4.55948 20.409 10.1839 20.409C15.8084 20.409 20.3678 15.8495 20.3678 10.2251C20.3678 4.60065 15.8084 0.0411682 10.1839 0.0411682ZM23.5803 23.5209C23.0136 24.0976 22.0815 24.1057 21.5048 23.5391L17.434 19.5391C18.2085 18.9354 18.9054 18.2372 19.5081 17.4618L23.5621 21.4454C24.1388 22.012 24.147 22.9442 23.5803 23.5209ZM10.1839 2.87664C14.2424 2.87664 17.5323 6.16665 17.5323 10.225C17.5323 14.2834 14.2423 17.5734 10.1839 17.5734C6.12548 17.5734 2.83552 14.2834 2.83552 10.225C2.83552 6.16665 6.12553 2.87664 10.1839 2.87664Z" fill="#494545"/>
</svg>
