<svg width="29" height="29" viewBox="0 0 29 29"  xmlns="http://www.w3.org/2000/svg">
<path d="M28.6641 20.8951C28.4153 20.4652 28.0063 20.1513 27.5266 20.0222C27.047 19.893 26.5357 19.9592 26.1047 20.2061L21.5344 22.8451C21.2848 22.4712 20.9086 22.1999 20.475 22.0811L13.4812 20.2108C12.943 20.0655 12.3766 20.0607 11.8359 20.1967L9.375 20.8108V20.0045C9.375 19.8802 9.32561 19.761 9.23771 19.6731C9.1498 19.5852 9.03057 19.5358 8.90625 19.5358H5.15625C5.03193 19.5358 4.9127 19.5852 4.82479 19.6731C4.73689 19.761 4.6875 19.8802 4.6875 20.0045V20.4733H1.40625C1.28193 20.4733 1.1627 20.5227 1.07479 20.6106C0.986886 20.6985 0.9375 20.8177 0.9375 20.942V27.5045C0.9375 27.6288 0.986886 27.7481 1.07479 27.836C1.1627 27.9239 1.28193 27.9733 1.40625 27.9733H4.6875V28.442C4.6875 28.5663 4.73689 28.6856 4.82479 28.7735C4.9127 28.8614 5.03193 28.9108 5.15625 28.9108H8.90625C9.03057 28.9108 9.1498 28.8614 9.23771 28.7735C9.32561 28.6856 9.375 28.5663 9.375 28.442V27.7951L9.97969 28.0951C10.4356 28.3221 10.9376 28.4408 11.4469 28.442H18.4641C19.0403 28.4433 19.6066 28.2912 20.1047 28.0014L27.9797 23.4545C28.4086 23.2048 28.7214 22.7955 28.8496 22.3159C28.9778 21.8364 28.9111 21.3257 28.6641 20.8951ZM4.6875 27.0358H1.875V21.4108H4.6875V27.0358ZM8.4375 27.9733H5.625V20.4733H8.4375V27.9733ZM27.5109 22.6436L19.6359 27.1905C19.2798 27.3966 18.8755 27.5049 18.4641 27.5045H11.4469C11.0822 27.5053 10.7225 27.4202 10.3969 27.2561L9.375 26.7451V21.7764L12.0609 21.1061C12.4475 21.0084 12.8526 21.0116 13.2375 21.1155L20.2313 22.9905C20.4112 23.0372 20.5731 23.1366 20.6961 23.2759C20.8192 23.4152 20.8979 23.5881 20.9221 23.7724C20.9462 23.9567 20.9148 24.1441 20.8318 24.3104C20.7488 24.4768 20.618 24.6145 20.4562 24.7061C20.3506 24.7684 20.2335 24.8088 20.1119 24.8249C19.9903 24.841 19.8667 24.8325 19.7484 24.7998L14.1562 23.2998C14.0357 23.2675 13.9072 23.2844 13.799 23.3468C13.6909 23.4092 13.612 23.5121 13.5797 23.6326C13.5474 23.7532 13.5643 23.8817 13.6267 23.9898C13.6891 24.098 13.7919 24.1769 13.9125 24.2092L19.5047 25.7045C19.6637 25.7473 19.8275 25.7694 19.9922 25.7701C20.3202 25.7706 20.6423 25.6832 20.925 25.517C21.1392 25.3946 21.3271 25.2309 21.4775 25.0354C21.628 24.8399 21.7381 24.6164 21.8016 24.378C21.8536 24.1713 21.871 23.9575 21.8531 23.7451L26.5734 21.0217C26.7888 20.9021 27.0422 20.871 27.2802 20.9349C27.5181 20.9987 27.7219 21.1526 27.8484 21.3639C27.9729 21.5784 28.0073 21.8336 27.944 22.0735C27.8808 22.3133 27.725 22.5183 27.5109 22.6436Z" />
<path d="M7.03125 27.5045C7.15557 27.5045 7.2748 27.4551 7.36271 27.3672C7.45061 27.2793 7.5 27.1601 7.5 27.0358V26.567C7.5 26.4427 7.45061 26.3235 7.36271 26.2356C7.2748 26.1477 7.15557 26.0983 7.03125 26.0983C6.90693 26.0983 6.7877 26.1477 6.69979 26.2356C6.61189 26.3235 6.5625 26.4427 6.5625 26.567V27.0358C6.5625 27.1601 6.61189 27.2793 6.69979 27.3672C6.7877 27.4551 6.90693 27.5045 7.03125 27.5045Z" />
<path d="M21.5625 7.81702H19.8047L19.7203 7.62014L20.9672 6.37795C21.055 6.28945 21.1043 6.16982 21.1043 6.04514C21.1043 5.92046 21.055 5.80083 20.9672 5.71233L18.9797 3.72483C18.8912 3.63701 18.7716 3.58773 18.6469 3.58773C18.5222 3.58773 18.4026 3.63701 18.3141 3.72483L17.0719 4.9717L16.875 4.88733V3.12952C16.875 3.0052 16.8256 2.88597 16.7377 2.79806C16.6498 2.71015 16.5306 2.66077 16.4062 2.66077H13.5938C13.4694 2.66077 13.3502 2.71015 13.2623 2.79806C13.1744 2.88597 13.125 3.0052 13.125 3.12952V4.88733L12.9281 4.9717L11.6859 3.72483C11.5974 3.63701 11.4778 3.58773 11.3531 3.58773C11.2284 3.58773 11.1088 3.63701 11.0203 3.72483L9.03281 5.71233C8.94499 5.80083 8.89571 5.92046 8.89571 6.04514C8.89571 6.16982 8.94499 6.28945 9.03281 6.37795L10.2797 7.62014L10.1953 7.81702H8.4375C8.31318 7.81702 8.19395 7.8664 8.10604 7.95431C8.01814 8.04222 7.96875 8.16145 7.96875 8.28577V11.0983C7.96875 11.2226 8.01814 11.3418 8.10604 11.4297C8.19395 11.5176 8.31318 11.567 8.4375 11.567H10.1953L10.2797 11.7639L9.03281 13.0061C8.94647 13.0955 8.8978 13.2146 8.89687 13.3389C8.89869 13.463 8.94724 13.5818 9.03281 13.6717L11.0203 15.6592C11.1097 15.7455 11.2289 15.7942 11.3531 15.7951C11.4772 15.7933 11.5961 15.7448 11.6859 15.6592L12.9281 14.4123L13.125 14.4967V16.2545C13.125 16.3788 13.1744 16.4981 13.2623 16.586C13.3502 16.6739 13.4694 16.7233 13.5938 16.7233H16.4062C16.5306 16.7233 16.6498 16.6739 16.7377 16.586C16.8256 16.4981 16.875 16.3788 16.875 16.2545V14.4967L17.0719 14.4123L18.3141 15.6592C18.4047 15.7428 18.5235 15.7893 18.6469 15.7893C18.7702 15.7893 18.889 15.7428 18.9797 15.6592L20.9672 13.6717C21.0528 13.5818 21.1013 13.463 21.1031 13.3389C21.1022 13.2146 21.0535 13.0955 20.9672 13.0061L19.7203 11.7639L19.8047 11.567H21.5625C21.6868 11.567 21.806 11.5176 21.894 11.4297C21.9819 11.3418 22.0312 11.2226 22.0312 11.0983V8.28577C22.0312 8.16145 21.9819 8.04222 21.894 7.95431C21.806 7.8664 21.6868 7.81702 21.5625 7.81702ZM21.0938 10.6295H19.4719C19.373 10.6296 19.2767 10.6609 19.1968 10.719C19.1168 10.7771 19.0572 10.859 19.0266 10.953C18.9541 11.1885 18.8583 11.4161 18.7406 11.6326C18.6928 11.722 18.6748 11.8243 18.6891 11.9246C18.7035 12.0249 18.7494 12.118 18.8203 12.1905L19.9734 13.3389L18.6469 14.6655L17.4984 13.5123C17.426 13.4414 17.3329 13.3955 17.2326 13.3811C17.1323 13.3668 17.03 13.3848 16.9406 13.4326C16.7241 13.5503 16.4964 13.6461 16.2609 13.7186C16.167 13.7492 16.0851 13.8088 16.027 13.8888C15.9689 13.9687 15.9376 14.065 15.9375 14.1639V15.7858H14.0625V14.1639C14.0624 14.065 14.0311 13.9687 13.973 13.8888C13.9149 13.8088 13.833 13.7492 13.7391 13.7186C13.5036 13.6461 13.2759 13.5503 13.0594 13.4326C12.97 13.3848 12.8677 13.3668 12.7674 13.3811C12.6671 13.3955 12.574 13.4414 12.5016 13.5123L11.3531 14.6655L10.0266 13.3389L11.1797 12.1905C11.2506 12.118 11.2965 12.0249 11.3109 11.9246C11.3252 11.8243 11.3072 11.722 11.2594 11.6326C11.1417 11.4161 11.0459 11.1885 10.9734 10.953C10.9428 10.859 10.8832 10.7771 10.8032 10.719C10.7233 10.6609 10.627 10.6296 10.5281 10.6295H8.90625V8.75452H10.5281C10.627 8.75444 10.7233 8.72312 10.8032 8.66503C10.8832 8.60694 10.9428 8.52506 10.9734 8.43108C11.0459 8.19557 11.1417 7.96789 11.2594 7.75139C11.3072 7.66203 11.3252 7.55976 11.3109 7.45944C11.2965 7.35912 11.2506 7.26598 11.1797 7.19358L10.0266 6.04514L11.3531 4.71858L12.5016 5.8717C12.574 5.94261 12.6671 5.98856 12.7674 6.00289C12.8677 6.01723 12.97 5.99918 13.0594 5.95139C13.2759 5.83372 13.5036 5.73793 13.7391 5.66545C13.833 5.63481 13.9149 5.57524 13.973 5.49526C14.0311 5.41529 14.0624 5.31899 14.0625 5.22014V3.59827H15.9375V5.22014C15.9376 5.31899 15.9689 5.41529 16.027 5.49526C16.0851 5.57524 16.167 5.63481 16.2609 5.66545C16.4964 5.73793 16.7241 5.83372 16.9406 5.95139C17.03 5.99918 17.1323 6.01723 17.2326 6.00289C17.3329 5.98856 17.426 5.94261 17.4984 5.8717L18.6469 4.71858L19.9734 6.04514L18.8203 7.19358C18.7494 7.26598 18.7035 7.35912 18.6891 7.45944C18.6748 7.55976 18.6928 7.66203 18.7406 7.75139C18.8583 7.96789 18.9541 8.19557 19.0266 8.43108C19.0572 8.52506 19.1168 8.60694 19.1968 8.66503C19.2767 8.72312 19.373 8.75444 19.4719 8.75452H21.0938V10.6295Z" />
<path d="M17.8125 9.69202C17.8125 9.13576 17.6475 8.59199 17.3385 8.12948C17.0295 7.66696 16.5902 7.30648 16.0763 7.09361C15.5624 6.88073 14.9969 6.82504 14.4513 6.93356C13.9057 7.04208 13.4046 7.30994 13.0113 7.70328C12.6179 8.09661 12.3501 8.59775 12.2415 9.14333C12.133 9.6889 12.1887 10.2544 12.4016 10.7683C12.6145 11.2822 12.9749 11.7215 13.4375 12.0305C13.9 12.3396 14.4437 12.5045 15 12.5045C15.7457 12.5038 16.4606 12.2072 16.9879 11.6799C17.5152 11.1526 17.8117 10.4377 17.8125 9.69202ZM13.125 9.69202C13.125 9.32118 13.235 8.95867 13.441 8.65032C13.647 8.34198 13.9399 8.10166 14.2825 7.95974C14.6251 7.81783 15.0021 7.7807 15.3658 7.85304C15.7295 7.92539 16.0636 8.10397 16.3258 8.36619C16.588 8.62842 16.7666 8.96251 16.839 9.32622C16.9113 9.68994 16.8742 10.0669 16.7323 10.4095C16.5904 10.7522 16.35 11.045 16.0417 11.251C15.7333 11.457 15.3708 11.567 15 11.567C14.5027 11.567 14.0258 11.3695 13.6742 11.0178C13.3225 10.6662 13.125 10.1893 13.125 9.69202Z" />
<path d="M25.7812 10.6295H24.8438C24.8438 8.01879 23.8066 5.515 21.9606 3.66893C20.1145 1.82287 17.6107 0.785767 15 0.785767C12.3893 0.785767 9.88548 1.82287 8.03942 3.66893C6.19336 5.515 5.15625 8.01879 5.15625 10.6295H4.21875C3.47283 10.6295 2.75746 10.9258 2.23001 11.4533C1.70257 11.9807 1.40625 12.6961 1.40625 13.442C1.40625 14.1879 1.70257 14.9033 2.23001 15.4308C2.75746 15.9582 3.47283 16.2545 4.21875 16.2545H6.5625C6.68682 16.2545 6.80605 16.2051 6.89396 16.1172C6.98186 16.0293 7.03125 15.9101 7.03125 15.7858V11.0983C7.03125 10.9739 6.98186 10.8547 6.89396 10.7668C6.80605 10.6789 6.68682 10.6295 6.5625 10.6295H6.09375C6.09375 8.26743 7.03208 6.00209 8.70233 4.33185C10.3726 2.6616 12.6379 1.72327 15 1.72327C17.3621 1.72327 19.6274 2.6616 21.2977 4.33185C22.9679 6.00209 23.9062 8.26743 23.9062 10.6295H23.4375C23.3132 10.6295 23.194 10.6789 23.106 10.7668C23.0181 10.8547 22.9688 10.9739 22.9688 11.0983V15.7858C22.9688 15.9101 23.0181 16.0293 23.106 16.1172C23.194 16.2051 23.3132 16.2545 23.4375 16.2545H23.9062V17.6608C23.9062 17.7851 23.8569 17.9043 23.769 17.9922C23.681 18.0801 23.5618 18.1295 23.4375 18.1295H20.0719C19.9746 17.8564 19.7955 17.6198 19.559 17.4521C19.3224 17.2843 19.04 17.1935 18.75 17.192H17.8125C17.4395 17.192 17.0819 17.3402 16.8181 17.6039C16.5544 17.8676 16.4062 18.2253 16.4062 18.5983C16.4062 18.9712 16.5544 19.3289 16.8181 19.5926C17.0819 19.8564 17.4395 20.0045 17.8125 20.0045H18.75C19.04 20.003 19.3224 19.9122 19.559 19.7445C19.7955 19.5767 19.9746 19.3402 20.0719 19.067H23.4375C23.8101 19.0659 24.1672 18.9174 24.4306 18.6539C24.6941 18.3904 24.8426 18.0334 24.8438 17.6608V16.2545H25.7812C26.5272 16.2545 27.2425 15.9582 27.77 15.4308C28.2974 14.9033 28.5938 14.1879 28.5938 13.442C28.5938 12.6961 28.2974 11.9807 27.77 11.4533C27.2425 10.9258 26.5272 10.6295 25.7812 10.6295ZM4.21875 15.317C3.72147 15.317 3.24456 15.1195 2.89292 14.7678C2.54129 14.4162 2.34375 13.9393 2.34375 13.442C2.34375 12.9447 2.54129 12.4678 2.89292 12.1162C3.24456 11.7646 3.72147 11.567 4.21875 11.567V15.317ZM6.09375 15.317H5.15625V11.567H6.09375V15.317ZM18.75 19.067H17.8125C17.6882 19.067 17.569 19.0176 17.481 18.9297C17.3931 18.8418 17.3438 18.7226 17.3438 18.5983C17.3438 18.4739 17.3931 18.3547 17.481 18.2668C17.569 18.1789 17.6882 18.1295 17.8125 18.1295H18.75C18.8743 18.1295 18.9935 18.1789 19.0815 18.2668C19.1694 18.3547 19.2188 18.4739 19.2188 18.5983C19.2188 18.7226 19.1694 18.8418 19.0815 18.9297C18.9935 19.0176 18.8743 19.067 18.75 19.067ZM24.8438 15.317H23.9062V11.567H24.8438V15.317ZM25.7812 15.317V11.567C26.2785 11.567 26.7554 11.7646 27.1071 12.1162C27.4587 12.4678 27.6562 12.9447 27.6562 13.442C27.6562 13.9393 27.4587 14.4162 27.1071 14.7678C26.7554 15.1195 26.2785 15.317 25.7812 15.317Z" />
</svg>
