<svg width="30" height="31" viewBox="0 0 30 31"  xmlns="http://www.w3.org/2000/svg">
<path d="M18.5 18.4294H17.95C17.7431 18.4298 17.5581 18.3008 17.487 18.1064C17.426 17.9464 17.3605 17.7899 17.29 17.6349C17.2024 17.4464 17.2424 17.2233 17.39 17.0769L17.782 16.6844C18.3639 16.0974 18.3629 15.1506 17.7795 14.5649L16.3665 13.1519C15.7801 12.5689 14.8329 12.5689 14.2465 13.1519L13.8545 13.5434C13.7079 13.6905 13.4851 13.7304 13.2965 13.6434C13.1415 13.5729 12.985 13.5074 12.8245 13.4434C12.6292 13.3729 12.4993 13.1871 12.5 12.9794V12.4294C12.5 11.601 11.8284 10.9294 11 10.9294H9C8.17156 10.9294 7.5 11.601 7.5 12.4294V12.9794C7.50037 13.1863 7.37131 13.3714 7.177 13.4424C7.017 13.5034 6.8605 13.5689 6.7055 13.6394C6.51694 13.7266 6.29406 13.6867 6.1475 13.5394L5.755 13.1474C5.16862 12.5648 4.22188 12.5648 3.6355 13.1474L2.2225 14.5649C1.6395 15.1514 1.6395 16.0985 2.2225 16.6849L2.614 17.0769C2.76163 17.2233 2.80163 17.4464 2.714 17.6349C2.6435 17.7899 2.578 17.9464 2.5165 18.1069C2.44494 18.3024 2.25812 18.4316 2.05 18.4294H1.5C0.671562 18.4294 0 19.101 0 19.9294V21.9294C0 22.7579 0.671562 23.4294 1.5 23.4294H2.05C2.25688 23.4291 2.44194 23.5581 2.513 23.7524C2.574 23.9124 2.6395 24.0689 2.71 24.2239C2.79763 24.4124 2.75762 24.6356 2.61 24.7819L2.218 25.1744C1.63538 25.7608 1.63538 26.7076 2.218 27.2939L3.631 28.7069C4.21744 29.2899 5.16456 29.2899 5.751 28.7069L6.143 28.3154C6.28963 28.1684 6.51244 28.1284 6.701 28.2154C6.856 28.2859 7.0125 28.3514 7.173 28.4154C7.36931 28.4852 7.50037 28.6711 7.5 28.8794V29.4294C7.5 30.2579 8.17156 30.9294 9 30.9294H11C11.8284 30.9294 12.5 30.2579 12.5 29.4294V28.8794C12.4996 28.6726 12.6287 28.4875 12.823 28.4164C12.983 28.3554 13.1395 28.2899 13.2945 28.2194C13.4831 28.1323 13.7059 28.1722 13.8525 28.3194L14.245 28.7114C14.8322 29.2931 15.7787 29.292 16.3645 28.7089L17.7775 27.2959C18.3605 26.7095 18.3605 25.7624 17.7775 25.1759L17.386 24.7839C17.2384 24.6376 17.1984 24.4144 17.286 24.2259C17.3565 24.0709 17.422 23.9144 17.486 23.7539C17.5566 23.5586 17.7423 23.4287 17.95 23.4294H18.5C19.3284 23.4294 20 22.7579 20 21.9294V19.9294C20 19.101 19.3284 18.4294 18.5 18.4294ZM19 21.9294C19 22.2056 18.7761 22.4294 18.5 22.4294H17.95C17.3284 22.4318 16.7722 22.8159 16.55 23.3964C16.497 23.5364 16.4397 23.6743 16.378 23.8099C16.1209 24.3774 16.2402 25.0447 16.678 25.4879L17.069 25.8794C17.2644 26.0746 17.2646 26.3912 17.0694 26.5866C17.0695 26.5864 17.0692 26.5867 17.0694 26.5866L15.656 27.9999C15.4608 28.1951 15.1442 28.1951 14.949 27.9999L14.557 27.6084C14.1139 27.1703 13.4464 27.0509 12.879 27.3084C12.7435 27.3699 12.6055 27.4274 12.4665 27.4804C11.8864 27.7026 11.5025 28.2583 11.5 28.8794V29.4294C11.5 29.7056 11.2761 29.9294 11 29.9294H9C8.72388 29.9294 8.5 29.7056 8.5 29.4294V28.8794C8.49769 28.2579 8.1135 27.7016 7.533 27.4794C7.393 27.4264 7.25519 27.3691 7.1195 27.3074C6.552 27.0505 5.88481 27.1698 5.4415 27.6074L5.05 27.9984C4.85488 28.1938 4.53825 28.194 4.34288 27.9988C4.343 27.9989 4.34275 27.9987 4.34288 27.9988L2.9295 26.5869C2.73431 26.3917 2.73431 26.0752 2.9295 25.8799L3.321 25.4879C3.75881 25.0447 3.87806 24.3774 3.621 23.8099C3.5595 23.6744 3.502 23.5364 3.449 23.3974C3.22737 22.8168 2.6715 22.4322 2.05 22.4294H1.5C1.22388 22.4294 1 22.2056 1 21.9294V19.9294C1 19.6533 1.22388 19.4294 1.5 19.4294H2.05C2.67156 19.4271 3.22781 19.0429 3.45 18.4624C3.503 18.3224 3.56031 18.1846 3.622 18.0489C3.87906 17.4814 3.75975 16.8142 3.322 16.3709L2.929 15.9794C2.73362 15.7843 2.73344 15.4677 2.92863 15.2723C2.9285 15.2724 2.92875 15.2722 2.92863 15.2723L4.342 13.8589C4.53725 13.6638 4.85375 13.6638 5.049 13.8589L5.441 14.2504C5.88406 14.6886 6.55156 14.8079 7.119 14.5504C7.2545 14.4889 7.3925 14.4314 7.5315 14.3784C8.11238 14.157 8.49719 13.6011 8.5 12.9794V12.4294C8.5 12.1533 8.72388 11.9294 9 11.9294H11C11.2761 11.9294 11.5 12.1533 11.5 12.4294V12.9794C11.5023 13.601 11.8865 14.1573 12.467 14.3794C12.607 14.4324 12.7448 14.4898 12.8805 14.5514C13.4479 14.8089 14.1154 14.6896 14.5585 14.2514L14.95 13.8604C15.146 13.6666 15.4615 13.6666 15.6575 13.8604L17.0705 15.2734C17.2657 15.4687 17.2657 15.7852 17.0705 15.9804L16.679 16.3724C16.2413 16.8157 16.1219 17.4829 16.379 18.0504C16.4405 18.1859 16.498 18.3239 16.551 18.4629C16.7731 19.043 17.3289 19.4269 17.95 19.4294H18.5C18.7761 19.4294 19 19.6533 19 19.9294V21.9294Z" />
<path d="M14.49 20.7294C14.485 20.6094 14.4765 20.4899 14.462 20.3709C14.446 20.2429 14.427 20.1159 14.4005 19.9914C14.383 19.9099 14.36 19.8294 14.338 19.7484C14.31 19.6454 14.2785 19.5439 14.2435 19.4439C14.219 19.3744 14.1935 19.3054 14.1675 19.2369C14.1032 19.0768 14.0295 18.9205 13.947 18.7689C13.9405 18.7574 13.9365 18.7449 13.93 18.7334C13.8 18.5019 13.6493 18.2825 13.48 18.0779C13.4655 18.0599 13.449 18.0429 13.434 18.0254C13.365 17.9439 13.294 17.8649 13.2195 17.7894C13.1805 17.7489 13.1395 17.7109 13.0985 17.6719C13.0485 17.6254 12.9985 17.5794 12.9485 17.5354C12.8878 17.4828 12.826 17.4318 12.763 17.3824L12.681 17.3214C11.9073 16.7419 10.9667 16.4289 10 16.4294C9.95003 16.4294 9.90003 16.4369 9.85003 16.4389C9.74353 16.4419 9.63653 16.4479 9.52903 16.4589C9.47253 16.4649 9.41553 16.4714 9.35903 16.4794C9.19603 16.5009 9.03428 16.5311 8.87453 16.5699C6.46697 17.1921 5.01959 19.6482 5.64172 22.0558C6.05172 23.6423 7.29122 24.8808 8.87803 25.2894C8.88603 25.2894 8.89453 25.2919 8.90303 25.2939C9.07572 25.337 9.25065 25.3704 9.42703 25.3939C9.54353 25.4084 9.66003 25.4114 9.77703 25.4169C9.85503 25.4209 9.92703 25.4324 10.0085 25.4324C10.151 25.4324 10.299 25.4229 10.45 25.4079C10.466 25.4079 10.482 25.4034 10.5 25.4014C10.6215 25.3879 10.7445 25.3699 10.87 25.3449C10.92 25.3354 10.9665 25.3229 11.0145 25.3119C11.1025 25.2914 11.19 25.2699 11.28 25.2434C11.35 25.2224 11.418 25.1979 11.4865 25.1739C11.555 25.1499 11.626 25.1239 11.697 25.0969C11.768 25.0699 11.8275 25.0389 11.892 25.0089C11.976 24.9704 12.0595 24.9324 12.142 24.8874H12.145C12.6117 24.6376 13.0427 24.3264 13.4265 23.9619C13.5302 23.8652 13.6204 23.7548 13.6945 23.6339C14.0848 23.0083 14.3412 22.3086 14.4475 21.5789C14.4615 21.4824 14.474 21.3859 14.4815 21.2874C14.4885 21.1969 14.4935 21.1069 14.4955 21.0169C14.4955 20.9884 14.4995 20.9614 14.4995 20.9329C14.5 20.8624 14.493 20.7974 14.49 20.7294ZM13.4935 21.0569C13.4935 21.0984 13.49 21.1399 13.4875 21.1809C13.4785 21.3019 13.463 21.4229 13.4425 21.5444C13.2557 22.584 12.6102 23.484 11.6855 23.9944C11.6235 24.0269 11.5625 24.0574 11.5015 24.0854L11.46 24.1054C11.1695 24.2373 10.8629 24.3301 10.548 24.3814C10.526 24.3849 10.5035 24.3889 10.481 24.3919C10.4185 24.4009 10.357 24.4084 10.296 24.4139C10.2155 24.4209 10.1345 24.4249 10.052 24.4264C10.017 24.4264 9.98253 24.4264 9.94753 24.4264C9.82922 24.4251 9.71109 24.4178 9.59353 24.4044L9.53353 24.3974C9.39603 24.3794 9.25965 24.3538 9.12503 24.3204C7.2524 23.8411 6.1229 21.9345 6.60215 20.0619C6.91884 18.8245 7.88447 17.8579 9.12153 17.5399C9.40878 17.4675 9.70378 17.43 10 17.4294C10.143 17.4303 10.2858 17.4399 10.4275 17.4584C10.4655 17.4629 10.503 17.4699 10.5405 17.4754C10.6485 17.4924 10.7555 17.5139 10.861 17.5409C10.8955 17.5499 10.93 17.5579 10.964 17.5674C11.2299 17.6442 11.4858 17.7519 11.7265 17.8884C11.765 17.9109 11.8025 17.9344 11.8405 17.9579C11.9195 18.0079 11.996 18.0579 12.0715 18.1149C12.112 18.1444 12.153 18.1734 12.192 18.2049C12.2902 18.2833 12.3841 18.3668 12.4735 18.4549C12.509 18.4909 12.5415 18.5304 12.576 18.5679C12.6335 18.6304 12.6895 18.6944 12.743 18.7619C12.78 18.8084 12.8155 18.8564 12.8505 18.9049C12.9005 18.9769 12.9505 19.0519 12.9955 19.1279C13.0205 19.1694 13.0455 19.2099 13.071 19.2524C13.1355 19.3711 13.193 19.4935 13.243 19.6189C13.263 19.6689 13.28 19.7189 13.298 19.7689C13.3305 19.8609 13.3585 19.9539 13.383 20.0479C13.3955 20.0979 13.4095 20.1424 13.42 20.1909C13.4492 20.3261 13.4704 20.4628 13.4835 20.6004C13.4865 20.6369 13.4865 20.6739 13.489 20.7104C13.496 20.8254 13.498 20.9409 13.4935 21.0569Z" />
<path d="M28.5 11.4294H26.9275C26.7178 11.4316 26.5303 11.2995 26.4615 11.1014C26.3065 10.637 26.1188 10.184 25.9 9.74594C25.8072 9.55676 25.8458 9.32932 25.996 9.18144L27.111 8.06494C27.6963 7.47926 27.6963 6.53013 27.111 5.94444L24.985 3.82194C24.3993 3.23669 23.4502 3.23669 22.8645 3.82194L21.75 4.93594C21.6023 5.08607 21.3752 5.12494 21.186 5.03244C20.7479 4.81251 20.2948 4.62388 19.83 4.46794C19.6312 4.39988 19.4982 4.21213 19.5 4.00194V2.42944C19.5 1.60101 18.8285 0.929443 18 0.929443H15C14.1716 0.929443 13.5 1.60101 13.5 2.42944V4.00194C13.5022 4.21163 13.3702 4.39919 13.172 4.46794C12.7075 4.62382 12.2545 4.81232 11.8165 5.03194C11.6273 5.12513 11.3998 5.08644 11.252 4.93594L10.1355 3.82094C9.54915 3.23738 8.6014 3.23738 8.01503 3.82094L5.89303 5.94294C5.30747 6.52869 5.30747 7.47819 5.89303 8.06394L7.53253 9.70644C7.73084 9.89857 8.0474 9.89357 8.23953 9.69519C8.42697 9.50169 8.4274 9.19444 8.24053 9.00044L6.60003 7.35844C6.40484 7.16319 6.40484 6.84669 6.60003 6.65144L8.72203 4.52944C8.91728 4.33426 9.23378 4.33426 9.42903 4.52944L10.546 5.64444C10.998 6.09907 11.6905 6.21269 12.264 5.92644C12.6601 5.72813 13.0696 5.55788 13.4895 5.41694C14.0957 5.21176 14.5027 4.64188 14.5 4.00194V2.42944C14.5 2.15332 14.7239 1.92944 15 1.92944H18C18.2762 1.92944 18.5 2.15332 18.5 2.42944V4.00194C18.4975 4.64176 18.9045 5.21144 19.5105 5.41644C19.9307 5.55744 20.3403 5.72782 20.7365 5.92644C21.3102 6.21119 22.0018 6.09744 22.454 5.64394L23.571 4.52944C23.7663 4.33426 24.0828 4.33426 24.278 4.52944L26.4 6.65194C26.5949 6.84713 26.5949 7.16326 26.4 7.35844L25.285 8.47544C24.8308 8.92763 24.7173 9.61982 25.003 10.1934C25.2013 10.5895 25.3716 10.999 25.5125 11.4189C25.7176 12.0252 26.2875 12.4322 26.9275 12.4294H28.5C28.7762 12.4294 29 12.6533 29 12.9294V15.9294C29 16.2056 28.7762 16.4294 28.5 16.4294H26.9275C26.2877 16.4269 25.718 16.8339 25.513 17.4399C25.3721 17.8601 25.2017 18.2698 25.003 18.6659C24.7178 19.2396 24.8316 19.9314 25.2855 20.3834L26.4005 21.5004C26.5957 21.6957 26.5957 22.0122 26.4005 22.2074L24.2775 24.3294C24.0823 24.5243 23.7662 24.5243 23.571 24.3294L21.928 22.6899C21.7359 22.4916 21.4193 22.4866 21.221 22.6787C21.0227 22.8708 21.0177 23.1874 21.2098 23.3857C21.2138 23.3898 21.2179 23.3939 21.222 23.3979L22.8645 25.0374C23.4502 25.6227 24.3993 25.6227 24.985 25.0374L27.107 22.9159C27.6926 22.3302 27.6926 21.3807 27.107 20.7949L25.9935 19.6794C25.8435 19.5317 25.8047 19.3046 25.897 19.1154C26.117 18.6773 26.3056 18.2242 26.4615 17.7594C26.5296 17.5606 26.7173 17.4276 26.9275 17.4294H28.5C29.3285 17.4294 30 16.7579 30 15.9294V12.9294C30 12.101 29.3285 11.4294 28.5 11.4294Z" />
<path d="M21.096 9.83345C18.5561 7.29888 14.4439 7.29888 11.904 9.83345C11.7122 10.0321 11.7177 10.3486 11.9163 10.5404C12.1101 10.7276 12.4173 10.7276 12.611 10.5404C14.7444 8.3782 18.2268 8.35488 20.389 10.4883C22.5513 12.6218 22.5746 16.1041 20.4411 18.2663C20.4239 18.2838 20.4065 18.3012 20.389 18.3184C20.1904 18.5103 20.1849 18.8268 20.3768 19.0254C20.5686 19.2241 20.8851 19.2296 21.0838 19.0377C21.0879 19.0337 21.092 19.0296 21.096 19.0254C23.6306 16.4856 23.6306 12.3733 21.096 9.83345Z" />
</svg>
