<svg width="47" height="35" viewBox="0 0 47 35" fill="none" xmlns="http://www.w3.org/2000/svg">
<path d="M45.1051 9.24947C43.9334 6.96131 42.2224 4.93433 40.1578 3.38766C39.7525 3.08415 39.1777 3.16587 38.8737 3.57024C38.5697 3.97452 38.6516 4.54819 39.0567 4.8516C53.1441 16.0217 40.5859 37.5233 23.9071 30.8136L25.0878 30.4454C25.5712 30.2945 25.8408 29.7812 25.6897 29.2987C25.5385 28.8162 25.0242 28.5473 24.5406 28.6982L21.2507 29.7243C20.7457 29.8823 20.4751 30.4547 20.6754 30.9441L22.1024 34.4305C22.2938 34.9031 22.8412 35.1215 23.2983 34.9317C23.7672 34.7406 23.992 34.2063 23.8006 33.7383L23.3144 32.5506C37.8235 38.7273 52.2714 23.2563 45.1051 9.24947Z" fill="#CC004C"/>
<path d="M21.8507 4.1822C21.8537 4.18027 21.8566 4.17844 21.8598 4.17652C24.8433 2.27706 28.4788 1.48967 31.9973 1.96659C33.206 2.08614 33.4381 0.353878 32.2404 0.152243C28.2978 -0.381939 24.2257 0.500455 20.8809 2.62848C20.7434 2.71377 19.0748 3.76445 17.5096 5.40923C17.345 3.77636 15.9599 2.49748 14.2811 2.49748H3.24502C1.45571 2.49738 0 3.95015 0 5.73573V28.9795C0 30.7651 1.45571 32.2179 3.24502 32.2179H14.2811C16.0704 32.2179 17.5261 30.7651 17.5261 28.9795V8.31567C19.0607 5.92848 21.8234 4.19914 21.8507 4.1822ZM15.6918 28.9795C15.6918 29.7557 15.059 30.3873 14.2811 30.3873H3.24502C2.46722 30.3873 1.83428 29.7558 1.83428 28.9795V5.73573C1.83428 4.95951 2.46713 4.32795 3.24502 4.32795H14.2811C15.0589 4.32795 15.6918 4.95951 15.6918 5.73573V28.9795Z" fill="#CC004C"/>
<path d="M9.27223 27.3687C8.56659 26.8995 7.63421 27.6008 7.88885 28.4049C8.00562 28.7735 8.35325 29.035 8.74082 29.0441C9.64924 29.0648 10.0281 27.8724 9.27223 27.3687Z" fill="#CC004C"/>
<path d="M11.0081 5.77668H6.51797C5.30239 5.82175 5.30331 7.56263 6.51797 7.60725H11.0082C12.2237 7.56218 12.2228 5.8212 11.0081 5.77668Z" fill="#CC004C"/>
<path d="M34.0984 16.304C34.1532 16.3135 35.4101 16.319 35.9696 16.3152C36.4001 16.3123 36.7469 15.9615 36.7438 15.5319C36.7411 15.1022 36.3889 14.7563 35.959 14.7593C35.6376 14.7615 35.2987 14.7631 35.0094 14.7639V9.55407C34.9775 8.52547 33.4819 8.5262 33.4503 9.55407V15.5373C33.4506 15.9162 33.7242 16.24 34.0984 16.304Z" fill="#CC004C"/>
<path d="M39.3343 16.304C39.3891 16.3135 40.6466 16.3191 41.2058 16.3153C41.6363 16.3124 41.983 15.9616 41.98 15.532C41.9773 15.1023 41.6251 14.7564 41.1952 14.7594C40.8739 14.7616 40.535 14.7632 40.2456 14.764V9.55416C40.2137 8.52556 38.7181 8.52629 38.6864 9.55416V15.5374C38.6865 15.9162 38.9601 16.2399 39.3343 16.304Z" fill="#CC004C"/>
<path d="M20.5701 10.3319V15.5422C20.602 16.5708 22.0976 16.5701 22.1292 15.5422V10.3319H23.0132C24.0439 10.3001 24.0432 8.80753 23.0132 8.77593H19.6995C18.6688 8.80781 18.6695 10.3003 19.6995 10.3319H20.5701Z" fill="#CC004C"/>
<path d="M31.9802 12.5482C31.9802 10.4683 30.2846 8.77602 28.2004 8.77602C23.1928 8.96565 23.1941 16.1314 28.2004 16.3203C30.2846 16.3203 31.9802 14.628 31.9802 12.5482ZM28.2004 14.7643C26.976 14.7643 25.9798 13.7702 25.9798 12.5482C26.0915 9.61215 30.3098 9.61297 30.4211 12.5482C30.4211 13.7702 29.4249 14.7643 28.2004 14.7643Z" fill="#CC004C"/>
<path d="M21.0445 25.7077V22.9248H22.878C23.9087 22.8929 23.908 21.4004 22.878 21.3688H21.0445V19.4963H23.1035C24.1342 19.4644 24.1334 17.9719 23.1035 17.9403H20.2649C19.8344 17.9403 19.4854 18.2887 19.4854 18.7182V25.7077C19.5172 26.7363 21.0129 26.7356 21.0445 25.7077Z" fill="#CC004C"/>
<path d="M34.7759 19.5025C35.8065 19.4706 35.8058 17.9781 34.7759 17.9465H32.3804C31.9499 17.9465 31.6009 18.2949 31.6009 18.7245V25.7012C31.6009 26.1308 31.95 26.4791 32.3804 26.4791H34.7758C35.8065 26.4473 35.8057 24.9547 34.7758 24.9231H33.16V22.9908H34.5586C35.5893 22.9589 35.5885 21.4664 34.5586 21.4348H33.16V19.5025H34.7759Z" fill="#CC004C"/>
<path d="M36.9278 25.7013C36.9278 26.1309 37.2769 26.4792 37.7073 26.4792H40.1027C41.1334 26.4473 41.1326 24.9548 40.1027 24.9232H38.4869V22.9909H39.8855C40.9162 22.959 40.9155 21.4665 39.8855 21.4349H38.4869V19.5025H40.1027C41.1334 19.4706 41.1326 17.9781 40.1027 17.9465H37.7074C37.2769 17.9465 36.9279 18.2949 36.9279 18.7245L36.9278 25.7013Z" fill="#CC004C"/>
<path d="M30.1234 20.5223C30.1234 19.0843 28.9046 17.9145 27.4064 17.9145H25.9902C25.5589 17.9132 25.2084 18.262 25.2085 18.6924V25.7334C25.2431 26.7607 26.7313 26.7653 26.7676 25.7334V23.9897L28.7587 26.2474C29.0396 26.5659 29.5397 26.5978 29.859 26.3174C30.1821 26.0335 30.2135 25.5419 29.9291 25.2194L28.0256 23.061C29.2261 22.7913 30.1234 21.7559 30.1234 20.5223ZM27.4064 21.5742C27.2242 21.5742 26.9968 21.5752 26.7782 21.5765C26.7762 21.1944 26.773 19.8708 26.772 19.4705H27.4064C28.034 19.4705 28.5642 19.9521 28.5642 20.5224C28.5642 21.0925 28.034 21.5742 27.4064 21.5742Z" fill="#CC004C"/>
<path d="M35.2849 2.48777C35.4744 2.94903 36.0224 3.17366 36.4828 2.98293C37.5828 2.46569 36.9245 0.881921 35.7812 1.29243C35.3207 1.48316 35.0929 2.02761 35.2849 2.48777Z" fill="#CC004C"/>
</svg>
