<svg width="32" height="31" viewBox="0 0 32 31" fill="none" xmlns="http://www.w3.org/2000/svg">
<path d="M23.5349 25.4107H22.2016V18.8773C22.2016 18.7005 22.1313 18.531 22.0063 18.4059C21.8813 18.2809 21.7117 18.2107 21.5349 18.2107C21.3581 18.2107 21.1885 18.2809 21.0635 18.4059C20.9385 18.531 20.8682 18.7005 20.8682 18.8773V25.4107H3.5349V12.0773H9.08157C9.25838 12.0773 9.42795 12.0071 9.55297 11.8821C9.678 11.7571 9.74824 11.5875 9.74824 11.4107C9.74824 11.2339 9.678 11.0643 9.55297 10.9393C9.42795 10.8142 9.25838 10.744 9.08157 10.744H2.86824C2.69142 10.744 2.52186 10.8142 2.39683 10.9393C2.27181 11.0643 2.20157 11.2339 2.20157 11.4107V25.4107H0.868235C0.691424 25.4107 0.521855 25.4809 0.396831 25.6059C0.271806 25.731 0.201569 25.9005 0.201569 26.0773V27.4107C0.201569 28.2947 0.552758 29.1426 1.17788 29.7677C1.803 30.3928 2.65085 30.744 3.5349 30.744H20.8682C21.7523 30.744 22.6001 30.3928 23.2253 29.7677C23.8504 29.1426 24.2016 28.2947 24.2016 27.4107V26.0773C24.2016 25.9005 24.1313 25.731 24.0063 25.6059C23.8813 25.4809 23.7117 25.4107 23.5349 25.4107ZM22.8682 27.4107C22.8682 27.9411 22.6575 28.4498 22.2824 28.8249C21.9074 29.2 21.3987 29.4107 20.8682 29.4107H19.5349V28.744C19.5349 28.5672 19.4647 28.3976 19.3396 28.2726C19.2146 28.1476 19.045 28.0773 18.8682 28.0773C18.6914 28.0773 18.5219 28.1476 18.3968 28.2726C18.2718 28.3976 18.2016 28.5672 18.2016 28.744V29.4107H6.20157V28.744C6.20157 28.5672 6.13133 28.3976 6.00631 28.2726C5.88128 28.1476 5.71171 28.0773 5.5349 28.0773C5.35809 28.0773 5.18852 28.1476 5.0635 28.2726C4.93847 28.3976 4.86824 28.5672 4.86824 28.744V29.4107H3.5349C3.00447 29.4107 2.49576 29.2 2.12069 28.8249C1.74562 28.4498 1.5349 27.9411 1.5349 27.4107V26.744H22.8682V27.4107Z" fill="#3C8BE1"/>
<path d="M23.5349 4.74401C23.6384 4.74401 23.7405 4.71991 23.833 4.67362C23.9256 4.62734 24.0061 4.56014 24.0682 4.47734L26.0682 1.81067C26.1743 1.66922 26.2199 1.49143 26.1949 1.31639C26.1699 1.14136 26.0764 0.983427 25.9349 0.87734C25.7935 0.771254 25.6157 0.725701 25.4406 0.750706C25.2656 0.775711 25.1077 0.869224 25.0016 1.01067L23.0016 3.67734C22.8955 3.81879 22.8499 3.99659 22.8749 4.17162C22.8999 4.34666 22.9935 4.50459 23.1349 4.61067C23.2503 4.69722 23.3907 4.74401 23.5349 4.74401Z" fill="#3C8BE1"/>
<path d="M25.0016 7.14401C25.0637 7.2268 25.1442 7.294 25.2368 7.34029C25.3293 7.38658 25.4314 7.41067 25.5349 7.41067C25.6791 7.41067 25.8195 7.36389 25.9349 7.27734L28.6016 5.27734C28.743 5.17125 28.8365 5.01332 28.8615 4.83829C28.8865 4.66325 28.841 4.48545 28.7349 4.344C28.6288 4.20256 28.4709 4.10904 28.2958 4.08404C28.1208 4.05903 27.943 4.10459 27.8016 4.21067L25.1349 6.21067C24.9935 6.31676 24.8999 6.47469 24.8749 6.64972C24.8499 6.82476 24.8955 7.00256 25.0016 7.14401Z" fill="#3C8BE1"/>
<path d="M31.5349 8.61067C31.5191 8.52228 31.4855 8.43801 31.4363 8.36291C31.3871 8.2878 31.3232 8.22342 31.2485 8.17361C31.1738 8.1238 31.0898 8.0896 31.0015 8.07305C30.9133 8.05651 30.8226 8.05797 30.7349 8.07733L27.4016 8.744C27.314 8.75276 27.2291 8.77867 27.1515 8.82026C27.074 8.86185 27.0054 8.91831 26.9497 8.9864C26.8372 9.12393 26.7839 9.30052 26.8016 9.47733C26.8193 9.65415 26.9065 9.81669 27.044 9.92921C27.1815 10.0417 27.3581 10.095 27.5349 10.0773H27.6682L31.0016 9.41067C31.09 9.39482 31.1742 9.36129 31.2493 9.31207C31.3244 9.26286 31.3888 9.19897 31.4386 9.12426C31.4884 9.04955 31.5227 8.96555 31.5392 8.87729C31.5557 8.78904 31.5543 8.69835 31.5349 8.61067Z" fill="#3C8BE1"/>
<path d="M6.20156 4.74401H3.53489C3.35808 4.74401 3.18851 4.81424 3.06349 4.93927C2.93846 5.06429 2.86823 5.23386 2.86823 5.41067C2.86823 5.58748 2.93846 5.75705 3.06349 5.88208C3.18851 6.0071 3.35808 6.07734 3.53489 6.07734H6.20156C6.37837 6.07734 6.54794 6.0071 6.67296 5.88208C6.79799 5.75705 6.86823 5.58748 6.86823 5.41067C6.86823 5.23386 6.79799 5.06429 6.67296 4.93927C6.54794 4.81424 6.37837 4.74401 6.20156 4.74401Z" fill="#3C8BE1"/>
<path d="M22.9482 8.544C22.9044 8.46783 22.8461 8.40103 22.7765 8.34742C22.7069 8.2938 22.6274 8.25441 22.5426 8.23151C22.4578 8.2086 22.3693 8.20263 22.2822 8.21392C22.1951 8.22521 22.111 8.25356 22.0349 8.29733C21.9587 8.34111 21.8919 8.39945 21.8383 8.46904C21.7847 8.53863 21.7453 8.6181 21.7224 8.70291C21.6995 8.78772 21.6935 8.87621 21.7048 8.96333C21.7161 9.05045 21.7444 9.1345 21.7882 9.21067L24.7282 14.2973L14.0615 18.2973C14.0615 18.2973 14.0615 18.2973 14.0149 18.2973H13.9615L11.0749 19.964C10.923 20.0518 10.7554 20.1087 10.5815 20.1316C10.4076 20.1545 10.2309 20.1428 10.0616 20.0973C9.72128 20.0054 9.43125 19.7825 9.25488 19.4773L7.92155 17.1707C7.76469 16.8689 7.72909 16.5185 7.82203 16.1914C7.91498 15.8642 8.12945 15.5849 8.42155 15.4107L10.7282 14.0773L12.3949 16.964C12.4536 17.0657 12.5382 17.1501 12.64 17.2087C12.7419 17.2672 12.8574 17.2978 12.9749 17.2973C13.0921 17.2978 13.2074 17.2673 13.3091 17.209C13.4109 17.1507 13.4954 17.0666 13.5542 16.9651C13.613 16.8637 13.6441 16.7486 13.6442 16.6313C13.6443 16.5141 13.6135 16.3989 13.5549 16.2973L11.8349 13.324L20.2015 6.424L20.4749 6.89733C20.5187 6.9735 20.577 7.0403 20.6466 7.09391C20.7162 7.14753 20.7957 7.18692 20.8805 7.20982C20.9653 7.23273 21.0538 7.2387 21.1409 7.22741C21.228 7.21612 21.312 7.18777 21.3882 7.144C21.4644 7.10022 21.5312 7.04188 21.5848 6.97229C21.6384 6.9027 21.6778 6.82323 21.7007 6.73842C21.7236 6.65361 21.7296 6.56511 21.7183 6.47799C21.707 6.39087 21.6787 6.30683 21.6349 6.23066L20.9682 5.07733C20.9194 4.9938 20.8529 4.92191 20.7735 4.86665C20.694 4.8114 20.6035 4.77409 20.5082 4.75733C20.4124 4.73927 20.3138 4.74245 20.2193 4.76664C20.1249 4.79083 20.0369 4.83544 19.9615 4.89733L10.6282 12.5907L7.78822 14.2307C7.27856 14.5275 6.8817 14.985 6.65974 15.5314C6.43778 16.0779 6.40325 16.6825 6.56155 17.2507L5.89488 17.6307C5.55139 17.8279 5.2742 18.1227 5.09846 18.4777C4.92273 18.8327 4.85636 19.2319 4.90778 19.6246C4.95919 20.0174 5.12607 20.386 5.38726 20.6838C5.64845 20.9816 5.99219 21.1951 6.37488 21.2973C6.54454 21.3423 6.71937 21.3647 6.89488 21.364C7.2456 21.3625 7.59001 21.2707 7.89488 21.0973L8.56155 20.7173C8.8818 21.0482 9.28455 21.2875 9.72822 21.4107C9.95603 21.4744 10.1917 21.5058 10.4282 21.504C10.8968 21.5051 11.3572 21.3808 11.7615 21.144L12.3415 20.8107L13.6749 23.124C13.9399 23.5821 14.3756 23.9165 14.8867 24.054C15.3978 24.1915 15.9425 24.1207 16.4015 23.8573C16.6293 23.7261 16.8289 23.5513 16.989 23.3429C17.1492 23.1345 17.2666 22.8965 17.3348 22.6427C17.4029 22.3888 17.4203 22.124 17.386 21.8634C17.3517 21.6029 17.2664 21.3516 17.1349 21.124L15.9215 19.0107L25.9215 15.2573C26.0122 15.2232 26.0944 15.1698 26.1623 15.1007C26.2303 15.0316 26.2823 14.9486 26.3149 14.8573C26.3473 14.7672 26.36 14.6711 26.3519 14.5756C26.3438 14.4801 26.3153 14.3875 26.2682 14.304L22.9482 8.544ZM7.20155 19.9373C7.12563 19.9812 7.0418 20.0097 6.95486 20.0211C6.86791 20.0326 6.77957 20.0268 6.69488 20.004C6.52408 19.9596 6.37784 19.8493 6.28822 19.6973C6.24433 19.6214 6.21585 19.5376 6.20441 19.4506C6.19297 19.3637 6.19879 19.2754 6.22155 19.1907C6.24431 19.1055 6.28372 19.0258 6.3375 18.956C6.39128 18.8862 6.45837 18.8277 6.53488 18.784L7.11488 18.4507L7.78155 19.604L7.20155 19.9373ZM15.9749 21.804C16.0188 21.8799 16.0473 21.9637 16.0587 22.0507C16.0701 22.1376 16.0643 22.226 16.0415 22.3107C15.994 22.4801 15.8814 22.6239 15.7282 22.7107C15.5759 22.7981 15.3953 22.822 15.2255 22.7771C15.0558 22.7321 14.9106 22.622 14.8215 22.4707L13.4882 20.1573L14.5949 19.524H14.6482L15.9749 21.804Z" fill="#3C8BE1"/>
</svg>
