<svg width="29" height="29" viewBox="0 0 29 29" fill="none" xmlns="http://www.w3.org/2000/svg">
<path d="M24.1009 0.53981H28.1009V4.53981H24.1009V0.53981Z" fill="#F37021"/>
<path d="M24.1009 6.53981H28.1009V10.5398H24.1009V6.53981Z" fill="#F37021"/>
<path d="M18.1009 0.53981H22.1009V4.53981H18.1009V0.53981Z" fill="#F37021"/>
<path d="M18.1009 6.53981H22.1009V10.5398H18.1009V6.53981Z" fill="#F37021"/>
<path d="M23.1009 28.5398H22.9309C3.28093 27.4098 0.490927 10.8298 0.100927 5.76981C0.0399727 4.97656 0.29661 4.19158 0.814389 3.58753C1.33217 2.98349 2.06868 2.60985 2.86193 2.54881C2.94126 2.54281 3.02093 2.53981 3.10093 2.53981H8.37093C8.77148 2.53942 9.16293 2.65932 9.49456 2.88397C9.82619 3.10862 10.0827 3.42768 10.2309 3.79981L11.7509 7.53981C11.8973 7.90336 11.9336 8.30189 11.8554 8.6859C11.7771 9.06991 11.5878 9.42248 11.3109 9.69981L9.18093 11.8498C9.51229 13.7411 10.4173 15.4848 11.7733 16.8443C13.1292 18.2039 14.8705 19.1135 16.7609 19.4498L18.9309 17.2998C19.2124 17.026 19.5683 16.8411 19.9542 16.7682C20.3401 16.6952 20.7389 16.7376 21.1009 16.8898L24.8709 18.3998C25.2374 18.5527 25.5502 18.8112 25.7692 19.1425C25.9883 19.4737 26.1037 19.8627 26.1009 20.2598V25.5398C26.1009 26.3355 25.7849 27.0985 25.2222 27.6611C24.6596 28.2237 23.8966 28.5398 23.1009 28.5398ZM3.10093 4.53981C2.9696 4.53942 2.83949 4.56489 2.71801 4.61478C2.59654 4.66467 2.48608 4.738 2.39294 4.83058C2.2998 4.92316 2.22581 5.03318 2.17519 5.15436C2.12458 5.27553 2.09832 5.40549 2.09793 5.53681C2.09793 5.56481 2.09793 5.59181 2.10093 5.61981C2.56093 11.5398 5.51093 25.5398 23.0409 26.5398C23.3056 26.5557 23.5657 26.4658 23.7641 26.2899C23.9625 26.114 24.083 25.8665 24.0989 25.6018L24.1009 25.5398V20.2598L20.3309 18.7498L17.4609 21.5998L16.9809 21.5398C8.28093 20.4498 7.10093 11.7498 7.10093 11.6598L7.04093 11.1798L9.88093 8.30981L8.38093 4.53981H3.10093Z" fill="#F37021"/>
</svg>
