<svg width="33" height="35" viewBox="0 0 33 35" fill="none" xmlns="http://www.w3.org/2000/svg">
<path d="M22.7842 5.81328H0.544555C0.40013 5.81328 0.26162 5.75566 0.159496 5.6531C0.0573725 5.55055 0 5.41145 0 5.26641V2.73437C0 2.00917 0.286863 1.31367 0.797482 0.80088C1.3081 0.288085 2.00065 0 2.72277 0H20.606C21.3281 0 22.0206 0.288085 22.5312 0.80088C23.0419 1.31367 23.3287 2.00917 23.3287 2.73437V5.26641C23.3287 5.41145 23.2714 5.55055 23.1692 5.6531C23.0671 5.75566 22.9286 5.81328 22.7842 5.81328ZM1.08911 4.71953H22.2396V2.73437C22.2396 2.29925 22.0675 1.88195 21.7611 1.57428C21.4548 1.2666 21.0392 1.09375 20.606 1.09375H2.72277C2.2895 1.09375 1.87397 1.2666 1.5676 1.57428C1.26123 1.88195 1.08911 2.29925 1.08911 2.73437V4.71953Z" fill="#FCB711"/>
<path d="M20.606 35H2.72277C2.00065 35 1.3081 34.7119 0.797482 34.1991C0.286863 33.6863 0 32.9908 0 32.2656V29.7336C0 29.5885 0.0573725 29.4494 0.159496 29.3469C0.26162 29.2443 0.40013 29.1867 0.544555 29.1867H22.7842C22.9286 29.1867 23.0671 29.2443 23.1692 29.3469C23.2714 29.4494 23.3287 29.5885 23.3287 29.7336V32.2656C23.3287 32.9908 23.0419 33.6863 22.5312 34.1991C22.0206 34.7119 21.3281 35 20.606 35ZM1.08911 30.2805V32.2656C1.08911 32.7007 1.26123 33.118 1.5676 33.4257C1.87397 33.7334 2.2895 33.9062 2.72277 33.9062H20.606C21.0392 33.9062 21.4548 33.7334 21.7611 33.4257C22.0675 33.118 22.2396 32.7007 22.2396 32.2656V30.2805H1.08911Z" fill="#FCB711"/>
<path d="M22.7842 30.2859H0.544555C0.40013 30.2859 0.26162 30.2283 0.159496 30.1258C0.0573725 30.0232 0 29.8841 0 29.7391V5.26641C0 5.12137 0.0573725 4.98226 0.159496 4.8797C0.26162 4.77714 0.40013 4.71952 0.544555 4.71952H22.7842C22.9286 4.71952 23.0671 4.77714 23.1692 4.8797C23.2714 4.98226 23.3287 5.12137 23.3287 5.26641V9.18202C23.3287 9.32706 23.2714 9.46616 23.1692 9.56872C23.0671 9.67128 22.9286 9.7289 22.7842 9.7289C22.6397 9.7289 22.5012 9.67128 22.3991 9.56872C22.297 9.46616 22.2396 9.32706 22.2396 9.18202V5.81327H1.08911V29.1922H22.2396V21.3281C22.2396 21.1831 22.297 21.044 22.3991 20.9414C22.5012 20.8389 22.6397 20.7812 22.7842 20.7812C22.9286 20.7812 23.0671 20.8389 23.1692 20.9414C23.2714 21.044 23.3287 21.1831 23.3287 21.3281V29.7391C23.3287 29.8841 23.2714 30.0232 23.1692 30.1258C23.0671 30.2283 22.9286 30.2859 22.7842 30.2859Z" fill="#FCB711"/>
<path d="M13.7772 3.45078H9.55693C9.41251 3.45078 9.274 3.39316 9.17187 3.2906C9.06975 3.18804 9.01238 3.04894 9.01238 2.9039C9.01238 2.75886 9.06975 2.61976 9.17187 2.5172C9.274 2.41464 9.41251 2.35703 9.55693 2.35703H13.7772C13.9217 2.35703 14.0602 2.41464 14.1623 2.5172C14.2644 2.61976 14.3218 2.75886 14.3218 2.9039C14.3218 3.04894 14.2644 3.18804 14.1623 3.2906C14.0602 3.39316 13.9217 3.45078 13.7772 3.45078Z" fill="#FCB711"/>
<path d="M12.051 32.6375H11.2777C11.1333 32.6375 10.9948 32.5799 10.8926 32.4773C10.7905 32.3748 10.7331 32.2357 10.7331 32.0906C10.7331 31.9456 10.7905 31.8065 10.8926 31.7039C10.9948 31.6014 11.1333 31.5437 11.2777 31.5437H12.051C12.1954 31.5437 12.3339 31.6014 12.436 31.7039C12.5381 31.8065 12.5955 31.9456 12.5955 32.0906C12.5955 32.2357 12.5381 32.3748 12.436 32.4773C12.3339 32.5799 12.1954 32.6375 12.051 32.6375Z" fill="#FCB711"/>
<path d="M14.8663 25.3695C14.5852 25.3759 14.3071 25.3093 14.059 25.1762C13.811 25.043 13.6014 24.8478 13.4505 24.6094L11.9312 22.1266C11.8821 22.0477 11.8139 21.9828 11.7329 21.9378C11.6519 21.8928 11.5609 21.8693 11.4683 21.8695H10.6951C9.94593 21.8681 9.2279 21.5686 8.69819 21.0366C8.16848 20.5047 7.87026 19.7836 7.86882 19.0312V11.4844C7.87026 10.7321 8.16848 10.011 8.69819 9.479C9.2279 8.94703 9.94593 8.64754 10.6951 8.64609H25.6431C25.7875 8.64609 25.926 8.70371 26.0281 8.80627C26.1303 8.90883 26.1876 9.04793 26.1876 9.19297C26.1876 9.33801 26.1303 9.47711 26.0281 9.57967C25.926 9.68223 25.7875 9.73984 25.6431 9.73984H10.6951C10.2343 9.73984 9.79249 9.92364 9.46672 10.2508C9.14094 10.578 8.95793 11.0217 8.95793 11.4844V19.0148C8.95504 19.2458 8.99785 19.475 9.08385 19.6892C9.16986 19.9034 9.29736 20.0983 9.45895 20.2626C9.62055 20.4269 9.81302 20.5574 10.0252 20.6464C10.2374 20.7354 10.4651 20.7813 10.6951 20.7812H11.4683C11.7479 20.7809 12.0229 20.8526 12.267 20.9896C12.5111 21.1265 12.7161 21.324 12.8624 21.5633L14.3762 24.0352C14.4273 24.1137 14.4966 24.1786 14.5782 24.2243C14.6598 24.2701 14.7512 24.2952 14.8446 24.2977C14.9367 24.2963 15.027 24.2716 15.107 24.2257C15.187 24.1797 15.2541 24.1142 15.302 24.0352L16.8159 21.5578C16.9623 21.3204 17.1668 21.1244 17.4098 20.9885C17.6528 20.8526 17.9263 20.7813 18.2045 20.7812H25.7847C26.2454 20.7812 26.6872 20.5974 27.013 20.2703C27.3388 19.9431 27.5218 19.4994 27.5218 19.0367V12.4742C27.5218 12.3292 27.5792 12.1901 27.6813 12.0875C27.7834 11.985 27.9219 11.9273 28.0664 11.9273C28.2108 11.9273 28.3493 11.985 28.4514 12.0875C28.5535 12.1901 28.6109 12.3292 28.6109 12.4742V19.0367C28.6109 19.7895 28.3131 20.5114 27.7831 21.0437C27.2531 21.576 26.5342 21.875 25.7847 21.875H18.2045C18.1128 21.8757 18.0229 21.8997 17.9429 21.9446C17.863 21.9895 17.7956 22.054 17.747 22.132L16.2332 24.6094C16.0867 24.8407 15.8849 25.0314 15.6461 25.1642C15.4074 25.297 15.1393 25.3676 14.8663 25.3695Z" fill="#FCB711"/>
<path d="M23.3614 12.9172H13.1183C12.9739 12.9172 12.8354 12.8596 12.7333 12.757C12.6311 12.6545 12.5738 12.5154 12.5738 12.3703C12.5738 12.2253 12.6311 12.0862 12.7333 11.9836C12.8354 11.8811 12.9739 11.8234 13.1183 11.8234H23.3614C23.5058 11.8234 23.6443 11.8811 23.7464 11.9836C23.8486 12.0862 23.9059 12.2253 23.9059 12.3703C23.9059 12.5154 23.8486 12.6545 23.7464 12.757C23.6443 12.8596 23.5058 12.9172 23.3614 12.9172Z" fill="#FCB711"/>
<path d="M25.3 15.7883H11.1851C11.0407 15.7883 10.9022 15.7307 10.8001 15.6281C10.698 15.5255 10.6406 15.3864 10.6406 15.2414C10.6406 15.0964 10.698 14.9573 10.8001 14.8547C10.9022 14.7521 11.0407 14.6945 11.1851 14.6945H25.3C25.4444 14.6945 25.5829 14.7521 25.6851 14.8547C25.7872 14.9573 25.8445 15.0964 25.8445 15.2414C25.8445 15.3864 25.7872 15.5255 25.6851 15.6281C25.5829 15.7307 25.4444 15.7883 25.3 15.7883Z" fill="#FCB711"/>
<path d="M23.3614 18.6594H13.1183C12.9739 18.6594 12.8354 18.6017 12.7333 18.4992C12.6311 18.3966 12.5738 18.2575 12.5738 18.1125C12.5738 17.9675 12.6311 17.8284 12.7333 17.7258C12.8354 17.6232 12.9739 17.5656 13.1183 17.5656H23.3614C23.5058 17.5656 23.6443 17.6232 23.7464 17.7258C23.8486 17.8284 23.9059 17.9675 23.9059 18.1125C23.9059 18.2575 23.8486 18.3966 23.7464 18.4992C23.6443 18.6017 23.5058 18.6594 23.3614 18.6594Z" fill="#FCB711"/>
<path d="M29.052 13.125C28.2696 13.1261 27.5045 12.894 26.8535 12.4582C26.2025 12.0223 25.695 11.4023 25.3951 10.6766C25.0951 9.95088 25.0164 9.15213 25.1688 8.38145C25.3211 7.61078 25.6978 6.90284 26.251 6.34725C26.8042 5.79166 27.5092 5.41342 28.2766 5.26039C29.044 5.10737 29.8393 5.18646 30.562 5.48764C31.2846 5.78882 31.902 6.29855 32.336 6.95231C32.77 7.60606 33.0011 8.37443 33 9.16015C32.9986 10.2112 32.5821 11.2189 31.8421 11.9621C31.102 12.7054 30.0986 13.1235 29.052 13.125ZM29.052 6.28359C28.4852 6.2825 27.9309 6.45029 27.4591 6.76571C26.9874 7.08114 26.6194 7.53002 26.4018 8.05554C26.1841 8.58107 26.1266 9.15962 26.2366 9.71798C26.3465 10.2763 26.6188 10.7894 27.0192 11.1922C27.4196 11.5951 27.9299 11.8696 28.4857 11.981C29.0415 12.0925 29.6177 12.0358 30.1414 11.8183C30.6651 11.6007 31.1128 11.232 31.4278 10.7588C31.7428 10.2857 31.9109 9.72931 31.9109 9.16015C31.9037 8.40243 31.5997 7.67802 31.0646 7.14374C30.5296 6.60946 29.8065 6.3083 29.052 6.30546V6.28359Z" fill="#FCB711"/>
</svg>
