<svg width="17" height="12" viewBox="0 0 17 12" fill="none" xmlns="http://www.w3.org/2000/svg">
<path d="M16.1201 6.44519C16.1201 6.44519 13.1201 0.94519 8.12006 0.94519C3.12006 0.94519 0.120056 6.44519 0.120056 6.44519C0.120056 6.44519 3.12006 11.9452 8.12006 11.9452C13.1201 11.9452 16.1201 6.44519 16.1201 6.44519ZM1.29306 6.44519C1.77657 5.71031 2.3327 5.02588 2.95306 4.40219C4.24006 3.11319 6.00006 1.94519 8.12006 1.94519C10.2401 1.94519 11.9991 3.11319 13.2881 4.40219C13.9084 5.02588 14.4645 5.71031 14.9481 6.44519C14.8901 6.53219 14.8261 6.62819 14.7531 6.73319C14.4181 7.21319 13.9231 7.85319 13.2881 8.48819C11.9991 9.77719 10.2391 10.9452 8.12006 10.9452C6.00006 10.9452 4.24106 9.77719 2.95206 8.48819C2.3317 7.8645 1.77658 7.18006 1.29306 6.44519Z" fill="#3C8BE1"/>
<path d="M8.12006 3.94519C7.45702 3.94519 6.82113 4.20858 6.35229 4.67742C5.88345 5.14626 5.62006 5.78215 5.62006 6.44519C5.62006 7.10823 5.88345 7.74412 6.35229 8.21296C6.82113 8.6818 7.45702 8.94519 8.12006 8.94519C8.7831 8.94519 9.41898 8.6818 9.88782 8.21296C10.3567 7.74412 10.6201 7.10823 10.6201 6.44519C10.6201 5.78215 10.3567 5.14626 9.88782 4.67742C9.41898 4.20858 8.7831 3.94519 8.12006 3.94519ZM4.62006 6.44519C4.62006 5.51693 4.98881 4.62669 5.64518 3.97032C6.30156 3.31394 7.1918 2.94519 8.12006 2.94519C9.04831 2.94519 9.93855 3.31394 10.5949 3.97032C11.2513 4.62669 11.6201 5.51693 11.6201 6.44519C11.6201 7.37345 11.2513 8.26369 10.5949 8.92006C9.93855 9.57644 9.04831 9.94519 8.12006 9.94519C7.1918 9.94519 6.30156 9.57644 5.64518 8.92006C4.98881 8.26369 4.62006 7.37345 4.62006 6.44519Z" fill="#3C8BE1"/>
</svg>
