<svg width="34" height="35" viewBox="0 0 34 35" fill="none" xmlns="http://www.w3.org/2000/svg">
<path d="M32.8844 12.0865C32.1698 10.4312 31.1474 8.94495 29.8454 7.66938C28.5433 6.39354 27.0266 5.3914 25.3373 4.69154C24.8206 4.47738 24.25 4.47311 23.7301 4.67979C23.2101 4.8862 22.8035 5.27899 22.585 5.785C22.134 6.83012 22.6346 8.04001 23.7012 8.48193C24.8898 8.97459 25.9578 9.68033 26.8756 10.5794C27.7931 11.4785 28.5134 12.5249 29.0161 13.6899C29.5361 14.8948 29.7999 16.1757 29.7999 17.4974C29.7999 18.8189 29.5361 20.1001 29.0161 21.3049C28.5134 22.4697 27.7931 23.5161 26.8756 24.4155C25.9578 25.3145 24.8898 26.0203 23.7012 26.5129C22.6349 26.9548 22.134 28.1647 22.585 29.2096C22.9147 29.973 23.6742 30.4662 24.5198 30.4662C24.8016 30.4662 25.0768 30.4115 25.3373 30.3033C26.4053 29.8609 27.4135 29.2921 28.3343 28.6128C28.6433 28.385 28.7052 27.9548 28.4725 27.652C28.24 27.3495 27.8013 27.2889 27.4923 27.5167C26.663 28.1284 25.7545 28.6408 24.7917 29.0398C24.7048 29.0758 24.6132 29.0942 24.5198 29.0942C24.2377 29.0942 23.9846 28.9297 23.8745 28.6753C23.7243 28.3268 23.8911 27.9236 24.2467 27.7762C25.6022 27.2144 26.8197 26.4101 27.8656 25.3853C28.9112 24.3604 29.7323 23.1674 30.3056 21.8392C30.8992 20.4643 31.2 19.0037 31.2 17.4974C31.2 15.9911 30.8992 14.5303 30.3056 13.1554C29.7323 11.8269 28.9112 10.6339 27.8656 9.60957C26.8197 8.58473 25.6022 7.78019 24.2467 7.21838C23.8911 7.07125 23.7243 6.66777 23.8748 6.31958C23.9475 6.15082 24.083 6.01998 24.2563 5.95108C24.4296 5.88219 24.6198 5.88353 24.792 5.95509C26.3145 6.58607 27.6817 7.48914 28.8556 8.63947C30.0293 9.78954 30.9512 11.1292 31.5951 12.6211C32.262 14.1658 32.6001 15.8066 32.6001 17.4974C32.6001 19.1882 32.262 20.8288 31.5951 22.3738C31.424 22.7698 31.2308 23.161 31.0204 23.5356C30.834 23.8675 30.9575 24.2846 31.2962 24.467C31.6349 24.6496 32.0606 24.5287 32.247 24.1968C32.4805 23.781 32.695 23.3474 32.8846 22.9081C33.6248 21.1933 34 19.3727 34 17.4974C34 15.6221 33.6245 13.8016 32.8844 12.0865Z" fill="#F37021"/>
<path d="M26.3548 20.4518C26.8287 19.354 27.0688 18.1896 27.0688 16.9901C27.0688 15.7906 26.8284 14.6261 26.3548 13.5284C25.8975 12.4694 25.2438 11.5188 24.411 10.7028C23.5782 9.88701 22.6081 9.24615 21.5273 8.79808C21.0109 8.5842 20.44 8.57993 19.9201 8.78634C19.4004 8.99301 18.9936 9.38553 18.7753 9.89181C18.5568 10.3981 18.5524 10.9575 18.7633 11.4667C18.974 11.9762 19.3748 12.3746 19.8915 12.5887C20.4714 12.8291 20.993 13.1738 21.4412 13.613C21.8895 14.0523 22.2413 14.5634 22.4866 15.1316C22.7403 15.7193 22.8689 16.3444 22.8689 16.9901C22.8689 17.6357 22.7403 18.2608 22.4866 18.8483C22.2413 19.4168 21.8895 19.9279 21.4412 20.3671C20.993 20.8064 20.4714 21.1511 19.8912 21.3914C18.8249 21.8336 18.3243 23.0435 18.7753 24.0884C19.1048 24.8518 19.8642 25.345 20.7101 25.345C20.9916 25.345 21.2666 25.29 21.5276 25.1818C22.6084 24.734 23.5785 24.0932 24.4113 23.2771C25.2438 22.4611 25.8978 21.5105 26.3548 20.4518ZM20.9821 23.9183C20.8949 23.9546 20.803 23.973 20.7098 23.973C20.4278 23.973 20.1744 23.8085 20.0645 23.554C19.9141 23.2056 20.0812 22.8024 20.4365 22.655C21.1834 22.3455 21.8546 21.902 22.431 21.3372C23.0076 20.7722 23.46 20.1148 23.7758 19.3829C24.1028 18.6253 24.2685 17.8203 24.2685 16.9901C24.2685 16.1599 24.1028 15.3548 23.7758 14.5973C23.46 13.8654 23.0073 13.208 22.431 12.6429C21.8546 12.0782 21.1834 11.6347 20.4365 11.3252C20.2643 11.2539 20.1308 11.1212 20.0604 10.9514C19.9901 10.7815 19.9918 10.5951 20.0645 10.4264C20.1373 10.2576 20.273 10.1268 20.446 10.0579C20.5311 10.024 20.6202 10.0072 20.7093 10.0072C20.8017 10.0072 20.894 10.0253 20.9818 10.0616C21.8958 10.4405 22.7163 10.9826 23.421 11.6729C24.1254 12.3634 24.6786 13.1674 25.0653 14.063C25.4656 14.9903 25.6686 15.9751 25.6686 16.9901C25.6686 18.005 25.4656 18.9898 25.0653 19.9172C24.6789 20.8128 24.1254 21.6168 23.421 22.307C22.7166 22.9976 21.8958 23.5396 20.9821 23.9183Z" fill="#F37021"/>
<path d="M19.9744 17.4974C19.9744 16.8809 19.8507 16.2819 19.6068 15.7167C19.3716 15.1719 19.0353 14.6833 18.6075 14.264C18.1796 13.8448 17.681 13.5153 17.1248 13.2849C16.0584 12.8429 14.8237 13.3337 14.3727 14.3783C13.9217 15.4235 14.422 16.6333 15.4886 17.0755C15.5448 17.0988 15.5936 17.1311 15.6377 17.1743C15.6813 17.2171 15.7151 17.2659 15.7383 17.3199C15.7625 17.3759 15.7742 17.4339 15.7742 17.4974C15.7742 17.561 15.7625 17.6189 15.7385 17.6745C15.7151 17.7287 15.681 17.7778 15.6374 17.8205C15.5941 17.8633 15.5442 17.8964 15.4892 17.9191C14.9725 18.1332 14.5716 18.5316 14.3607 19.0411C14.1498 19.5503 14.1542 20.1097 14.3724 20.616C14.7019 21.3794 15.4614 21.8726 16.3075 21.8726C16.589 21.8726 16.864 21.8179 17.1245 21.71C17.6807 21.4796 18.1794 21.1503 18.6075 20.7308C19.0356 20.3116 19.3716 19.8227 19.6068 19.2779C19.8507 18.7129 19.9744 18.1137 19.9744 17.4974ZM18.3173 18.7434C18.1527 19.1247 17.9172 19.467 17.6175 19.7607C17.3177 20.0545 16.9684 20.2852 16.5792 20.4464C16.492 20.4825 16.4004 20.5009 16.3072 20.5009C16.0252 20.5009 15.7718 20.3364 15.662 20.0817C15.5892 19.9129 15.5878 19.7265 15.6579 19.5567C15.7282 19.3869 15.862 19.2542 16.0339 19.1829C16.2563 19.0908 16.4558 18.9589 16.6274 18.7906C16.7991 18.6224 16.9337 18.4267 17.0278 18.2091C17.1248 17.9842 17.1741 17.7447 17.1741 17.4974C17.1741 17.2502 17.125 17.0109 17.0278 16.7856C16.9337 16.5679 16.7991 16.3725 16.6277 16.2042C16.4558 16.036 16.2563 15.9041 16.0339 15.812C15.6786 15.6646 15.5115 15.2614 15.662 14.9132C15.7748 14.6518 16.0347 14.4945 16.3078 14.4945C16.3985 14.4945 16.4909 14.5118 16.5795 14.5487C16.9686 14.7097 17.3177 14.9404 17.6175 15.2344C17.9172 15.5279 18.1527 15.8702 18.3173 16.2512C18.4879 16.6464 18.5742 17.0657 18.5742 17.4974C18.5742 17.9292 18.4879 18.3484 18.3173 18.7434Z" fill="#F37021"/>
<path d="M11.5716 23.7255C10.9882 22.9252 9.95155 22.5784 8.99205 22.8635C8.63562 22.9693 8.29089 23.1063 7.9598 23.2713C7.21286 21.4363 6.82808 19.4446 6.84416 17.4638C6.86023 15.4865 7.27663 13.5033 8.05218 11.6817C8.59719 11.9647 9.18063 12.1663 9.79513 12.2827C9.89405 12.3017 9.99352 12.3108 10.0924 12.3108C10.5898 12.3108 11.0705 12.0795 11.3719 11.6795L16.18 5.30089C16.7653 4.52412 16.7814 3.47045 16.2203 2.67712C16.023 2.38981 15.7886 2.1105 15.5243 1.84721C15.1859 1.51023 14.8054 1.2101 14.394 0.954824C12.0229 -0.515405 8.9054 -0.267341 6.81282 1.55803C6.52396 1.80983 6.49835 2.24348 6.75532 2.52652C7.01257 2.80957 7.45512 2.8344 7.7437 2.5826C9.17109 1.33773 11.2111 1.03573 12.9363 1.75055C12.9112 1.78099 12.887 1.81063 12.8625 1.84081C12.8355 1.87338 12.8088 1.90596 12.7821 1.93854C12.7385 1.99194 12.6954 2.04481 12.6524 2.09768C12.6276 2.12839 12.6025 2.1591 12.5777 2.18954C12.5327 2.24481 12.4883 2.30009 12.4439 2.35509C12.4218 2.38233 12.3995 2.40983 12.3777 2.43734C12.3311 2.49528 12.285 2.55296 12.239 2.61037C12.2199 2.6344 12.2005 2.65843 12.1815 2.68246C12.1316 2.74495 12.0826 2.80663 12.0338 2.86858C12.0191 2.887 12.0041 2.90569 11.9896 2.92439C11.7983 3.16658 11.6138 3.40343 11.4362 3.63493C11.4242 3.65042 11.4125 3.66564 11.4005 3.68113C11.3541 3.74174 11.3081 3.80182 11.2626 3.86164C11.2457 3.8838 11.2293 3.90596 11.2124 3.92786C11.1724 3.98073 11.1323 4.0336 11.0928 4.08594C11.0746 4.10997 11.0566 4.134 11.0386 4.1583C11.0012 4.2077 10.9639 4.25736 10.9274 4.30623C10.9086 4.3316 10.8898 4.3567 10.8713 4.3818C10.8358 4.42933 10.8004 4.47686 10.7655 4.52385C10.7467 4.54922 10.7282 4.57459 10.7097 4.59969C10.6753 4.64615 10.6415 4.69208 10.6077 4.73801C10.5895 4.76311 10.5712 4.78794 10.5532 4.81277C10.52 4.85843 10.4868 4.90383 10.4541 4.94895C10.4363 4.97352 10.4186 4.99782 10.4009 5.02212C10.3682 5.06725 10.3361 5.11211 10.3039 5.1567C10.287 5.1802 10.2701 5.20369 10.2532 5.22719C10.2208 5.27232 10.1886 5.31718 10.1567 5.36204C10.1409 5.3842 10.1251 5.40637 10.1093 5.42853C10.0769 5.47419 10.045 5.51932 10.0131 5.56444C9.99869 5.585 9.98425 5.60556 9.97008 5.62586C9.93629 5.67339 9.90332 5.72065 9.87062 5.76765C9.85863 5.78474 9.84636 5.80209 9.83437 5.81918C9.79813 5.87125 9.76243 5.92305 9.72701 5.97432C9.7191 5.9858 9.71093 5.99729 9.70302 6.00877C9.5714 6.19942 9.44578 6.3842 9.32588 6.56338C9.32015 6.57192 9.3147 6.58047 9.30898 6.58901C9.27546 6.63894 9.24222 6.68861 9.20979 6.73748C9.20025 6.75216 9.19071 6.76631 9.18117 6.78073C9.15283 6.82372 9.12477 6.86618 9.09697 6.90837C9.08607 6.92519 9.07517 6.94201 9.064 6.95884C9.03838 6.99809 9.01304 7.03681 8.98797 7.07526C8.97625 7.09315 8.9648 7.11104 8.95336 7.12893C8.92938 7.16578 8.90567 7.20236 8.88223 7.23868C8.87052 7.2571 8.8588 7.27526 8.84708 7.29342C8.82446 7.32866 8.80212 7.36391 8.78004 7.39862C8.76833 7.41678 8.75661 7.43521 8.74516 7.45336C8.72364 7.48728 8.70238 7.52092 8.6814 7.5543C8.66995 7.57219 8.65878 7.59008 8.64733 7.60797C8.62608 7.64188 8.60537 7.67526 8.58466 7.70837C8.5743 7.72493 8.56395 7.74175 8.55359 7.75804C8.53288 7.79168 8.51244 7.82479 8.49201 7.85764C8.48219 7.87339 8.47238 7.88941 8.46285 7.90517C8.44214 7.93854 8.42197 7.97139 8.40208 8.00397C8.39309 8.01865 8.38409 8.03334 8.37537 8.04776C8.35466 8.08167 8.3345 8.11505 8.31433 8.14843C8.3067 8.16097 8.29907 8.17379 8.29144 8.18608C8.26882 8.22346 8.24702 8.26031 8.22495 8.29689C8.22059 8.30463 8.21568 8.31238 8.21105 8.32012C8.13121 8.45417 8.05627 8.58207 7.98596 8.70383C7.98133 8.71184 7.97697 8.71959 7.97233 8.7276C7.95408 8.75937 7.93609 8.79088 7.91838 8.82186C7.91184 8.83334 7.9053 8.84455 7.89876 8.85604C7.8835 8.88274 7.86851 8.90944 7.85379 8.93561C7.84671 8.94816 7.83962 8.96044 7.83281 8.97299C7.81891 8.99756 7.80529 9.02186 7.79194 9.04562C7.78458 9.05871 7.77749 9.07152 7.77041 9.08434C7.75787 9.10704 7.74534 9.12973 7.73307 9.15163C7.72572 9.16471 7.71863 9.1778 7.71155 9.19062C7.69983 9.21198 7.68838 9.23281 7.67721 9.25363C7.67012 9.26618 7.66331 9.279 7.6565 9.29128C7.64533 9.31211 7.63415 9.33241 7.62353 9.35243C7.61699 9.36445 7.61072 9.3762 7.60418 9.38821C7.59355 9.40797 7.5832 9.4272 7.57311 9.44642C7.56684 9.45791 7.56085 9.46939 7.55485 9.4806C7.54477 9.49929 7.53523 9.51772 7.52542 9.53588C7.5197 9.54709 7.51371 9.55857 7.50771 9.56979C7.49845 9.58715 7.48973 9.60424 7.48073 9.62106C7.47501 9.63201 7.46929 9.64269 7.46384 9.65337C7.45539 9.67019 7.44694 9.68621 7.43877 9.70223C7.43332 9.71291 7.42787 9.72333 7.42242 9.73374C7.41451 9.7495 7.40688 9.76445 7.39898 9.77967C7.39408 9.78955 7.3889 9.79943 7.38427 9.80877C7.37446 9.82827 7.36492 9.84696 7.35565 9.86538C7.35347 9.86992 7.35102 9.87473 7.34857 9.87927C7.33712 9.9025 7.32595 9.92493 7.31505 9.94656C7.31287 9.9511 7.31096 9.9551 7.30878 9.95964C7.30061 9.9762 7.29243 9.99275 7.28453 10.0088C7.28044 10.0168 7.2769 10.0243 7.27308 10.0323C7.26736 10.0438 7.26164 10.0555 7.25619 10.0667C7.2521 10.0758 7.24774 10.0841 7.24365 10.0929C7.23929 10.102 7.23493 10.111 7.23057 10.1199C7.22648 10.1289 7.22212 10.1377 7.21804 10.1463C7.21449 10.154 7.21068 10.162 7.20714 10.1695C7.20305 10.1781 7.19923 10.1863 7.19542 10.1946C7.19215 10.2013 7.18915 10.208 7.18615 10.2144C7.18234 10.2224 7.1788 10.2301 7.17525 10.2376C7.17225 10.2438 7.16953 10.2502 7.1668 10.256C7.16354 10.2632 7.16026 10.2699 7.15727 10.2766C7.15481 10.2822 7.15263 10.2873 7.15018 10.2924C7.14718 10.2988 7.14446 10.3052 7.14146 10.3113C7.13955 10.3159 7.13737 10.3204 7.13547 10.3249C7.13274 10.3308 7.13029 10.3367 7.12784 10.342C7.1262 10.3452 7.12511 10.3482 7.12375 10.3514C7.12102 10.3572 7.11857 10.3631 7.11612 10.3685C7.11503 10.3706 7.11421 10.3725 7.11339 10.3746C7.11094 10.3799 7.10876 10.385 7.10685 10.3896C7.10631 10.3909 7.10576 10.3922 7.10495 10.3936C7.10304 10.3984 7.10113 10.4029 7.0995 10.4069C6.0359 12.5901 5.46337 15.0261 5.44375 17.4534C5.42385 19.8892 5.95933 22.3415 6.9924 24.5458C6.99376 24.5484 6.99567 24.5509 6.99676 24.5538C7.00957 24.5797 7.02319 24.6053 7.03954 24.6302C7.04009 24.6312 7.04281 24.6352 7.04636 24.6406C7.04745 24.6422 7.04854 24.6435 7.0499 24.6456C7.0608 24.6622 7.08069 24.6924 7.10849 24.7346C7.10985 24.7364 7.11094 24.7383 7.1123 24.7402C7.11748 24.7479 7.12293 24.7562 7.12865 24.7647C7.1322 24.7698 7.13547 24.7749 7.13901 24.7805C7.14391 24.788 7.14936 24.796 7.15481 24.804C7.15863 24.8096 7.16217 24.8152 7.16626 24.8211C7.17444 24.8334 7.18316 24.8467 7.19188 24.8601C7.19297 24.8617 7.19406 24.8633 7.19515 24.8649C7.20414 24.8782 7.21368 24.8924 7.22321 24.9071C7.22621 24.9116 7.22921 24.9159 7.23221 24.9204C7.24065 24.933 7.24937 24.946 7.25837 24.9594C7.26327 24.9666 7.26818 24.9738 7.27308 24.9813C7.28153 24.9941 7.29052 25.0075 7.29952 25.0211C7.30388 25.0278 7.30851 25.0344 7.31314 25.0411C7.32404 25.0574 7.33521 25.0742 7.34666 25.0913C7.34966 25.0958 7.35265 25.1004 7.35592 25.1049C7.36819 25.1234 7.38099 25.1423 7.39408 25.1618C7.39735 25.1666 7.40034 25.1714 7.40361 25.1762C7.41724 25.1962 7.43114 25.2168 7.44531 25.2382C7.44885 25.2432 7.45239 25.2486 7.45593 25.2539C7.46901 25.2732 7.4821 25.2926 7.49545 25.3127C7.50199 25.322 7.50853 25.3319 7.51507 25.3415C7.52815 25.3613 7.54177 25.381 7.5554 25.4016C7.55949 25.4072 7.5633 25.4131 7.56739 25.4189C7.5832 25.4424 7.59927 25.4665 7.6159 25.491C7.61971 25.4964 7.62353 25.502 7.62734 25.5076C7.64451 25.533 7.66195 25.5589 7.67994 25.5853C7.68266 25.5896 7.68566 25.5941 7.68865 25.5984C7.70746 25.6259 7.72626 25.6537 7.74588 25.6822C7.74888 25.687 7.75215 25.6918 7.75542 25.6964C7.88731 25.8902 8.03583 26.1079 8.20015 26.3471C8.20124 26.3485 8.20206 26.3498 8.20315 26.3511C8.22822 26.388 8.25411 26.4254 8.27999 26.463C8.28326 26.4678 8.28626 26.4724 8.28953 26.4769C8.31379 26.5121 8.33858 26.5482 8.36365 26.5842C8.36883 26.592 8.37401 26.5995 8.37919 26.6069C8.40262 26.6408 8.42633 26.6753 8.45031 26.71C8.45767 26.7207 8.46503 26.7314 8.47238 26.742C8.49446 26.7738 8.51708 26.8064 8.53942 26.8387C8.54923 26.8531 8.55904 26.867 8.56912 26.8814C8.5912 26.9132 8.61354 26.9455 8.63616 26.9781C8.64624 26.9925 8.65633 27.0072 8.66668 27.0219C8.68957 27.055 8.71274 27.0884 8.73617 27.122C8.74653 27.137 8.75715 27.1519 8.76751 27.1669C8.79067 27.2003 8.81438 27.2342 8.83782 27.2678C8.84899 27.2836 8.85989 27.2993 8.87079 27.3151C8.89504 27.3498 8.91957 27.3848 8.94409 27.42C8.95472 27.4352 8.96535 27.4505 8.97598 27.4657C8.99968 27.4996 9.02366 27.5338 9.04792 27.5682C9.06127 27.5874 9.0749 27.6067 9.08852 27.6262C9.11169 27.6593 9.13485 27.6924 9.15828 27.7258C9.17136 27.7442 9.18444 27.7626 9.19752 27.7813C9.22205 27.8165 9.24712 27.8518 9.27219 27.8873C9.28527 27.9057 9.29808 27.9244 9.31143 27.9428C9.33623 27.9781 9.36103 28.0136 9.38637 28.0494C9.4 28.0689 9.41389 28.0884 9.42779 28.1079C9.45314 28.1439 9.47848 28.18 9.50409 28.2163C9.51881 28.2366 9.53325 28.2571 9.54797 28.278C9.57222 28.3124 9.59702 28.3471 9.62182 28.3821C9.63817 28.4053 9.65479 28.4288 9.67141 28.4521C9.69594 28.4865 9.72047 28.521 9.74499 28.5559C9.76107 28.5781 9.77715 28.6008 9.79295 28.6232C9.81884 28.6595 9.84473 28.6956 9.87089 28.7324C9.88615 28.7538 9.90141 28.7754 9.91694 28.7968C9.94365 28.8347 9.97063 28.8724 9.99788 28.9103C10.0123 28.9308 10.027 28.9511 10.0418 28.9717C10.0706 29.0123 10.0998 29.0529 10.1292 29.094C10.1404 29.1095 10.1518 29.1255 10.163 29.141C10.1952 29.1861 10.2276 29.231 10.2603 29.2764C10.2712 29.2916 10.2821 29.3071 10.2933 29.3223C10.3268 29.369 10.3606 29.4157 10.3944 29.463C10.3985 29.4683 10.4025 29.4742 10.4064 29.4796C10.5734 29.7113 10.7451 29.9485 10.9217 30.1906C10.9288 30.2005 10.9358 30.2101 10.9432 30.22C10.9792 30.2697 11.0157 30.3196 11.0522 30.3698C11.0639 30.3858 11.0754 30.4016 11.0874 30.4176C11.1195 30.4614 11.1517 30.5057 11.1841 30.5501C11.2013 30.573 11.2179 30.5963 11.2351 30.6192C11.2659 30.6614 11.2969 30.7039 11.3283 30.7463C11.3462 30.7709 11.3642 30.7957 11.3825 30.8206C11.4135 30.8627 11.4449 30.9049 11.476 30.9474C11.495 30.9733 11.5141 30.9989 11.5332 31.0248C11.5632 31.0654 11.5931 31.1063 11.6234 31.1471C11.6444 31.1754 11.6651 31.2037 11.6861 31.232C11.7163 31.2729 11.7468 31.3137 11.7771 31.3549C11.7975 31.3826 11.8182 31.4104 11.8387 31.4382C11.8697 31.4796 11.9005 31.5212 11.9316 31.5629C11.9526 31.5912 11.9735 31.6195 11.9948 31.6478C12.0253 31.6889 12.0561 31.73 12.0869 31.7714C12.1093 31.8013 12.1313 31.831 12.1537 31.8609C12.1831 31.9004 12.2128 31.9399 12.2425 31.9797C12.2659 32.0109 12.2894 32.0422 12.3128 32.0734C12.3436 32.1145 12.3747 32.1559 12.4057 32.1973C12.4278 32.2267 12.4499 32.2561 12.472 32.2854C12.5033 32.3271 12.5344 32.3685 12.5657 32.4101C12.5891 32.4411 12.6126 32.4721 12.636 32.5031C12.6668 32.5442 12.6979 32.5853 12.7292 32.6264C12.7524 32.6571 12.7755 32.6878 12.7987 32.7186C12.8309 32.7607 12.863 32.8032 12.8952 32.8457C12.9181 32.8758 12.9409 32.906 12.9638 32.9362C12.996 32.9784 13.0284 33.0208 13.0609 33.0633C13.0688 33.0737 13.0764 33.0841 13.0843 33.0945C12.2719 33.5036 11.3509 33.6854 10.4279 33.6123C9.25175 33.5186 8.14728 33.0123 7.31805 32.1866C7.25428 32.1231 7.19024 32.055 7.13356 31.9949C7.13056 31.9915 7.12729 31.9882 7.12402 31.9848C4.19103 28.989 2.29902 25.2011 1.65291 21.0299C1.04004 17.0739 1.54554 12.9062 3.11436 8.97753C3.37733 8.31905 3.84577 7.49182 4.50659 6.51878C4.72051 6.20343 4.63331 5.77753 4.31148 5.56765C3.98965 5.35777 3.555 5.44348 3.34081 5.75884C2.62494 6.81331 2.11017 7.72813 1.81069 8.47766C0.152211 12.6304 -0.380812 17.0419 0.268844 21.2358C0.958286 25.686 2.97756 29.7292 6.10893 32.9298C6.17161 32.9963 6.24246 33.0713 6.32013 33.1487C7.38508 34.2091 8.80348 34.859 10.3145 34.9794C10.4862 34.9931 10.6576 35 10.8287 35C12.148 35 13.4399 34.5968 14.5136 33.8419C14.7812 33.6539 15.0352 33.4441 15.2692 33.2184C15.5328 32.9645 15.7726 32.6894 15.9819 32.4016C16.0195 32.3498 16.0494 32.2932 16.0712 32.2334L16.2023 31.8718C16.4497 31.1893 16.3124 30.2302 15.8827 29.6408L11.5716 23.7255ZM15.0681 3.4563C15.2891 3.76738 15.2834 4.181 15.0537 4.48594L10.2459 10.8646C10.2031 10.9212 10.1306 10.9495 10.0611 10.9361C9.55614 10.8403 9.07817 10.6707 8.63398 10.4301C8.83564 10.0333 9.17082 9.41358 9.67632 8.59329C9.79622 8.39889 9.92948 8.18714 10.0761 7.95937C10.9721 6.57379 12.2207 4.82132 13.8686 2.80423C13.8702 2.80236 13.8716 2.80049 13.8732 2.79862C13.9626 2.68941 14.0536 2.57913 14.1452 2.46831C14.2787 2.57565 14.4059 2.68967 14.5264 2.80983C14.7316 3.01411 14.9114 3.22826 15.0613 3.44668C15.0638 3.44989 15.066 3.45309 15.0681 3.4563ZM14.8831 31.4117L14.7861 31.6798C14.6373 31.8758 14.47 32.0641 14.2874 32.24C14.2672 32.2595 14.2465 32.279 14.2261 32.2983C14.2204 32.2908 14.2144 32.283 14.2086 32.2756C14.1356 32.1797 14.0631 32.0841 13.9909 31.989C13.9767 31.9704 13.9626 31.9517 13.9484 31.933C13.8844 31.8486 13.8209 31.7647 13.7577 31.6809C13.7448 31.6638 13.732 31.6467 13.719 31.6296C13.6481 31.5356 13.5778 31.4422 13.508 31.349C13.4925 31.3284 13.477 31.3079 13.4617 31.2873C13.3941 31.1973 13.3271 31.1079 13.2606 31.0187C13.2562 31.0128 13.2519 31.0069 13.2472 31.0008C13.1772 30.9068 13.1077 30.8136 13.0385 30.7204C13.023 30.6996 13.0074 30.6788 12.9919 30.6579C12.9238 30.5658 12.8559 30.4742 12.7886 30.3834C12.784 30.377 12.7791 30.3704 12.7742 30.3639C12.7096 30.2766 12.6456 30.1896 12.5821 30.1033C12.5687 30.0852 12.5554 30.067 12.542 30.0489C12.4755 29.9586 12.4096 29.8689 12.3444 29.7797C12.3357 29.7682 12.3275 29.7567 12.3188 29.745C12.26 29.6646 12.2014 29.5845 12.1436 29.5049C12.1311 29.4881 12.1188 29.4713 12.1065 29.4545C12.0439 29.3682 11.9815 29.2828 11.9199 29.1979C11.9076 29.181 11.8956 29.1642 11.8834 29.1477C11.828 29.071 11.773 28.9952 11.7182 28.9196C11.7089 28.9068 11.6997 28.894 11.6904 28.8812C11.6299 28.7976 11.5702 28.7148 11.5111 28.6328C11.4986 28.6152 11.4858 28.5976 11.4732 28.58C11.4149 28.4988 11.3569 28.4181 11.2996 28.3383C11.298 28.3364 11.2966 28.3343 11.2953 28.3322C11.2361 28.2499 11.1781 28.1687 11.1203 28.0878C11.1083 28.0713 11.0966 28.0547 11.0849 28.0384C11.028 27.9586 10.9715 27.8796 10.916 27.8013C10.9127 27.7968 10.9094 27.7922 10.9061 27.7874C10.8533 27.7132 10.8015 27.64 10.75 27.5677C10.7388 27.5517 10.7274 27.5359 10.7162 27.5199C10.6636 27.4456 10.6116 27.372 10.5601 27.2993C10.5516 27.287 10.5432 27.275 10.5344 27.2627C10.4887 27.1981 10.4437 27.134 10.399 27.0707C10.3895 27.0571 10.3799 27.0435 10.3704 27.0302C10.3211 26.9599 10.2723 26.8905 10.2243 26.8219C10.2145 26.808 10.2047 26.7941 10.1952 26.7802C10.1518 26.7185 10.1091 26.6577 10.0671 26.5976C10.0606 26.588 10.0537 26.5784 10.0472 26.5687C10.0003 26.5017 9.95428 26.436 9.90931 26.3709C9.90032 26.3581 9.89133 26.3455 9.88261 26.3327C9.83764 26.2681 9.79322 26.2043 9.7499 26.1418C9.74935 26.141 9.74853 26.1399 9.74799 26.1388C9.70493 26.0769 9.66297 26.0163 9.62127 25.9565C9.61092 25.9412 9.60056 25.9263 9.59048 25.9116C9.54988 25.8531 9.51009 25.7954 9.47139 25.7391C9.46758 25.7335 9.46376 25.7282 9.45995 25.7225C9.42343 25.6694 9.38773 25.6176 9.35258 25.5663C9.34441 25.5546 9.33623 25.5428 9.32833 25.5314C9.29181 25.4782 9.25611 25.4259 9.22123 25.3752C9.21442 25.3653 9.20788 25.3554 9.20107 25.3455C9.16864 25.2985 9.13703 25.2521 9.10624 25.2069C9.1016 25.2005 9.09697 25.1938 9.09261 25.1872C9.05909 25.138 9.02639 25.0902 8.99451 25.0435C8.98769 25.0334 8.98088 25.0235 8.97407 25.0133C8.946 24.9719 8.91848 24.9314 8.89177 24.8921C8.88768 24.8865 8.88387 24.8806 8.88005 24.875C8.8509 24.832 8.82283 24.7904 8.7953 24.7501C8.78904 24.7404 8.7825 24.7311 8.77623 24.7217C8.722 24.6416 8.67159 24.5671 8.62499 24.4977C8.62145 24.4926 8.61818 24.4876 8.61463 24.4825C8.86643 24.3586 9.12804 24.2563 9.39782 24.1762C9.78232 24.0622 10.1982 24.2013 10.4323 24.5228L14.7436 30.4374C14.9095 30.6654 14.9788 31.1479 14.8831 31.4117Z" fill="#F37021"/>
<path d="M30.3069 25.443C29.9486 25.3009 29.5404 25.4702 29.3954 25.8214L29.3782 25.8627C29.2333 26.2139 29.406 26.6136 29.7644 26.756C29.8505 26.7901 29.9393 26.8062 30.0268 26.8062C30.3037 26.8062 30.5658 26.6443 30.6759 26.3776L30.6931 26.3362C30.8381 25.985 30.6653 25.5853 30.3069 25.443Z" fill="#F37021"/>
<path d="M5.28186 4.7124C5.36798 4.74631 5.45682 4.7626 5.54429 4.7626C5.82116 4.7626 6.08305 4.60051 6.19342 4.33375L6.21031 4.29236C6.35529 3.94122 6.18224 3.54148 5.82389 3.39942C5.46554 3.25736 5.05759 3.42665 4.91261 3.77806L4.89544 3.81919C4.75047 4.17033 4.92351 4.57034 5.28186 4.7124Z" fill="#F37021"/>
</svg>
