<svg width="35" height="35" viewBox="0 0 35 35" fill="none" xmlns="http://www.w3.org/2000/svg">
<path d="M33.8379 17.369H31.7871V13.2731C31.7871 12.0926 31.1854 11.05 30.2727 10.4357L20.0372 0.200225C19.7702 -0.0666504 19.3373 -0.0666504 19.0704 0.200225L16.9881 2.28245L14.9059 0.200225C14.7777 0.0720508 14.6038 0 14.4225 0C14.2412 0 14.0673 0.0720508 13.9392 0.200225L4.28415 9.85517H3.89648C2.01182 9.85517 0.478516 11.3885 0.478516 13.2731V19.3514C0.478516 19.7289 0.784561 20.035 1.16211 20.035C1.53966 20.035 1.8457 19.7289 1.8457 19.3514V13.2731C1.8457 12.1423 2.76568 11.2224 3.89648 11.2224H28.3691C29.4999 11.2224 30.4199 12.1423 30.4199 13.2731V17.369H20.0293C17.24 17.369 14.9707 19.6382 14.9707 22.4275C14.9707 25.2169 17.24 27.4861 20.0293 27.4861H30.4199V31.582C30.4199 32.7128 29.4999 33.6328 28.3691 33.6328H3.89648C2.76568 33.6328 1.8457 32.7128 1.8457 31.582V25.5037C1.8457 25.1262 1.53966 24.8201 1.16211 24.8201C0.784561 24.8201 0.478516 25.1262 0.478516 25.5037V31.582C0.478516 33.4667 2.01182 35 3.89648 35H28.3691C30.2538 35 31.7871 33.4667 31.7871 31.582V27.4861H33.8379C34.2154 27.4861 34.5215 27.18 34.5215 26.8025V18.0525C34.5215 17.675 34.2154 17.369 33.8379 17.369ZM6.2177 9.85517L14.4225 1.6504L16.0213 3.24926L9.41534 9.85523L6.2177 9.85517ZM11.349 9.85517L19.5537 1.6504L27.7586 9.85517H11.349ZM33.1543 26.119H20.0293C17.9938 26.119 16.3379 24.4629 16.3379 22.4275C16.3379 20.3921 17.9938 18.7361 20.0293 18.7361H33.1543V26.119Z" fill="black" fill-opacity="0.76"/>
<path d="M20.0293 20.3768C18.8985 20.3768 17.9785 21.2967 17.9785 22.4275C17.9785 23.5584 18.8985 24.4783 20.0293 24.4783C21.1601 24.4783 22.0801 23.5584 22.0801 22.4275C22.0801 21.2967 21.1601 20.3768 20.0293 20.3768ZM20.0293 23.1111C19.6524 23.1111 19.3457 22.8045 19.3457 22.4275C19.3457 22.0506 19.6524 21.744 20.0293 21.744C20.4062 21.744 20.7129 22.0506 20.7129 22.4275C20.7129 22.8045 20.4062 23.1111 20.0293 23.1111Z" fill="black" fill-opacity="0.76"/>
<path d="M1.16211 23.1109C1.34189 23.1109 1.51826 23.0384 1.64541 22.9106C1.77256 22.7835 1.8457 22.6071 1.8457 22.4273C1.8457 22.2476 1.77256 22.0712 1.64541 21.944C1.51826 21.8169 1.34189 21.7438 1.16211 21.7438C0.982324 21.7438 0.805957 21.8168 0.678809 21.944C0.55166 22.0712 0.478516 22.2476 0.478516 22.4273C0.478516 22.6071 0.55166 22.7835 0.678809 22.9106C0.805957 23.0385 0.982324 23.1109 1.16211 23.1109Z" fill="black" fill-opacity="0.76"/>
</svg>
