<svg width="38" height="31" viewBox="0 0 38 31" fill="none" xmlns="http://www.w3.org/2000/svg">
<path d="M10.143 3.72888H5.16701C4.13646 3.72888 3.30103 4.56835 3.30103 5.60388V8.72888C3.30103 9.76442 4.13646 10.6039 5.16701 10.6039H10.143C11.1735 10.6039 12.009 9.76442 12.009 8.72888V5.60388C12.009 4.56835 11.1735 3.72888 10.143 3.72888ZM4.54502 8.72888V5.60388C4.54502 5.2587 4.82349 4.97888 5.16701 4.97888H5.78901V9.35388H5.16701C4.82349 9.35388 4.54502 9.07406 4.54502 8.72888ZM7.033 9.35388V4.97888H8.27699V9.35388H7.033ZM10.765 8.72888C10.765 9.07406 10.4865 9.35388 10.143 9.35388H9.52098V4.97888H10.143C10.4865 4.97888 10.765 5.2587 10.765 5.60388V8.72888Z" fill="#81DE76"/>
<path d="M35.6448 0.603882H2.05703C1.02647 0.603882 0.19104 1.44335 0.19104 2.47888V24.9789C0.19104 26.0144 1.02647 26.8539 2.05703 26.8539H22.5829V29.3539C22.5829 30.0442 23.1398 30.6039 23.8269 30.6039H36.2668C36.9538 30.6039 37.5107 30.0442 37.5107 29.3539V2.47888C37.5107 1.44335 36.6753 0.603882 35.6448 0.603882ZM2.05703 25.6039C1.71351 25.6039 1.43503 25.3241 1.43503 24.9789V23.1039H5.167C5.51052 23.1039 5.789 22.8241 5.789 22.4789C5.789 22.1337 5.51052 21.8539 5.167 21.8539H1.43503V18.1039H24.2623C23.1914 19.0527 22.5794 20.4193 22.5829 21.8539H8.89897C8.55545 21.8539 8.27698 22.1337 8.27698 22.4789C8.27698 22.8241 8.55545 23.1039 8.89897 23.1039H22.5829V25.6039H2.05703ZM30.0468 18.1039C27.6422 18.1039 25.6928 16.1451 25.6928 13.7289C25.6928 11.3126 27.6422 9.35388 30.0468 9.35388C32.4514 9.35388 34.4008 11.3126 34.4008 13.7289C34.398 16.144 32.4503 18.1011 30.0468 18.1039ZM36.2668 29.3539H33.7788V22.4789C33.7788 22.1337 33.5003 21.8539 33.1568 21.8539C32.8133 21.8539 32.5348 22.1337 32.5348 22.4789V29.3539H27.5588V22.4789C27.5588 22.1337 27.2803 21.8539 26.9368 21.8539C26.5933 21.8539 26.3148 22.1337 26.3148 22.4789V29.3539H23.8269V21.8539C23.8225 20.1199 25.0108 18.6129 26.6918 18.2208C28.6758 19.7315 31.4178 19.7315 33.4019 18.2208C35.0828 18.6129 36.2712 20.1199 36.2668 21.8539V29.3539ZM34.4213 17.2289C36.2112 14.9741 36.0138 11.7243 33.9644 9.70494C31.9149 7.68559 28.6775 7.55108 26.4691 9.39353C24.2607 11.236 23.797 14.4583 25.3955 16.8539H1.43503V2.47888C1.43503 2.1337 1.71351 1.85388 2.05703 1.85388H35.6448C35.9883 1.85388 36.2668 2.1337 36.2668 2.47888V18.5414C35.7611 17.9661 35.1293 17.5168 34.4213 17.2289Z" fill="#81DE76"/>
<path d="M15.1189 12.4789C14.7754 12.4789 14.4969 12.7587 14.4969 13.1039V14.3539C14.4969 14.6991 14.7754 14.9789 15.1189 14.9789C15.4624 14.9789 15.7409 14.6991 15.7409 14.3539V13.1039C15.7409 12.7587 15.4624 12.4789 15.1189 12.4789Z" fill="#81DE76"/>
<path d="M17.6069 12.4789C17.2634 12.4789 16.9849 12.7587 16.9849 13.1039V14.3539C16.9849 14.6991 17.2634 14.9789 17.6069 14.9789C17.9504 14.9789 18.2289 14.6991 18.2289 14.3539V13.1039C18.2289 12.7587 17.9504 12.4789 17.6069 12.4789Z" fill="#81DE76"/>
<path d="M20.0949 12.4789C19.7514 12.4789 19.4729 12.7587 19.4729 13.1039V14.3539C19.4729 14.6991 19.7514 14.9789 20.0949 14.9789C20.4384 14.9789 20.7169 14.6991 20.7169 14.3539V13.1039C20.7169 12.7587 20.4384 12.4789 20.0949 12.4789Z" fill="#81DE76"/>
<path d="M22.5829 12.4789C22.2394 12.4789 21.9609 12.7587 21.9609 13.1039V14.3539C21.9609 14.6991 22.2394 14.9789 22.5829 14.9789C22.9264 14.9789 23.2049 14.6991 23.2049 14.3539V13.1039C23.2049 12.7587 22.9264 12.4789 22.5829 12.4789Z" fill="#81DE76"/>
<path d="M3.92302 12.4789C3.5795 12.4789 3.30103 12.7587 3.30103 13.1039V14.3539C3.30103 14.6991 3.5795 14.9789 3.92302 14.9789C4.26654 14.9789 4.54502 14.6991 4.54502 14.3539V13.1039C4.54502 12.7587 4.26654 12.4789 3.92302 12.4789Z" fill="#81DE76"/>
<path d="M6.411 12.4789C6.06748 12.4789 5.789 12.7587 5.789 13.1039V14.3539C5.789 14.6991 6.06748 14.9789 6.411 14.9789C6.75452 14.9789 7.03299 14.6991 7.03299 14.3539V13.1039C7.03299 12.7587 6.75452 12.4789 6.411 12.4789Z" fill="#81DE76"/>
<path d="M8.89897 12.4789C8.55545 12.4789 8.27698 12.7587 8.27698 13.1039V14.3539C8.27698 14.6991 8.55545 14.9789 8.89897 14.9789C9.24249 14.9789 9.52097 14.6991 9.52097 14.3539V13.1039C9.52097 12.7587 9.24249 12.4789 8.89897 12.4789Z" fill="#81DE76"/>
<path d="M11.3869 12.4789C11.0434 12.4789 10.765 12.7587 10.765 13.1039V14.3539C10.765 14.6991 11.0434 14.9789 11.3869 14.9789C11.7305 14.9789 12.0089 14.6991 12.0089 14.3539V13.1039C12.0089 12.7587 11.7305 12.4789 11.3869 12.4789Z" fill="#81DE76"/>
</svg>
